%
M48
M72
T01C0.01200
T02C0.03800
T03C0.04000
T04C0.05118
T05C0.12598
%
T01
X71091Y55790
X115973Y87680
X121879Y41223
X264398Y36105
X289989Y27837
X290776Y42404
X268335Y53821
X45894Y103034
X102981Y195554
X132509Y167994
X211249Y183743
X152194Y166026
X162036Y169963
X164005Y160120
X128572Y49884
X288020Y49884
X282115Y73506
X274241Y108939
X258493Y99097
X256524Y132561
X250619Y150278
X323454Y183743
X59674Y63664
X167942Y65632
X195501Y105002
X191564Y116813
X193532Y124687
X213217Y120750
X232902Y128624
X232902Y140435
X183690Y51853
X165973Y112876
X160068Y89254
X128965Y71931
X58493Y76656
X275243Y49620
X272043Y44820
X288043Y62420
X146443Y57620
X193243Y189220
X306043Y35220
X301243Y35220
X164843Y38820
X308443Y32820
X304843Y29220
X162843Y36420
X255243Y141620
X227243Y107220
X61643Y71620
X147643Y96420
X141243Y92820
X79643Y32020
X177243Y119220
X28443Y51620
X222843Y56420
X87643Y51620
X106043Y48420
X194843Y71220
X74443Y65220
X141243Y87620
X163243Y117220
X44843Y76020
X141243Y80420
X159643Y98820
X168843Y58420
X252843Y124420
X232043Y112020
X202843Y46420
X248843Y60820
X248843Y117620
X178443Y68020
X171243Y63220
T02
X178493Y204451
X178493Y194451
X178493Y184451
X178493Y174451
X178493Y164451
X178493Y154451
X178493Y144451
X178493Y134451
X178493Y124451
X178493Y114451
X178493Y104451
X178493Y94451
X178493Y84451
X178493Y74451
X188493Y74451
X198493Y74451
X208493Y74451
X218493Y74451
X228493Y74451
X238493Y74451
X238493Y84451
X238493Y94451
X238493Y104451
X238493Y114451
X238493Y124451
X238493Y134451
X238493Y144451
X238493Y154451
X238493Y164451
X238493Y174451
X238493Y184451
X238493Y194451
X238493Y204451
X228493Y194451
X228493Y174451
X228493Y164451
X228493Y154451
X208493Y84451
X218493Y84451
X208493Y94451
X208493Y104451
X208493Y114451
X208493Y124451
X218493Y94451
X218493Y104451
X218493Y114451
X218493Y124451
X218493Y134451
X218493Y144451
X208493Y134451
X208493Y144451
T03
X393355Y112975
X393355Y122975
X393080Y162975
X393080Y172975
X153355Y70691
X153355Y60691
X153355Y30691
X153355Y50691
X153355Y80691
X153355Y40691
X270009Y138880
X270009Y148880
X270009Y158880
X270009Y128880
X188808Y61211
X198808Y60211
X208808Y61211
X218808Y60211
X228808Y61211
X149398Y102345
X150398Y112345
X149398Y122345
X150398Y132345
X149398Y142345
X150398Y152345
X361288Y204215
X351288Y204215
X341288Y204215
X331288Y204215
X85698Y204215
X75698Y204215
X65698Y204215
X55698Y204215
X270009Y183664
X270009Y193664
X270009Y203664
X270009Y173664
X374497Y113821
X374497Y123821
X374497Y173821
X374497Y163821
X299497Y113821
X299497Y123821
X299497Y173821
X299497Y153821
X299497Y163821
T04
X33690Y149294
X112430Y149294
T05
X26406Y198506
X390580Y198506
X390580Y31183
X26406Y31183
M30
