G75*
%MOIN*%
%OFA0B0*%
%FSLAX25Y25*%
%IPPOS*%
%LPD*%
%AMOC8*
5,1,8,0,0,1.08239X$1,22.5*
%
%ADD10C,0.00000*%
%ADD11R,0.00295X0.00295*%
%ADD12R,0.01772X0.00295*%
%ADD13R,0.00591X0.00295*%
%ADD14R,0.00886X0.00295*%
%ADD15R,0.02067X0.00295*%
%ADD16R,0.01181X0.00295*%
%ADD17R,0.02362X0.00295*%
%ADD18R,0.01476X0.00295*%
%ADD19R,0.02657X0.00295*%
%ADD20R,0.02953X0.00295*%
%ADD21R,0.03543X0.00295*%
%ADD22R,0.03839X0.00295*%
%ADD23R,0.05315X0.00295*%
%ADD24R,0.06496X0.00295*%
%ADD25R,0.07087X0.00295*%
%ADD26R,0.05610X0.00295*%
%ADD27R,0.07382X0.00295*%
%ADD28R,0.05906X0.00295*%
%ADD29R,0.09154X0.00295*%
%ADD30R,0.06201X0.00295*%
%ADD31R,0.09449X0.00295*%
%ADD32R,0.12106X0.00295*%
%ADD33R,0.10335X0.00295*%
%ADD34R,0.07677X0.00295*%
%ADD35R,0.14764X0.00295*%
%ADD36R,0.07972X0.00295*%
%ADD37R,0.16240X0.00295*%
%ADD38R,0.06791X0.00295*%
%ADD39R,0.22441X0.00295*%
%ADD40R,0.22146X0.00295*%
%ADD41R,0.08858X0.00295*%
%ADD42R,0.20965X0.00295*%
%ADD43R,0.20374X0.00295*%
%ADD44R,0.21555X0.00295*%
%ADD45R,0.18898X0.00295*%
%ADD46R,0.10039X0.00295*%
%ADD47R,0.18602X0.00295*%
%ADD48R,0.27756X0.00295*%
%ADD49R,0.28346X0.00295*%
%ADD50R,0.27461X0.00295*%
%ADD51R,0.27165X0.00295*%
%ADD52R,0.05020X0.00295*%
%ADD53R,0.26575X0.00295*%
%ADD54R,0.28642X0.00295*%
%ADD55R,0.39862X0.00295*%
%ADD56R,0.37205X0.00295*%
%ADD57R,0.38681X0.00295*%
%ADD58R,0.04724X0.00295*%
%ADD59R,0.32776X0.00295*%
%ADD60R,0.31299X0.00295*%
%ADD61R,0.29823X0.00295*%
%ADD62R,0.31004X0.00295*%
%ADD63R,0.31890X0.00295*%
%ADD64R,0.30709X0.00295*%
%ADD65R,0.24508X0.00295*%
%ADD66R,0.30413X0.00295*%
%ADD67R,0.23917X0.00295*%
%ADD68R,0.29232X0.00295*%
%ADD69R,0.25689X0.00295*%
%ADD70R,0.20669X0.00295*%
%ADD71R,0.12697X0.00295*%
%ADD72R,0.04429X0.00295*%
%ADD73R,0.14469X0.00295*%
%ADD74R,0.13878X0.00295*%
%ADD75R,0.03248X0.00295*%
%ADD76R,0.14173X0.00295*%
%ADD77R,0.11811X0.00295*%
%ADD78R,0.13583X0.00295*%
%ADD79R,0.12992X0.00295*%
%ADD80R,0.08563X0.00295*%
%ADD81R,0.10925X0.00295*%
%ADD82R,0.04134X0.00295*%
%ADD83R,0.11220X0.00295*%
%ADD84C,0.07400*%
%ADD85OC8,0.07000*%
%ADD86R,0.07000X0.07000*%
%ADD87C,0.07000*%
%ADD88C,0.05800*%
%ADD89R,0.06000X0.03000*%
%ADD90C,0.07677*%
%ADD91R,0.04724X0.03150*%
%ADD92R,0.03150X0.04724*%
%ADD93R,0.04724X0.04724*%
%ADD94C,0.01600*%
%ADD95C,0.02400*%
%ADD96C,0.01200*%
%ADD97C,0.01000*%
D10*
X0011643Y0016420D02*
X0011643Y0213270D01*
X0405343Y0213270D01*
X0405343Y0016420D01*
X0011643Y0016420D01*
X0020107Y0031183D02*
X0020109Y0031341D01*
X0020115Y0031499D01*
X0020125Y0031657D01*
X0020139Y0031815D01*
X0020157Y0031972D01*
X0020178Y0032129D01*
X0020204Y0032285D01*
X0020234Y0032441D01*
X0020267Y0032596D01*
X0020305Y0032749D01*
X0020346Y0032902D01*
X0020391Y0033054D01*
X0020440Y0033205D01*
X0020493Y0033354D01*
X0020549Y0033502D01*
X0020609Y0033648D01*
X0020673Y0033793D01*
X0020741Y0033936D01*
X0020812Y0034078D01*
X0020886Y0034218D01*
X0020964Y0034355D01*
X0021046Y0034491D01*
X0021130Y0034625D01*
X0021219Y0034756D01*
X0021310Y0034885D01*
X0021405Y0035012D01*
X0021502Y0035137D01*
X0021603Y0035259D01*
X0021707Y0035378D01*
X0021814Y0035495D01*
X0021924Y0035609D01*
X0022037Y0035720D01*
X0022152Y0035829D01*
X0022270Y0035934D01*
X0022391Y0036036D01*
X0022514Y0036136D01*
X0022640Y0036232D01*
X0022768Y0036325D01*
X0022898Y0036415D01*
X0023031Y0036501D01*
X0023166Y0036585D01*
X0023302Y0036664D01*
X0023441Y0036741D01*
X0023582Y0036813D01*
X0023724Y0036883D01*
X0023868Y0036948D01*
X0024014Y0037010D01*
X0024161Y0037068D01*
X0024310Y0037123D01*
X0024460Y0037174D01*
X0024611Y0037221D01*
X0024763Y0037264D01*
X0024916Y0037303D01*
X0025071Y0037339D01*
X0025226Y0037370D01*
X0025382Y0037398D01*
X0025538Y0037422D01*
X0025695Y0037442D01*
X0025853Y0037458D01*
X0026010Y0037470D01*
X0026169Y0037478D01*
X0026327Y0037482D01*
X0026485Y0037482D01*
X0026643Y0037478D01*
X0026802Y0037470D01*
X0026959Y0037458D01*
X0027117Y0037442D01*
X0027274Y0037422D01*
X0027430Y0037398D01*
X0027586Y0037370D01*
X0027741Y0037339D01*
X0027896Y0037303D01*
X0028049Y0037264D01*
X0028201Y0037221D01*
X0028352Y0037174D01*
X0028502Y0037123D01*
X0028651Y0037068D01*
X0028798Y0037010D01*
X0028944Y0036948D01*
X0029088Y0036883D01*
X0029230Y0036813D01*
X0029371Y0036741D01*
X0029510Y0036664D01*
X0029646Y0036585D01*
X0029781Y0036501D01*
X0029914Y0036415D01*
X0030044Y0036325D01*
X0030172Y0036232D01*
X0030298Y0036136D01*
X0030421Y0036036D01*
X0030542Y0035934D01*
X0030660Y0035829D01*
X0030775Y0035720D01*
X0030888Y0035609D01*
X0030998Y0035495D01*
X0031105Y0035378D01*
X0031209Y0035259D01*
X0031310Y0035137D01*
X0031407Y0035012D01*
X0031502Y0034885D01*
X0031593Y0034756D01*
X0031682Y0034625D01*
X0031766Y0034491D01*
X0031848Y0034355D01*
X0031926Y0034218D01*
X0032000Y0034078D01*
X0032071Y0033936D01*
X0032139Y0033793D01*
X0032203Y0033648D01*
X0032263Y0033502D01*
X0032319Y0033354D01*
X0032372Y0033205D01*
X0032421Y0033054D01*
X0032466Y0032902D01*
X0032507Y0032749D01*
X0032545Y0032596D01*
X0032578Y0032441D01*
X0032608Y0032285D01*
X0032634Y0032129D01*
X0032655Y0031972D01*
X0032673Y0031815D01*
X0032687Y0031657D01*
X0032697Y0031499D01*
X0032703Y0031341D01*
X0032705Y0031183D01*
X0032703Y0031025D01*
X0032697Y0030867D01*
X0032687Y0030709D01*
X0032673Y0030551D01*
X0032655Y0030394D01*
X0032634Y0030237D01*
X0032608Y0030081D01*
X0032578Y0029925D01*
X0032545Y0029770D01*
X0032507Y0029617D01*
X0032466Y0029464D01*
X0032421Y0029312D01*
X0032372Y0029161D01*
X0032319Y0029012D01*
X0032263Y0028864D01*
X0032203Y0028718D01*
X0032139Y0028573D01*
X0032071Y0028430D01*
X0032000Y0028288D01*
X0031926Y0028148D01*
X0031848Y0028011D01*
X0031766Y0027875D01*
X0031682Y0027741D01*
X0031593Y0027610D01*
X0031502Y0027481D01*
X0031407Y0027354D01*
X0031310Y0027229D01*
X0031209Y0027107D01*
X0031105Y0026988D01*
X0030998Y0026871D01*
X0030888Y0026757D01*
X0030775Y0026646D01*
X0030660Y0026537D01*
X0030542Y0026432D01*
X0030421Y0026330D01*
X0030298Y0026230D01*
X0030172Y0026134D01*
X0030044Y0026041D01*
X0029914Y0025951D01*
X0029781Y0025865D01*
X0029646Y0025781D01*
X0029510Y0025702D01*
X0029371Y0025625D01*
X0029230Y0025553D01*
X0029088Y0025483D01*
X0028944Y0025418D01*
X0028798Y0025356D01*
X0028651Y0025298D01*
X0028502Y0025243D01*
X0028352Y0025192D01*
X0028201Y0025145D01*
X0028049Y0025102D01*
X0027896Y0025063D01*
X0027741Y0025027D01*
X0027586Y0024996D01*
X0027430Y0024968D01*
X0027274Y0024944D01*
X0027117Y0024924D01*
X0026959Y0024908D01*
X0026802Y0024896D01*
X0026643Y0024888D01*
X0026485Y0024884D01*
X0026327Y0024884D01*
X0026169Y0024888D01*
X0026010Y0024896D01*
X0025853Y0024908D01*
X0025695Y0024924D01*
X0025538Y0024944D01*
X0025382Y0024968D01*
X0025226Y0024996D01*
X0025071Y0025027D01*
X0024916Y0025063D01*
X0024763Y0025102D01*
X0024611Y0025145D01*
X0024460Y0025192D01*
X0024310Y0025243D01*
X0024161Y0025298D01*
X0024014Y0025356D01*
X0023868Y0025418D01*
X0023724Y0025483D01*
X0023582Y0025553D01*
X0023441Y0025625D01*
X0023302Y0025702D01*
X0023166Y0025781D01*
X0023031Y0025865D01*
X0022898Y0025951D01*
X0022768Y0026041D01*
X0022640Y0026134D01*
X0022514Y0026230D01*
X0022391Y0026330D01*
X0022270Y0026432D01*
X0022152Y0026537D01*
X0022037Y0026646D01*
X0021924Y0026757D01*
X0021814Y0026871D01*
X0021707Y0026988D01*
X0021603Y0027107D01*
X0021502Y0027229D01*
X0021405Y0027354D01*
X0021310Y0027481D01*
X0021219Y0027610D01*
X0021130Y0027741D01*
X0021046Y0027875D01*
X0020964Y0028011D01*
X0020886Y0028148D01*
X0020812Y0028288D01*
X0020741Y0028430D01*
X0020673Y0028573D01*
X0020609Y0028718D01*
X0020549Y0028864D01*
X0020493Y0029012D01*
X0020440Y0029161D01*
X0020391Y0029312D01*
X0020346Y0029464D01*
X0020305Y0029617D01*
X0020267Y0029770D01*
X0020234Y0029925D01*
X0020204Y0030081D01*
X0020178Y0030237D01*
X0020157Y0030394D01*
X0020139Y0030551D01*
X0020125Y0030709D01*
X0020115Y0030867D01*
X0020109Y0031025D01*
X0020107Y0031183D01*
X0020107Y0198506D02*
X0020109Y0198664D01*
X0020115Y0198822D01*
X0020125Y0198980D01*
X0020139Y0199138D01*
X0020157Y0199295D01*
X0020178Y0199452D01*
X0020204Y0199608D01*
X0020234Y0199764D01*
X0020267Y0199919D01*
X0020305Y0200072D01*
X0020346Y0200225D01*
X0020391Y0200377D01*
X0020440Y0200528D01*
X0020493Y0200677D01*
X0020549Y0200825D01*
X0020609Y0200971D01*
X0020673Y0201116D01*
X0020741Y0201259D01*
X0020812Y0201401D01*
X0020886Y0201541D01*
X0020964Y0201678D01*
X0021046Y0201814D01*
X0021130Y0201948D01*
X0021219Y0202079D01*
X0021310Y0202208D01*
X0021405Y0202335D01*
X0021502Y0202460D01*
X0021603Y0202582D01*
X0021707Y0202701D01*
X0021814Y0202818D01*
X0021924Y0202932D01*
X0022037Y0203043D01*
X0022152Y0203152D01*
X0022270Y0203257D01*
X0022391Y0203359D01*
X0022514Y0203459D01*
X0022640Y0203555D01*
X0022768Y0203648D01*
X0022898Y0203738D01*
X0023031Y0203824D01*
X0023166Y0203908D01*
X0023302Y0203987D01*
X0023441Y0204064D01*
X0023582Y0204136D01*
X0023724Y0204206D01*
X0023868Y0204271D01*
X0024014Y0204333D01*
X0024161Y0204391D01*
X0024310Y0204446D01*
X0024460Y0204497D01*
X0024611Y0204544D01*
X0024763Y0204587D01*
X0024916Y0204626D01*
X0025071Y0204662D01*
X0025226Y0204693D01*
X0025382Y0204721D01*
X0025538Y0204745D01*
X0025695Y0204765D01*
X0025853Y0204781D01*
X0026010Y0204793D01*
X0026169Y0204801D01*
X0026327Y0204805D01*
X0026485Y0204805D01*
X0026643Y0204801D01*
X0026802Y0204793D01*
X0026959Y0204781D01*
X0027117Y0204765D01*
X0027274Y0204745D01*
X0027430Y0204721D01*
X0027586Y0204693D01*
X0027741Y0204662D01*
X0027896Y0204626D01*
X0028049Y0204587D01*
X0028201Y0204544D01*
X0028352Y0204497D01*
X0028502Y0204446D01*
X0028651Y0204391D01*
X0028798Y0204333D01*
X0028944Y0204271D01*
X0029088Y0204206D01*
X0029230Y0204136D01*
X0029371Y0204064D01*
X0029510Y0203987D01*
X0029646Y0203908D01*
X0029781Y0203824D01*
X0029914Y0203738D01*
X0030044Y0203648D01*
X0030172Y0203555D01*
X0030298Y0203459D01*
X0030421Y0203359D01*
X0030542Y0203257D01*
X0030660Y0203152D01*
X0030775Y0203043D01*
X0030888Y0202932D01*
X0030998Y0202818D01*
X0031105Y0202701D01*
X0031209Y0202582D01*
X0031310Y0202460D01*
X0031407Y0202335D01*
X0031502Y0202208D01*
X0031593Y0202079D01*
X0031682Y0201948D01*
X0031766Y0201814D01*
X0031848Y0201678D01*
X0031926Y0201541D01*
X0032000Y0201401D01*
X0032071Y0201259D01*
X0032139Y0201116D01*
X0032203Y0200971D01*
X0032263Y0200825D01*
X0032319Y0200677D01*
X0032372Y0200528D01*
X0032421Y0200377D01*
X0032466Y0200225D01*
X0032507Y0200072D01*
X0032545Y0199919D01*
X0032578Y0199764D01*
X0032608Y0199608D01*
X0032634Y0199452D01*
X0032655Y0199295D01*
X0032673Y0199138D01*
X0032687Y0198980D01*
X0032697Y0198822D01*
X0032703Y0198664D01*
X0032705Y0198506D01*
X0032703Y0198348D01*
X0032697Y0198190D01*
X0032687Y0198032D01*
X0032673Y0197874D01*
X0032655Y0197717D01*
X0032634Y0197560D01*
X0032608Y0197404D01*
X0032578Y0197248D01*
X0032545Y0197093D01*
X0032507Y0196940D01*
X0032466Y0196787D01*
X0032421Y0196635D01*
X0032372Y0196484D01*
X0032319Y0196335D01*
X0032263Y0196187D01*
X0032203Y0196041D01*
X0032139Y0195896D01*
X0032071Y0195753D01*
X0032000Y0195611D01*
X0031926Y0195471D01*
X0031848Y0195334D01*
X0031766Y0195198D01*
X0031682Y0195064D01*
X0031593Y0194933D01*
X0031502Y0194804D01*
X0031407Y0194677D01*
X0031310Y0194552D01*
X0031209Y0194430D01*
X0031105Y0194311D01*
X0030998Y0194194D01*
X0030888Y0194080D01*
X0030775Y0193969D01*
X0030660Y0193860D01*
X0030542Y0193755D01*
X0030421Y0193653D01*
X0030298Y0193553D01*
X0030172Y0193457D01*
X0030044Y0193364D01*
X0029914Y0193274D01*
X0029781Y0193188D01*
X0029646Y0193104D01*
X0029510Y0193025D01*
X0029371Y0192948D01*
X0029230Y0192876D01*
X0029088Y0192806D01*
X0028944Y0192741D01*
X0028798Y0192679D01*
X0028651Y0192621D01*
X0028502Y0192566D01*
X0028352Y0192515D01*
X0028201Y0192468D01*
X0028049Y0192425D01*
X0027896Y0192386D01*
X0027741Y0192350D01*
X0027586Y0192319D01*
X0027430Y0192291D01*
X0027274Y0192267D01*
X0027117Y0192247D01*
X0026959Y0192231D01*
X0026802Y0192219D01*
X0026643Y0192211D01*
X0026485Y0192207D01*
X0026327Y0192207D01*
X0026169Y0192211D01*
X0026010Y0192219D01*
X0025853Y0192231D01*
X0025695Y0192247D01*
X0025538Y0192267D01*
X0025382Y0192291D01*
X0025226Y0192319D01*
X0025071Y0192350D01*
X0024916Y0192386D01*
X0024763Y0192425D01*
X0024611Y0192468D01*
X0024460Y0192515D01*
X0024310Y0192566D01*
X0024161Y0192621D01*
X0024014Y0192679D01*
X0023868Y0192741D01*
X0023724Y0192806D01*
X0023582Y0192876D01*
X0023441Y0192948D01*
X0023302Y0193025D01*
X0023166Y0193104D01*
X0023031Y0193188D01*
X0022898Y0193274D01*
X0022768Y0193364D01*
X0022640Y0193457D01*
X0022514Y0193553D01*
X0022391Y0193653D01*
X0022270Y0193755D01*
X0022152Y0193860D01*
X0022037Y0193969D01*
X0021924Y0194080D01*
X0021814Y0194194D01*
X0021707Y0194311D01*
X0021603Y0194430D01*
X0021502Y0194552D01*
X0021405Y0194677D01*
X0021310Y0194804D01*
X0021219Y0194933D01*
X0021130Y0195064D01*
X0021046Y0195198D01*
X0020964Y0195334D01*
X0020886Y0195471D01*
X0020812Y0195611D01*
X0020741Y0195753D01*
X0020673Y0195896D01*
X0020609Y0196041D01*
X0020549Y0196187D01*
X0020493Y0196335D01*
X0020440Y0196484D01*
X0020391Y0196635D01*
X0020346Y0196787D01*
X0020305Y0196940D01*
X0020267Y0197093D01*
X0020234Y0197248D01*
X0020204Y0197404D01*
X0020178Y0197560D01*
X0020157Y0197717D01*
X0020139Y0197874D01*
X0020125Y0198032D01*
X0020115Y0198190D01*
X0020109Y0198348D01*
X0020107Y0198506D01*
X0384281Y0198506D02*
X0384283Y0198664D01*
X0384289Y0198822D01*
X0384299Y0198980D01*
X0384313Y0199138D01*
X0384331Y0199295D01*
X0384352Y0199452D01*
X0384378Y0199608D01*
X0384408Y0199764D01*
X0384441Y0199919D01*
X0384479Y0200072D01*
X0384520Y0200225D01*
X0384565Y0200377D01*
X0384614Y0200528D01*
X0384667Y0200677D01*
X0384723Y0200825D01*
X0384783Y0200971D01*
X0384847Y0201116D01*
X0384915Y0201259D01*
X0384986Y0201401D01*
X0385060Y0201541D01*
X0385138Y0201678D01*
X0385220Y0201814D01*
X0385304Y0201948D01*
X0385393Y0202079D01*
X0385484Y0202208D01*
X0385579Y0202335D01*
X0385676Y0202460D01*
X0385777Y0202582D01*
X0385881Y0202701D01*
X0385988Y0202818D01*
X0386098Y0202932D01*
X0386211Y0203043D01*
X0386326Y0203152D01*
X0386444Y0203257D01*
X0386565Y0203359D01*
X0386688Y0203459D01*
X0386814Y0203555D01*
X0386942Y0203648D01*
X0387072Y0203738D01*
X0387205Y0203824D01*
X0387340Y0203908D01*
X0387476Y0203987D01*
X0387615Y0204064D01*
X0387756Y0204136D01*
X0387898Y0204206D01*
X0388042Y0204271D01*
X0388188Y0204333D01*
X0388335Y0204391D01*
X0388484Y0204446D01*
X0388634Y0204497D01*
X0388785Y0204544D01*
X0388937Y0204587D01*
X0389090Y0204626D01*
X0389245Y0204662D01*
X0389400Y0204693D01*
X0389556Y0204721D01*
X0389712Y0204745D01*
X0389869Y0204765D01*
X0390027Y0204781D01*
X0390184Y0204793D01*
X0390343Y0204801D01*
X0390501Y0204805D01*
X0390659Y0204805D01*
X0390817Y0204801D01*
X0390976Y0204793D01*
X0391133Y0204781D01*
X0391291Y0204765D01*
X0391448Y0204745D01*
X0391604Y0204721D01*
X0391760Y0204693D01*
X0391915Y0204662D01*
X0392070Y0204626D01*
X0392223Y0204587D01*
X0392375Y0204544D01*
X0392526Y0204497D01*
X0392676Y0204446D01*
X0392825Y0204391D01*
X0392972Y0204333D01*
X0393118Y0204271D01*
X0393262Y0204206D01*
X0393404Y0204136D01*
X0393545Y0204064D01*
X0393684Y0203987D01*
X0393820Y0203908D01*
X0393955Y0203824D01*
X0394088Y0203738D01*
X0394218Y0203648D01*
X0394346Y0203555D01*
X0394472Y0203459D01*
X0394595Y0203359D01*
X0394716Y0203257D01*
X0394834Y0203152D01*
X0394949Y0203043D01*
X0395062Y0202932D01*
X0395172Y0202818D01*
X0395279Y0202701D01*
X0395383Y0202582D01*
X0395484Y0202460D01*
X0395581Y0202335D01*
X0395676Y0202208D01*
X0395767Y0202079D01*
X0395856Y0201948D01*
X0395940Y0201814D01*
X0396022Y0201678D01*
X0396100Y0201541D01*
X0396174Y0201401D01*
X0396245Y0201259D01*
X0396313Y0201116D01*
X0396377Y0200971D01*
X0396437Y0200825D01*
X0396493Y0200677D01*
X0396546Y0200528D01*
X0396595Y0200377D01*
X0396640Y0200225D01*
X0396681Y0200072D01*
X0396719Y0199919D01*
X0396752Y0199764D01*
X0396782Y0199608D01*
X0396808Y0199452D01*
X0396829Y0199295D01*
X0396847Y0199138D01*
X0396861Y0198980D01*
X0396871Y0198822D01*
X0396877Y0198664D01*
X0396879Y0198506D01*
X0396877Y0198348D01*
X0396871Y0198190D01*
X0396861Y0198032D01*
X0396847Y0197874D01*
X0396829Y0197717D01*
X0396808Y0197560D01*
X0396782Y0197404D01*
X0396752Y0197248D01*
X0396719Y0197093D01*
X0396681Y0196940D01*
X0396640Y0196787D01*
X0396595Y0196635D01*
X0396546Y0196484D01*
X0396493Y0196335D01*
X0396437Y0196187D01*
X0396377Y0196041D01*
X0396313Y0195896D01*
X0396245Y0195753D01*
X0396174Y0195611D01*
X0396100Y0195471D01*
X0396022Y0195334D01*
X0395940Y0195198D01*
X0395856Y0195064D01*
X0395767Y0194933D01*
X0395676Y0194804D01*
X0395581Y0194677D01*
X0395484Y0194552D01*
X0395383Y0194430D01*
X0395279Y0194311D01*
X0395172Y0194194D01*
X0395062Y0194080D01*
X0394949Y0193969D01*
X0394834Y0193860D01*
X0394716Y0193755D01*
X0394595Y0193653D01*
X0394472Y0193553D01*
X0394346Y0193457D01*
X0394218Y0193364D01*
X0394088Y0193274D01*
X0393955Y0193188D01*
X0393820Y0193104D01*
X0393684Y0193025D01*
X0393545Y0192948D01*
X0393404Y0192876D01*
X0393262Y0192806D01*
X0393118Y0192741D01*
X0392972Y0192679D01*
X0392825Y0192621D01*
X0392676Y0192566D01*
X0392526Y0192515D01*
X0392375Y0192468D01*
X0392223Y0192425D01*
X0392070Y0192386D01*
X0391915Y0192350D01*
X0391760Y0192319D01*
X0391604Y0192291D01*
X0391448Y0192267D01*
X0391291Y0192247D01*
X0391133Y0192231D01*
X0390976Y0192219D01*
X0390817Y0192211D01*
X0390659Y0192207D01*
X0390501Y0192207D01*
X0390343Y0192211D01*
X0390184Y0192219D01*
X0390027Y0192231D01*
X0389869Y0192247D01*
X0389712Y0192267D01*
X0389556Y0192291D01*
X0389400Y0192319D01*
X0389245Y0192350D01*
X0389090Y0192386D01*
X0388937Y0192425D01*
X0388785Y0192468D01*
X0388634Y0192515D01*
X0388484Y0192566D01*
X0388335Y0192621D01*
X0388188Y0192679D01*
X0388042Y0192741D01*
X0387898Y0192806D01*
X0387756Y0192876D01*
X0387615Y0192948D01*
X0387476Y0193025D01*
X0387340Y0193104D01*
X0387205Y0193188D01*
X0387072Y0193274D01*
X0386942Y0193364D01*
X0386814Y0193457D01*
X0386688Y0193553D01*
X0386565Y0193653D01*
X0386444Y0193755D01*
X0386326Y0193860D01*
X0386211Y0193969D01*
X0386098Y0194080D01*
X0385988Y0194194D01*
X0385881Y0194311D01*
X0385777Y0194430D01*
X0385676Y0194552D01*
X0385579Y0194677D01*
X0385484Y0194804D01*
X0385393Y0194933D01*
X0385304Y0195064D01*
X0385220Y0195198D01*
X0385138Y0195334D01*
X0385060Y0195471D01*
X0384986Y0195611D01*
X0384915Y0195753D01*
X0384847Y0195896D01*
X0384783Y0196041D01*
X0384723Y0196187D01*
X0384667Y0196335D01*
X0384614Y0196484D01*
X0384565Y0196635D01*
X0384520Y0196787D01*
X0384479Y0196940D01*
X0384441Y0197093D01*
X0384408Y0197248D01*
X0384378Y0197404D01*
X0384352Y0197560D01*
X0384331Y0197717D01*
X0384313Y0197874D01*
X0384299Y0198032D01*
X0384289Y0198190D01*
X0384283Y0198348D01*
X0384281Y0198506D01*
X0384281Y0031183D02*
X0384283Y0031341D01*
X0384289Y0031499D01*
X0384299Y0031657D01*
X0384313Y0031815D01*
X0384331Y0031972D01*
X0384352Y0032129D01*
X0384378Y0032285D01*
X0384408Y0032441D01*
X0384441Y0032596D01*
X0384479Y0032749D01*
X0384520Y0032902D01*
X0384565Y0033054D01*
X0384614Y0033205D01*
X0384667Y0033354D01*
X0384723Y0033502D01*
X0384783Y0033648D01*
X0384847Y0033793D01*
X0384915Y0033936D01*
X0384986Y0034078D01*
X0385060Y0034218D01*
X0385138Y0034355D01*
X0385220Y0034491D01*
X0385304Y0034625D01*
X0385393Y0034756D01*
X0385484Y0034885D01*
X0385579Y0035012D01*
X0385676Y0035137D01*
X0385777Y0035259D01*
X0385881Y0035378D01*
X0385988Y0035495D01*
X0386098Y0035609D01*
X0386211Y0035720D01*
X0386326Y0035829D01*
X0386444Y0035934D01*
X0386565Y0036036D01*
X0386688Y0036136D01*
X0386814Y0036232D01*
X0386942Y0036325D01*
X0387072Y0036415D01*
X0387205Y0036501D01*
X0387340Y0036585D01*
X0387476Y0036664D01*
X0387615Y0036741D01*
X0387756Y0036813D01*
X0387898Y0036883D01*
X0388042Y0036948D01*
X0388188Y0037010D01*
X0388335Y0037068D01*
X0388484Y0037123D01*
X0388634Y0037174D01*
X0388785Y0037221D01*
X0388937Y0037264D01*
X0389090Y0037303D01*
X0389245Y0037339D01*
X0389400Y0037370D01*
X0389556Y0037398D01*
X0389712Y0037422D01*
X0389869Y0037442D01*
X0390027Y0037458D01*
X0390184Y0037470D01*
X0390343Y0037478D01*
X0390501Y0037482D01*
X0390659Y0037482D01*
X0390817Y0037478D01*
X0390976Y0037470D01*
X0391133Y0037458D01*
X0391291Y0037442D01*
X0391448Y0037422D01*
X0391604Y0037398D01*
X0391760Y0037370D01*
X0391915Y0037339D01*
X0392070Y0037303D01*
X0392223Y0037264D01*
X0392375Y0037221D01*
X0392526Y0037174D01*
X0392676Y0037123D01*
X0392825Y0037068D01*
X0392972Y0037010D01*
X0393118Y0036948D01*
X0393262Y0036883D01*
X0393404Y0036813D01*
X0393545Y0036741D01*
X0393684Y0036664D01*
X0393820Y0036585D01*
X0393955Y0036501D01*
X0394088Y0036415D01*
X0394218Y0036325D01*
X0394346Y0036232D01*
X0394472Y0036136D01*
X0394595Y0036036D01*
X0394716Y0035934D01*
X0394834Y0035829D01*
X0394949Y0035720D01*
X0395062Y0035609D01*
X0395172Y0035495D01*
X0395279Y0035378D01*
X0395383Y0035259D01*
X0395484Y0035137D01*
X0395581Y0035012D01*
X0395676Y0034885D01*
X0395767Y0034756D01*
X0395856Y0034625D01*
X0395940Y0034491D01*
X0396022Y0034355D01*
X0396100Y0034218D01*
X0396174Y0034078D01*
X0396245Y0033936D01*
X0396313Y0033793D01*
X0396377Y0033648D01*
X0396437Y0033502D01*
X0396493Y0033354D01*
X0396546Y0033205D01*
X0396595Y0033054D01*
X0396640Y0032902D01*
X0396681Y0032749D01*
X0396719Y0032596D01*
X0396752Y0032441D01*
X0396782Y0032285D01*
X0396808Y0032129D01*
X0396829Y0031972D01*
X0396847Y0031815D01*
X0396861Y0031657D01*
X0396871Y0031499D01*
X0396877Y0031341D01*
X0396879Y0031183D01*
X0396877Y0031025D01*
X0396871Y0030867D01*
X0396861Y0030709D01*
X0396847Y0030551D01*
X0396829Y0030394D01*
X0396808Y0030237D01*
X0396782Y0030081D01*
X0396752Y0029925D01*
X0396719Y0029770D01*
X0396681Y0029617D01*
X0396640Y0029464D01*
X0396595Y0029312D01*
X0396546Y0029161D01*
X0396493Y0029012D01*
X0396437Y0028864D01*
X0396377Y0028718D01*
X0396313Y0028573D01*
X0396245Y0028430D01*
X0396174Y0028288D01*
X0396100Y0028148D01*
X0396022Y0028011D01*
X0395940Y0027875D01*
X0395856Y0027741D01*
X0395767Y0027610D01*
X0395676Y0027481D01*
X0395581Y0027354D01*
X0395484Y0027229D01*
X0395383Y0027107D01*
X0395279Y0026988D01*
X0395172Y0026871D01*
X0395062Y0026757D01*
X0394949Y0026646D01*
X0394834Y0026537D01*
X0394716Y0026432D01*
X0394595Y0026330D01*
X0394472Y0026230D01*
X0394346Y0026134D01*
X0394218Y0026041D01*
X0394088Y0025951D01*
X0393955Y0025865D01*
X0393820Y0025781D01*
X0393684Y0025702D01*
X0393545Y0025625D01*
X0393404Y0025553D01*
X0393262Y0025483D01*
X0393118Y0025418D01*
X0392972Y0025356D01*
X0392825Y0025298D01*
X0392676Y0025243D01*
X0392526Y0025192D01*
X0392375Y0025145D01*
X0392223Y0025102D01*
X0392070Y0025063D01*
X0391915Y0025027D01*
X0391760Y0024996D01*
X0391604Y0024968D01*
X0391448Y0024944D01*
X0391291Y0024924D01*
X0391133Y0024908D01*
X0390976Y0024896D01*
X0390817Y0024888D01*
X0390659Y0024884D01*
X0390501Y0024884D01*
X0390343Y0024888D01*
X0390184Y0024896D01*
X0390027Y0024908D01*
X0389869Y0024924D01*
X0389712Y0024944D01*
X0389556Y0024968D01*
X0389400Y0024996D01*
X0389245Y0025027D01*
X0389090Y0025063D01*
X0388937Y0025102D01*
X0388785Y0025145D01*
X0388634Y0025192D01*
X0388484Y0025243D01*
X0388335Y0025298D01*
X0388188Y0025356D01*
X0388042Y0025418D01*
X0387898Y0025483D01*
X0387756Y0025553D01*
X0387615Y0025625D01*
X0387476Y0025702D01*
X0387340Y0025781D01*
X0387205Y0025865D01*
X0387072Y0025951D01*
X0386942Y0026041D01*
X0386814Y0026134D01*
X0386688Y0026230D01*
X0386565Y0026330D01*
X0386444Y0026432D01*
X0386326Y0026537D01*
X0386211Y0026646D01*
X0386098Y0026757D01*
X0385988Y0026871D01*
X0385881Y0026988D01*
X0385777Y0027107D01*
X0385676Y0027229D01*
X0385579Y0027354D01*
X0385484Y0027481D01*
X0385393Y0027610D01*
X0385304Y0027741D01*
X0385220Y0027875D01*
X0385138Y0028011D01*
X0385060Y0028148D01*
X0384986Y0028288D01*
X0384915Y0028430D01*
X0384847Y0028573D01*
X0384783Y0028718D01*
X0384723Y0028864D01*
X0384667Y0029012D01*
X0384614Y0029161D01*
X0384565Y0029312D01*
X0384520Y0029464D01*
X0384479Y0029617D01*
X0384441Y0029770D01*
X0384408Y0029925D01*
X0384378Y0030081D01*
X0384352Y0030237D01*
X0384331Y0030394D01*
X0384313Y0030551D01*
X0384299Y0030709D01*
X0384289Y0030867D01*
X0384283Y0031025D01*
X0384281Y0031183D01*
D11*
X0363020Y0032069D03*
X0361544Y0032955D03*
X0360954Y0032955D03*
X0360954Y0032660D03*
X0360658Y0032069D03*
X0359477Y0032955D03*
X0359477Y0033250D03*
X0358591Y0032955D03*
X0358001Y0033841D03*
X0357410Y0033841D03*
X0357115Y0034431D03*
X0355639Y0035022D03*
X0356524Y0036203D03*
X0357115Y0036203D03*
X0356820Y0036794D03*
X0356229Y0036794D03*
X0356524Y0037384D03*
X0355934Y0032365D03*
X0355934Y0032069D03*
X0356229Y0031774D03*
X0355639Y0031774D03*
X0355343Y0032069D03*
X0354457Y0031774D03*
X0350028Y0033250D03*
X0348257Y0033546D03*
X0347961Y0033250D03*
X0347961Y0032955D03*
X0352391Y0042404D03*
X0330540Y0048605D03*
X0330540Y0048900D03*
X0329064Y0048014D03*
X0328178Y0047128D03*
X0327587Y0047128D03*
X0324930Y0045652D03*
X0324044Y0045357D03*
X0323454Y0045061D03*
X0321387Y0042994D03*
X0345304Y0060711D03*
X0352095Y0065140D03*
X0353276Y0066026D03*
X0363020Y0061597D03*
X0363611Y0061302D03*
X0364202Y0061006D03*
X0365678Y0060711D03*
X0366859Y0059825D03*
X0366859Y0059530D03*
X0368040Y0063073D03*
X0368040Y0063959D03*
X0364202Y0068093D03*
X0368926Y0072522D03*
X0369812Y0072522D03*
X0370698Y0073703D03*
X0371879Y0073113D03*
X0372765Y0073113D03*
X0372765Y0072817D03*
X0373946Y0072522D03*
X0374536Y0071636D03*
X0375127Y0071636D03*
X0368040Y0075180D03*
X0367450Y0075475D03*
X0367154Y0075180D03*
X0366859Y0074884D03*
X0366859Y0074589D03*
X0366269Y0074884D03*
X0366564Y0075475D03*
X0366859Y0075770D03*
X0366269Y0075770D03*
X0365678Y0075475D03*
X0365087Y0075180D03*
X0365383Y0073998D03*
X0364792Y0073703D03*
X0365678Y0072817D03*
X0363316Y0075770D03*
X0362135Y0075180D03*
X0366564Y0056872D03*
D12*
X0365530Y0056282D03*
X0363463Y0057758D03*
X0363463Y0058644D03*
X0362282Y0061302D03*
X0366416Y0060416D03*
X0367007Y0061597D03*
X0367302Y0065435D03*
X0366121Y0066026D03*
X0366416Y0066617D03*
X0363759Y0066912D03*
X0362873Y0066026D03*
X0363759Y0064550D03*
X0356672Y0063664D03*
X0353424Y0065140D03*
X0356967Y0067207D03*
X0357853Y0068683D03*
X0359920Y0071636D03*
X0362873Y0071046D03*
X0361692Y0074294D03*
X0363168Y0074589D03*
X0365826Y0074294D03*
X0371141Y0073998D03*
X0372912Y0071636D03*
X0355786Y0059825D03*
X0353424Y0058054D03*
X0356081Y0057168D03*
X0345747Y0059530D03*
X0345452Y0060416D03*
X0344861Y0059825D03*
X0343680Y0060711D03*
X0342204Y0060120D03*
X0338660Y0058939D03*
X0335412Y0055396D03*
X0332164Y0049491D03*
X0323306Y0051262D03*
X0320353Y0049195D03*
X0345156Y0045061D03*
X0348995Y0040337D03*
X0355491Y0038861D03*
X0361101Y0031774D03*
D13*
X0361396Y0032069D03*
X0361692Y0032365D03*
X0362578Y0032365D03*
X0359625Y0032365D03*
X0359625Y0032069D03*
X0358444Y0033250D03*
X0358148Y0033546D03*
X0357853Y0034136D03*
X0357853Y0034431D03*
X0356967Y0034136D03*
X0357263Y0033546D03*
X0357853Y0032365D03*
X0356967Y0032069D03*
X0354605Y0032069D03*
X0352833Y0034727D03*
X0351948Y0034727D03*
X0351948Y0035022D03*
X0351652Y0034431D03*
X0351062Y0034727D03*
X0351062Y0035022D03*
X0351357Y0036203D03*
X0350471Y0036203D03*
X0349881Y0037975D03*
X0350176Y0034136D03*
X0349585Y0033841D03*
X0355786Y0037384D03*
X0356081Y0037089D03*
X0356672Y0035908D03*
X0339841Y0047719D03*
X0337479Y0046833D03*
X0332164Y0049195D03*
X0330983Y0049195D03*
X0331278Y0048309D03*
X0329802Y0048014D03*
X0328326Y0047424D03*
X0327440Y0046833D03*
X0326554Y0045947D03*
X0325668Y0045947D03*
X0325078Y0045357D03*
X0322715Y0044766D03*
X0322125Y0044471D03*
X0328621Y0043585D03*
X0319763Y0048900D03*
X0343680Y0060120D03*
X0344270Y0059530D03*
X0344861Y0060120D03*
X0348109Y0061302D03*
X0349881Y0061597D03*
X0350767Y0062187D03*
X0349585Y0063369D03*
X0351357Y0064550D03*
X0351948Y0063959D03*
X0352243Y0064550D03*
X0352833Y0063959D03*
X0353719Y0064254D03*
X0354900Y0065140D03*
X0354015Y0066026D03*
X0357263Y0064550D03*
X0357558Y0064254D03*
X0358148Y0064550D03*
X0358444Y0064254D03*
X0358148Y0063664D03*
X0359330Y0064254D03*
X0360215Y0064254D03*
X0361101Y0064254D03*
X0362282Y0063664D03*
X0363759Y0063369D03*
X0364054Y0063073D03*
X0364940Y0063073D03*
X0365826Y0063369D03*
X0365826Y0062187D03*
X0366711Y0061892D03*
X0367893Y0063369D03*
X0366711Y0064254D03*
X0366711Y0065140D03*
X0365826Y0065140D03*
X0365235Y0064550D03*
X0364940Y0065731D03*
X0365530Y0066321D03*
X0364940Y0066617D03*
X0364054Y0066617D03*
X0363463Y0066321D03*
X0361692Y0066617D03*
X0362282Y0068979D03*
X0361987Y0069569D03*
X0361101Y0069569D03*
X0363168Y0068979D03*
X0364940Y0067798D03*
X0366711Y0067502D03*
X0367893Y0066617D03*
X0367597Y0064845D03*
X0364644Y0060711D03*
X0365235Y0060120D03*
X0365235Y0059235D03*
X0365530Y0058939D03*
X0366121Y0059235D03*
X0366121Y0059530D03*
X0366711Y0058939D03*
X0366121Y0056577D03*
X0363463Y0058939D03*
X0363759Y0059530D03*
X0363168Y0059825D03*
X0362873Y0060416D03*
X0363168Y0061006D03*
X0363463Y0060711D03*
X0363759Y0060416D03*
X0362282Y0061006D03*
X0361987Y0060416D03*
X0361987Y0058644D03*
X0358148Y0059530D03*
X0357853Y0058054D03*
X0358444Y0061302D03*
X0354310Y0059825D03*
X0353424Y0059825D03*
X0359034Y0066617D03*
X0359920Y0072522D03*
X0361101Y0073998D03*
X0363168Y0074294D03*
X0362578Y0075475D03*
X0364054Y0076065D03*
X0364349Y0075180D03*
X0364644Y0074589D03*
X0364644Y0073998D03*
X0365530Y0074589D03*
X0366121Y0075180D03*
X0365530Y0075770D03*
X0366121Y0076065D03*
X0367597Y0074589D03*
X0368778Y0074294D03*
X0369074Y0073703D03*
X0369664Y0073998D03*
X0369664Y0074294D03*
X0369959Y0073703D03*
X0369664Y0072817D03*
X0369074Y0072227D03*
X0371141Y0072522D03*
X0371731Y0072817D03*
X0371436Y0073408D03*
X0371436Y0073703D03*
X0372322Y0073703D03*
X0373503Y0073113D03*
X0373207Y0072227D03*
X0372617Y0071931D03*
X0371731Y0071931D03*
X0365530Y0071046D03*
D14*
X0365678Y0070160D03*
X0364497Y0071046D03*
X0364792Y0072817D03*
X0364202Y0074294D03*
X0363906Y0074884D03*
X0363611Y0075475D03*
X0364202Y0075770D03*
X0364792Y0075475D03*
X0365087Y0076065D03*
X0365087Y0074884D03*
X0363020Y0073408D03*
X0361839Y0073408D03*
X0360658Y0073408D03*
X0361544Y0074589D03*
X0360658Y0068683D03*
X0360363Y0068093D03*
X0359477Y0068683D03*
X0361544Y0068093D03*
X0362725Y0066617D03*
X0363906Y0067798D03*
X0364202Y0067502D03*
X0364497Y0066321D03*
X0364497Y0066026D03*
X0365678Y0063959D03*
X0366269Y0063664D03*
X0366859Y0063369D03*
X0367154Y0063073D03*
X0366564Y0062778D03*
X0365973Y0063073D03*
X0364792Y0063369D03*
X0364792Y0060416D03*
X0365678Y0059825D03*
X0366859Y0060120D03*
X0367745Y0061892D03*
X0367745Y0062778D03*
X0367745Y0064254D03*
X0367745Y0065140D03*
X0367745Y0065731D03*
X0367745Y0066026D03*
X0369812Y0071636D03*
X0370107Y0072227D03*
X0370698Y0072817D03*
X0370402Y0073408D03*
X0370698Y0074294D03*
X0372765Y0073408D03*
X0373650Y0071931D03*
X0374241Y0072227D03*
X0374831Y0071931D03*
X0368040Y0074884D03*
X0357410Y0066321D03*
X0355934Y0065140D03*
X0356524Y0064254D03*
X0355343Y0067207D03*
X0352686Y0065435D03*
X0351505Y0063664D03*
X0351800Y0063073D03*
X0351209Y0062778D03*
X0350028Y0062778D03*
X0350324Y0061892D03*
X0348847Y0062778D03*
X0348552Y0061597D03*
X0347371Y0061597D03*
X0343237Y0059825D03*
X0342646Y0057463D03*
X0337627Y0055691D03*
X0335265Y0055101D03*
X0331426Y0048900D03*
X0329064Y0047128D03*
X0325816Y0045652D03*
X0320796Y0043585D03*
X0335265Y0046243D03*
X0337627Y0047719D03*
X0338808Y0047719D03*
X0344713Y0044766D03*
X0352391Y0042699D03*
X0353867Y0042404D03*
X0355934Y0037680D03*
X0356524Y0036498D03*
X0357115Y0035613D03*
X0357115Y0035317D03*
X0356820Y0035022D03*
X0357410Y0034727D03*
X0357410Y0033250D03*
X0356820Y0032365D03*
X0356229Y0032660D03*
X0355048Y0032365D03*
X0353867Y0034727D03*
X0351209Y0035613D03*
X0350914Y0035908D03*
X0350619Y0036794D03*
X0350324Y0037089D03*
X0350324Y0037384D03*
X0349733Y0038565D03*
X0348847Y0034136D03*
X0348552Y0033841D03*
X0360658Y0032365D03*
X0358887Y0058054D03*
X0360954Y0058644D03*
X0360363Y0060120D03*
X0364497Y0058939D03*
X0360363Y0065140D03*
X0359772Y0064845D03*
D15*
X0364202Y0062187D03*
X0361839Y0060711D03*
X0361544Y0059825D03*
X0361249Y0057758D03*
X0358296Y0057168D03*
X0357410Y0058644D03*
X0356229Y0058939D03*
X0360068Y0061302D03*
X0365678Y0058644D03*
X0365678Y0057758D03*
X0367154Y0064550D03*
X0365973Y0064845D03*
X0353867Y0064550D03*
X0350028Y0063073D03*
X0343237Y0060416D03*
X0340875Y0058939D03*
X0336446Y0057168D03*
X0335855Y0055691D03*
X0349143Y0040632D03*
X0355639Y0039156D03*
X0355639Y0034727D03*
X0358296Y0032660D03*
X0352095Y0034136D03*
X0351209Y0033841D03*
D16*
X0353129Y0034431D03*
X0350767Y0036498D03*
X0350176Y0037680D03*
X0349881Y0038270D03*
X0349585Y0038861D03*
X0349290Y0039451D03*
X0352538Y0042994D03*
X0355786Y0038270D03*
X0355786Y0037975D03*
X0357558Y0032955D03*
X0336889Y0047424D03*
X0330097Y0048309D03*
X0329211Y0047719D03*
X0326554Y0042994D03*
X0324782Y0042994D03*
X0321239Y0043880D03*
X0344566Y0059235D03*
X0348109Y0062187D03*
X0349585Y0062187D03*
X0350176Y0063664D03*
X0350767Y0063959D03*
X0354310Y0066321D03*
X0356081Y0067502D03*
X0359034Y0065140D03*
X0359625Y0066026D03*
X0361101Y0066026D03*
X0362578Y0067502D03*
X0363168Y0068093D03*
X0361987Y0068683D03*
X0364940Y0067207D03*
X0365530Y0067502D03*
X0365235Y0068093D03*
X0365235Y0065435D03*
X0364349Y0063959D03*
X0365826Y0062483D03*
X0367007Y0063959D03*
X0367597Y0063664D03*
X0366711Y0060711D03*
X0364940Y0059530D03*
X0364349Y0059825D03*
X0366416Y0058054D03*
X0360215Y0058054D03*
X0357853Y0060416D03*
X0359920Y0061892D03*
X0361396Y0061892D03*
X0359920Y0063369D03*
X0360215Y0063959D03*
X0359330Y0063664D03*
X0355196Y0059235D03*
X0356081Y0058349D03*
X0359034Y0070750D03*
X0359330Y0071341D03*
X0360215Y0072817D03*
X0362578Y0071931D03*
X0363759Y0073703D03*
X0363168Y0075180D03*
X0367597Y0074294D03*
X0368778Y0074589D03*
X0370550Y0071931D03*
X0371141Y0071636D03*
X0372617Y0072522D03*
X0373798Y0072817D03*
D17*
X0362873Y0073998D03*
X0361692Y0073703D03*
X0361396Y0071341D03*
X0359330Y0070455D03*
X0358444Y0069274D03*
X0359330Y0067207D03*
X0361396Y0066912D03*
X0362282Y0063959D03*
X0361987Y0063369D03*
X0361101Y0061597D03*
X0360806Y0059235D03*
X0363463Y0059235D03*
X0364644Y0061597D03*
X0354900Y0058644D03*
X0348404Y0061892D03*
X0346042Y0061302D03*
X0341318Y0059825D03*
X0339546Y0059235D03*
X0336889Y0057463D03*
X0331574Y0052443D03*
X0322420Y0043290D03*
X0348995Y0041518D03*
X0348995Y0041223D03*
X0348995Y0040928D03*
X0355491Y0040337D03*
X0355491Y0040042D03*
X0355491Y0039746D03*
X0355491Y0039451D03*
X0354605Y0034136D03*
X0350471Y0033546D03*
X0352538Y0064845D03*
X0354605Y0065435D03*
X0355786Y0066912D03*
D18*
X0355934Y0066321D03*
X0354753Y0066617D03*
X0356524Y0067798D03*
X0357706Y0067502D03*
X0358296Y0067798D03*
X0358591Y0065731D03*
X0357410Y0065140D03*
X0355934Y0064550D03*
X0355048Y0064254D03*
X0360363Y0066617D03*
X0361544Y0067207D03*
X0363316Y0067207D03*
X0363611Y0065731D03*
X0365678Y0066912D03*
X0366269Y0065731D03*
X0367154Y0066321D03*
X0367745Y0066912D03*
X0368040Y0067502D03*
X0368926Y0071931D03*
X0371879Y0072227D03*
X0373650Y0071046D03*
X0362430Y0074884D03*
X0358591Y0070160D03*
X0360954Y0063664D03*
X0362430Y0059530D03*
X0362725Y0057463D03*
X0363611Y0056282D03*
X0364792Y0055396D03*
X0359477Y0058644D03*
X0353572Y0059235D03*
X0341465Y0056577D03*
X0339103Y0055691D03*
X0337922Y0058644D03*
X0322568Y0049195D03*
X0326702Y0046243D03*
X0327883Y0046538D03*
X0321977Y0044176D03*
X0349143Y0040042D03*
X0349143Y0039746D03*
X0349438Y0039156D03*
X0351505Y0035317D03*
X0354753Y0034431D03*
X0355639Y0038565D03*
X0367154Y0062187D03*
X0367450Y0062483D03*
D19*
X0366269Y0061006D03*
X0364202Y0063664D03*
X0363020Y0065435D03*
X0361544Y0062187D03*
X0360068Y0060416D03*
X0360068Y0059530D03*
X0355934Y0058054D03*
X0358001Y0063959D03*
X0357115Y0066617D03*
X0358591Y0066912D03*
X0360363Y0071931D03*
X0367154Y0073703D03*
X0367450Y0068093D03*
X0351800Y0064254D03*
X0342351Y0059235D03*
X0330245Y0052739D03*
X0335265Y0045061D03*
X0345304Y0045357D03*
X0349143Y0044471D03*
X0349438Y0044766D03*
X0349143Y0043880D03*
X0349143Y0043585D03*
X0349143Y0043290D03*
X0349143Y0042994D03*
X0349143Y0042699D03*
X0348847Y0041813D03*
X0355639Y0041518D03*
X0355639Y0041223D03*
X0355639Y0040928D03*
X0355639Y0040632D03*
X0355934Y0042109D03*
X0355934Y0042404D03*
D20*
X0355786Y0041813D03*
X0348995Y0042109D03*
X0348995Y0042404D03*
X0348995Y0044176D03*
X0336889Y0047128D03*
X0328621Y0052443D03*
X0339251Y0057168D03*
X0354900Y0063959D03*
X0360215Y0067502D03*
X0361101Y0065731D03*
X0359034Y0069569D03*
X0362578Y0071636D03*
X0361987Y0072522D03*
X0362578Y0072817D03*
X0367302Y0073998D03*
X0367597Y0072817D03*
X0367893Y0070160D03*
X0367302Y0067207D03*
X0365235Y0058349D03*
X0365235Y0057463D03*
D21*
X0364940Y0057168D03*
X0363168Y0062483D03*
X0340137Y0057463D03*
X0349585Y0045061D03*
X0355491Y0042699D03*
X0325963Y0043290D03*
D22*
X0336741Y0055987D03*
X0337331Y0056872D03*
X0338217Y0058054D03*
X0357706Y0060120D03*
X0359772Y0057463D03*
X0365973Y0061302D03*
X0364202Y0061892D03*
X0360658Y0064550D03*
X0361249Y0067798D03*
X0355639Y0042994D03*
D23*
X0354900Y0043290D03*
X0354900Y0043585D03*
X0338070Y0054806D03*
X0337774Y0056577D03*
X0345156Y0056577D03*
X0360215Y0058939D03*
X0358739Y0065435D03*
X0362282Y0070160D03*
X0366121Y0068388D03*
X0328326Y0052148D03*
X0332459Y0047128D03*
D24*
X0338660Y0045947D03*
X0324782Y0043585D03*
X0338365Y0056282D03*
X0360215Y0058349D03*
X0365826Y0069569D03*
D25*
X0348995Y0059235D03*
X0357853Y0056872D03*
X0325963Y0043880D03*
D26*
X0337331Y0045652D03*
X0355048Y0043880D03*
X0365678Y0072227D03*
D27*
X0332607Y0046538D03*
X0326702Y0044176D03*
D28*
X0336593Y0054215D03*
X0349881Y0059530D03*
X0365826Y0068683D03*
X0369074Y0071046D03*
X0366711Y0073408D03*
X0354900Y0044176D03*
D29*
X0353276Y0061302D03*
X0355048Y0061597D03*
X0327883Y0044766D03*
X0327292Y0044471D03*
X0325225Y0050376D03*
D30*
X0323158Y0049786D03*
X0354753Y0044471D03*
X0355048Y0044766D03*
X0355048Y0045061D03*
X0359772Y0068388D03*
X0368040Y0073113D03*
D31*
X0328621Y0045061D03*
D32*
X0332017Y0045357D03*
D33*
X0326406Y0050672D03*
X0352981Y0045357D03*
X0351800Y0060416D03*
D34*
X0355196Y0061892D03*
X0330393Y0045652D03*
X0324192Y0050081D03*
D35*
X0351062Y0045652D03*
D36*
X0331131Y0045947D03*
D37*
X0350324Y0045947D03*
D38*
X0333493Y0047719D03*
X0332607Y0047424D03*
X0331131Y0046243D03*
X0349438Y0059825D03*
D39*
X0347223Y0046243D03*
D40*
X0347666Y0046538D03*
X0355048Y0055987D03*
D41*
X0354605Y0063369D03*
X0361396Y0062778D03*
X0365235Y0070455D03*
X0332459Y0046833D03*
D42*
X0348552Y0046833D03*
D43*
X0348847Y0047128D03*
X0349733Y0057758D03*
D44*
X0348552Y0047424D03*
D45*
X0349881Y0047719D03*
D46*
X0335707Y0048014D03*
X0350471Y0060120D03*
X0364940Y0070750D03*
D47*
X0350324Y0048014D03*
D48*
X0346928Y0050376D03*
X0347223Y0050672D03*
X0345747Y0048309D03*
D49*
X0345747Y0048605D03*
X0346633Y0050081D03*
D50*
X0346190Y0048900D03*
D51*
X0346633Y0049195D03*
X0350176Y0055396D03*
D52*
X0345894Y0061006D03*
X0356524Y0064845D03*
X0366269Y0068979D03*
X0322272Y0049491D03*
D53*
X0346928Y0049491D03*
D54*
X0346190Y0049786D03*
D55*
X0341465Y0050967D03*
D56*
X0343089Y0051262D03*
D57*
X0342646Y0051557D03*
D58*
X0341318Y0055987D03*
X0338956Y0058349D03*
X0326849Y0051853D03*
X0354310Y0062778D03*
X0355196Y0065731D03*
X0360511Y0066321D03*
X0359330Y0068979D03*
X0366711Y0069274D03*
X0362282Y0073113D03*
D59*
X0346780Y0053034D03*
X0345894Y0051853D03*
D60*
X0346928Y0052148D03*
X0348109Y0053624D03*
D61*
X0347961Y0052443D03*
D62*
X0347371Y0052739D03*
D63*
X0347519Y0053329D03*
D64*
X0348404Y0053920D03*
D65*
X0352095Y0054215D03*
D66*
X0349438Y0054510D03*
D67*
X0352981Y0054806D03*
D68*
X0350619Y0055101D03*
D69*
X0352981Y0055691D03*
D70*
X0352243Y0056282D03*
D71*
X0354457Y0056577D03*
X0348552Y0058939D03*
X0369221Y0071341D03*
D72*
X0366564Y0071636D03*
X0365678Y0071931D03*
X0365973Y0072522D03*
X0363906Y0064254D03*
X0355343Y0059530D03*
X0363316Y0058054D03*
X0363906Y0056872D03*
X0363316Y0056577D03*
X0341465Y0059530D03*
D73*
X0346190Y0058644D03*
X0346780Y0056872D03*
X0353276Y0060711D03*
D74*
X0347961Y0057168D03*
D75*
X0357706Y0059235D03*
X0358591Y0059825D03*
X0362725Y0060120D03*
X0361249Y0057168D03*
X0353867Y0063664D03*
X0358001Y0068093D03*
X0360068Y0071046D03*
X0360954Y0072227D03*
X0367154Y0067798D03*
X0337627Y0057758D03*
D76*
X0350471Y0057463D03*
D77*
X0346337Y0058054D03*
D78*
X0348404Y0058349D03*
D79*
X0355196Y0061006D03*
X0354605Y0062483D03*
D80*
X0355639Y0062187D03*
D81*
X0358001Y0063073D03*
D82*
X0362578Y0064845D03*
X0363168Y0065140D03*
X0361987Y0069274D03*
X0356672Y0066026D03*
D83*
X0363463Y0069865D03*
D84*
X0393355Y0112975D03*
X0393355Y0122975D03*
X0393080Y0162975D03*
X0393080Y0172975D03*
X0228808Y0061211D03*
X0218808Y0060211D03*
X0208808Y0061211D03*
X0198808Y0060211D03*
X0188808Y0061211D03*
X0149398Y0102345D03*
X0150398Y0112345D03*
X0149398Y0122345D03*
X0150398Y0132345D03*
X0149398Y0142345D03*
X0150398Y0152345D03*
D85*
X0085698Y0204215D03*
X0075698Y0204215D03*
X0065698Y0204215D03*
X0153355Y0080691D03*
X0153355Y0070691D03*
X0153355Y0060691D03*
X0153355Y0050691D03*
X0153355Y0040691D03*
X0299497Y0123821D03*
X0299497Y0153821D03*
X0299497Y0173821D03*
X0341288Y0204215D03*
X0351288Y0204215D03*
X0361288Y0204215D03*
X0374497Y0173821D03*
X0374497Y0163821D03*
X0374497Y0123821D03*
X0374497Y0113821D03*
D86*
X0299497Y0113821D03*
X0270009Y0128880D03*
X0299497Y0163821D03*
X0270009Y0173664D03*
X0331288Y0204215D03*
X0055698Y0204215D03*
X0153355Y0030691D03*
D87*
X0270009Y0138880D03*
X0270009Y0148880D03*
X0270009Y0158880D03*
X0270009Y0183664D03*
X0270009Y0193664D03*
X0270009Y0203664D03*
D88*
X0238493Y0204451D03*
X0238493Y0194451D03*
X0228493Y0194451D03*
X0238493Y0184451D03*
X0238493Y0174451D03*
X0228493Y0174451D03*
X0228493Y0164451D03*
X0238493Y0164451D03*
X0238493Y0154451D03*
X0228493Y0154451D03*
X0238493Y0144451D03*
X0238493Y0134451D03*
X0218493Y0134451D03*
X0208493Y0134451D03*
X0208493Y0144451D03*
X0218493Y0144451D03*
X0218493Y0124451D03*
X0208493Y0124451D03*
X0208493Y0114451D03*
X0218493Y0114451D03*
X0238493Y0114451D03*
X0238493Y0124451D03*
X0238493Y0104451D03*
X0218493Y0104451D03*
X0208493Y0104451D03*
X0208493Y0094451D03*
X0218493Y0094451D03*
X0218493Y0084451D03*
X0208493Y0084451D03*
X0208493Y0074451D03*
X0198493Y0074451D03*
X0188493Y0074451D03*
X0178493Y0074451D03*
X0178493Y0084451D03*
X0178493Y0094451D03*
X0178493Y0104451D03*
X0178493Y0114451D03*
X0178493Y0124451D03*
X0178493Y0134451D03*
X0178493Y0144451D03*
X0178493Y0154451D03*
X0178493Y0164451D03*
X0178493Y0174451D03*
X0178493Y0184451D03*
X0178493Y0194451D03*
X0178493Y0204451D03*
X0238493Y0094451D03*
X0238493Y0084451D03*
X0238493Y0074451D03*
X0228493Y0074451D03*
X0218493Y0074451D03*
D89*
X0111225Y0063290D03*
X0089225Y0063290D03*
X0081698Y0067975D03*
X0059698Y0067975D03*
X0052170Y0063290D03*
X0030170Y0063290D03*
X0030170Y0048290D03*
X0052170Y0048290D03*
X0059698Y0043605D03*
X0081698Y0043605D03*
X0089225Y0048290D03*
X0111225Y0048290D03*
X0081698Y0028605D03*
X0059698Y0028605D03*
X0059698Y0082975D03*
X0081698Y0082975D03*
D90*
X0112430Y0149294D03*
X0033690Y0149294D03*
D91*
X0051013Y0079018D03*
X0051013Y0071931D03*
X0080540Y0059333D03*
X0080540Y0052246D03*
X0051013Y0039648D03*
X0051013Y0032561D03*
X0021485Y0052246D03*
X0021485Y0059333D03*
X0169123Y0046538D03*
X0178965Y0046538D03*
X0188808Y0046538D03*
X0198650Y0046538D03*
X0208493Y0046538D03*
X0218335Y0046538D03*
X0228178Y0046538D03*
X0238020Y0046538D03*
X0247863Y0046538D03*
X0247863Y0039451D03*
X0238020Y0039451D03*
X0228178Y0039451D03*
X0218335Y0039451D03*
X0208493Y0039451D03*
X0198650Y0039451D03*
X0188808Y0039451D03*
X0178965Y0039451D03*
X0169123Y0039451D03*
D92*
X0103769Y0080396D03*
X0096682Y0080396D03*
X0074241Y0060711D03*
X0067154Y0060711D03*
X0044713Y0080396D03*
X0037627Y0080396D03*
X0067154Y0100081D03*
X0074241Y0100081D03*
D93*
X0074831Y0090239D03*
X0066564Y0090239D03*
X0045304Y0070554D03*
X0037036Y0070554D03*
X0066564Y0050869D03*
X0074831Y0050869D03*
X0096091Y0070554D03*
X0104359Y0070554D03*
X0169123Y0032365D03*
X0178965Y0032365D03*
X0188808Y0032365D03*
X0198650Y0032365D03*
X0208493Y0032365D03*
X0218335Y0032365D03*
X0228178Y0032365D03*
X0238020Y0032365D03*
X0247863Y0032365D03*
X0247863Y0024097D03*
X0238020Y0024097D03*
X0228178Y0024097D03*
X0218335Y0024097D03*
X0208493Y0024097D03*
X0198650Y0024097D03*
X0188808Y0024097D03*
X0178965Y0024097D03*
X0169123Y0024097D03*
D94*
X0169504Y0024412D02*
X0178584Y0024412D01*
X0178584Y0024478D02*
X0178584Y0023716D01*
X0174803Y0023716D01*
X0174803Y0021957D01*
X0173285Y0021957D01*
X0173285Y0023716D01*
X0169504Y0023716D01*
X0169504Y0024478D01*
X0173285Y0024478D01*
X0173285Y0026696D01*
X0173162Y0027154D01*
X0172925Y0027564D01*
X0172590Y0027899D01*
X0172180Y0028136D01*
X0171722Y0028259D01*
X0169504Y0028259D01*
X0169504Y0024478D01*
X0168742Y0024478D01*
X0168742Y0028259D01*
X0166524Y0028259D01*
X0166066Y0028136D01*
X0165655Y0027899D01*
X0165320Y0027564D01*
X0165083Y0027154D01*
X0164961Y0026696D01*
X0164961Y0024478D01*
X0168742Y0024478D01*
X0168742Y0023716D01*
X0164961Y0023716D01*
X0164961Y0021957D01*
X0039203Y0021957D01*
X0039797Y0023189D01*
X0040557Y0028231D01*
X0039797Y0033272D01*
X0037585Y0037865D01*
X0037585Y0037865D01*
X0034117Y0041603D01*
X0029702Y0044152D01*
X0024732Y0045286D01*
X0024732Y0045286D01*
X0019648Y0044905D01*
X0019648Y0044905D01*
X0017180Y0043937D01*
X0017180Y0185753D01*
X0019648Y0184784D01*
X0024732Y0184403D01*
X0029702Y0185538D01*
X0029702Y0185538D01*
X0034117Y0188087D01*
X0034117Y0188087D01*
X0037585Y0191824D01*
X0037585Y0191824D01*
X0039797Y0196418D01*
X0040557Y0201459D01*
X0040557Y0201459D01*
X0039797Y0206500D01*
X0039203Y0207733D01*
X0050398Y0207733D01*
X0050398Y0204415D01*
X0055498Y0204415D01*
X0055498Y0204015D01*
X0055898Y0204015D01*
X0055898Y0198915D01*
X0059435Y0198915D01*
X0059892Y0199038D01*
X0060303Y0199275D01*
X0060638Y0199610D01*
X0060875Y0200020D01*
X0060998Y0200478D01*
X0060998Y0201985D01*
X0063668Y0199315D01*
X0067727Y0199315D01*
X0070598Y0202185D01*
X0070598Y0206245D01*
X0069109Y0207733D01*
X0072286Y0207733D01*
X0070798Y0206245D01*
X0070798Y0202185D01*
X0073668Y0199315D01*
X0077727Y0199315D01*
X0077894Y0199481D01*
X0089656Y0187720D01*
X0175230Y0187720D01*
X0175630Y0188120D01*
X0176113Y0188120D01*
X0176057Y0188097D01*
X0174848Y0186887D01*
X0174193Y0185306D01*
X0174193Y0183596D01*
X0174848Y0182015D01*
X0176043Y0180820D01*
X0176014Y0180820D01*
X0174843Y0179648D01*
X0174814Y0179620D01*
X0172814Y0179620D01*
X0171643Y0178448D01*
X0170043Y0176848D01*
X0170043Y0176048D01*
X0151432Y0157437D01*
X0151413Y0157445D01*
X0149384Y0157445D01*
X0147509Y0156668D01*
X0146075Y0155234D01*
X0145298Y0153359D01*
X0145298Y0151330D01*
X0145551Y0150720D01*
X0144856Y0150720D01*
X0143743Y0149607D01*
X0096056Y0101920D01*
X0077216Y0101920D01*
X0077216Y0103023D01*
X0076396Y0103843D01*
X0072086Y0103843D01*
X0071266Y0103023D01*
X0071266Y0097139D01*
X0072086Y0096319D01*
X0076396Y0096319D01*
X0077216Y0097139D01*
X0077216Y0098120D01*
X0097630Y0098120D01*
X0146243Y0146733D01*
X0146408Y0146567D01*
X0145075Y0145234D01*
X0144298Y0143359D01*
X0144298Y0141330D01*
X0144365Y0141170D01*
X0089643Y0086448D01*
X0089643Y0083648D01*
X0084043Y0078048D01*
X0083643Y0078448D01*
X0083643Y0080075D01*
X0085278Y0080075D01*
X0086098Y0080895D01*
X0086098Y0085055D01*
X0085278Y0085875D01*
X0078118Y0085875D01*
X0077463Y0085220D01*
X0063933Y0085220D01*
X0063278Y0085875D01*
X0056118Y0085875D01*
X0055967Y0085724D01*
X0055671Y0086020D01*
X0053214Y0086020D01*
X0052043Y0084848D01*
X0049243Y0082048D01*
X0049243Y0081993D01*
X0048070Y0081993D01*
X0047688Y0081611D01*
X0047688Y0083338D01*
X0046868Y0084158D01*
X0042559Y0084158D01*
X0041739Y0083338D01*
X0041739Y0077454D01*
X0042364Y0076829D01*
X0042243Y0076537D01*
X0042243Y0075502D01*
X0042582Y0074683D01*
X0042247Y0074593D01*
X0041837Y0074356D01*
X0041501Y0074021D01*
X0041264Y0073611D01*
X0041142Y0073153D01*
X0041142Y0070935D01*
X0044923Y0070935D01*
X0044923Y0070172D01*
X0045685Y0070172D01*
X0045685Y0066391D01*
X0047903Y0066391D01*
X0048361Y0066514D01*
X0048771Y0066751D01*
X0049106Y0067086D01*
X0049343Y0067497D01*
X0049466Y0067954D01*
X0049466Y0068957D01*
X0053955Y0068957D01*
X0054775Y0069777D01*
X0054775Y0069800D01*
X0055298Y0069278D01*
X0055298Y0066190D01*
X0048590Y0066190D01*
X0047770Y0065370D01*
X0047770Y0065220D01*
X0034570Y0065220D01*
X0034570Y0065370D01*
X0033750Y0066190D01*
X0026590Y0066190D01*
X0025770Y0065370D01*
X0025770Y0061776D01*
X0025247Y0061253D01*
X0025247Y0061488D01*
X0024427Y0062308D01*
X0018543Y0062308D01*
X0017723Y0061488D01*
X0017723Y0057178D01*
X0018543Y0056358D01*
X0024427Y0056358D01*
X0025247Y0057178D01*
X0025247Y0057220D01*
X0026871Y0057220D01*
X0030041Y0060390D01*
X0033750Y0060390D01*
X0034570Y0061210D01*
X0034570Y0061220D01*
X0047770Y0061220D01*
X0047770Y0061210D01*
X0048590Y0060390D01*
X0049643Y0060390D01*
X0049643Y0057591D01*
X0056843Y0050391D01*
X0056843Y0046505D01*
X0056570Y0046505D01*
X0056570Y0050370D01*
X0055750Y0051190D01*
X0048590Y0051190D01*
X0047770Y0050370D01*
X0047770Y0050320D01*
X0034570Y0050320D01*
X0034570Y0050370D01*
X0033750Y0051190D01*
X0031043Y0051190D01*
X0031043Y0052137D01*
X0030647Y0053092D01*
X0029915Y0053824D01*
X0028960Y0054220D01*
X0027925Y0054220D01*
X0027504Y0054045D01*
X0027230Y0054320D01*
X0025247Y0054320D01*
X0025247Y0054401D01*
X0024427Y0055221D01*
X0018543Y0055221D01*
X0017723Y0054401D01*
X0017723Y0050092D01*
X0018543Y0049272D01*
X0024427Y0049272D01*
X0025247Y0050092D01*
X0025247Y0050520D01*
X0025656Y0050520D01*
X0025788Y0050387D01*
X0025770Y0050370D01*
X0025770Y0046210D01*
X0026590Y0045390D01*
X0033750Y0045390D01*
X0034570Y0046210D01*
X0034570Y0046520D01*
X0047770Y0046520D01*
X0047770Y0046210D01*
X0048590Y0045390D01*
X0055298Y0045390D01*
X0055298Y0041525D01*
X0055408Y0041414D01*
X0055243Y0041248D01*
X0054871Y0041620D01*
X0054775Y0041620D01*
X0054775Y0041803D01*
X0053955Y0042623D01*
X0048070Y0042623D01*
X0047250Y0041803D01*
X0047250Y0037493D01*
X0048070Y0036673D01*
X0053955Y0036673D01*
X0054058Y0036776D01*
X0054414Y0036420D01*
X0056071Y0036420D01*
X0060356Y0040705D01*
X0063278Y0040705D01*
X0064098Y0041525D01*
X0064098Y0041620D01*
X0077298Y0041620D01*
X0077298Y0041525D01*
X0078118Y0040705D01*
X0085278Y0040705D01*
X0085792Y0041220D01*
X0091756Y0041220D01*
X0086056Y0035520D01*
X0083656Y0035520D01*
X0081737Y0033602D01*
X0081115Y0034224D01*
X0080160Y0034620D01*
X0079125Y0034620D01*
X0078170Y0034224D01*
X0077438Y0033492D01*
X0077043Y0032537D01*
X0077043Y0031502D01*
X0077357Y0030744D01*
X0077333Y0030720D01*
X0064063Y0030720D01*
X0063278Y0031505D01*
X0056118Y0031505D01*
X0055298Y0030685D01*
X0055298Y0029962D01*
X0055043Y0029707D01*
X0054559Y0030191D01*
X0054775Y0030407D01*
X0054775Y0034716D01*
X0053955Y0035536D01*
X0048070Y0035536D01*
X0047250Y0034716D01*
X0047250Y0030407D01*
X0048070Y0029587D01*
X0049789Y0029587D01*
X0052543Y0026833D01*
X0053656Y0025720D01*
X0056103Y0025720D01*
X0056118Y0025705D01*
X0063278Y0025705D01*
X0064098Y0026525D01*
X0064098Y0026920D01*
X0077298Y0026920D01*
X0077298Y0026525D01*
X0078118Y0025705D01*
X0085278Y0025705D01*
X0086098Y0026525D01*
X0086098Y0030685D01*
X0085278Y0031505D01*
X0085015Y0031505D01*
X0085230Y0031720D01*
X0087630Y0031720D01*
X0088743Y0032833D01*
X0103551Y0047641D01*
X0103838Y0046947D01*
X0104570Y0046216D01*
X0105525Y0045820D01*
X0106560Y0045820D01*
X0107023Y0046012D01*
X0107645Y0045390D01*
X0114805Y0045390D01*
X0115625Y0046210D01*
X0115625Y0050370D01*
X0114805Y0051190D01*
X0107645Y0051190D01*
X0107207Y0050752D01*
X0106821Y0050911D01*
X0107230Y0051320D01*
X0118430Y0051320D01*
X0119543Y0052433D01*
X0145543Y0078433D01*
X0145543Y0080033D01*
X0151230Y0085720D01*
X0152830Y0085720D01*
X0153943Y0086833D01*
X0163943Y0096833D01*
X0163943Y0101633D01*
X0174695Y0112385D01*
X0174848Y0112015D01*
X0176057Y0110806D01*
X0177638Y0110151D01*
X0179348Y0110151D01*
X0180929Y0110806D01*
X0182138Y0112015D01*
X0182793Y0113596D01*
X0182793Y0115306D01*
X0182138Y0116887D01*
X0180929Y0118097D01*
X0179787Y0118569D01*
X0179843Y0118702D01*
X0179843Y0119737D01*
X0179624Y0120265D01*
X0180929Y0120806D01*
X0182138Y0122015D01*
X0182793Y0123596D01*
X0182793Y0125306D01*
X0182138Y0126887D01*
X0180929Y0128097D01*
X0179348Y0128751D01*
X0177638Y0128751D01*
X0176057Y0128097D01*
X0174848Y0126887D01*
X0174193Y0125306D01*
X0174193Y0123596D01*
X0174848Y0122015D01*
X0175604Y0121259D01*
X0175038Y0120692D01*
X0174643Y0119737D01*
X0174643Y0119307D01*
X0173943Y0118607D01*
X0173943Y0146833D01*
X0177371Y0150261D01*
X0177638Y0150151D01*
X0179348Y0150151D01*
X0180929Y0150806D01*
X0182138Y0152015D01*
X0182793Y0153596D01*
X0182793Y0155306D01*
X0182138Y0156887D01*
X0180929Y0158097D01*
X0179348Y0158751D01*
X0177638Y0158751D01*
X0176057Y0158097D01*
X0174848Y0156887D01*
X0174193Y0155306D01*
X0174193Y0153596D01*
X0174526Y0152791D01*
X0170143Y0148407D01*
X0170143Y0115607D01*
X0165143Y0110607D01*
X0165143Y0115443D01*
X0165447Y0115747D01*
X0165843Y0116702D01*
X0165843Y0117737D01*
X0165447Y0118692D01*
X0164715Y0119424D01*
X0163760Y0119820D01*
X0162725Y0119820D01*
X0161770Y0119424D01*
X0161038Y0118692D01*
X0160643Y0117737D01*
X0160643Y0116702D01*
X0161038Y0115747D01*
X0161343Y0115443D01*
X0161343Y0109207D01*
X0154498Y0102363D01*
X0154498Y0103359D01*
X0153722Y0105234D01*
X0152287Y0106668D01*
X0150896Y0107245D01*
X0151413Y0107245D01*
X0153287Y0108021D01*
X0154722Y0109456D01*
X0155498Y0111330D01*
X0155498Y0113359D01*
X0154722Y0115234D01*
X0153287Y0116668D01*
X0151413Y0117445D01*
X0150896Y0117445D01*
X0152287Y0118021D01*
X0153722Y0119456D01*
X0154498Y0121330D01*
X0154498Y0123359D01*
X0153722Y0125234D01*
X0152287Y0126668D01*
X0151576Y0126963D01*
X0151686Y0126980D01*
X0152510Y0127248D01*
X0153281Y0127641D01*
X0153981Y0128150D01*
X0154594Y0128762D01*
X0155102Y0129462D01*
X0155495Y0130234D01*
X0155763Y0131057D01*
X0155898Y0131912D01*
X0155898Y0132145D01*
X0150598Y0132145D01*
X0150598Y0132545D01*
X0155898Y0132545D01*
X0155898Y0132778D01*
X0155763Y0133633D01*
X0155495Y0134456D01*
X0155102Y0135228D01*
X0154594Y0135928D01*
X0153981Y0136540D01*
X0153281Y0137049D01*
X0152510Y0137442D01*
X0151686Y0137709D01*
X0151576Y0137727D01*
X0152287Y0138021D01*
X0153722Y0139456D01*
X0154498Y0141330D01*
X0154498Y0143359D01*
X0154349Y0143720D01*
X0155230Y0143720D01*
X0170430Y0158920D01*
X0174030Y0158920D01*
X0175986Y0160877D01*
X0176057Y0160806D01*
X0177638Y0160151D01*
X0179348Y0160151D01*
X0180929Y0160806D01*
X0182138Y0162015D01*
X0182793Y0163596D01*
X0182793Y0165306D01*
X0182138Y0166887D01*
X0180929Y0168097D01*
X0179348Y0168751D01*
X0177638Y0168751D01*
X0176057Y0168097D01*
X0174848Y0166887D01*
X0174193Y0165306D01*
X0174193Y0164457D01*
X0172456Y0162720D01*
X0168856Y0162720D01*
X0167743Y0161607D01*
X0153843Y0147707D01*
X0153408Y0148142D01*
X0154722Y0149456D01*
X0155498Y0151330D01*
X0155498Y0153359D01*
X0154770Y0155118D01*
X0172871Y0173220D01*
X0174043Y0174391D01*
X0174043Y0175191D01*
X0174218Y0175367D01*
X0174193Y0175306D01*
X0174193Y0173596D01*
X0174848Y0172015D01*
X0176057Y0170806D01*
X0177638Y0170151D01*
X0179348Y0170151D01*
X0180929Y0170806D01*
X0182138Y0172015D01*
X0182793Y0173596D01*
X0182793Y0175306D01*
X0182332Y0176420D01*
X0182471Y0176420D01*
X0192687Y0186636D01*
X0192725Y0186620D01*
X0193743Y0186620D01*
X0193743Y0177633D01*
X0194856Y0176520D01*
X0225343Y0146033D01*
X0225343Y0139807D01*
X0222430Y0142719D01*
X0222793Y0143596D01*
X0222793Y0145306D01*
X0222138Y0146887D01*
X0220929Y0148097D01*
X0219348Y0148751D01*
X0217638Y0148751D01*
X0216057Y0148097D01*
X0214848Y0146887D01*
X0214193Y0145306D01*
X0214193Y0143596D01*
X0214848Y0142015D01*
X0216057Y0140806D01*
X0217638Y0140151D01*
X0219348Y0140151D01*
X0219543Y0140232D01*
X0222943Y0136833D01*
X0222943Y0086433D01*
X0224056Y0085320D01*
X0232143Y0077233D01*
X0232143Y0076877D01*
X0232138Y0076887D01*
X0230929Y0078097D01*
X0229348Y0078751D01*
X0227638Y0078751D01*
X0226057Y0078097D01*
X0224848Y0076887D01*
X0224193Y0075306D01*
X0224193Y0073596D01*
X0224848Y0072015D01*
X0226057Y0070806D01*
X0227638Y0070151D01*
X0229348Y0070151D01*
X0230929Y0070806D01*
X0232138Y0072015D01*
X0232143Y0072026D01*
X0232143Y0072007D01*
X0231743Y0071607D01*
X0231743Y0069633D01*
X0232856Y0068520D01*
X0234543Y0066833D01*
X0234543Y0058807D01*
X0226543Y0050807D01*
X0226543Y0049513D01*
X0225236Y0049513D01*
X0224416Y0048692D01*
X0224416Y0047533D01*
X0223630Y0048320D01*
X0222098Y0048320D01*
X0222098Y0048692D01*
X0221278Y0049513D01*
X0215393Y0049513D01*
X0214573Y0048692D01*
X0214573Y0044383D01*
X0215393Y0043563D01*
X0221278Y0043563D01*
X0222098Y0044383D01*
X0222098Y0044478D01*
X0222543Y0044033D01*
X0222543Y0043633D01*
X0223343Y0042833D01*
X0224456Y0041720D01*
X0224530Y0041720D01*
X0224416Y0041606D01*
X0224416Y0037296D01*
X0225236Y0036476D01*
X0226543Y0036476D01*
X0226543Y0036127D01*
X0225236Y0036127D01*
X0224416Y0035307D01*
X0224416Y0029422D01*
X0225236Y0028602D01*
X0231120Y0028602D01*
X0231940Y0029422D01*
X0231940Y0035307D01*
X0231120Y0036127D01*
X0230343Y0036127D01*
X0230343Y0036476D01*
X0231120Y0036476D01*
X0231940Y0037296D01*
X0231940Y0041606D01*
X0231728Y0041818D01*
X0232430Y0042520D01*
X0233543Y0043633D01*
X0233543Y0048033D01*
X0244543Y0059033D01*
X0244543Y0058833D01*
X0245656Y0057720D01*
X0246143Y0057233D01*
X0246143Y0049513D01*
X0244921Y0049513D01*
X0244101Y0048692D01*
X0244101Y0047448D01*
X0243230Y0048320D01*
X0241783Y0048320D01*
X0241783Y0048692D01*
X0240963Y0049513D01*
X0235078Y0049513D01*
X0234258Y0048692D01*
X0234258Y0044383D01*
X0235078Y0043563D01*
X0240963Y0043563D01*
X0241783Y0044383D01*
X0241783Y0044393D01*
X0244335Y0041840D01*
X0244101Y0041606D01*
X0244101Y0037296D01*
X0244921Y0036476D01*
X0246143Y0036476D01*
X0246143Y0036127D01*
X0244921Y0036127D01*
X0244101Y0035307D01*
X0244101Y0029422D01*
X0244921Y0028602D01*
X0250805Y0028602D01*
X0251625Y0029422D01*
X0251625Y0035307D01*
X0250805Y0036127D01*
X0249943Y0036127D01*
X0249943Y0036476D01*
X0250805Y0036476D01*
X0251625Y0037296D01*
X0251625Y0041606D01*
X0251370Y0041861D01*
X0254430Y0044920D01*
X0255543Y0046033D01*
X0255543Y0124407D01*
X0255443Y0124507D01*
X0255443Y0124937D01*
X0255047Y0125892D01*
X0254315Y0126624D01*
X0253360Y0127020D01*
X0252325Y0127020D01*
X0251370Y0126624D01*
X0250638Y0125892D01*
X0250243Y0124937D01*
X0250243Y0123902D01*
X0250638Y0122947D01*
X0251370Y0122216D01*
X0251743Y0122061D01*
X0251743Y0047607D01*
X0251625Y0047489D01*
X0251625Y0048692D01*
X0250805Y0049513D01*
X0249943Y0049513D01*
X0249943Y0058461D01*
X0250315Y0058616D01*
X0251047Y0059347D01*
X0251443Y0060302D01*
X0251443Y0061337D01*
X0251047Y0062292D01*
X0250743Y0062597D01*
X0250743Y0115843D01*
X0251047Y0116147D01*
X0251443Y0117102D01*
X0251443Y0118137D01*
X0251047Y0119092D01*
X0250315Y0119824D01*
X0249360Y0120220D01*
X0248325Y0120220D01*
X0247370Y0119824D01*
X0246638Y0119092D01*
X0246243Y0118137D01*
X0246243Y0117102D01*
X0246638Y0116147D01*
X0246943Y0115843D01*
X0246943Y0108207D01*
X0242430Y0112719D01*
X0242793Y0113596D01*
X0242793Y0115306D01*
X0242138Y0116887D01*
X0240929Y0118097D01*
X0239348Y0118751D01*
X0237638Y0118751D01*
X0236057Y0118097D01*
X0234848Y0116887D01*
X0234193Y0115306D01*
X0234193Y0113596D01*
X0234228Y0113511D01*
X0233515Y0114224D01*
X0232560Y0114620D01*
X0231525Y0114620D01*
X0230570Y0114224D01*
X0229838Y0113492D01*
X0229443Y0112537D01*
X0229443Y0111502D01*
X0229838Y0110547D01*
X0230143Y0110243D01*
X0230143Y0101233D01*
X0231256Y0100120D01*
X0233256Y0098120D01*
X0236113Y0098120D01*
X0236057Y0098097D01*
X0234848Y0096887D01*
X0234193Y0095306D01*
X0234193Y0093596D01*
X0234848Y0092015D01*
X0236057Y0090806D01*
X0237638Y0090151D01*
X0239348Y0090151D01*
X0240929Y0090806D01*
X0242138Y0092015D01*
X0242793Y0093596D01*
X0242793Y0095306D01*
X0242138Y0096887D01*
X0240929Y0098097D01*
X0240873Y0098120D01*
X0241256Y0098120D01*
X0242943Y0096433D01*
X0242943Y0062807D01*
X0238343Y0058207D01*
X0238343Y0068407D01*
X0235943Y0070807D01*
X0235943Y0070833D01*
X0235986Y0070877D01*
X0236057Y0070806D01*
X0237638Y0070151D01*
X0239348Y0070151D01*
X0240929Y0070806D01*
X0242138Y0072015D01*
X0242793Y0073596D01*
X0242793Y0075306D01*
X0242138Y0076887D01*
X0240929Y0078097D01*
X0239348Y0078751D01*
X0237638Y0078751D01*
X0236195Y0078154D01*
X0235943Y0078407D01*
X0235943Y0078807D01*
X0226743Y0088007D01*
X0226743Y0104620D01*
X0227760Y0104620D01*
X0228715Y0105016D01*
X0229447Y0105747D01*
X0229843Y0106702D01*
X0229843Y0107737D01*
X0229447Y0108692D01*
X0229143Y0108997D01*
X0229143Y0147607D01*
X0197543Y0179207D01*
X0197543Y0191207D01*
X0196343Y0192407D01*
X0195230Y0193520D01*
X0184056Y0193520D01*
X0182456Y0191920D01*
X0182043Y0191920D01*
X0182138Y0192015D01*
X0182793Y0193596D01*
X0182793Y0195306D01*
X0182138Y0196887D01*
X0180929Y0198097D01*
X0179348Y0198751D01*
X0177638Y0198751D01*
X0176057Y0198097D01*
X0174848Y0196887D01*
X0174193Y0195306D01*
X0174193Y0193596D01*
X0174848Y0192015D01*
X0174899Y0191964D01*
X0174856Y0191920D01*
X0174056Y0191920D01*
X0173656Y0191520D01*
X0091230Y0191520D01*
X0080581Y0202168D01*
X0080598Y0202185D01*
X0080598Y0206245D01*
X0079109Y0207733D01*
X0082286Y0207733D01*
X0080798Y0206245D01*
X0080798Y0202185D01*
X0083668Y0199315D01*
X0087727Y0199315D01*
X0090598Y0202185D01*
X0090598Y0206245D01*
X0089109Y0207733D01*
X0175128Y0207733D01*
X0174908Y0207513D01*
X0174473Y0206915D01*
X0174137Y0206255D01*
X0173909Y0205552D01*
X0173793Y0204821D01*
X0173793Y0204601D01*
X0178343Y0204601D01*
X0178343Y0204301D01*
X0178643Y0204301D01*
X0178643Y0199751D01*
X0178863Y0199751D01*
X0179593Y0199867D01*
X0180297Y0200096D01*
X0180956Y0200431D01*
X0181555Y0200866D01*
X0182078Y0201389D01*
X0182513Y0201988D01*
X0182849Y0202647D01*
X0183077Y0203351D01*
X0183193Y0204081D01*
X0183193Y0204301D01*
X0178643Y0204301D01*
X0178643Y0204601D01*
X0183193Y0204601D01*
X0183193Y0204821D01*
X0183077Y0205552D01*
X0182849Y0206255D01*
X0182513Y0206915D01*
X0182078Y0207513D01*
X0181858Y0207733D01*
X0235694Y0207733D01*
X0234848Y0206887D01*
X0234193Y0205306D01*
X0234193Y0203596D01*
X0234848Y0202015D01*
X0236057Y0200806D01*
X0237638Y0200151D01*
X0239348Y0200151D01*
X0240929Y0200806D01*
X0242138Y0202015D01*
X0242793Y0203596D01*
X0242793Y0205306D01*
X0242138Y0206887D01*
X0241292Y0207733D01*
X0267148Y0207733D01*
X0265855Y0206439D01*
X0265109Y0204638D01*
X0265109Y0202689D01*
X0265855Y0200888D01*
X0267233Y0199510D01*
X0269034Y0198764D01*
X0270983Y0198764D01*
X0272784Y0199510D01*
X0274163Y0200888D01*
X0274909Y0202689D01*
X0274909Y0204638D01*
X0274163Y0206439D01*
X0272869Y0207733D01*
X0325988Y0207733D01*
X0325988Y0204415D01*
X0331088Y0204415D01*
X0331088Y0204015D01*
X0325988Y0204015D01*
X0325988Y0200478D01*
X0326111Y0200020D01*
X0326348Y0199610D01*
X0326683Y0199275D01*
X0327093Y0199038D01*
X0327551Y0198915D01*
X0331088Y0198915D01*
X0331088Y0204015D01*
X0331488Y0204015D01*
X0331488Y0198915D01*
X0335025Y0198915D01*
X0335483Y0199038D01*
X0335893Y0199275D01*
X0336229Y0199610D01*
X0336466Y0200020D01*
X0336588Y0200478D01*
X0336588Y0201985D01*
X0339259Y0199315D01*
X0343318Y0199315D01*
X0346188Y0202185D01*
X0346188Y0206245D01*
X0344700Y0207733D01*
X0347877Y0207733D01*
X0346388Y0206245D01*
X0346388Y0202185D01*
X0349259Y0199315D01*
X0353318Y0199315D01*
X0356188Y0202185D01*
X0356188Y0206245D01*
X0354700Y0207733D01*
X0357877Y0207733D01*
X0356388Y0206245D01*
X0356388Y0202185D01*
X0359259Y0199315D01*
X0363318Y0199315D01*
X0366188Y0202185D01*
X0366188Y0206245D01*
X0364700Y0207733D01*
X0377769Y0207733D01*
X0376620Y0204008D01*
X0376620Y0198910D01*
X0378123Y0194038D01*
X0380995Y0189826D01*
X0384981Y0186647D01*
X0389726Y0184784D01*
X0389726Y0184784D01*
X0394810Y0184403D01*
X0399781Y0185538D01*
X0399806Y0185553D01*
X0399806Y0044137D01*
X0399781Y0044152D01*
X0394810Y0045286D01*
X0389726Y0044905D01*
X0384981Y0043043D01*
X0384981Y0043043D01*
X0380995Y0039864D01*
X0380995Y0039864D01*
X0378123Y0035652D01*
X0378123Y0035652D01*
X0376620Y0030780D01*
X0376620Y0025682D01*
X0377769Y0021957D01*
X0252025Y0021957D01*
X0252025Y0023716D01*
X0248244Y0023716D01*
X0248244Y0024478D01*
X0247482Y0024478D01*
X0247482Y0028259D01*
X0245264Y0028259D01*
X0244806Y0028136D01*
X0244396Y0027899D01*
X0244060Y0027564D01*
X0243823Y0027154D01*
X0243701Y0026696D01*
X0243701Y0024478D01*
X0247482Y0024478D01*
X0247482Y0023716D01*
X0243701Y0023716D01*
X0243701Y0021957D01*
X0242183Y0021957D01*
X0242183Y0023716D01*
X0238402Y0023716D01*
X0238402Y0024478D01*
X0242183Y0024478D01*
X0242183Y0026696D01*
X0242060Y0027154D01*
X0241823Y0027564D01*
X0241488Y0027899D01*
X0241077Y0028136D01*
X0240620Y0028259D01*
X0238402Y0028259D01*
X0238402Y0024478D01*
X0237639Y0024478D01*
X0237639Y0023716D01*
X0233858Y0023716D01*
X0233858Y0021957D01*
X0232340Y0021957D01*
X0232340Y0023716D01*
X0228559Y0023716D01*
X0228559Y0024478D01*
X0227797Y0024478D01*
X0227797Y0028259D01*
X0225579Y0028259D01*
X0225121Y0028136D01*
X0224711Y0027899D01*
X0224375Y0027564D01*
X0224138Y0027154D01*
X0224016Y0026696D01*
X0224016Y0024478D01*
X0227797Y0024478D01*
X0227797Y0023716D01*
X0224016Y0023716D01*
X0224016Y0021957D01*
X0222498Y0021957D01*
X0222498Y0023716D01*
X0218717Y0023716D01*
X0218717Y0024478D01*
X0222498Y0024478D01*
X0222498Y0026696D01*
X0222375Y0027154D01*
X0222138Y0027564D01*
X0221803Y0027899D01*
X0221392Y0028136D01*
X0220935Y0028259D01*
X0218717Y0028259D01*
X0218717Y0024478D01*
X0217954Y0024478D01*
X0217954Y0023716D01*
X0214173Y0023716D01*
X0214173Y0021957D01*
X0212655Y0021957D01*
X0212655Y0023716D01*
X0208874Y0023716D01*
X0208874Y0024478D01*
X0208112Y0024478D01*
X0208112Y0028259D01*
X0205894Y0028259D01*
X0205436Y0028136D01*
X0205025Y0027899D01*
X0204690Y0027564D01*
X0204453Y0027154D01*
X0204331Y0026696D01*
X0204331Y0024478D01*
X0208112Y0024478D01*
X0208112Y0023716D01*
X0204331Y0023716D01*
X0204331Y0021957D01*
X0202813Y0021957D01*
X0202813Y0023716D01*
X0199032Y0023716D01*
X0199032Y0024478D01*
X0202813Y0024478D01*
X0202813Y0026696D01*
X0202690Y0027154D01*
X0202453Y0027564D01*
X0202118Y0027899D01*
X0201707Y0028136D01*
X0201250Y0028259D01*
X0199031Y0028259D01*
X0199031Y0024478D01*
X0198269Y0024478D01*
X0198269Y0023716D01*
X0194488Y0023716D01*
X0194488Y0021957D01*
X0192970Y0021957D01*
X0192970Y0023716D01*
X0189189Y0023716D01*
X0189189Y0024478D01*
X0188427Y0024478D01*
X0188427Y0028259D01*
X0186209Y0028259D01*
X0185751Y0028136D01*
X0185340Y0027899D01*
X0185005Y0027564D01*
X0184768Y0027154D01*
X0184646Y0026696D01*
X0184646Y0024478D01*
X0188427Y0024478D01*
X0188427Y0023716D01*
X0184646Y0023716D01*
X0184646Y0021957D01*
X0183128Y0021957D01*
X0183128Y0023716D01*
X0179347Y0023716D01*
X0179347Y0024478D01*
X0183128Y0024478D01*
X0183128Y0026696D01*
X0183005Y0027154D01*
X0182768Y0027564D01*
X0182433Y0027899D01*
X0182022Y0028136D01*
X0181565Y0028259D01*
X0179346Y0028259D01*
X0179346Y0024478D01*
X0178584Y0024478D01*
X0174803Y0024478D01*
X0174803Y0026696D01*
X0174926Y0027154D01*
X0175163Y0027564D01*
X0175498Y0027899D01*
X0175908Y0028136D01*
X0176366Y0028259D01*
X0178584Y0028259D01*
X0178584Y0024478D01*
X0179347Y0024412D02*
X0188427Y0024412D01*
X0189189Y0024412D02*
X0198269Y0024412D01*
X0198269Y0024478D02*
X0194488Y0024478D01*
X0194488Y0026696D01*
X0194611Y0027154D01*
X0194848Y0027564D01*
X0195183Y0027899D01*
X0195593Y0028136D01*
X0196051Y0028259D01*
X0198269Y0028259D01*
X0198269Y0024478D01*
X0199032Y0024412D02*
X0208112Y0024412D01*
X0208874Y0024412D02*
X0217954Y0024412D01*
X0217954Y0024478D02*
X0214173Y0024478D01*
X0214173Y0026696D01*
X0214296Y0027154D01*
X0214533Y0027564D01*
X0214868Y0027899D01*
X0215278Y0028136D01*
X0215736Y0028259D01*
X0217954Y0028259D01*
X0217954Y0024478D01*
X0218717Y0024412D02*
X0227797Y0024412D01*
X0228559Y0024412D02*
X0237639Y0024412D01*
X0237639Y0024478D02*
X0233858Y0024478D01*
X0233858Y0026696D01*
X0233981Y0027154D01*
X0234218Y0027564D01*
X0234553Y0027899D01*
X0234963Y0028136D01*
X0235421Y0028259D01*
X0237639Y0028259D01*
X0237639Y0024478D01*
X0238402Y0024412D02*
X0247482Y0024412D01*
X0248244Y0024412D02*
X0377011Y0024412D01*
X0376620Y0026011D02*
X0252025Y0026011D01*
X0252025Y0026696D02*
X0252025Y0024478D01*
X0248244Y0024478D01*
X0248244Y0028259D01*
X0250462Y0028259D01*
X0250920Y0028136D01*
X0251330Y0027899D01*
X0251666Y0027564D01*
X0251903Y0027154D01*
X0252025Y0026696D01*
X0251621Y0027609D02*
X0302776Y0027609D01*
X0302638Y0027747D02*
X0303370Y0027016D01*
X0304325Y0026620D01*
X0305360Y0026620D01*
X0306315Y0027016D01*
X0307047Y0027747D01*
X0307443Y0028702D01*
X0307443Y0029133D01*
X0308530Y0030220D01*
X0308960Y0030220D01*
X0309915Y0030616D01*
X0310647Y0031347D01*
X0311043Y0032302D01*
X0311043Y0033337D01*
X0310647Y0034292D01*
X0309915Y0035024D01*
X0308960Y0035420D01*
X0308643Y0035420D01*
X0308643Y0035737D01*
X0308247Y0036692D01*
X0307515Y0037424D01*
X0306560Y0037820D01*
X0305525Y0037820D01*
X0304570Y0037424D01*
X0304266Y0037120D01*
X0303019Y0037120D01*
X0302715Y0037424D01*
X0301760Y0037820D01*
X0300725Y0037820D01*
X0299770Y0037424D01*
X0299038Y0036692D01*
X0298643Y0035737D01*
X0298643Y0034702D01*
X0299038Y0033747D01*
X0299770Y0033016D01*
X0300725Y0032620D01*
X0301760Y0032620D01*
X0302715Y0033016D01*
X0303019Y0033320D01*
X0304266Y0033320D01*
X0304570Y0033016D01*
X0305525Y0032620D01*
X0305556Y0032620D01*
X0304756Y0031820D01*
X0304325Y0031820D01*
X0303370Y0031424D01*
X0302638Y0030692D01*
X0302243Y0029737D01*
X0302243Y0028702D01*
X0302638Y0027747D01*
X0302243Y0029208D02*
X0251411Y0029208D01*
X0251625Y0030806D02*
X0302752Y0030806D01*
X0305341Y0032405D02*
X0251625Y0032405D01*
X0251625Y0034003D02*
X0298932Y0034003D01*
X0298643Y0035602D02*
X0251330Y0035602D01*
X0251529Y0037200D02*
X0299546Y0037200D01*
X0302939Y0037200D02*
X0304346Y0037200D01*
X0307739Y0037200D02*
X0348185Y0037200D01*
X0348185Y0037247D02*
X0348185Y0036952D01*
X0348481Y0036657D01*
X0348481Y0036361D01*
X0348776Y0036066D01*
X0348776Y0035684D01*
X0347824Y0035684D01*
X0347529Y0035389D01*
X0346709Y0034568D01*
X0346709Y0034273D01*
X0346414Y0033978D01*
X0346414Y0032228D01*
X0347234Y0031407D01*
X0348689Y0031407D01*
X0349143Y0031861D01*
X0349301Y0031703D01*
X0350756Y0031703D01*
X0351051Y0031998D01*
X0352232Y0031998D01*
X0352528Y0032293D01*
X0352823Y0032293D01*
X0352910Y0032380D01*
X0352910Y0031046D01*
X0353730Y0030226D01*
X0356957Y0030226D01*
X0357252Y0030522D01*
X0357842Y0030522D01*
X0358138Y0030817D01*
X0358454Y0030817D01*
X0358750Y0030522D01*
X0359340Y0030522D01*
X0359635Y0030226D01*
X0362567Y0030226D01*
X0362862Y0030522D01*
X0363748Y0030522D01*
X0364568Y0031342D01*
X0364568Y0032797D01*
X0364273Y0033092D01*
X0364273Y0033092D01*
X0363453Y0033912D01*
X0362862Y0033912D01*
X0362272Y0034503D01*
X0360500Y0034503D01*
X0360205Y0034798D01*
X0359548Y0034798D01*
X0359548Y0035159D01*
X0359253Y0035454D01*
X0359253Y0035454D01*
X0358958Y0035750D01*
X0358958Y0036340D01*
X0358663Y0036635D01*
X0358663Y0036931D01*
X0358367Y0037226D01*
X0358367Y0037521D01*
X0358072Y0037817D01*
X0358072Y0038112D01*
X0357914Y0038270D01*
X0358072Y0038428D01*
X0358072Y0039609D01*
X0358367Y0039905D01*
X0358367Y0040791D01*
X0358663Y0041086D01*
X0358663Y0041972D01*
X0358958Y0042267D01*
X0358958Y0042857D01*
X0359253Y0043153D01*
X0359253Y0043743D01*
X0359548Y0044039D01*
X0359548Y0044629D01*
X0359844Y0044924D01*
X0359844Y0045515D01*
X0360434Y0046106D01*
X0360434Y0046401D01*
X0360730Y0046696D01*
X0360730Y0046991D01*
X0361025Y0047287D01*
X0361025Y0047582D01*
X0361320Y0047877D01*
X0361320Y0048172D01*
X0361615Y0048468D01*
X0361615Y0048763D01*
X0362206Y0049354D01*
X0362206Y0049649D01*
X0362272Y0049715D01*
X0362567Y0050010D01*
X0362862Y0050305D01*
X0363157Y0050600D01*
X0363453Y0050896D01*
X0364273Y0051716D01*
X0364273Y0052011D01*
X0364339Y0052077D01*
X0364929Y0052667D01*
X0365224Y0052963D01*
X0365520Y0053258D01*
X0365815Y0053553D01*
X0366110Y0053848D01*
X0366930Y0054669D01*
X0366996Y0054734D01*
X0367816Y0055554D01*
X0367816Y0055850D01*
X0368111Y0056145D01*
X0368111Y0057031D01*
X0368407Y0057326D01*
X0368407Y0059098D01*
X0368702Y0059393D01*
X0368702Y0059983D01*
X0368997Y0060279D01*
X0369293Y0060574D01*
X0369293Y0060869D01*
X0369588Y0061165D01*
X0369588Y0065889D01*
X0370178Y0066480D01*
X0370178Y0068251D01*
X0370474Y0068546D01*
X0370474Y0069137D01*
X0370769Y0069432D01*
X0370769Y0069432D01*
X0370835Y0069498D01*
X0374968Y0069498D01*
X0375264Y0069793D01*
X0376150Y0069793D01*
X0376970Y0070613D01*
X0376970Y0072068D01*
X0376674Y0072364D01*
X0376674Y0072659D01*
X0375854Y0073479D01*
X0375789Y0073479D01*
X0375789Y0073545D01*
X0374968Y0074365D01*
X0374673Y0074365D01*
X0374378Y0074660D01*
X0374083Y0074660D01*
X0373787Y0074955D01*
X0373492Y0074955D01*
X0373197Y0075251D01*
X0372902Y0075251D01*
X0372606Y0075546D01*
X0372016Y0075546D01*
X0371720Y0075841D01*
X0370244Y0075841D01*
X0369949Y0076137D01*
X0369358Y0076137D01*
X0369063Y0076432D01*
X0368768Y0076727D01*
X0368472Y0076727D01*
X0368177Y0077022D01*
X0367882Y0077022D01*
X0367587Y0077318D01*
X0367291Y0077318D01*
X0366996Y0077613D01*
X0363179Y0077613D01*
X0362883Y0077318D01*
X0362588Y0077318D01*
X0362293Y0077022D01*
X0361702Y0077022D01*
X0361407Y0076727D01*
X0360817Y0076137D01*
X0360521Y0076137D01*
X0359701Y0075317D01*
X0359701Y0075316D01*
X0359406Y0075021D01*
X0359406Y0074726D01*
X0359111Y0074431D01*
X0358815Y0074135D01*
X0358520Y0073840D01*
X0358225Y0073545D01*
X0358225Y0073250D01*
X0357930Y0072954D01*
X0357634Y0072659D01*
X0357634Y0072364D01*
X0357339Y0072068D01*
X0357044Y0071773D01*
X0357044Y0071478D01*
X0356453Y0070887D01*
X0356453Y0070592D01*
X0356158Y0070297D01*
X0355863Y0070002D01*
X0355567Y0069706D01*
X0355567Y0069411D01*
X0355502Y0069345D01*
X0355206Y0069345D01*
X0354911Y0069050D01*
X0354616Y0068755D01*
X0354320Y0068755D01*
X0353730Y0068164D01*
X0353435Y0068164D01*
X0353139Y0067869D01*
X0352844Y0067574D01*
X0352549Y0067574D01*
X0351958Y0066983D01*
X0351663Y0066983D01*
X0351072Y0066393D01*
X0350777Y0066393D01*
X0350187Y0065802D01*
X0349891Y0065802D01*
X0349596Y0065507D01*
X0349301Y0065211D01*
X0349006Y0065211D01*
X0348185Y0064391D01*
X0348120Y0064326D01*
X0347824Y0064326D01*
X0347234Y0063735D01*
X0346939Y0063735D01*
X0346119Y0062915D01*
X0346053Y0062849D01*
X0344281Y0062849D01*
X0343986Y0062554D01*
X0342805Y0062554D01*
X0342509Y0062259D01*
X0342214Y0062259D01*
X0341919Y0061963D01*
X0341624Y0061963D01*
X0341328Y0061668D01*
X0340738Y0061668D01*
X0340443Y0061373D01*
X0339557Y0061373D01*
X0339261Y0061078D01*
X0338671Y0061078D01*
X0338376Y0060782D01*
X0337785Y0060782D01*
X0337490Y0060487D01*
X0337195Y0060487D01*
X0336899Y0060192D01*
X0336604Y0060192D01*
X0336309Y0059896D01*
X0336013Y0059896D01*
X0335193Y0059076D01*
X0335128Y0059011D01*
X0334307Y0058191D01*
X0334012Y0057895D01*
X0334012Y0057600D01*
X0333717Y0057305D01*
X0333717Y0057009D01*
X0333422Y0056714D01*
X0333422Y0056419D01*
X0333126Y0056124D01*
X0333126Y0055763D01*
X0333061Y0055763D01*
X0332765Y0055467D01*
X0332470Y0055467D01*
X0332175Y0055172D01*
X0331880Y0055172D01*
X0331584Y0054877D01*
X0330994Y0054877D01*
X0330698Y0054581D01*
X0329813Y0054581D01*
X0329517Y0054286D01*
X0328336Y0054286D01*
X0328041Y0053991D01*
X0326565Y0053991D01*
X0326269Y0053696D01*
X0325088Y0053696D01*
X0324793Y0053400D01*
X0323907Y0053400D01*
X0323612Y0053105D01*
X0322726Y0053105D01*
X0322431Y0052810D01*
X0321840Y0052810D01*
X0321545Y0052515D01*
X0320954Y0052515D01*
X0320364Y0051924D01*
X0320069Y0051924D01*
X0319248Y0051104D01*
X0319183Y0051038D01*
X0319183Y0051038D01*
X0318363Y0050218D01*
X0318067Y0049923D01*
X0318067Y0048172D01*
X0318887Y0047352D01*
X0320638Y0047352D01*
X0320933Y0047648D01*
X0323886Y0047648D01*
X0324181Y0047943D01*
X0325362Y0047943D01*
X0325657Y0048238D01*
X0326422Y0048238D01*
X0325974Y0047790D01*
X0325383Y0047790D01*
X0325088Y0047495D01*
X0324793Y0047495D01*
X0324498Y0047200D01*
X0324202Y0047200D01*
X0323907Y0046904D01*
X0323317Y0046904D01*
X0323021Y0046609D01*
X0322726Y0046609D01*
X0322431Y0046314D01*
X0321840Y0046314D01*
X0321545Y0046018D01*
X0321250Y0046018D01*
X0320954Y0045723D01*
X0320659Y0045723D01*
X0320364Y0045428D01*
X0320069Y0045428D01*
X0319248Y0044608D01*
X0318953Y0044313D01*
X0318953Y0042857D01*
X0319773Y0042037D01*
X0320069Y0042037D01*
X0320659Y0041447D01*
X0322114Y0041447D01*
X0322409Y0041742D01*
X0323317Y0041742D01*
X0323612Y0041447D01*
X0327724Y0041447D01*
X0328020Y0041742D01*
X0328315Y0041742D01*
X0328610Y0042037D01*
X0329496Y0042037D01*
X0329791Y0042333D01*
X0330087Y0042333D01*
X0330382Y0042628D01*
X0330972Y0042628D01*
X0331268Y0042923D01*
X0332449Y0042923D01*
X0332744Y0043219D01*
X0333039Y0043219D01*
X0333335Y0043514D01*
X0337173Y0043514D01*
X0337468Y0043809D01*
X0338650Y0043809D01*
X0338945Y0044104D01*
X0340717Y0044104D01*
X0341012Y0044400D01*
X0342805Y0044400D01*
X0342870Y0044334D01*
X0342870Y0044039D01*
X0343691Y0043219D01*
X0345736Y0043219D01*
X0346031Y0043514D01*
X0346119Y0043514D01*
X0346119Y0043448D01*
X0346277Y0043290D01*
X0346119Y0043131D01*
X0346119Y0041086D01*
X0346414Y0040791D01*
X0346414Y0040200D01*
X0346709Y0039905D01*
X0346709Y0039609D01*
X0347004Y0039314D01*
X0347004Y0039019D01*
X0347300Y0038724D01*
X0347300Y0038428D01*
X0347890Y0037838D01*
X0347890Y0037543D01*
X0348185Y0037247D01*
X0347742Y0035602D02*
X0308643Y0035602D01*
X0310766Y0034003D02*
X0346439Y0034003D01*
X0346414Y0032405D02*
X0311043Y0032405D01*
X0310106Y0030806D02*
X0353150Y0030806D01*
X0358127Y0030806D02*
X0358465Y0030806D01*
X0359106Y0035602D02*
X0378107Y0035602D01*
X0377614Y0034003D02*
X0362771Y0034003D01*
X0364568Y0032405D02*
X0377121Y0032405D01*
X0376628Y0030806D02*
X0364033Y0030806D01*
X0358393Y0037200D02*
X0379179Y0037200D01*
X0380268Y0038799D02*
X0358072Y0038799D01*
X0358367Y0040397D02*
X0381663Y0040397D01*
X0380995Y0039864D02*
X0380995Y0039864D01*
X0383668Y0041996D02*
X0358687Y0041996D01*
X0359253Y0043594D02*
X0386386Y0043594D01*
X0389726Y0044905D02*
X0389726Y0044905D01*
X0393564Y0045193D02*
X0359844Y0045193D01*
X0360730Y0046791D02*
X0399806Y0046791D01*
X0399806Y0045193D02*
X0395220Y0045193D01*
X0394810Y0045286D02*
X0394810Y0045286D01*
X0399781Y0044152D02*
X0399781Y0044152D01*
X0399806Y0048390D02*
X0361538Y0048390D01*
X0362545Y0049988D02*
X0399806Y0049988D01*
X0399806Y0051587D02*
X0364144Y0051587D01*
X0365447Y0053185D02*
X0399806Y0053185D01*
X0399806Y0054784D02*
X0367046Y0054784D01*
X0366996Y0054734D02*
X0366996Y0054734D01*
X0366930Y0054669D02*
X0366930Y0054669D01*
X0368111Y0056382D02*
X0399806Y0056382D01*
X0399806Y0057981D02*
X0368407Y0057981D01*
X0368702Y0059579D02*
X0399806Y0059579D01*
X0399806Y0061178D02*
X0369588Y0061178D01*
X0368997Y0060279D02*
X0368997Y0060279D01*
X0369588Y0062777D02*
X0399806Y0062777D01*
X0399806Y0064375D02*
X0369588Y0064375D01*
X0369672Y0065974D02*
X0399806Y0065974D01*
X0399806Y0067572D02*
X0370178Y0067572D01*
X0370507Y0069171D02*
X0399806Y0069171D01*
X0399806Y0070769D02*
X0376970Y0070769D01*
X0376674Y0072368D02*
X0399806Y0072368D01*
X0399806Y0073966D02*
X0375367Y0073966D01*
X0371997Y0075565D02*
X0399806Y0075565D01*
X0399806Y0077163D02*
X0367741Y0077163D01*
X0369063Y0076432D02*
X0369063Y0076432D01*
X0362434Y0077163D02*
X0255543Y0077163D01*
X0255543Y0075565D02*
X0359949Y0075565D01*
X0361407Y0076727D02*
X0361407Y0076727D01*
X0358646Y0073966D02*
X0255543Y0073966D01*
X0255543Y0072368D02*
X0357634Y0072368D01*
X0357339Y0072068D02*
X0357339Y0072068D01*
X0356453Y0070769D02*
X0255543Y0070769D01*
X0255543Y0069171D02*
X0355032Y0069171D01*
X0354911Y0069050D02*
X0354911Y0069050D01*
X0353139Y0067869D02*
X0353139Y0067869D01*
X0352547Y0067572D02*
X0255543Y0067572D01*
X0255543Y0065974D02*
X0350358Y0065974D01*
X0349596Y0065507D02*
X0349596Y0065507D01*
X0348185Y0064391D02*
X0348185Y0064391D01*
X0348169Y0064375D02*
X0289764Y0064375D01*
X0289515Y0064624D02*
X0288560Y0065020D01*
X0287525Y0065020D01*
X0286570Y0064624D01*
X0285838Y0063892D01*
X0285443Y0062937D01*
X0285443Y0062648D01*
X0275014Y0052220D01*
X0274725Y0052220D01*
X0273770Y0051824D01*
X0273038Y0051092D01*
X0272643Y0050137D01*
X0272643Y0049102D01*
X0272893Y0048498D01*
X0271814Y0047420D01*
X0271525Y0047420D01*
X0270570Y0047024D01*
X0269838Y0046292D01*
X0269443Y0045337D01*
X0269443Y0044302D01*
X0269838Y0043347D01*
X0270570Y0042616D01*
X0271525Y0042220D01*
X0272560Y0042220D01*
X0273515Y0042616D01*
X0274247Y0043347D01*
X0274643Y0044302D01*
X0274643Y0044591D01*
X0277243Y0047191D01*
X0277243Y0047943D01*
X0277447Y0048147D01*
X0277843Y0049102D01*
X0277843Y0049391D01*
X0288271Y0059820D01*
X0288560Y0059820D01*
X0289515Y0060216D01*
X0290247Y0060947D01*
X0290643Y0061902D01*
X0290643Y0062937D01*
X0290247Y0063892D01*
X0289515Y0064624D01*
X0290643Y0062777D02*
X0344208Y0062777D01*
X0346119Y0062915D02*
X0346119Y0062915D01*
X0339362Y0061178D02*
X0290342Y0061178D01*
X0288031Y0059579D02*
X0335696Y0059579D01*
X0335193Y0059076D02*
X0335193Y0059076D01*
X0335128Y0059011D02*
X0335128Y0059011D01*
X0334098Y0057981D02*
X0286432Y0057981D01*
X0284834Y0056382D02*
X0333385Y0056382D01*
X0330901Y0054784D02*
X0283235Y0054784D01*
X0281637Y0053185D02*
X0323692Y0053185D01*
X0319731Y0051587D02*
X0280038Y0051587D01*
X0278440Y0049988D02*
X0318133Y0049988D01*
X0319248Y0051104D02*
X0319248Y0051104D01*
X0318067Y0048390D02*
X0277547Y0048390D01*
X0276843Y0046791D02*
X0323204Y0046791D01*
X0319833Y0045193D02*
X0275244Y0045193D01*
X0274349Y0043594D02*
X0318953Y0043594D01*
X0320110Y0041996D02*
X0251506Y0041996D01*
X0251625Y0040397D02*
X0346414Y0040397D01*
X0346119Y0041996D02*
X0328569Y0041996D01*
X0337254Y0043594D02*
X0343315Y0043594D01*
X0347224Y0038799D02*
X0251625Y0038799D01*
X0253104Y0043594D02*
X0269736Y0043594D01*
X0269443Y0045193D02*
X0254703Y0045193D01*
X0254430Y0044920D02*
X0254430Y0044920D01*
X0255543Y0046791D02*
X0270337Y0046791D01*
X0272784Y0048390D02*
X0255543Y0048390D01*
X0255543Y0049988D02*
X0272643Y0049988D01*
X0273533Y0051587D02*
X0255543Y0051587D01*
X0255543Y0053185D02*
X0275980Y0053185D01*
X0277578Y0054784D02*
X0255543Y0054784D01*
X0255543Y0056382D02*
X0279177Y0056382D01*
X0280775Y0057981D02*
X0255543Y0057981D01*
X0255543Y0059579D02*
X0282374Y0059579D01*
X0283972Y0061178D02*
X0255543Y0061178D01*
X0255543Y0062777D02*
X0285443Y0062777D01*
X0286321Y0064375D02*
X0255543Y0064375D01*
X0251743Y0064375D02*
X0250743Y0064375D01*
X0250743Y0062777D02*
X0251743Y0062777D01*
X0251743Y0061178D02*
X0251443Y0061178D01*
X0251143Y0059579D02*
X0251743Y0059579D01*
X0251743Y0057981D02*
X0249943Y0057981D01*
X0249943Y0056382D02*
X0251743Y0056382D01*
X0251743Y0054784D02*
X0249943Y0054784D01*
X0249943Y0053185D02*
X0251743Y0053185D01*
X0251743Y0051587D02*
X0249943Y0051587D01*
X0249943Y0049988D02*
X0251743Y0049988D01*
X0251743Y0048390D02*
X0251625Y0048390D01*
X0246143Y0049988D02*
X0235498Y0049988D01*
X0234258Y0048390D02*
X0233900Y0048390D01*
X0233543Y0046791D02*
X0234258Y0046791D01*
X0234258Y0045193D02*
X0233543Y0045193D01*
X0233504Y0043594D02*
X0235047Y0043594D01*
X0235078Y0042426D02*
X0234258Y0041606D01*
X0234258Y0037296D01*
X0235078Y0036476D01*
X0236143Y0036476D01*
X0236143Y0036127D01*
X0235078Y0036127D01*
X0234258Y0035307D01*
X0234258Y0029422D01*
X0235078Y0028602D01*
X0240963Y0028602D01*
X0241783Y0029422D01*
X0241783Y0035307D01*
X0240963Y0036127D01*
X0239943Y0036127D01*
X0239943Y0036476D01*
X0240963Y0036476D01*
X0241783Y0037296D01*
X0241783Y0041606D01*
X0240963Y0042426D01*
X0235078Y0042426D01*
X0234648Y0041996D02*
X0231906Y0041996D01*
X0231940Y0040397D02*
X0234258Y0040397D01*
X0234258Y0038799D02*
X0231940Y0038799D01*
X0231844Y0037200D02*
X0234354Y0037200D01*
X0234553Y0035602D02*
X0231645Y0035602D01*
X0231940Y0034003D02*
X0234258Y0034003D01*
X0234258Y0032405D02*
X0231940Y0032405D01*
X0231940Y0030806D02*
X0234258Y0030806D01*
X0234473Y0029208D02*
X0231725Y0029208D01*
X0231235Y0028136D02*
X0230777Y0028259D01*
X0228559Y0028259D01*
X0228559Y0024478D01*
X0232340Y0024478D01*
X0232340Y0026696D01*
X0232217Y0027154D01*
X0231981Y0027564D01*
X0231645Y0027899D01*
X0231235Y0028136D01*
X0231936Y0027609D02*
X0234263Y0027609D01*
X0233858Y0026011D02*
X0232340Y0026011D01*
X0232340Y0022814D02*
X0233858Y0022814D01*
X0237639Y0026011D02*
X0238402Y0026011D01*
X0238402Y0027609D02*
X0237639Y0027609D01*
X0241778Y0027609D02*
X0244105Y0027609D01*
X0244315Y0029208D02*
X0241568Y0029208D01*
X0241783Y0030806D02*
X0244101Y0030806D01*
X0244101Y0032405D02*
X0241783Y0032405D01*
X0241783Y0034003D02*
X0244101Y0034003D01*
X0244396Y0035602D02*
X0241488Y0035602D01*
X0241687Y0037200D02*
X0244197Y0037200D01*
X0244101Y0038799D02*
X0241783Y0038799D01*
X0241783Y0040397D02*
X0244101Y0040397D01*
X0244179Y0041996D02*
X0241393Y0041996D01*
X0240994Y0043594D02*
X0242581Y0043594D01*
X0241783Y0048390D02*
X0244101Y0048390D01*
X0246143Y0051587D02*
X0237097Y0051587D01*
X0238695Y0053185D02*
X0246143Y0053185D01*
X0246143Y0054784D02*
X0240294Y0054784D01*
X0241892Y0056382D02*
X0246143Y0056382D01*
X0245394Y0057981D02*
X0243491Y0057981D01*
X0241314Y0061178D02*
X0238343Y0061178D01*
X0238343Y0059579D02*
X0239715Y0059579D01*
X0238343Y0062777D02*
X0242912Y0062777D01*
X0242943Y0064375D02*
X0238343Y0064375D01*
X0238343Y0065974D02*
X0242943Y0065974D01*
X0242943Y0067572D02*
X0238343Y0067572D01*
X0237579Y0069171D02*
X0242943Y0069171D01*
X0242943Y0070769D02*
X0240840Y0070769D01*
X0242284Y0072368D02*
X0242943Y0072368D01*
X0242943Y0073966D02*
X0242793Y0073966D01*
X0242686Y0075565D02*
X0242943Y0075565D01*
X0242943Y0077163D02*
X0241862Y0077163D01*
X0242943Y0078762D02*
X0235943Y0078762D01*
X0237133Y0080360D02*
X0234389Y0080360D01*
X0234904Y0081959D02*
X0232791Y0081959D01*
X0234848Y0082015D02*
X0236057Y0080806D01*
X0237638Y0080151D01*
X0239348Y0080151D01*
X0240929Y0080806D01*
X0242138Y0082015D01*
X0242793Y0083596D01*
X0242793Y0085306D01*
X0242138Y0086887D01*
X0240929Y0088097D01*
X0239348Y0088751D01*
X0237638Y0088751D01*
X0236057Y0088097D01*
X0234848Y0086887D01*
X0234193Y0085306D01*
X0234193Y0083596D01*
X0234848Y0082015D01*
X0234209Y0083557D02*
X0231192Y0083557D01*
X0229594Y0085156D02*
X0234193Y0085156D01*
X0234793Y0086754D02*
X0227995Y0086754D01*
X0226743Y0088353D02*
X0236676Y0088353D01*
X0235313Y0091550D02*
X0226743Y0091550D01*
X0226743Y0093148D02*
X0234378Y0093148D01*
X0234193Y0094747D02*
X0226743Y0094747D01*
X0226743Y0096345D02*
X0234623Y0096345D01*
X0235904Y0097944D02*
X0226743Y0097944D01*
X0226743Y0099542D02*
X0231833Y0099542D01*
X0230234Y0101141D02*
X0226743Y0101141D01*
X0226743Y0102739D02*
X0230143Y0102739D01*
X0230143Y0104338D02*
X0226743Y0104338D01*
X0229525Y0105936D02*
X0230143Y0105936D01*
X0230143Y0107535D02*
X0229843Y0107535D01*
X0230143Y0109133D02*
X0229143Y0109133D01*
X0229143Y0110732D02*
X0229762Y0110732D01*
X0229443Y0112330D02*
X0229143Y0112330D01*
X0229143Y0113929D02*
X0230275Y0113929D01*
X0229143Y0115527D02*
X0234284Y0115527D01*
X0234193Y0113929D02*
X0233810Y0113929D01*
X0235087Y0117126D02*
X0229143Y0117126D01*
X0229143Y0118724D02*
X0237573Y0118724D01*
X0237638Y0120151D02*
X0239348Y0120151D01*
X0240929Y0120806D01*
X0242138Y0122015D01*
X0242793Y0123596D01*
X0242793Y0125306D01*
X0242448Y0126138D01*
X0255330Y0139020D01*
X0255760Y0139020D01*
X0256715Y0139416D01*
X0257447Y0140147D01*
X0257843Y0141102D01*
X0257843Y0142137D01*
X0257447Y0143092D01*
X0256715Y0143824D01*
X0255760Y0144220D01*
X0254725Y0144220D01*
X0253770Y0143824D01*
X0253038Y0143092D01*
X0252643Y0142137D01*
X0252643Y0141707D01*
X0239588Y0128652D01*
X0239348Y0128751D01*
X0237638Y0128751D01*
X0236057Y0128097D01*
X0234848Y0126887D01*
X0234193Y0125306D01*
X0234193Y0123596D01*
X0234848Y0122015D01*
X0236057Y0120806D01*
X0237638Y0120151D01*
X0237223Y0120323D02*
X0229143Y0120323D01*
X0229143Y0121921D02*
X0234942Y0121921D01*
X0234224Y0123520D02*
X0229143Y0123520D01*
X0229143Y0125118D02*
X0234193Y0125118D01*
X0234777Y0126717D02*
X0229143Y0126717D01*
X0229143Y0128315D02*
X0236586Y0128315D01*
X0237638Y0130151D02*
X0239348Y0130151D01*
X0240929Y0130806D01*
X0242138Y0132015D01*
X0242793Y0133596D01*
X0242793Y0135306D01*
X0242138Y0136887D01*
X0240929Y0138097D01*
X0239348Y0138751D01*
X0237638Y0138751D01*
X0236057Y0138097D01*
X0234848Y0136887D01*
X0234193Y0135306D01*
X0234193Y0133596D01*
X0234848Y0132015D01*
X0236057Y0130806D01*
X0237638Y0130151D01*
X0235350Y0131513D02*
X0229143Y0131513D01*
X0229143Y0133111D02*
X0234394Y0133111D01*
X0234193Y0134710D02*
X0229143Y0134710D01*
X0229143Y0136308D02*
X0234608Y0136308D01*
X0235867Y0137907D02*
X0229143Y0137907D01*
X0229143Y0139505D02*
X0250441Y0139505D01*
X0252039Y0141104D02*
X0241226Y0141104D01*
X0240929Y0140806D02*
X0242138Y0142015D01*
X0242793Y0143596D01*
X0242793Y0145306D01*
X0242138Y0146887D01*
X0240929Y0148097D01*
X0239348Y0148751D01*
X0237638Y0148751D01*
X0236057Y0148097D01*
X0234848Y0146887D01*
X0234193Y0145306D01*
X0234193Y0143596D01*
X0234848Y0142015D01*
X0236057Y0140806D01*
X0237638Y0140151D01*
X0239348Y0140151D01*
X0240929Y0140806D01*
X0242423Y0142702D02*
X0252877Y0142702D01*
X0257608Y0142702D02*
X0266901Y0142702D01*
X0267233Y0143034D02*
X0265855Y0141656D01*
X0265109Y0139855D01*
X0265109Y0137906D01*
X0265855Y0136105D01*
X0267233Y0134726D01*
X0268551Y0134180D01*
X0266272Y0134180D01*
X0265814Y0134058D01*
X0265403Y0133821D01*
X0265068Y0133486D01*
X0264831Y0133075D01*
X0264709Y0132617D01*
X0264709Y0129080D01*
X0269809Y0129080D01*
X0269809Y0128680D01*
X0270209Y0128680D01*
X0270209Y0129080D01*
X0275309Y0129080D01*
X0275309Y0132617D01*
X0275186Y0133075D01*
X0274949Y0133486D01*
X0274614Y0133821D01*
X0274203Y0134058D01*
X0273746Y0134180D01*
X0271466Y0134180D01*
X0272784Y0134726D01*
X0274163Y0136105D01*
X0274909Y0137906D01*
X0274909Y0139855D01*
X0274163Y0141656D01*
X0272784Y0143034D01*
X0270983Y0143780D01*
X0269034Y0143780D01*
X0267233Y0143034D01*
X0268261Y0144301D02*
X0242793Y0144301D01*
X0242547Y0145899D02*
X0266060Y0145899D01*
X0265855Y0146105D02*
X0267233Y0144726D01*
X0269034Y0143980D01*
X0270983Y0143980D01*
X0272784Y0144726D01*
X0274163Y0146105D01*
X0274909Y0147906D01*
X0274909Y0149855D01*
X0274163Y0151656D01*
X0272784Y0153034D01*
X0270983Y0153780D01*
X0269034Y0153780D01*
X0267233Y0153034D01*
X0265855Y0151656D01*
X0265109Y0149855D01*
X0265109Y0147906D01*
X0265855Y0146105D01*
X0265278Y0147498D02*
X0241528Y0147498D01*
X0240660Y0150695D02*
X0265456Y0150695D01*
X0265109Y0149096D02*
X0227653Y0149096D01*
X0227638Y0150151D02*
X0226057Y0150806D01*
X0224848Y0152015D01*
X0224193Y0153596D01*
X0224193Y0155306D01*
X0224848Y0156887D01*
X0226057Y0158097D01*
X0227638Y0158751D01*
X0229348Y0158751D01*
X0230929Y0158097D01*
X0232138Y0156887D01*
X0232793Y0155306D01*
X0232793Y0153596D01*
X0232138Y0152015D01*
X0230929Y0150806D01*
X0229348Y0150151D01*
X0227638Y0150151D01*
X0226326Y0150695D02*
X0226055Y0150695D01*
X0224733Y0152293D02*
X0224456Y0152293D01*
X0224193Y0153892D02*
X0222858Y0153892D01*
X0224269Y0155490D02*
X0221259Y0155490D01*
X0219661Y0157089D02*
X0225049Y0157089D01*
X0227483Y0158687D02*
X0218062Y0158687D01*
X0216463Y0160286D02*
X0227313Y0160286D01*
X0227638Y0160151D02*
X0229348Y0160151D01*
X0230929Y0160806D01*
X0232138Y0162015D01*
X0232793Y0163596D01*
X0232793Y0165306D01*
X0232138Y0166887D01*
X0230929Y0168097D01*
X0229348Y0168751D01*
X0227638Y0168751D01*
X0226057Y0168097D01*
X0224848Y0166887D01*
X0224193Y0165306D01*
X0224193Y0163596D01*
X0224848Y0162015D01*
X0226057Y0160806D01*
X0227638Y0160151D01*
X0229673Y0160286D02*
X0237313Y0160286D01*
X0237638Y0160151D02*
X0239348Y0160151D01*
X0240929Y0160806D01*
X0242138Y0162015D01*
X0242793Y0163596D01*
X0242793Y0165306D01*
X0242138Y0166887D01*
X0240929Y0168097D01*
X0239348Y0168751D01*
X0237638Y0168751D01*
X0236057Y0168097D01*
X0234848Y0166887D01*
X0234193Y0165306D01*
X0234193Y0163596D01*
X0234848Y0162015D01*
X0236057Y0160806D01*
X0237638Y0160151D01*
X0237638Y0158751D02*
X0236057Y0158097D01*
X0234848Y0156887D01*
X0234193Y0155306D01*
X0234193Y0153596D01*
X0234848Y0152015D01*
X0236057Y0150806D01*
X0237638Y0150151D01*
X0239348Y0150151D01*
X0240929Y0150806D01*
X0242138Y0152015D01*
X0242793Y0153596D01*
X0242793Y0155306D01*
X0242138Y0156887D01*
X0240929Y0158097D01*
X0239348Y0158751D01*
X0237638Y0158751D01*
X0237483Y0158687D02*
X0229503Y0158687D01*
X0231937Y0157089D02*
X0235049Y0157089D01*
X0234269Y0155490D02*
X0232717Y0155490D01*
X0232793Y0153892D02*
X0234193Y0153892D01*
X0234733Y0152293D02*
X0232253Y0152293D01*
X0230660Y0150695D02*
X0236326Y0150695D01*
X0235458Y0147498D02*
X0229143Y0147498D01*
X0229143Y0145899D02*
X0234438Y0145899D01*
X0234193Y0144301D02*
X0229143Y0144301D01*
X0229143Y0142702D02*
X0234563Y0142702D01*
X0235759Y0141104D02*
X0229143Y0141104D01*
X0225343Y0141104D02*
X0224046Y0141104D01*
X0225343Y0142702D02*
X0222447Y0142702D01*
X0222793Y0144301D02*
X0225343Y0144301D01*
X0225343Y0145899D02*
X0222547Y0145899D01*
X0221528Y0147498D02*
X0223878Y0147498D01*
X0222279Y0149096D02*
X0176206Y0149096D01*
X0176057Y0148097D02*
X0174848Y0146887D01*
X0174193Y0145306D01*
X0174193Y0143596D01*
X0174848Y0142015D01*
X0176057Y0140806D01*
X0177638Y0140151D01*
X0179348Y0140151D01*
X0180929Y0140806D01*
X0182138Y0142015D01*
X0182793Y0143596D01*
X0182793Y0145306D01*
X0182138Y0146887D01*
X0180929Y0148097D01*
X0179348Y0148751D01*
X0177638Y0148751D01*
X0176057Y0148097D01*
X0175458Y0147498D02*
X0174607Y0147498D01*
X0174438Y0145899D02*
X0173943Y0145899D01*
X0173943Y0144301D02*
X0174193Y0144301D01*
X0173943Y0142702D02*
X0174563Y0142702D01*
X0173943Y0141104D02*
X0175759Y0141104D01*
X0173943Y0139505D02*
X0220270Y0139505D01*
X0219348Y0138751D02*
X0217638Y0138751D01*
X0216057Y0138097D01*
X0214848Y0136887D01*
X0214193Y0135306D01*
X0214193Y0133596D01*
X0214848Y0132015D01*
X0216057Y0130806D01*
X0217638Y0130151D01*
X0219348Y0130151D01*
X0220929Y0130806D01*
X0222138Y0132015D01*
X0222793Y0133596D01*
X0222793Y0135306D01*
X0222138Y0136887D01*
X0220929Y0138097D01*
X0219348Y0138751D01*
X0221119Y0137907D02*
X0221869Y0137907D01*
X0222378Y0136308D02*
X0222943Y0136308D01*
X0222943Y0134710D02*
X0222793Y0134710D01*
X0222943Y0133111D02*
X0222592Y0133111D01*
X0222943Y0131513D02*
X0221635Y0131513D01*
X0222943Y0129914D02*
X0209738Y0129914D01*
X0209593Y0129867D02*
X0210297Y0130096D01*
X0210956Y0130431D01*
X0211555Y0130866D01*
X0212078Y0131389D01*
X0212513Y0131988D01*
X0212849Y0132647D01*
X0213077Y0133351D01*
X0213193Y0134081D01*
X0213193Y0134301D01*
X0208643Y0134301D01*
X0208643Y0129751D01*
X0208863Y0129751D01*
X0209593Y0129867D01*
X0208643Y0129914D02*
X0208343Y0129914D01*
X0208343Y0129751D02*
X0208343Y0134301D01*
X0208643Y0134301D01*
X0208643Y0134601D01*
X0213193Y0134601D01*
X0213193Y0134821D01*
X0213077Y0135552D01*
X0212849Y0136255D01*
X0212513Y0136915D01*
X0212078Y0137513D01*
X0211555Y0138036D01*
X0210956Y0138471D01*
X0210297Y0138807D01*
X0209593Y0139035D01*
X0208863Y0139151D01*
X0208643Y0139151D01*
X0208643Y0134601D01*
X0208343Y0134601D01*
X0208343Y0134301D01*
X0203793Y0134301D01*
X0203793Y0134081D01*
X0203909Y0133351D01*
X0204137Y0132647D01*
X0204473Y0131988D01*
X0204908Y0131389D01*
X0205431Y0130866D01*
X0206030Y0130431D01*
X0206689Y0130096D01*
X0207392Y0129867D01*
X0208123Y0129751D01*
X0208343Y0129751D01*
X0207247Y0129914D02*
X0173943Y0129914D01*
X0173943Y0131513D02*
X0175350Y0131513D01*
X0174848Y0132015D02*
X0176057Y0130806D01*
X0177638Y0130151D01*
X0179348Y0130151D01*
X0180929Y0130806D01*
X0182138Y0132015D01*
X0182793Y0133596D01*
X0182793Y0135306D01*
X0182138Y0136887D01*
X0180929Y0138097D01*
X0179348Y0138751D01*
X0177638Y0138751D01*
X0176057Y0138097D01*
X0174848Y0136887D01*
X0174193Y0135306D01*
X0174193Y0133596D01*
X0174848Y0132015D01*
X0174394Y0133111D02*
X0173943Y0133111D01*
X0173943Y0134710D02*
X0174193Y0134710D01*
X0173943Y0136308D02*
X0174608Y0136308D01*
X0173943Y0137907D02*
X0175867Y0137907D01*
X0181119Y0137907D02*
X0205301Y0137907D01*
X0205431Y0138036D02*
X0204908Y0137513D01*
X0204473Y0136915D01*
X0204137Y0136255D01*
X0203909Y0135552D01*
X0203793Y0134821D01*
X0203793Y0134601D01*
X0208343Y0134601D01*
X0208343Y0139151D01*
X0208123Y0139151D01*
X0207392Y0139035D01*
X0206689Y0138807D01*
X0206030Y0138471D01*
X0205431Y0138036D01*
X0204164Y0136308D02*
X0182378Y0136308D01*
X0182793Y0134710D02*
X0203793Y0134710D01*
X0203986Y0133111D02*
X0182592Y0133111D01*
X0181635Y0131513D02*
X0204818Y0131513D01*
X0208343Y0131513D02*
X0208643Y0131513D01*
X0208643Y0133111D02*
X0208343Y0133111D01*
X0208343Y0134710D02*
X0208643Y0134710D01*
X0208643Y0136308D02*
X0208343Y0136308D01*
X0208343Y0137907D02*
X0208643Y0137907D01*
X0209348Y0140151D02*
X0210929Y0140806D01*
X0212138Y0142015D01*
X0212793Y0143596D01*
X0212793Y0145306D01*
X0212138Y0146887D01*
X0210929Y0148097D01*
X0209348Y0148751D01*
X0207638Y0148751D01*
X0206057Y0148097D01*
X0204848Y0146887D01*
X0204193Y0145306D01*
X0204193Y0143596D01*
X0204848Y0142015D01*
X0206057Y0140806D01*
X0207638Y0140151D01*
X0209348Y0140151D01*
X0211226Y0141104D02*
X0215759Y0141104D01*
X0214563Y0142702D02*
X0212423Y0142702D01*
X0212793Y0144301D02*
X0214193Y0144301D01*
X0214438Y0145899D02*
X0212547Y0145899D01*
X0211528Y0147498D02*
X0215458Y0147498D01*
X0220681Y0150695D02*
X0180660Y0150695D01*
X0182253Y0152293D02*
X0219082Y0152293D01*
X0217484Y0153892D02*
X0182793Y0153892D01*
X0182717Y0155490D02*
X0215885Y0155490D01*
X0214287Y0157089D02*
X0181937Y0157089D01*
X0179503Y0158687D02*
X0212688Y0158687D01*
X0211089Y0160286D02*
X0179673Y0160286D01*
X0177313Y0160286D02*
X0175396Y0160286D01*
X0177483Y0158687D02*
X0170197Y0158687D01*
X0168599Y0157089D02*
X0175049Y0157089D01*
X0174269Y0155490D02*
X0167000Y0155490D01*
X0165401Y0153892D02*
X0174193Y0153892D01*
X0174029Y0152293D02*
X0163803Y0152293D01*
X0162204Y0150695D02*
X0172430Y0150695D01*
X0170832Y0149096D02*
X0160606Y0149096D01*
X0159007Y0147498D02*
X0170143Y0147498D01*
X0170143Y0145899D02*
X0157409Y0145899D01*
X0155810Y0144301D02*
X0170143Y0144301D01*
X0170143Y0142702D02*
X0154498Y0142702D01*
X0154404Y0141104D02*
X0170143Y0141104D01*
X0170143Y0139505D02*
X0153742Y0139505D01*
X0152010Y0137907D02*
X0170143Y0137907D01*
X0170143Y0136308D02*
X0154213Y0136308D01*
X0155366Y0134710D02*
X0170143Y0134710D01*
X0170143Y0133111D02*
X0155846Y0133111D01*
X0155835Y0131513D02*
X0170143Y0131513D01*
X0170143Y0129914D02*
X0155333Y0129914D01*
X0154147Y0128315D02*
X0170143Y0128315D01*
X0170143Y0126717D02*
X0152170Y0126717D01*
X0153770Y0125118D02*
X0170143Y0125118D01*
X0170143Y0123520D02*
X0154432Y0123520D01*
X0154498Y0121921D02*
X0170143Y0121921D01*
X0170143Y0120323D02*
X0154081Y0120323D01*
X0152990Y0118724D02*
X0161070Y0118724D01*
X0160643Y0117126D02*
X0152183Y0117126D01*
X0154428Y0115527D02*
X0161258Y0115527D01*
X0161343Y0113929D02*
X0155263Y0113929D01*
X0155498Y0112330D02*
X0161343Y0112330D01*
X0161343Y0110732D02*
X0155250Y0110732D01*
X0154399Y0109133D02*
X0161269Y0109133D01*
X0159671Y0107535D02*
X0152113Y0107535D01*
X0153019Y0105936D02*
X0158072Y0105936D01*
X0156474Y0104338D02*
X0154093Y0104338D01*
X0154498Y0102739D02*
X0154875Y0102739D01*
X0148901Y0107445D02*
X0148384Y0107445D01*
X0146509Y0106668D01*
X0145075Y0105234D01*
X0144298Y0103359D01*
X0144298Y0101330D01*
X0145075Y0099456D01*
X0146038Y0098492D01*
X0145438Y0097892D01*
X0145043Y0096937D01*
X0145043Y0096107D01*
X0143656Y0094720D01*
X0143019Y0094720D01*
X0142715Y0095024D01*
X0141760Y0095420D01*
X0140725Y0095420D01*
X0139770Y0095024D01*
X0139038Y0094292D01*
X0138643Y0093337D01*
X0138643Y0092302D01*
X0139038Y0091347D01*
X0139770Y0090616D01*
X0140725Y0090220D01*
X0141760Y0090220D01*
X0140725Y0090220D01*
X0139770Y0089824D01*
X0139038Y0089092D01*
X0138643Y0088137D01*
X0138643Y0087102D01*
X0139038Y0086147D01*
X0139770Y0085416D01*
X0139898Y0085362D01*
X0136856Y0082320D01*
X0106743Y0082320D01*
X0106743Y0083338D01*
X0105923Y0084158D01*
X0101614Y0084158D01*
X0100794Y0083338D01*
X0100794Y0077454D01*
X0101614Y0076634D01*
X0105923Y0076634D01*
X0106743Y0077454D01*
X0106743Y0078520D01*
X0138430Y0078520D01*
X0138985Y0079075D01*
X0139038Y0078947D01*
X0139770Y0078216D01*
X0139898Y0078162D01*
X0116856Y0055120D01*
X0105656Y0055120D01*
X0097643Y0047107D01*
X0097643Y0061220D01*
X0106825Y0061220D01*
X0106825Y0061210D01*
X0107645Y0060390D01*
X0114805Y0060390D01*
X0115625Y0061210D01*
X0115625Y0065370D01*
X0114805Y0066190D01*
X0107645Y0066190D01*
X0106825Y0065370D01*
X0106825Y0065220D01*
X0093625Y0065220D01*
X0093625Y0065370D01*
X0092805Y0066190D01*
X0090443Y0066190D01*
X0090443Y0071648D01*
X0089271Y0072820D01*
X0086871Y0075220D01*
X0092471Y0080820D01*
X0093643Y0081991D01*
X0093643Y0084791D01*
X0146766Y0137915D01*
X0148117Y0137355D01*
X0147516Y0137049D01*
X0146815Y0136540D01*
X0146203Y0135928D01*
X0145694Y0135228D01*
X0145301Y0134456D01*
X0145034Y0133633D01*
X0144898Y0132778D01*
X0144898Y0132545D01*
X0150198Y0132545D01*
X0150198Y0132145D01*
X0144898Y0132145D01*
X0144898Y0131912D01*
X0145034Y0131057D01*
X0145301Y0130234D01*
X0145694Y0129462D01*
X0146203Y0128762D01*
X0146815Y0128150D01*
X0147516Y0127641D01*
X0148117Y0127334D01*
X0146509Y0126668D01*
X0145075Y0125234D01*
X0144298Y0123359D01*
X0144298Y0121330D01*
X0145075Y0119456D01*
X0146509Y0118021D01*
X0148384Y0117245D01*
X0148901Y0117245D01*
X0147509Y0116668D01*
X0146075Y0115234D01*
X0145298Y0113359D01*
X0145298Y0111330D01*
X0146075Y0109456D01*
X0147509Y0108021D01*
X0148901Y0107445D01*
X0148684Y0107535D02*
X0116386Y0107535D01*
X0117985Y0109133D02*
X0146397Y0109133D01*
X0145546Y0110732D02*
X0119583Y0110732D01*
X0121182Y0112330D02*
X0145298Y0112330D01*
X0145534Y0113929D02*
X0122780Y0113929D01*
X0124379Y0115527D02*
X0146368Y0115527D01*
X0148614Y0117126D02*
X0125977Y0117126D01*
X0127576Y0118724D02*
X0145806Y0118724D01*
X0144716Y0120323D02*
X0129174Y0120323D01*
X0130773Y0121921D02*
X0144298Y0121921D01*
X0144365Y0123520D02*
X0132371Y0123520D01*
X0133970Y0125118D02*
X0145027Y0125118D01*
X0146627Y0126717D02*
X0135568Y0126717D01*
X0137167Y0128315D02*
X0146650Y0128315D01*
X0145464Y0129914D02*
X0138765Y0129914D01*
X0140364Y0131513D02*
X0144962Y0131513D01*
X0144951Y0133111D02*
X0141962Y0133111D01*
X0143561Y0134710D02*
X0145430Y0134710D01*
X0145159Y0136308D02*
X0146583Y0136308D01*
X0146758Y0137907D02*
X0146787Y0137907D01*
X0142699Y0139505D02*
X0139015Y0139505D01*
X0140613Y0141104D02*
X0144298Y0141104D01*
X0144298Y0142702D02*
X0142212Y0142702D01*
X0143810Y0144301D02*
X0144688Y0144301D01*
X0145409Y0145899D02*
X0145740Y0145899D01*
X0143232Y0149096D02*
X0117668Y0149096D01*
X0117668Y0148252D02*
X0116871Y0146326D01*
X0115397Y0144853D01*
X0113472Y0144055D01*
X0111388Y0144055D01*
X0109462Y0144853D01*
X0107989Y0146326D01*
X0107191Y0148252D01*
X0107191Y0150336D01*
X0107989Y0152261D01*
X0109462Y0153735D01*
X0111388Y0154532D01*
X0113472Y0154532D01*
X0115397Y0153735D01*
X0116871Y0152261D01*
X0117668Y0150336D01*
X0117668Y0148252D01*
X0117356Y0147498D02*
X0141633Y0147498D01*
X0140035Y0145899D02*
X0116444Y0145899D01*
X0114065Y0144301D02*
X0138436Y0144301D01*
X0136838Y0142702D02*
X0017180Y0142702D01*
X0017180Y0141104D02*
X0135239Y0141104D01*
X0133641Y0139505D02*
X0017180Y0139505D01*
X0017180Y0137907D02*
X0132042Y0137907D01*
X0130444Y0136308D02*
X0017180Y0136308D01*
X0017180Y0134710D02*
X0128845Y0134710D01*
X0127247Y0133111D02*
X0017180Y0133111D01*
X0017180Y0131513D02*
X0125648Y0131513D01*
X0124050Y0129914D02*
X0017180Y0129914D01*
X0017180Y0128315D02*
X0122451Y0128315D01*
X0120853Y0126717D02*
X0017180Y0126717D01*
X0017180Y0125118D02*
X0119254Y0125118D01*
X0117656Y0123520D02*
X0017180Y0123520D01*
X0017180Y0121921D02*
X0116057Y0121921D01*
X0114459Y0120323D02*
X0017180Y0120323D01*
X0017180Y0118724D02*
X0112860Y0118724D01*
X0111262Y0117126D02*
X0017180Y0117126D01*
X0017180Y0115527D02*
X0109663Y0115527D01*
X0108065Y0113929D02*
X0017180Y0113929D01*
X0017180Y0112330D02*
X0106466Y0112330D01*
X0104868Y0110732D02*
X0017180Y0110732D01*
X0017180Y0109133D02*
X0103269Y0109133D01*
X0101671Y0107535D02*
X0017180Y0107535D01*
X0017180Y0105936D02*
X0100072Y0105936D01*
X0098474Y0104338D02*
X0017180Y0104338D01*
X0017180Y0102739D02*
X0064180Y0102739D01*
X0064180Y0103023D02*
X0064180Y0097139D01*
X0065000Y0096319D01*
X0065255Y0096319D01*
X0064943Y0096007D01*
X0064943Y0094001D01*
X0063622Y0094001D01*
X0062802Y0093181D01*
X0062802Y0087296D01*
X0063622Y0086476D01*
X0069506Y0086476D01*
X0070326Y0087296D01*
X0070326Y0093181D01*
X0069506Y0094001D01*
X0068743Y0094001D01*
X0068743Y0094433D01*
X0069143Y0094833D01*
X0069143Y0096319D01*
X0069309Y0096319D01*
X0070129Y0097139D01*
X0070129Y0103023D01*
X0069309Y0103843D01*
X0065000Y0103843D01*
X0064180Y0103023D01*
X0064180Y0101141D02*
X0017180Y0101141D01*
X0017180Y0099542D02*
X0064180Y0099542D01*
X0064180Y0097944D02*
X0017180Y0097944D01*
X0017180Y0096345D02*
X0064973Y0096345D01*
X0064943Y0094747D02*
X0017180Y0094747D01*
X0017180Y0093148D02*
X0062802Y0093148D01*
X0062802Y0091550D02*
X0017180Y0091550D01*
X0017180Y0089951D02*
X0062802Y0089951D01*
X0062802Y0088353D02*
X0017180Y0088353D01*
X0017180Y0086754D02*
X0063344Y0086754D01*
X0069784Y0086754D02*
X0071046Y0086754D01*
X0071029Y0086771D02*
X0071364Y0086436D01*
X0071775Y0086199D01*
X0072232Y0086076D01*
X0074450Y0086076D01*
X0074450Y0089857D01*
X0075213Y0089857D01*
X0075213Y0090620D01*
X0078994Y0090620D01*
X0078994Y0092838D01*
X0078871Y0093296D01*
X0078634Y0093706D01*
X0078299Y0094041D01*
X0077888Y0094278D01*
X0077431Y0094401D01*
X0075213Y0094401D01*
X0075213Y0090620D01*
X0074450Y0090620D01*
X0074450Y0094401D01*
X0072232Y0094401D01*
X0071775Y0094278D01*
X0071364Y0094041D01*
X0071029Y0093706D01*
X0070792Y0093296D01*
X0070669Y0092838D01*
X0070669Y0090620D01*
X0074450Y0090620D01*
X0074450Y0089857D01*
X0070669Y0089857D01*
X0070669Y0087639D01*
X0070792Y0087182D01*
X0071029Y0086771D01*
X0070669Y0088353D02*
X0070326Y0088353D01*
X0070326Y0089951D02*
X0074450Y0089951D01*
X0075213Y0089951D02*
X0093146Y0089951D01*
X0094744Y0091550D02*
X0078994Y0091550D01*
X0078911Y0093148D02*
X0096343Y0093148D01*
X0097941Y0094747D02*
X0069057Y0094747D01*
X0069335Y0096345D02*
X0072060Y0096345D01*
X0071266Y0097944D02*
X0070129Y0097944D01*
X0070129Y0099542D02*
X0071266Y0099542D01*
X0071266Y0101141D02*
X0070129Y0101141D01*
X0070129Y0102739D02*
X0071266Y0102739D01*
X0077216Y0102739D02*
X0096875Y0102739D01*
X0099052Y0099542D02*
X0102737Y0099542D01*
X0104335Y0101141D02*
X0100651Y0101141D01*
X0102249Y0102739D02*
X0105934Y0102739D01*
X0107532Y0104338D02*
X0103848Y0104338D01*
X0105446Y0105936D02*
X0109131Y0105936D01*
X0110729Y0107535D02*
X0107045Y0107535D01*
X0108643Y0109133D02*
X0112328Y0109133D01*
X0113926Y0110732D02*
X0110242Y0110732D01*
X0111840Y0112330D02*
X0115525Y0112330D01*
X0117123Y0113929D02*
X0113439Y0113929D01*
X0115037Y0115527D02*
X0118722Y0115527D01*
X0120320Y0117126D02*
X0116636Y0117126D01*
X0118234Y0118724D02*
X0121919Y0118724D01*
X0123517Y0120323D02*
X0119833Y0120323D01*
X0121431Y0121921D02*
X0125116Y0121921D01*
X0126714Y0123520D02*
X0123030Y0123520D01*
X0124628Y0125118D02*
X0128313Y0125118D01*
X0129911Y0126717D02*
X0126227Y0126717D01*
X0127825Y0128315D02*
X0131510Y0128315D01*
X0133108Y0129914D02*
X0129424Y0129914D01*
X0131022Y0131513D02*
X0134707Y0131513D01*
X0136305Y0133111D02*
X0132621Y0133111D01*
X0134219Y0134710D02*
X0137904Y0134710D01*
X0139502Y0136308D02*
X0135818Y0136308D01*
X0137416Y0137907D02*
X0141101Y0137907D01*
X0154362Y0149096D02*
X0155232Y0149096D01*
X0155235Y0150695D02*
X0156830Y0150695D01*
X0155498Y0152293D02*
X0158429Y0152293D01*
X0160027Y0153892D02*
X0155278Y0153892D01*
X0155141Y0155490D02*
X0161626Y0155490D01*
X0163225Y0157089D02*
X0156740Y0157089D01*
X0158338Y0158687D02*
X0164823Y0158687D01*
X0166422Y0160286D02*
X0159937Y0160286D01*
X0161535Y0161884D02*
X0168020Y0161884D01*
X0163134Y0163483D02*
X0173219Y0163483D01*
X0174193Y0165081D02*
X0164732Y0165081D01*
X0166331Y0166680D02*
X0174762Y0166680D01*
X0176496Y0168278D02*
X0167930Y0168278D01*
X0169528Y0169877D02*
X0201498Y0169877D01*
X0199900Y0171475D02*
X0181598Y0171475D01*
X0182577Y0173074D02*
X0198301Y0173074D01*
X0196703Y0174672D02*
X0182793Y0174672D01*
X0182393Y0176271D02*
X0195104Y0176271D01*
X0193743Y0177869D02*
X0183921Y0177869D01*
X0185519Y0179468D02*
X0193743Y0179468D01*
X0193743Y0181066D02*
X0187118Y0181066D01*
X0188716Y0182665D02*
X0193743Y0182665D01*
X0193743Y0184263D02*
X0190315Y0184263D01*
X0191913Y0185862D02*
X0193743Y0185862D01*
X0197543Y0185862D02*
X0234423Y0185862D01*
X0234193Y0185306D02*
X0234193Y0183596D01*
X0234848Y0182015D01*
X0236057Y0180806D01*
X0237638Y0180151D01*
X0239348Y0180151D01*
X0240929Y0180806D01*
X0242138Y0182015D01*
X0242793Y0183596D01*
X0242793Y0185306D01*
X0242138Y0186887D01*
X0240929Y0188097D01*
X0239348Y0188751D01*
X0237638Y0188751D01*
X0236057Y0188097D01*
X0234848Y0186887D01*
X0234193Y0185306D01*
X0234193Y0184263D02*
X0197543Y0184263D01*
X0197543Y0182665D02*
X0234579Y0182665D01*
X0235797Y0181066D02*
X0197543Y0181066D01*
X0197543Y0179468D02*
X0267334Y0179468D01*
X0267233Y0179510D02*
X0268551Y0178964D01*
X0266272Y0178964D01*
X0265814Y0178841D01*
X0265403Y0178604D01*
X0265068Y0178269D01*
X0264831Y0177859D01*
X0264709Y0177401D01*
X0264709Y0173864D01*
X0269809Y0173864D01*
X0269809Y0173464D01*
X0270209Y0173464D01*
X0270209Y0173864D01*
X0275309Y0173864D01*
X0275309Y0177401D01*
X0275186Y0177859D01*
X0274949Y0178269D01*
X0274614Y0178604D01*
X0274203Y0178841D01*
X0273746Y0178964D01*
X0271466Y0178964D01*
X0272784Y0179510D01*
X0274163Y0180888D01*
X0274909Y0182689D01*
X0274909Y0184638D01*
X0274163Y0186439D01*
X0272784Y0187818D01*
X0270983Y0188564D01*
X0269034Y0188564D01*
X0267233Y0187818D01*
X0265855Y0186439D01*
X0265109Y0184638D01*
X0265109Y0182689D01*
X0265855Y0180888D01*
X0267233Y0179510D01*
X0265781Y0181066D02*
X0241189Y0181066D01*
X0242407Y0182665D02*
X0265119Y0182665D01*
X0265109Y0184263D02*
X0242793Y0184263D01*
X0242563Y0185862D02*
X0265615Y0185862D01*
X0266876Y0187460D02*
X0241565Y0187460D01*
X0240297Y0190096D02*
X0240956Y0190431D01*
X0241555Y0190866D01*
X0242078Y0191389D01*
X0242513Y0191988D01*
X0242849Y0192647D01*
X0243077Y0193351D01*
X0243193Y0194081D01*
X0243193Y0194301D01*
X0238643Y0194301D01*
X0238643Y0189751D01*
X0238863Y0189751D01*
X0239593Y0189867D01*
X0240297Y0190096D01*
X0241267Y0190657D02*
X0266085Y0190657D01*
X0265855Y0190888D02*
X0267233Y0189510D01*
X0269034Y0188764D01*
X0270983Y0188764D01*
X0272784Y0189510D01*
X0274163Y0190888D01*
X0274909Y0192689D01*
X0274909Y0194638D01*
X0274163Y0196439D01*
X0272784Y0197818D01*
X0270983Y0198564D01*
X0269034Y0198564D01*
X0267233Y0197818D01*
X0265855Y0196439D01*
X0265109Y0194638D01*
X0265109Y0192689D01*
X0265855Y0190888D01*
X0265288Y0192256D02*
X0242649Y0192256D01*
X0243157Y0193854D02*
X0265109Y0193854D01*
X0265446Y0195453D02*
X0243093Y0195453D01*
X0243077Y0195552D02*
X0242849Y0196255D01*
X0242513Y0196915D01*
X0242078Y0197513D01*
X0241555Y0198036D01*
X0240956Y0198471D01*
X0240297Y0198807D01*
X0239593Y0199035D01*
X0238863Y0199151D01*
X0238643Y0199151D01*
X0238643Y0194601D01*
X0243193Y0194601D01*
X0243193Y0194821D01*
X0243077Y0195552D01*
X0242413Y0197051D02*
X0266467Y0197051D01*
X0266494Y0200248D02*
X0239583Y0200248D01*
X0238343Y0199151D02*
X0238123Y0199151D01*
X0237392Y0199035D01*
X0236689Y0198807D01*
X0236030Y0198471D01*
X0235431Y0198036D01*
X0234908Y0197513D01*
X0234473Y0196915D01*
X0234137Y0196255D01*
X0233909Y0195552D01*
X0233793Y0194821D01*
X0233793Y0194601D01*
X0238343Y0194601D01*
X0238343Y0194301D01*
X0238643Y0194301D01*
X0238643Y0194601D01*
X0238343Y0194601D01*
X0238343Y0199151D01*
X0238343Y0198650D02*
X0238643Y0198650D01*
X0238643Y0197051D02*
X0238343Y0197051D01*
X0238343Y0195453D02*
X0238643Y0195453D01*
X0238343Y0194301D02*
X0233793Y0194301D01*
X0233793Y0194081D01*
X0233909Y0193351D01*
X0234137Y0192647D01*
X0234473Y0191988D01*
X0234908Y0191389D01*
X0235431Y0190866D01*
X0236030Y0190431D01*
X0236689Y0190096D01*
X0237392Y0189867D01*
X0238123Y0189751D01*
X0238343Y0189751D01*
X0238343Y0194301D01*
X0238343Y0193854D02*
X0238643Y0193854D01*
X0238643Y0192256D02*
X0238343Y0192256D01*
X0238343Y0190657D02*
X0238643Y0190657D01*
X0235718Y0190657D02*
X0230570Y0190657D01*
X0230929Y0190806D02*
X0229348Y0190151D01*
X0227638Y0190151D01*
X0226057Y0190806D01*
X0224848Y0192015D01*
X0224193Y0193596D01*
X0224193Y0195306D01*
X0224848Y0196887D01*
X0226057Y0198097D01*
X0227638Y0198751D01*
X0229348Y0198751D01*
X0230929Y0198097D01*
X0232138Y0196887D01*
X0232793Y0195306D01*
X0232793Y0193596D01*
X0232138Y0192015D01*
X0230929Y0190806D01*
X0232238Y0192256D02*
X0234337Y0192256D01*
X0233829Y0193854D02*
X0232793Y0193854D01*
X0232732Y0195453D02*
X0233893Y0195453D01*
X0234573Y0197051D02*
X0231974Y0197051D01*
X0229593Y0198650D02*
X0236381Y0198650D01*
X0237403Y0200248D02*
X0180597Y0200248D01*
X0179593Y0198650D02*
X0227393Y0198650D01*
X0225012Y0197051D02*
X0181974Y0197051D01*
X0182732Y0195453D02*
X0224254Y0195453D01*
X0224193Y0193854D02*
X0182793Y0193854D01*
X0182792Y0192256D02*
X0182238Y0192256D01*
X0174748Y0192256D02*
X0090493Y0192256D01*
X0088895Y0193854D02*
X0174193Y0193854D01*
X0174254Y0195453D02*
X0087296Y0195453D01*
X0085698Y0197051D02*
X0175012Y0197051D01*
X0177393Y0198650D02*
X0084099Y0198650D01*
X0082734Y0200248D02*
X0082501Y0200248D01*
X0081136Y0201847D02*
X0080902Y0201847D01*
X0080798Y0203446D02*
X0080598Y0203446D01*
X0080598Y0205044D02*
X0080798Y0205044D01*
X0081196Y0206643D02*
X0080200Y0206643D01*
X0071196Y0206643D02*
X0070200Y0206643D01*
X0070598Y0205044D02*
X0070798Y0205044D01*
X0070798Y0203446D02*
X0070598Y0203446D01*
X0070259Y0201847D02*
X0071136Y0201847D01*
X0072734Y0200248D02*
X0068661Y0200248D01*
X0062734Y0200248D02*
X0060936Y0200248D01*
X0060998Y0201847D02*
X0061136Y0201847D01*
X0055898Y0201847D02*
X0055498Y0201847D01*
X0055498Y0200248D02*
X0055898Y0200248D01*
X0055498Y0198915D02*
X0051961Y0198915D01*
X0051503Y0199038D01*
X0051092Y0199275D01*
X0050757Y0199610D01*
X0050520Y0200020D01*
X0050398Y0200478D01*
X0050398Y0204015D01*
X0055498Y0204015D01*
X0055498Y0198915D01*
X0050459Y0200248D02*
X0040374Y0200248D01*
X0040498Y0201847D02*
X0050398Y0201847D01*
X0050398Y0203446D02*
X0040258Y0203446D01*
X0040017Y0205044D02*
X0050398Y0205044D01*
X0050398Y0206643D02*
X0039729Y0206643D01*
X0040134Y0198650D02*
X0078725Y0198650D01*
X0080324Y0197051D02*
X0039893Y0197051D01*
X0039797Y0196418D02*
X0039797Y0196418D01*
X0039332Y0195453D02*
X0081922Y0195453D01*
X0083521Y0193854D02*
X0038563Y0193854D01*
X0037793Y0192256D02*
X0085119Y0192256D01*
X0086718Y0190657D02*
X0036502Y0190657D01*
X0035019Y0189059D02*
X0088316Y0189059D01*
X0088661Y0200248D02*
X0176389Y0200248D01*
X0176689Y0200096D02*
X0176030Y0200431D01*
X0175431Y0200866D01*
X0174908Y0201389D01*
X0174473Y0201988D01*
X0174137Y0202647D01*
X0173909Y0203351D01*
X0173793Y0204081D01*
X0173793Y0204301D01*
X0178343Y0204301D01*
X0178343Y0199751D01*
X0178123Y0199751D01*
X0177392Y0199867D01*
X0176689Y0200096D01*
X0178343Y0200248D02*
X0178643Y0200248D01*
X0178643Y0201847D02*
X0178343Y0201847D01*
X0178343Y0203446D02*
X0178643Y0203446D01*
X0182410Y0201847D02*
X0235016Y0201847D01*
X0234255Y0203446D02*
X0183092Y0203446D01*
X0183158Y0205044D02*
X0234193Y0205044D01*
X0234746Y0206643D02*
X0182651Y0206643D01*
X0174335Y0206643D02*
X0090200Y0206643D01*
X0090598Y0205044D02*
X0173828Y0205044D01*
X0173894Y0203446D02*
X0090598Y0203446D01*
X0090259Y0201847D02*
X0174575Y0201847D01*
X0196493Y0192256D02*
X0224748Y0192256D01*
X0226415Y0190657D02*
X0197543Y0190657D01*
X0197543Y0189059D02*
X0268321Y0189059D01*
X0271696Y0189059D02*
X0381956Y0189059D01*
X0380995Y0189826D02*
X0380995Y0189826D01*
X0380995Y0189826D01*
X0380428Y0190657D02*
X0273932Y0190657D01*
X0274729Y0192256D02*
X0379338Y0192256D01*
X0378248Y0193854D02*
X0274909Y0193854D01*
X0274571Y0195453D02*
X0377686Y0195453D01*
X0378123Y0194038D02*
X0378123Y0194038D01*
X0377193Y0197051D02*
X0273551Y0197051D01*
X0273523Y0200248D02*
X0326050Y0200248D01*
X0325988Y0201847D02*
X0274560Y0201847D01*
X0274909Y0203446D02*
X0325988Y0203446D01*
X0325988Y0205044D02*
X0274741Y0205044D01*
X0273960Y0206643D02*
X0325988Y0206643D01*
X0331088Y0203446D02*
X0331488Y0203446D01*
X0331488Y0201847D02*
X0331088Y0201847D01*
X0331088Y0200248D02*
X0331488Y0200248D01*
X0336527Y0200248D02*
X0338325Y0200248D01*
X0336727Y0201847D02*
X0336588Y0201847D01*
X0344251Y0200248D02*
X0348325Y0200248D01*
X0346727Y0201847D02*
X0345850Y0201847D01*
X0346188Y0203446D02*
X0346388Y0203446D01*
X0346388Y0205044D02*
X0346188Y0205044D01*
X0345790Y0206643D02*
X0346786Y0206643D01*
X0355790Y0206643D02*
X0356786Y0206643D01*
X0356388Y0205044D02*
X0356188Y0205044D01*
X0356188Y0203446D02*
X0356388Y0203446D01*
X0356727Y0201847D02*
X0355850Y0201847D01*
X0354251Y0200248D02*
X0358325Y0200248D01*
X0364251Y0200248D02*
X0376620Y0200248D01*
X0376620Y0201847D02*
X0365850Y0201847D01*
X0366188Y0203446D02*
X0376620Y0203446D01*
X0376939Y0205044D02*
X0366188Y0205044D01*
X0365790Y0206643D02*
X0377433Y0206643D01*
X0376700Y0198650D02*
X0240605Y0198650D01*
X0241970Y0201847D02*
X0265457Y0201847D01*
X0265109Y0203446D02*
X0242731Y0203446D01*
X0242793Y0205044D02*
X0265277Y0205044D01*
X0266058Y0206643D02*
X0242240Y0206643D01*
X0235421Y0187460D02*
X0197543Y0187460D01*
X0198880Y0177869D02*
X0225830Y0177869D01*
X0226057Y0178097D02*
X0224848Y0176887D01*
X0224193Y0175306D01*
X0224193Y0173596D01*
X0224848Y0172015D01*
X0226057Y0170806D01*
X0227638Y0170151D01*
X0229348Y0170151D01*
X0230929Y0170806D01*
X0232138Y0172015D01*
X0232793Y0173596D01*
X0232793Y0175306D01*
X0232138Y0176887D01*
X0230929Y0178097D01*
X0229348Y0178751D01*
X0227638Y0178751D01*
X0226057Y0178097D01*
X0224592Y0176271D02*
X0200478Y0176271D01*
X0202077Y0174672D02*
X0224193Y0174672D01*
X0224409Y0173074D02*
X0203675Y0173074D01*
X0205274Y0171475D02*
X0225388Y0171475D01*
X0226496Y0168278D02*
X0208471Y0168278D01*
X0210069Y0166680D02*
X0224762Y0166680D01*
X0224193Y0165081D02*
X0211668Y0165081D01*
X0213266Y0163483D02*
X0224240Y0163483D01*
X0224979Y0161884D02*
X0214865Y0161884D01*
X0209491Y0161884D02*
X0182007Y0161884D01*
X0182746Y0163483D02*
X0207892Y0163483D01*
X0206294Y0165081D02*
X0182793Y0165081D01*
X0182224Y0166680D02*
X0204695Y0166680D01*
X0203097Y0168278D02*
X0180490Y0168278D01*
X0175388Y0171475D02*
X0171127Y0171475D01*
X0172725Y0173074D02*
X0174409Y0173074D01*
X0174193Y0174672D02*
X0174043Y0174672D01*
X0170043Y0176271D02*
X0017180Y0176271D01*
X0017180Y0177869D02*
X0171064Y0177869D01*
X0172662Y0179468D02*
X0017180Y0179468D01*
X0017180Y0181066D02*
X0175797Y0181066D01*
X0174579Y0182665D02*
X0017180Y0182665D01*
X0017180Y0184263D02*
X0174193Y0184263D01*
X0174423Y0185862D02*
X0030263Y0185862D01*
X0033032Y0187460D02*
X0175421Y0187460D01*
X0168667Y0174672D02*
X0017180Y0174672D01*
X0017180Y0173074D02*
X0167068Y0173074D01*
X0165470Y0171475D02*
X0017180Y0171475D01*
X0017180Y0169877D02*
X0163871Y0169877D01*
X0162273Y0168278D02*
X0017180Y0168278D01*
X0017180Y0166680D02*
X0160674Y0166680D01*
X0159076Y0165081D02*
X0017180Y0165081D01*
X0017180Y0163483D02*
X0157477Y0163483D01*
X0155879Y0161884D02*
X0017180Y0161884D01*
X0017180Y0160286D02*
X0154280Y0160286D01*
X0152682Y0158687D02*
X0017180Y0158687D01*
X0017180Y0157089D02*
X0148524Y0157089D01*
X0146331Y0155490D02*
X0017180Y0155490D01*
X0017180Y0153892D02*
X0030425Y0153892D01*
X0030734Y0154116D02*
X0030016Y0153595D01*
X0029389Y0152967D01*
X0028867Y0152249D01*
X0028464Y0151458D01*
X0028190Y0150614D01*
X0028057Y0149773D01*
X0033210Y0149773D01*
X0033210Y0148814D01*
X0028057Y0148814D01*
X0028190Y0147973D01*
X0028464Y0147129D01*
X0028867Y0146338D01*
X0029389Y0145620D01*
X0030016Y0144993D01*
X0030734Y0144471D01*
X0031525Y0144068D01*
X0032369Y0143794D01*
X0033210Y0143661D01*
X0033210Y0148814D01*
X0034169Y0148814D01*
X0034169Y0143661D01*
X0035010Y0143794D01*
X0035854Y0144068D01*
X0036645Y0144471D01*
X0037363Y0144993D01*
X0037991Y0145620D01*
X0038512Y0146338D01*
X0038915Y0147129D01*
X0039189Y0147973D01*
X0039323Y0148814D01*
X0034169Y0148814D01*
X0034169Y0149773D01*
X0033210Y0149773D01*
X0033210Y0154927D01*
X0032369Y0154793D01*
X0031525Y0154519D01*
X0030734Y0154116D01*
X0033210Y0153892D02*
X0034169Y0153892D01*
X0034169Y0154927D02*
X0034169Y0149773D01*
X0039323Y0149773D01*
X0039189Y0150614D01*
X0038915Y0151458D01*
X0038512Y0152249D01*
X0037991Y0152967D01*
X0037363Y0153595D01*
X0036645Y0154116D01*
X0035854Y0154519D01*
X0035010Y0154793D01*
X0034169Y0154927D01*
X0034169Y0152293D02*
X0033210Y0152293D01*
X0033210Y0150695D02*
X0034169Y0150695D01*
X0034169Y0149096D02*
X0107191Y0149096D01*
X0107340Y0150695D02*
X0039163Y0150695D01*
X0038480Y0152293D02*
X0108021Y0152293D01*
X0109841Y0153892D02*
X0036954Y0153892D01*
X0028899Y0152293D02*
X0017180Y0152293D01*
X0017180Y0150695D02*
X0028216Y0150695D01*
X0028345Y0147498D02*
X0017180Y0147498D01*
X0017180Y0149096D02*
X0033210Y0149096D01*
X0033210Y0147498D02*
X0034169Y0147498D01*
X0034169Y0145899D02*
X0033210Y0145899D01*
X0033210Y0144301D02*
X0034169Y0144301D01*
X0036310Y0144301D02*
X0110795Y0144301D01*
X0108416Y0145899D02*
X0038193Y0145899D01*
X0039035Y0147498D02*
X0107504Y0147498D01*
X0115019Y0153892D02*
X0145519Y0153892D01*
X0145298Y0152293D02*
X0116839Y0152293D01*
X0117520Y0150695D02*
X0144830Y0150695D01*
X0181226Y0141104D02*
X0205759Y0141104D01*
X0204563Y0142702D02*
X0182423Y0142702D01*
X0182793Y0144301D02*
X0204193Y0144301D01*
X0204438Y0145899D02*
X0182547Y0145899D01*
X0181528Y0147498D02*
X0205458Y0147498D01*
X0211684Y0137907D02*
X0215867Y0137907D01*
X0214608Y0136308D02*
X0212822Y0136308D01*
X0213193Y0134710D02*
X0214193Y0134710D01*
X0214394Y0133111D02*
X0212999Y0133111D01*
X0212167Y0131513D02*
X0215350Y0131513D01*
X0216586Y0128315D02*
X0210400Y0128315D01*
X0210929Y0128097D02*
X0209348Y0128751D01*
X0207638Y0128751D01*
X0206057Y0128097D01*
X0204848Y0126887D01*
X0204193Y0125306D01*
X0204193Y0124457D01*
X0183256Y0103520D01*
X0182761Y0103520D01*
X0182793Y0103596D01*
X0182793Y0105306D01*
X0182138Y0106887D01*
X0180929Y0108097D01*
X0179348Y0108751D01*
X0177638Y0108751D01*
X0176057Y0108097D01*
X0174848Y0106887D01*
X0174193Y0105306D01*
X0174193Y0103596D01*
X0174848Y0102015D01*
X0174899Y0101964D01*
X0174856Y0101920D01*
X0174056Y0101920D01*
X0159656Y0087520D01*
X0157656Y0087520D01*
X0155556Y0085420D01*
X0155385Y0085591D01*
X0151325Y0085591D01*
X0148455Y0082721D01*
X0148455Y0078662D01*
X0151325Y0075791D01*
X0155385Y0075791D01*
X0158255Y0078662D01*
X0158255Y0082721D01*
X0158243Y0082733D01*
X0159230Y0083720D01*
X0161230Y0083720D01*
X0162343Y0084833D01*
X0175630Y0098120D01*
X0176113Y0098120D01*
X0176057Y0098097D01*
X0174848Y0096887D01*
X0174193Y0095306D01*
X0174193Y0093596D01*
X0174526Y0092791D01*
X0159743Y0078007D01*
X0159743Y0037633D01*
X0160300Y0037075D01*
X0160243Y0036937D01*
X0160243Y0035902D01*
X0160638Y0034947D01*
X0161370Y0034216D01*
X0162325Y0033820D01*
X0163360Y0033820D01*
X0164315Y0034216D01*
X0165047Y0034947D01*
X0165443Y0035902D01*
X0165443Y0036254D01*
X0166122Y0036535D01*
X0166181Y0036476D01*
X0167343Y0036476D01*
X0167343Y0036127D01*
X0166181Y0036127D01*
X0165361Y0035307D01*
X0165361Y0029422D01*
X0166181Y0028602D01*
X0172065Y0028602D01*
X0172885Y0029422D01*
X0172885Y0035307D01*
X0172065Y0036127D01*
X0171143Y0036127D01*
X0171143Y0036476D01*
X0172065Y0036476D01*
X0172885Y0037296D01*
X0172885Y0041606D01*
X0172065Y0042426D01*
X0166181Y0042426D01*
X0165361Y0041606D01*
X0165361Y0041419D01*
X0165360Y0041420D01*
X0165143Y0041420D01*
X0165143Y0070033D01*
X0170143Y0075033D01*
X0170143Y0071233D01*
X0171256Y0070120D01*
X0171743Y0069633D01*
X0171743Y0065820D01*
X0170725Y0065820D01*
X0169770Y0065424D01*
X0169038Y0064692D01*
X0168643Y0063737D01*
X0168643Y0062702D01*
X0169038Y0061747D01*
X0169343Y0061443D01*
X0169343Y0061020D01*
X0168325Y0061020D01*
X0167370Y0060624D01*
X0166638Y0059892D01*
X0166243Y0058937D01*
X0166243Y0057902D01*
X0166638Y0056947D01*
X0167343Y0056243D01*
X0167343Y0049513D01*
X0166181Y0049513D01*
X0165361Y0048692D01*
X0165361Y0044383D01*
X0166181Y0043563D01*
X0172065Y0043563D01*
X0172885Y0044383D01*
X0172885Y0048692D01*
X0172065Y0049513D01*
X0171143Y0049513D01*
X0171143Y0050633D01*
X0173343Y0048433D01*
X0173343Y0043633D01*
X0174456Y0042520D01*
X0175256Y0041720D01*
X0175317Y0041720D01*
X0175203Y0041606D01*
X0175203Y0037296D01*
X0176023Y0036476D01*
X0177343Y0036476D01*
X0177343Y0036127D01*
X0176023Y0036127D01*
X0175203Y0035307D01*
X0175203Y0029422D01*
X0176023Y0028602D01*
X0181907Y0028602D01*
X0182728Y0029422D01*
X0182728Y0035307D01*
X0181907Y0036127D01*
X0181143Y0036127D01*
X0181143Y0036476D01*
X0181907Y0036476D01*
X0182728Y0037296D01*
X0182728Y0041606D01*
X0182522Y0041812D01*
X0183543Y0042833D01*
X0185069Y0044359D01*
X0185866Y0043563D01*
X0191750Y0043563D01*
X0192570Y0044383D01*
X0192570Y0048692D01*
X0191750Y0049513D01*
X0185866Y0049513D01*
X0185046Y0048692D01*
X0185046Y0048320D01*
X0183656Y0048320D01*
X0182728Y0047392D01*
X0182728Y0048692D01*
X0181907Y0049513D01*
X0181143Y0049513D01*
X0181143Y0055833D01*
X0186056Y0050920D01*
X0204456Y0050920D01*
X0205863Y0049513D01*
X0205551Y0049513D01*
X0204731Y0048692D01*
X0204731Y0048208D01*
X0204315Y0048624D01*
X0203360Y0049020D01*
X0202325Y0049020D01*
X0202156Y0048949D01*
X0201592Y0049513D01*
X0195708Y0049513D01*
X0194888Y0048692D01*
X0194888Y0044383D01*
X0195708Y0043563D01*
X0201592Y0043563D01*
X0201989Y0043959D01*
X0202325Y0043820D01*
X0203360Y0043820D01*
X0204315Y0044216D01*
X0204731Y0044631D01*
X0204731Y0044383D01*
X0205551Y0043563D01*
X0211435Y0043563D01*
X0212255Y0044383D01*
X0212255Y0048692D01*
X0211435Y0049513D01*
X0210343Y0049513D01*
X0210343Y0050407D01*
X0207143Y0053607D01*
X0206030Y0054720D01*
X0187630Y0054720D01*
X0180343Y0062007D01*
X0180343Y0066243D01*
X0180647Y0066547D01*
X0181043Y0067502D01*
X0181043Y0068537D01*
X0180647Y0069492D01*
X0179915Y0070224D01*
X0179719Y0070305D01*
X0180929Y0070806D01*
X0182138Y0072015D01*
X0182793Y0073596D01*
X0182793Y0075306D01*
X0182138Y0076887D01*
X0180929Y0078097D01*
X0180873Y0078120D01*
X0181256Y0078120D01*
X0181656Y0077720D01*
X0184030Y0077720D01*
X0206806Y0100496D01*
X0207638Y0100151D01*
X0209348Y0100151D01*
X0210929Y0100806D01*
X0212138Y0102015D01*
X0212793Y0103596D01*
X0212793Y0105306D01*
X0212138Y0106887D01*
X0210929Y0108097D01*
X0209348Y0108751D01*
X0207638Y0108751D01*
X0206057Y0108097D01*
X0204848Y0106887D01*
X0204193Y0105306D01*
X0204193Y0103596D01*
X0204292Y0103356D01*
X0182843Y0081907D01*
X0182830Y0081920D01*
X0182430Y0081920D01*
X0182196Y0082154D01*
X0182793Y0083596D01*
X0182793Y0085306D01*
X0182138Y0086887D01*
X0180929Y0088097D01*
X0179348Y0088751D01*
X0177638Y0088751D01*
X0176057Y0088097D01*
X0174848Y0086887D01*
X0174193Y0085306D01*
X0174193Y0084457D01*
X0163543Y0073807D01*
X0163543Y0076433D01*
X0177371Y0090261D01*
X0177638Y0090151D01*
X0179348Y0090151D01*
X0180929Y0090806D01*
X0182138Y0092015D01*
X0182793Y0093596D01*
X0182793Y0095306D01*
X0182138Y0096887D01*
X0180929Y0098097D01*
X0179907Y0098520D01*
X0181230Y0098520D01*
X0182343Y0099633D01*
X0182430Y0099720D01*
X0184830Y0099720D01*
X0185943Y0100833D01*
X0205986Y0120877D01*
X0206057Y0120806D01*
X0207638Y0120151D01*
X0209348Y0120151D01*
X0210929Y0120806D01*
X0212138Y0122015D01*
X0212793Y0123596D01*
X0212793Y0125306D01*
X0212138Y0126887D01*
X0210929Y0128097D01*
X0212209Y0126717D02*
X0214777Y0126717D01*
X0214848Y0126887D02*
X0214193Y0125306D01*
X0214193Y0123596D01*
X0214848Y0122015D01*
X0216057Y0120806D01*
X0217638Y0120151D01*
X0219348Y0120151D01*
X0220929Y0120806D01*
X0222138Y0122015D01*
X0222793Y0123596D01*
X0222793Y0125306D01*
X0222138Y0126887D01*
X0220929Y0128097D01*
X0219348Y0128751D01*
X0217638Y0128751D01*
X0216057Y0128097D01*
X0214848Y0126887D01*
X0214193Y0125118D02*
X0212793Y0125118D01*
X0212761Y0123520D02*
X0214224Y0123520D01*
X0214942Y0121921D02*
X0212044Y0121921D01*
X0209763Y0120323D02*
X0217223Y0120323D01*
X0217638Y0118751D02*
X0216057Y0118097D01*
X0214848Y0116887D01*
X0214193Y0115306D01*
X0214193Y0113596D01*
X0214848Y0112015D01*
X0216057Y0110806D01*
X0217638Y0110151D01*
X0219348Y0110151D01*
X0220929Y0110806D01*
X0222138Y0112015D01*
X0222793Y0113596D01*
X0222793Y0115306D01*
X0222138Y0116887D01*
X0220929Y0118097D01*
X0219348Y0118751D01*
X0217638Y0118751D01*
X0217573Y0118724D02*
X0209413Y0118724D01*
X0209348Y0118751D02*
X0207638Y0118751D01*
X0206057Y0118097D01*
X0204848Y0116887D01*
X0204193Y0115306D01*
X0204193Y0113596D01*
X0204848Y0112015D01*
X0206057Y0110806D01*
X0207638Y0110151D01*
X0209348Y0110151D01*
X0210929Y0110806D01*
X0212138Y0112015D01*
X0212793Y0113596D01*
X0212793Y0115306D01*
X0212138Y0116887D01*
X0210929Y0118097D01*
X0209348Y0118751D01*
X0207573Y0118724D02*
X0203834Y0118724D01*
X0205087Y0117126D02*
X0202236Y0117126D01*
X0200637Y0115527D02*
X0204284Y0115527D01*
X0204193Y0113929D02*
X0199039Y0113929D01*
X0197440Y0112330D02*
X0204717Y0112330D01*
X0206236Y0110732D02*
X0195842Y0110732D01*
X0194243Y0109133D02*
X0222943Y0109133D01*
X0222943Y0107535D02*
X0221490Y0107535D01*
X0220929Y0108097D02*
X0222138Y0106887D01*
X0222793Y0105306D01*
X0222793Y0103596D01*
X0222138Y0102015D01*
X0220929Y0100806D01*
X0219348Y0100151D01*
X0217638Y0100151D01*
X0216057Y0100806D01*
X0214848Y0102015D01*
X0214193Y0103596D01*
X0214193Y0105306D01*
X0214848Y0106887D01*
X0216057Y0108097D01*
X0217638Y0108751D01*
X0219348Y0108751D01*
X0220929Y0108097D01*
X0220750Y0110732D02*
X0222943Y0110732D01*
X0222943Y0112330D02*
X0222269Y0112330D01*
X0222793Y0113929D02*
X0222943Y0113929D01*
X0222943Y0115527D02*
X0222701Y0115527D01*
X0222943Y0117126D02*
X0221899Y0117126D01*
X0222943Y0118724D02*
X0219413Y0118724D01*
X0219763Y0120323D02*
X0222943Y0120323D01*
X0222943Y0121921D02*
X0222044Y0121921D01*
X0222761Y0123520D02*
X0222943Y0123520D01*
X0222943Y0125118D02*
X0222793Y0125118D01*
X0222943Y0126717D02*
X0222209Y0126717D01*
X0222943Y0128315D02*
X0220400Y0128315D01*
X0229143Y0129914D02*
X0240850Y0129914D01*
X0241635Y0131513D02*
X0242448Y0131513D01*
X0242592Y0133111D02*
X0244047Y0133111D01*
X0242793Y0134710D02*
X0245645Y0134710D01*
X0247244Y0136308D02*
X0242378Y0136308D01*
X0241119Y0137907D02*
X0248842Y0137907D01*
X0251019Y0134710D02*
X0267274Y0134710D01*
X0265770Y0136308D02*
X0252618Y0136308D01*
X0254216Y0137907D02*
X0265109Y0137907D01*
X0265109Y0139505D02*
X0256805Y0139505D01*
X0257843Y0141104D02*
X0265626Y0141104D01*
X0271757Y0144301D02*
X0281733Y0144301D01*
X0280135Y0145899D02*
X0273957Y0145899D01*
X0274740Y0147498D02*
X0278536Y0147498D01*
X0276938Y0149096D02*
X0274909Y0149096D01*
X0274561Y0150695D02*
X0275339Y0150695D01*
X0273741Y0152293D02*
X0273525Y0152293D01*
X0272142Y0153892D02*
X0242793Y0153892D01*
X0242717Y0155490D02*
X0266469Y0155490D01*
X0265855Y0156105D02*
X0267233Y0154726D01*
X0269034Y0153980D01*
X0270983Y0153980D01*
X0271740Y0154294D01*
X0292443Y0133591D01*
X0292443Y0127991D01*
X0294597Y0125837D01*
X0294597Y0121792D01*
X0297267Y0119121D01*
X0295760Y0119121D01*
X0295302Y0118999D01*
X0294892Y0118762D01*
X0294556Y0118426D01*
X0294320Y0118016D01*
X0294197Y0117558D01*
X0294197Y0114021D01*
X0299297Y0114021D01*
X0299297Y0113621D01*
X0299697Y0113621D01*
X0299697Y0108521D01*
X0303234Y0108521D01*
X0303692Y0108644D01*
X0304102Y0108881D01*
X0304437Y0109216D01*
X0304674Y0109626D01*
X0304797Y0110084D01*
X0304797Y0113621D01*
X0299697Y0113621D01*
X0299697Y0114021D01*
X0304797Y0114021D01*
X0304797Y0117558D01*
X0304674Y0118016D01*
X0304437Y0118426D01*
X0304102Y0118762D01*
X0303692Y0118999D01*
X0303234Y0119121D01*
X0301726Y0119121D01*
X0304397Y0121792D01*
X0304397Y0125851D01*
X0301526Y0128721D01*
X0297467Y0128721D01*
X0297418Y0128672D01*
X0296443Y0129648D01*
X0296443Y0135248D01*
X0295271Y0136420D01*
X0274580Y0157111D01*
X0274909Y0157906D01*
X0274909Y0159855D01*
X0274163Y0161656D01*
X0272784Y0163034D01*
X0270983Y0163780D01*
X0269034Y0163780D01*
X0267233Y0163034D01*
X0265855Y0161656D01*
X0265109Y0159855D01*
X0265109Y0157906D01*
X0265855Y0156105D01*
X0265447Y0157089D02*
X0241937Y0157089D01*
X0239503Y0158687D02*
X0265109Y0158687D01*
X0265287Y0160286D02*
X0239673Y0160286D01*
X0242007Y0161884D02*
X0266083Y0161884D01*
X0268316Y0163483D02*
X0242746Y0163483D01*
X0242793Y0165081D02*
X0294197Y0165081D01*
X0294197Y0164021D02*
X0299297Y0164021D01*
X0299297Y0163621D01*
X0294197Y0163621D01*
X0294197Y0160084D01*
X0294320Y0159626D01*
X0294556Y0159216D01*
X0294892Y0158881D01*
X0295302Y0158644D01*
X0295760Y0158521D01*
X0297267Y0158521D01*
X0294597Y0155851D01*
X0294597Y0151792D01*
X0297467Y0148921D01*
X0301526Y0148921D01*
X0304397Y0151792D01*
X0304397Y0155851D01*
X0301726Y0158521D01*
X0303234Y0158521D01*
X0303692Y0158644D01*
X0304102Y0158881D01*
X0304437Y0159216D01*
X0304674Y0159626D01*
X0304797Y0160084D01*
X0304797Y0163621D01*
X0299697Y0163621D01*
X0299697Y0164021D01*
X0304797Y0164021D01*
X0304797Y0167558D01*
X0304674Y0168016D01*
X0304437Y0168426D01*
X0304102Y0168762D01*
X0303692Y0168999D01*
X0303234Y0169121D01*
X0301726Y0169121D01*
X0304397Y0171792D01*
X0304397Y0175851D01*
X0301526Y0178721D01*
X0297467Y0178721D01*
X0294597Y0175851D01*
X0294597Y0171792D01*
X0297267Y0169121D01*
X0295760Y0169121D01*
X0295302Y0168999D01*
X0294892Y0168762D01*
X0294556Y0168426D01*
X0294320Y0168016D01*
X0294197Y0167558D01*
X0294197Y0164021D01*
X0294197Y0163483D02*
X0271702Y0163483D01*
X0273934Y0161884D02*
X0294197Y0161884D01*
X0294197Y0160286D02*
X0274730Y0160286D01*
X0274909Y0158687D02*
X0295227Y0158687D01*
X0295835Y0157089D02*
X0274602Y0157089D01*
X0276200Y0155490D02*
X0294597Y0155490D01*
X0294597Y0153892D02*
X0277799Y0153892D01*
X0279397Y0152293D02*
X0294597Y0152293D01*
X0295694Y0150695D02*
X0280996Y0150695D01*
X0282594Y0149096D02*
X0297292Y0149096D01*
X0301701Y0149096D02*
X0399806Y0149096D01*
X0399806Y0147498D02*
X0284193Y0147498D01*
X0285792Y0145899D02*
X0399806Y0145899D01*
X0399806Y0144301D02*
X0287390Y0144301D01*
X0288989Y0142702D02*
X0399806Y0142702D01*
X0399806Y0141104D02*
X0290587Y0141104D01*
X0292186Y0139505D02*
X0399806Y0139505D01*
X0399806Y0137907D02*
X0293784Y0137907D01*
X0295383Y0136308D02*
X0399806Y0136308D01*
X0399806Y0134710D02*
X0296443Y0134710D01*
X0296443Y0133111D02*
X0399806Y0133111D01*
X0399806Y0131513D02*
X0296443Y0131513D01*
X0296443Y0129914D02*
X0399806Y0129914D01*
X0399806Y0128315D02*
X0376932Y0128315D01*
X0376526Y0128721D02*
X0372467Y0128721D01*
X0369597Y0125851D01*
X0369597Y0121792D01*
X0372467Y0118921D01*
X0376526Y0118921D01*
X0379397Y0121792D01*
X0379397Y0125851D01*
X0376526Y0128721D01*
X0378531Y0126717D02*
X0389885Y0126717D01*
X0390466Y0127298D02*
X0389032Y0125864D01*
X0388255Y0123989D01*
X0388255Y0121960D01*
X0389032Y0120086D01*
X0390466Y0118651D01*
X0392099Y0117975D01*
X0390466Y0117298D01*
X0389032Y0115864D01*
X0388255Y0113989D01*
X0388255Y0111960D01*
X0389032Y0110086D01*
X0390466Y0108651D01*
X0392341Y0107875D01*
X0394370Y0107875D01*
X0396244Y0108651D01*
X0397679Y0110086D01*
X0398455Y0111960D01*
X0398455Y0113989D01*
X0397679Y0115864D01*
X0396244Y0117298D01*
X0394611Y0117975D01*
X0396244Y0118651D01*
X0397679Y0120086D01*
X0398455Y0121960D01*
X0398455Y0123989D01*
X0397679Y0125864D01*
X0396244Y0127298D01*
X0394370Y0128075D01*
X0392341Y0128075D01*
X0390466Y0127298D01*
X0388723Y0125118D02*
X0379397Y0125118D01*
X0379397Y0123520D02*
X0388255Y0123520D01*
X0388271Y0121921D02*
X0379397Y0121921D01*
X0377928Y0120323D02*
X0388933Y0120323D01*
X0390393Y0118724D02*
X0304139Y0118724D01*
X0304797Y0117126D02*
X0370872Y0117126D01*
X0369597Y0115851D02*
X0372467Y0118721D01*
X0376526Y0118721D01*
X0379397Y0115851D01*
X0379397Y0111792D01*
X0376526Y0108921D01*
X0372467Y0108921D01*
X0369597Y0111792D01*
X0369597Y0115851D01*
X0369597Y0115527D02*
X0304797Y0115527D01*
X0304797Y0112330D02*
X0369597Y0112330D01*
X0369597Y0113929D02*
X0299697Y0113929D01*
X0299297Y0113929D02*
X0255543Y0113929D01*
X0255543Y0115527D02*
X0294197Y0115527D01*
X0294197Y0117126D02*
X0255543Y0117126D01*
X0255543Y0118724D02*
X0294854Y0118724D01*
X0296066Y0120323D02*
X0255543Y0120323D01*
X0255543Y0121921D02*
X0294597Y0121921D01*
X0294597Y0123520D02*
X0255543Y0123520D01*
X0255367Y0125118D02*
X0264715Y0125118D01*
X0264709Y0125143D02*
X0264831Y0124686D01*
X0265068Y0124275D01*
X0265403Y0123940D01*
X0265814Y0123703D01*
X0266272Y0123580D01*
X0269809Y0123580D01*
X0269809Y0128680D01*
X0264709Y0128680D01*
X0264709Y0125143D01*
X0264709Y0126717D02*
X0254090Y0126717D01*
X0251595Y0126717D02*
X0243027Y0126717D01*
X0242793Y0125118D02*
X0250318Y0125118D01*
X0250401Y0123520D02*
X0242761Y0123520D01*
X0242044Y0121921D02*
X0251743Y0121921D01*
X0251743Y0120323D02*
X0239763Y0120323D01*
X0239413Y0118724D02*
X0246486Y0118724D01*
X0246243Y0117126D02*
X0241899Y0117126D01*
X0242701Y0115527D02*
X0246943Y0115527D01*
X0246943Y0113929D02*
X0242793Y0113929D01*
X0242819Y0112330D02*
X0246943Y0112330D01*
X0246943Y0110732D02*
X0244417Y0110732D01*
X0246016Y0109133D02*
X0246943Y0109133D01*
X0250743Y0109133D02*
X0251743Y0109133D01*
X0251743Y0107535D02*
X0250743Y0107535D01*
X0250743Y0105936D02*
X0251743Y0105936D01*
X0251743Y0104338D02*
X0250743Y0104338D01*
X0250743Y0102739D02*
X0251743Y0102739D01*
X0251743Y0101141D02*
X0250743Y0101141D01*
X0250743Y0099542D02*
X0251743Y0099542D01*
X0251743Y0097944D02*
X0250743Y0097944D01*
X0250743Y0096345D02*
X0251743Y0096345D01*
X0251743Y0094747D02*
X0250743Y0094747D01*
X0250743Y0093148D02*
X0251743Y0093148D01*
X0251743Y0091550D02*
X0250743Y0091550D01*
X0250743Y0089951D02*
X0251743Y0089951D01*
X0251743Y0088353D02*
X0250743Y0088353D01*
X0250743Y0086754D02*
X0251743Y0086754D01*
X0251743Y0085156D02*
X0250743Y0085156D01*
X0250743Y0083557D02*
X0251743Y0083557D01*
X0251743Y0081959D02*
X0250743Y0081959D01*
X0250743Y0080360D02*
X0251743Y0080360D01*
X0251743Y0078762D02*
X0250743Y0078762D01*
X0250743Y0077163D02*
X0251743Y0077163D01*
X0251743Y0075565D02*
X0250743Y0075565D01*
X0250743Y0073966D02*
X0251743Y0073966D01*
X0251743Y0072368D02*
X0250743Y0072368D01*
X0250743Y0070769D02*
X0251743Y0070769D01*
X0251743Y0069171D02*
X0250743Y0069171D01*
X0250743Y0067572D02*
X0251743Y0067572D01*
X0251743Y0065974D02*
X0250743Y0065974D01*
X0236146Y0070769D02*
X0235980Y0070769D01*
X0232205Y0069171D02*
X0219579Y0069171D01*
X0219230Y0069520D02*
X0217230Y0069520D01*
X0216530Y0070220D01*
X0216743Y0070433D01*
X0216743Y0070522D01*
X0217638Y0070151D01*
X0219348Y0070151D01*
X0220929Y0070806D01*
X0222138Y0072015D01*
X0222793Y0073596D01*
X0222793Y0075306D01*
X0222138Y0076887D01*
X0220929Y0078097D01*
X0219348Y0078751D01*
X0217638Y0078751D01*
X0216743Y0078380D01*
X0216743Y0078407D01*
X0215943Y0079207D01*
X0215943Y0080007D01*
X0214830Y0081120D01*
X0212664Y0083285D01*
X0212793Y0083596D01*
X0212793Y0085306D01*
X0212138Y0086887D01*
X0210929Y0088097D01*
X0209348Y0088751D01*
X0207638Y0088751D01*
X0206057Y0088097D01*
X0204848Y0086887D01*
X0204193Y0085306D01*
X0204193Y0083596D01*
X0204848Y0082015D01*
X0206057Y0080806D01*
X0207638Y0080151D01*
X0209348Y0080151D01*
X0210109Y0080466D01*
X0212143Y0078433D01*
X0212143Y0077633D01*
X0212556Y0077220D01*
X0212543Y0077207D01*
X0212543Y0076856D01*
X0212513Y0076915D01*
X0212078Y0077513D01*
X0211555Y0078036D01*
X0210956Y0078471D01*
X0210297Y0078807D01*
X0209593Y0079035D01*
X0208863Y0079151D01*
X0208643Y0079151D01*
X0208643Y0074601D01*
X0208343Y0074601D01*
X0208343Y0074301D01*
X0208643Y0074301D01*
X0208643Y0069751D01*
X0208863Y0069751D01*
X0209593Y0069867D01*
X0210297Y0070096D01*
X0210956Y0070431D01*
X0211555Y0070866D01*
X0212078Y0071389D01*
X0212513Y0071988D01*
X0212543Y0072046D01*
X0212543Y0072033D01*
X0212756Y0071820D01*
X0212143Y0071207D01*
X0212143Y0070020D01*
X0211614Y0070020D01*
X0210414Y0070020D01*
X0210014Y0069620D01*
X0207671Y0069620D01*
X0207430Y0069861D01*
X0208123Y0069751D01*
X0208343Y0069751D01*
X0208343Y0074301D01*
X0203793Y0074301D01*
X0203793Y0074081D01*
X0203909Y0073351D01*
X0204137Y0072647D01*
X0204473Y0071988D01*
X0204908Y0071389D01*
X0205431Y0070866D01*
X0206030Y0070431D01*
X0206689Y0070096D01*
X0206922Y0070020D01*
X0205671Y0070020D01*
X0202588Y0073102D01*
X0202793Y0073596D01*
X0202793Y0075306D01*
X0202138Y0076887D01*
X0200929Y0078097D01*
X0199348Y0078751D01*
X0197638Y0078751D01*
X0196057Y0078097D01*
X0195955Y0077994D01*
X0195943Y0078007D01*
X0195943Y0080833D01*
X0205986Y0090877D01*
X0206057Y0090806D01*
X0207638Y0090151D01*
X0209348Y0090151D01*
X0210929Y0090806D01*
X0212138Y0092015D01*
X0212793Y0093596D01*
X0212793Y0095306D01*
X0212138Y0096887D01*
X0210929Y0098097D01*
X0209348Y0098751D01*
X0207638Y0098751D01*
X0206057Y0098097D01*
X0204848Y0096887D01*
X0204193Y0095306D01*
X0204193Y0094457D01*
X0193256Y0083520D01*
X0192143Y0082407D01*
X0192143Y0076877D01*
X0192138Y0076887D01*
X0190929Y0078097D01*
X0189348Y0078751D01*
X0187638Y0078751D01*
X0186057Y0078097D01*
X0184848Y0076887D01*
X0184193Y0075306D01*
X0184193Y0073596D01*
X0184848Y0072015D01*
X0186057Y0070806D01*
X0187638Y0070151D01*
X0189348Y0070151D01*
X0190929Y0070806D01*
X0192138Y0072015D01*
X0192543Y0072991D01*
X0192543Y0072461D01*
X0192243Y0071737D01*
X0192243Y0070702D01*
X0192638Y0069747D01*
X0193370Y0069016D01*
X0194325Y0068620D01*
X0195360Y0068620D01*
X0196315Y0069016D01*
X0197047Y0069747D01*
X0197276Y0070301D01*
X0197638Y0070151D01*
X0199348Y0070151D01*
X0199726Y0070308D01*
X0202843Y0067191D01*
X0204014Y0066020D01*
X0205614Y0066020D01*
X0206014Y0065620D01*
X0206124Y0065620D01*
X0205919Y0065535D01*
X0204484Y0064100D01*
X0203708Y0062225D01*
X0203708Y0061708D01*
X0203131Y0063100D01*
X0201697Y0064535D01*
X0199822Y0065311D01*
X0197793Y0065311D01*
X0195919Y0064535D01*
X0194484Y0063100D01*
X0193908Y0061708D01*
X0193908Y0062225D01*
X0193131Y0064100D01*
X0191697Y0065535D01*
X0189822Y0066311D01*
X0187793Y0066311D01*
X0185919Y0065535D01*
X0184484Y0064100D01*
X0183708Y0062225D01*
X0183708Y0060197D01*
X0184484Y0058322D01*
X0185919Y0056887D01*
X0187793Y0056111D01*
X0189822Y0056111D01*
X0191697Y0056887D01*
X0193131Y0058322D01*
X0193708Y0059714D01*
X0193708Y0059197D01*
X0194484Y0057322D01*
X0195919Y0055887D01*
X0197793Y0055111D01*
X0199822Y0055111D01*
X0201697Y0055887D01*
X0203131Y0057322D01*
X0203908Y0059197D01*
X0203908Y0059714D01*
X0204484Y0058322D01*
X0205919Y0056887D01*
X0207793Y0056111D01*
X0209822Y0056111D01*
X0211697Y0056887D01*
X0213131Y0058322D01*
X0213708Y0059714D01*
X0213708Y0059197D01*
X0214484Y0057322D01*
X0215919Y0055887D01*
X0217793Y0055111D01*
X0219822Y0055111D01*
X0220461Y0055376D01*
X0220638Y0054947D01*
X0221370Y0054216D01*
X0222325Y0053820D01*
X0223360Y0053820D01*
X0224315Y0054216D01*
X0225047Y0054947D01*
X0225443Y0055902D01*
X0225443Y0056858D01*
X0225925Y0056507D01*
X0226697Y0056114D01*
X0227520Y0055846D01*
X0228375Y0055711D01*
X0228608Y0055711D01*
X0228608Y0061011D01*
X0229008Y0061011D01*
X0229008Y0061411D01*
X0234308Y0061411D01*
X0234308Y0061644D01*
X0234172Y0062499D01*
X0233905Y0063322D01*
X0233512Y0064094D01*
X0233003Y0064794D01*
X0232391Y0065406D01*
X0231691Y0065915D01*
X0230919Y0066308D01*
X0230096Y0066576D01*
X0229241Y0066711D01*
X0229008Y0066711D01*
X0229008Y0061411D01*
X0228608Y0061411D01*
X0228608Y0066711D01*
X0228375Y0066711D01*
X0227520Y0066576D01*
X0226697Y0066308D01*
X0225925Y0065915D01*
X0225225Y0065406D01*
X0224613Y0064794D01*
X0224336Y0064413D01*
X0219230Y0069520D01*
X0220840Y0070769D02*
X0226146Y0070769D01*
X0224702Y0072368D02*
X0222284Y0072368D01*
X0222793Y0073966D02*
X0224193Y0073966D01*
X0224300Y0075565D02*
X0222686Y0075565D01*
X0221862Y0077163D02*
X0225124Y0077163D01*
X0229015Y0080360D02*
X0219853Y0080360D01*
X0219348Y0080151D02*
X0220929Y0080806D01*
X0222138Y0082015D01*
X0222793Y0083596D01*
X0222793Y0085306D01*
X0222138Y0086887D01*
X0220929Y0088097D01*
X0219348Y0088751D01*
X0217638Y0088751D01*
X0216057Y0088097D01*
X0214848Y0086887D01*
X0214193Y0085306D01*
X0214193Y0083596D01*
X0214848Y0082015D01*
X0216057Y0080806D01*
X0217638Y0080151D01*
X0219348Y0080151D01*
X0217133Y0080360D02*
X0215589Y0080360D01*
X0214904Y0081959D02*
X0213991Y0081959D01*
X0214209Y0083557D02*
X0212777Y0083557D01*
X0212793Y0085156D02*
X0214193Y0085156D01*
X0214793Y0086754D02*
X0212193Y0086754D01*
X0210310Y0088353D02*
X0216676Y0088353D01*
X0217638Y0090151D02*
X0219348Y0090151D01*
X0220929Y0090806D01*
X0222138Y0092015D01*
X0222793Y0093596D01*
X0222793Y0095306D01*
X0222138Y0096887D01*
X0220929Y0098097D01*
X0219348Y0098751D01*
X0217638Y0098751D01*
X0216057Y0098097D01*
X0214848Y0096887D01*
X0214193Y0095306D01*
X0214193Y0093596D01*
X0214848Y0092015D01*
X0216057Y0090806D01*
X0217638Y0090151D01*
X0215313Y0091550D02*
X0211673Y0091550D01*
X0212607Y0093148D02*
X0214378Y0093148D01*
X0214193Y0094747D02*
X0212793Y0094747D01*
X0212363Y0096345D02*
X0214623Y0096345D01*
X0215904Y0097944D02*
X0211081Y0097944D01*
X0211264Y0101141D02*
X0215722Y0101141D01*
X0214548Y0102739D02*
X0212438Y0102739D01*
X0212793Y0104338D02*
X0214193Y0104338D01*
X0214454Y0105936D02*
X0212532Y0105936D01*
X0211490Y0107535D02*
X0215495Y0107535D01*
X0216236Y0110732D02*
X0210750Y0110732D01*
X0212269Y0112330D02*
X0214717Y0112330D01*
X0214193Y0113929D02*
X0212793Y0113929D01*
X0212701Y0115527D02*
X0214284Y0115527D01*
X0215087Y0117126D02*
X0211899Y0117126D01*
X0207223Y0120323D02*
X0205433Y0120323D01*
X0201657Y0121921D02*
X0182044Y0121921D01*
X0182761Y0123520D02*
X0203256Y0123520D01*
X0204193Y0125118D02*
X0182793Y0125118D01*
X0182209Y0126717D02*
X0204777Y0126717D01*
X0206586Y0128315D02*
X0180400Y0128315D01*
X0176586Y0128315D02*
X0173943Y0128315D01*
X0173943Y0126717D02*
X0174777Y0126717D01*
X0174193Y0125118D02*
X0173943Y0125118D01*
X0173943Y0123520D02*
X0174224Y0123520D01*
X0173943Y0121921D02*
X0174942Y0121921D01*
X0174885Y0120323D02*
X0173943Y0120323D01*
X0173943Y0118724D02*
X0174060Y0118724D01*
X0170143Y0118724D02*
X0165415Y0118724D01*
X0165843Y0117126D02*
X0170143Y0117126D01*
X0170063Y0115527D02*
X0165227Y0115527D01*
X0165143Y0113929D02*
X0168465Y0113929D01*
X0166866Y0112330D02*
X0165143Y0112330D01*
X0165143Y0110732D02*
X0165268Y0110732D01*
X0171443Y0109133D02*
X0188869Y0109133D01*
X0187271Y0107535D02*
X0181490Y0107535D01*
X0182532Y0105936D02*
X0185672Y0105936D01*
X0184074Y0104338D02*
X0182793Y0104338D01*
X0187849Y0102739D02*
X0203675Y0102739D01*
X0204193Y0104338D02*
X0189448Y0104338D01*
X0191046Y0105936D02*
X0204454Y0105936D01*
X0205495Y0107535D02*
X0192645Y0107535D01*
X0190468Y0110732D02*
X0180750Y0110732D01*
X0182269Y0112330D02*
X0192066Y0112330D01*
X0193665Y0113929D02*
X0182793Y0113929D01*
X0182701Y0115527D02*
X0195263Y0115527D01*
X0196862Y0117126D02*
X0181899Y0117126D01*
X0179843Y0118724D02*
X0198460Y0118724D01*
X0200059Y0120323D02*
X0179763Y0120323D01*
X0174717Y0112330D02*
X0174640Y0112330D01*
X0176236Y0110732D02*
X0173042Y0110732D01*
X0175495Y0107535D02*
X0169845Y0107535D01*
X0168246Y0105936D02*
X0174454Y0105936D01*
X0174193Y0104338D02*
X0166648Y0104338D01*
X0165049Y0102739D02*
X0174548Y0102739D01*
X0173277Y0101141D02*
X0163943Y0101141D01*
X0163943Y0099542D02*
X0171678Y0099542D01*
X0170080Y0097944D02*
X0163943Y0097944D01*
X0163455Y0096345D02*
X0168481Y0096345D01*
X0166883Y0094747D02*
X0161857Y0094747D01*
X0160258Y0093148D02*
X0165284Y0093148D01*
X0163686Y0091550D02*
X0158660Y0091550D01*
X0157061Y0089951D02*
X0162087Y0089951D01*
X0160489Y0088353D02*
X0155463Y0088353D01*
X0156890Y0086754D02*
X0153864Y0086754D01*
X0150890Y0085156D02*
X0150666Y0085156D01*
X0149291Y0083557D02*
X0149067Y0083557D01*
X0148455Y0081959D02*
X0147468Y0081959D01*
X0148455Y0080360D02*
X0145870Y0080360D01*
X0145543Y0078762D02*
X0148455Y0078762D01*
X0149954Y0077163D02*
X0144273Y0077163D01*
X0142674Y0075565D02*
X0151299Y0075565D01*
X0151325Y0075591D02*
X0148455Y0072721D01*
X0148455Y0068662D01*
X0151325Y0065791D01*
X0155385Y0065791D01*
X0158255Y0068662D01*
X0158255Y0072721D01*
X0155385Y0075591D01*
X0151325Y0075591D01*
X0149700Y0073966D02*
X0141076Y0073966D01*
X0139477Y0072368D02*
X0148455Y0072368D01*
X0148455Y0070769D02*
X0137879Y0070769D01*
X0136280Y0069171D02*
X0148455Y0069171D01*
X0149545Y0067572D02*
X0134682Y0067572D01*
X0133083Y0065974D02*
X0151143Y0065974D01*
X0151325Y0065591D02*
X0148455Y0062721D01*
X0148455Y0059284D01*
X0147915Y0059824D01*
X0146960Y0060220D01*
X0145925Y0060220D01*
X0144970Y0059824D01*
X0144238Y0059092D01*
X0143843Y0058137D01*
X0143843Y0057102D01*
X0144238Y0056147D01*
X0144970Y0055416D01*
X0145925Y0055020D01*
X0146214Y0055020D01*
X0148484Y0052750D01*
X0148455Y0052721D01*
X0148455Y0048662D01*
X0151325Y0045791D01*
X0155385Y0045791D01*
X0158255Y0048662D01*
X0158255Y0052721D01*
X0155385Y0055591D01*
X0151325Y0055591D01*
X0151312Y0055578D01*
X0149043Y0057848D01*
X0149043Y0058074D01*
X0151325Y0055791D01*
X0155385Y0055791D01*
X0158255Y0058662D01*
X0158255Y0062721D01*
X0155385Y0065591D01*
X0151325Y0065591D01*
X0150109Y0064375D02*
X0131485Y0064375D01*
X0129886Y0062777D02*
X0148511Y0062777D01*
X0148455Y0061178D02*
X0128288Y0061178D01*
X0126689Y0059579D02*
X0144725Y0059579D01*
X0143843Y0057981D02*
X0125091Y0057981D01*
X0123492Y0056382D02*
X0144141Y0056382D01*
X0146450Y0054784D02*
X0121894Y0054784D01*
X0120295Y0053185D02*
X0148048Y0053185D01*
X0148455Y0051587D02*
X0118697Y0051587D01*
X0115625Y0049988D02*
X0148455Y0049988D01*
X0148727Y0048390D02*
X0115625Y0048390D01*
X0115625Y0046791D02*
X0150325Y0046791D01*
X0151325Y0045591D02*
X0148455Y0042721D01*
X0148455Y0038662D01*
X0151125Y0035991D01*
X0149618Y0035991D01*
X0149160Y0035869D01*
X0148750Y0035632D01*
X0148415Y0035297D01*
X0148178Y0034886D01*
X0148055Y0034428D01*
X0148055Y0030891D01*
X0153155Y0030891D01*
X0153155Y0030491D01*
X0153555Y0030491D01*
X0153555Y0025391D01*
X0157092Y0025391D01*
X0157550Y0025514D01*
X0157960Y0025751D01*
X0158295Y0026086D01*
X0158532Y0026497D01*
X0158655Y0026954D01*
X0158655Y0030491D01*
X0153555Y0030491D01*
X0153555Y0030891D01*
X0158655Y0030891D01*
X0158655Y0034428D01*
X0158532Y0034886D01*
X0158295Y0035297D01*
X0157960Y0035632D01*
X0157550Y0035869D01*
X0157092Y0035991D01*
X0155585Y0035991D01*
X0158255Y0038662D01*
X0158255Y0042721D01*
X0155385Y0045591D01*
X0151325Y0045591D01*
X0150927Y0045193D02*
X0101103Y0045193D01*
X0102701Y0046791D02*
X0103994Y0046791D01*
X0100524Y0049988D02*
X0097643Y0049988D01*
X0097643Y0048390D02*
X0098926Y0048390D01*
X0097643Y0051587D02*
X0102123Y0051587D01*
X0103721Y0053185D02*
X0097643Y0053185D01*
X0097643Y0054784D02*
X0105320Y0054784D01*
X0097643Y0056382D02*
X0118118Y0056382D01*
X0119717Y0057981D02*
X0097643Y0057981D01*
X0097643Y0059579D02*
X0121315Y0059579D01*
X0122914Y0061178D02*
X0115593Y0061178D01*
X0115625Y0062777D02*
X0124512Y0062777D01*
X0126111Y0064375D02*
X0115625Y0064375D01*
X0115021Y0065974D02*
X0127709Y0065974D01*
X0129308Y0067572D02*
X0108419Y0067572D01*
X0108399Y0067497D02*
X0108521Y0067954D01*
X0108521Y0070172D01*
X0104740Y0070172D01*
X0104740Y0066391D01*
X0106958Y0066391D01*
X0107416Y0066514D01*
X0107826Y0066751D01*
X0108162Y0067086D01*
X0108399Y0067497D01*
X0108521Y0069171D02*
X0130906Y0069171D01*
X0132505Y0070769D02*
X0104740Y0070769D01*
X0104740Y0070935D02*
X0108521Y0070935D01*
X0108521Y0073153D01*
X0108399Y0073611D01*
X0108162Y0074021D01*
X0107826Y0074356D01*
X0107416Y0074593D01*
X0106958Y0074716D01*
X0104740Y0074716D01*
X0104740Y0070935D01*
X0103978Y0070935D01*
X0103978Y0074716D01*
X0101760Y0074716D01*
X0101302Y0074593D01*
X0100892Y0074356D01*
X0100556Y0074021D01*
X0100320Y0073611D01*
X0100197Y0073153D01*
X0100197Y0070935D01*
X0103978Y0070935D01*
X0103978Y0070172D01*
X0104740Y0070172D01*
X0104740Y0070935D01*
X0103978Y0070769D02*
X0099854Y0070769D01*
X0100197Y0070172D02*
X0100197Y0067954D01*
X0100320Y0067497D01*
X0100556Y0067086D01*
X0100892Y0066751D01*
X0101302Y0066514D01*
X0101760Y0066391D01*
X0103978Y0066391D01*
X0103978Y0070172D01*
X0100197Y0070172D01*
X0100197Y0069171D02*
X0099854Y0069171D01*
X0099854Y0067611D02*
X0099854Y0073496D01*
X0099033Y0074316D01*
X0098343Y0074316D01*
X0098343Y0076634D01*
X0098837Y0076634D01*
X0099657Y0077454D01*
X0099657Y0083338D01*
X0098837Y0084158D01*
X0094527Y0084158D01*
X0093707Y0083338D01*
X0093707Y0077454D01*
X0094527Y0076634D01*
X0094543Y0076634D01*
X0094543Y0074316D01*
X0093149Y0074316D01*
X0092329Y0073496D01*
X0092329Y0067611D01*
X0093149Y0066791D01*
X0099033Y0066791D01*
X0099854Y0067611D01*
X0099814Y0067572D02*
X0100299Y0067572D01*
X0103978Y0067572D02*
X0104740Y0067572D01*
X0104740Y0069171D02*
X0103978Y0069171D01*
X0103978Y0072368D02*
X0104740Y0072368D01*
X0104740Y0073966D02*
X0103978Y0073966D01*
X0100525Y0073966D02*
X0099383Y0073966D01*
X0099854Y0072368D02*
X0100197Y0072368D01*
X0098343Y0075565D02*
X0137300Y0075565D01*
X0135702Y0073966D02*
X0108193Y0073966D01*
X0108521Y0072368D02*
X0134103Y0072368D01*
X0138899Y0077163D02*
X0106452Y0077163D01*
X0101085Y0077163D02*
X0099366Y0077163D01*
X0099657Y0078762D02*
X0100794Y0078762D01*
X0100794Y0080360D02*
X0099657Y0080360D01*
X0099657Y0081959D02*
X0100794Y0081959D01*
X0101013Y0083557D02*
X0099438Y0083557D01*
X0106524Y0083557D02*
X0138093Y0083557D01*
X0139692Y0085156D02*
X0094007Y0085156D01*
X0093926Y0083557D02*
X0093643Y0083557D01*
X0093610Y0081959D02*
X0093707Y0081959D01*
X0093707Y0080360D02*
X0092011Y0080360D01*
X0090413Y0078762D02*
X0093707Y0078762D01*
X0093998Y0077163D02*
X0088814Y0077163D01*
X0087216Y0075565D02*
X0094543Y0075565D01*
X0092800Y0073966D02*
X0088125Y0073966D01*
X0089723Y0072368D02*
X0092329Y0072368D01*
X0092329Y0070769D02*
X0090443Y0070769D01*
X0090443Y0069171D02*
X0092329Y0069171D01*
X0092369Y0067572D02*
X0090443Y0067572D01*
X0093021Y0065974D02*
X0107429Y0065974D01*
X0106857Y0061178D02*
X0097643Y0061178D01*
X0093643Y0061178D02*
X0093593Y0061178D01*
X0093625Y0061210D02*
X0093625Y0061220D01*
X0093643Y0061220D01*
X0093643Y0046048D01*
X0092814Y0045220D01*
X0086098Y0045220D01*
X0086098Y0045390D01*
X0092805Y0045390D01*
X0093625Y0046210D01*
X0093625Y0050370D01*
X0092805Y0051190D01*
X0090243Y0051190D01*
X0090243Y0052137D01*
X0089847Y0053092D01*
X0089115Y0053824D01*
X0088160Y0054220D01*
X0087125Y0054220D01*
X0086704Y0054045D01*
X0086430Y0054320D01*
X0084302Y0054320D01*
X0084302Y0054401D01*
X0083482Y0055221D01*
X0077598Y0055221D01*
X0077407Y0055031D01*
X0075213Y0055031D01*
X0075213Y0051250D01*
X0074450Y0051250D01*
X0074450Y0055031D01*
X0072232Y0055031D01*
X0071775Y0054908D01*
X0071364Y0054671D01*
X0071029Y0054336D01*
X0070792Y0053925D01*
X0070669Y0053468D01*
X0070669Y0051250D01*
X0074450Y0051250D01*
X0074450Y0050487D01*
X0075213Y0050487D01*
X0075213Y0046706D01*
X0077431Y0046706D01*
X0077888Y0046829D01*
X0078299Y0047066D01*
X0078634Y0047401D01*
X0078871Y0047812D01*
X0078994Y0048269D01*
X0078994Y0049272D01*
X0083482Y0049272D01*
X0084302Y0050092D01*
X0084302Y0050520D01*
X0084856Y0050520D01*
X0084915Y0050460D01*
X0084825Y0050370D01*
X0084825Y0046505D01*
X0078118Y0046505D01*
X0077298Y0045685D01*
X0077298Y0045620D01*
X0064098Y0045620D01*
X0064098Y0045685D01*
X0063278Y0046505D01*
X0060843Y0046505D01*
X0060843Y0052048D01*
X0059671Y0053220D01*
X0053643Y0059248D01*
X0053643Y0060390D01*
X0055750Y0060390D01*
X0056570Y0061210D01*
X0056570Y0065075D01*
X0063278Y0065075D01*
X0064098Y0065895D01*
X0064098Y0066120D01*
X0072001Y0066120D01*
X0071843Y0065737D01*
X0071843Y0064702D01*
X0071981Y0064368D01*
X0071266Y0063653D01*
X0071266Y0057769D01*
X0072086Y0056949D01*
X0076396Y0056949D01*
X0076778Y0057331D01*
X0076778Y0057178D01*
X0077598Y0056358D01*
X0083482Y0056358D01*
X0083579Y0056455D01*
X0084014Y0056020D01*
X0085671Y0056020D01*
X0089671Y0060020D01*
X0090041Y0060390D01*
X0092805Y0060390D01*
X0093625Y0061210D01*
X0093643Y0059579D02*
X0089231Y0059579D01*
X0087632Y0057981D02*
X0093643Y0057981D01*
X0093643Y0056382D02*
X0086034Y0056382D01*
X0083651Y0056382D02*
X0083506Y0056382D01*
X0083920Y0054784D02*
X0093643Y0054784D01*
X0093643Y0053185D02*
X0089754Y0053185D01*
X0090243Y0051587D02*
X0093643Y0051587D01*
X0093625Y0049988D02*
X0093643Y0049988D01*
X0093625Y0048390D02*
X0093643Y0048390D01*
X0093625Y0046791D02*
X0093643Y0046791D01*
X0097906Y0041996D02*
X0148455Y0041996D01*
X0148455Y0040397D02*
X0096307Y0040397D01*
X0094709Y0038799D02*
X0148455Y0038799D01*
X0149916Y0037200D02*
X0093110Y0037200D01*
X0091512Y0035602D02*
X0148720Y0035602D01*
X0148055Y0034003D02*
X0089913Y0034003D01*
X0088315Y0032405D02*
X0148055Y0032405D01*
X0148055Y0030491D02*
X0148055Y0026954D01*
X0148178Y0026497D01*
X0148415Y0026086D01*
X0148750Y0025751D01*
X0149160Y0025514D01*
X0149618Y0025391D01*
X0153155Y0025391D01*
X0153155Y0030491D01*
X0148055Y0030491D01*
X0148055Y0029208D02*
X0086098Y0029208D01*
X0086098Y0027609D02*
X0148055Y0027609D01*
X0148490Y0026011D02*
X0085584Y0026011D01*
X0077812Y0026011D02*
X0063584Y0026011D01*
X0063976Y0030806D02*
X0077331Y0030806D01*
X0077043Y0032405D02*
X0054775Y0032405D01*
X0054775Y0034003D02*
X0077949Y0034003D01*
X0081336Y0034003D02*
X0082139Y0034003D01*
X0086138Y0035602D02*
X0038675Y0035602D01*
X0037905Y0037200D02*
X0047543Y0037200D01*
X0047250Y0038799D02*
X0036719Y0038799D01*
X0035236Y0040397D02*
X0047250Y0040397D01*
X0047444Y0041996D02*
X0033436Y0041996D01*
X0034117Y0041603D02*
X0034117Y0041603D01*
X0030668Y0043594D02*
X0055298Y0043594D01*
X0055298Y0041996D02*
X0054582Y0041996D01*
X0055298Y0045193D02*
X0025141Y0045193D01*
X0023485Y0045193D02*
X0017180Y0045193D01*
X0017180Y0046791D02*
X0025770Y0046791D01*
X0025770Y0048390D02*
X0017180Y0048390D01*
X0017180Y0049988D02*
X0017826Y0049988D01*
X0017723Y0051587D02*
X0017180Y0051587D01*
X0017180Y0053185D02*
X0017723Y0053185D01*
X0018106Y0054784D02*
X0017180Y0054784D01*
X0017180Y0056382D02*
X0018519Y0056382D01*
X0017723Y0057981D02*
X0017180Y0057981D01*
X0017180Y0059579D02*
X0017723Y0059579D01*
X0017723Y0061178D02*
X0017180Y0061178D01*
X0017180Y0062777D02*
X0025770Y0062777D01*
X0025770Y0064375D02*
X0017180Y0064375D01*
X0017180Y0065974D02*
X0026374Y0065974D01*
X0029231Y0059579D02*
X0049643Y0059579D01*
X0049643Y0057981D02*
X0027632Y0057981D01*
X0024451Y0056382D02*
X0050851Y0056382D01*
X0052450Y0054784D02*
X0024864Y0054784D01*
X0030554Y0053185D02*
X0054048Y0053185D01*
X0055647Y0051587D02*
X0031043Y0051587D01*
X0025770Y0049988D02*
X0025144Y0049988D01*
X0029702Y0044152D02*
X0029702Y0044152D01*
X0039445Y0034003D02*
X0047250Y0034003D01*
X0047250Y0032405D02*
X0039928Y0032405D01*
X0039797Y0033272D02*
X0039797Y0033272D01*
X0040169Y0030806D02*
X0047250Y0030806D01*
X0050167Y0029208D02*
X0040410Y0029208D01*
X0040557Y0028231D02*
X0040557Y0028231D01*
X0040463Y0027609D02*
X0051766Y0027609D01*
X0053364Y0026011D02*
X0040222Y0026011D01*
X0039981Y0024412D02*
X0168742Y0024412D01*
X0168742Y0026011D02*
X0169504Y0026011D01*
X0169504Y0027609D02*
X0168742Y0027609D01*
X0165365Y0027609D02*
X0158655Y0027609D01*
X0158655Y0029208D02*
X0165575Y0029208D01*
X0165361Y0030806D02*
X0153555Y0030806D01*
X0153155Y0030806D02*
X0085976Y0030806D01*
X0087736Y0037200D02*
X0056852Y0037200D01*
X0058450Y0038799D02*
X0089335Y0038799D01*
X0090933Y0040397D02*
X0060049Y0040397D01*
X0060843Y0046791D02*
X0071915Y0046791D01*
X0071775Y0046829D02*
X0072232Y0046706D01*
X0074450Y0046706D01*
X0074450Y0050487D01*
X0070669Y0050487D01*
X0070669Y0048269D01*
X0070792Y0047812D01*
X0071029Y0047401D01*
X0071364Y0047066D01*
X0071775Y0046829D01*
X0070326Y0047926D02*
X0070326Y0053811D01*
X0069506Y0054631D01*
X0068743Y0054631D01*
X0068743Y0055233D01*
X0069143Y0055633D01*
X0069143Y0056949D01*
X0069309Y0056949D01*
X0070129Y0057769D01*
X0070129Y0063653D01*
X0069309Y0064473D01*
X0065000Y0064473D01*
X0064180Y0063653D01*
X0064180Y0057769D01*
X0065000Y0056949D01*
X0065085Y0056949D01*
X0064943Y0056807D01*
X0064943Y0054631D01*
X0063622Y0054631D01*
X0062802Y0053811D01*
X0062802Y0047926D01*
X0063622Y0047106D01*
X0069506Y0047106D01*
X0070326Y0047926D01*
X0070326Y0048390D02*
X0070669Y0048390D01*
X0070669Y0049988D02*
X0070326Y0049988D01*
X0070326Y0051587D02*
X0070669Y0051587D01*
X0070669Y0053185D02*
X0070326Y0053185D01*
X0071560Y0054784D02*
X0068743Y0054784D01*
X0069143Y0056382D02*
X0077574Y0056382D01*
X0075213Y0054784D02*
X0074450Y0054784D01*
X0074450Y0053185D02*
X0075213Y0053185D01*
X0075213Y0051587D02*
X0074450Y0051587D01*
X0074450Y0049988D02*
X0075213Y0049988D01*
X0075213Y0048390D02*
X0074450Y0048390D01*
X0074450Y0046791D02*
X0075213Y0046791D01*
X0077748Y0046791D02*
X0084825Y0046791D01*
X0084825Y0048390D02*
X0078994Y0048390D01*
X0084199Y0049988D02*
X0084825Y0049988D01*
X0071266Y0057981D02*
X0070129Y0057981D01*
X0070129Y0059579D02*
X0071266Y0059579D01*
X0071266Y0061178D02*
X0070129Y0061178D01*
X0070129Y0062777D02*
X0071266Y0062777D01*
X0071978Y0064375D02*
X0069407Y0064375D01*
X0071941Y0065974D02*
X0064098Y0065974D01*
X0064901Y0064375D02*
X0056570Y0064375D01*
X0056570Y0062777D02*
X0064180Y0062777D01*
X0064180Y0061178D02*
X0056538Y0061178D01*
X0053643Y0059579D02*
X0064180Y0059579D01*
X0064180Y0057981D02*
X0054910Y0057981D01*
X0056508Y0056382D02*
X0064943Y0056382D01*
X0064943Y0054784D02*
X0058107Y0054784D01*
X0059705Y0053185D02*
X0062802Y0053185D01*
X0062802Y0051587D02*
X0060843Y0051587D01*
X0060843Y0049988D02*
X0062802Y0049988D01*
X0062802Y0048390D02*
X0060843Y0048390D01*
X0056843Y0048390D02*
X0056570Y0048390D01*
X0056570Y0049988D02*
X0056843Y0049988D01*
X0056843Y0046791D02*
X0056570Y0046791D01*
X0047802Y0061178D02*
X0034538Y0061178D01*
X0033966Y0065974D02*
X0048374Y0065974D01*
X0049364Y0067572D02*
X0055298Y0067572D01*
X0055298Y0069171D02*
X0054169Y0069171D01*
X0057582Y0072368D02*
X0059138Y0072368D01*
X0059043Y0072137D02*
X0059043Y0071102D01*
X0059137Y0070875D01*
X0059074Y0070875D01*
X0056030Y0073920D01*
X0054775Y0073920D01*
X0054775Y0074086D01*
X0053955Y0074906D01*
X0048070Y0074906D01*
X0047880Y0074716D01*
X0047117Y0074716D01*
X0047443Y0075502D01*
X0047443Y0076537D01*
X0047347Y0076766D01*
X0048070Y0076043D01*
X0053955Y0076043D01*
X0054775Y0076863D01*
X0054775Y0081173D01*
X0054399Y0081548D01*
X0054443Y0081591D01*
X0055214Y0080820D01*
X0055373Y0080820D01*
X0056118Y0080075D01*
X0063278Y0080075D01*
X0064098Y0080895D01*
X0064098Y0081220D01*
X0077298Y0081220D01*
X0077298Y0080895D01*
X0078118Y0080075D01*
X0079643Y0080075D01*
X0079643Y0076791D01*
X0082043Y0074391D01*
X0083214Y0073220D01*
X0083214Y0073220D01*
X0086443Y0069991D01*
X0086443Y0066190D01*
X0086098Y0066190D01*
X0086098Y0070055D01*
X0085278Y0070875D01*
X0078118Y0070875D01*
X0077298Y0070055D01*
X0077298Y0069920D01*
X0064098Y0069920D01*
X0064098Y0070055D01*
X0063893Y0070259D01*
X0064243Y0071102D01*
X0064243Y0072137D01*
X0063847Y0073092D01*
X0063115Y0073824D01*
X0062160Y0074220D01*
X0061125Y0074220D01*
X0060170Y0073824D01*
X0059438Y0073092D01*
X0059043Y0072137D01*
X0060513Y0073966D02*
X0054775Y0073966D01*
X0054775Y0077163D02*
X0079643Y0077163D01*
X0079643Y0078762D02*
X0054775Y0078762D01*
X0054775Y0080360D02*
X0055832Y0080360D01*
X0050752Y0083557D02*
X0047469Y0083557D01*
X0047688Y0081959D02*
X0048036Y0081959D01*
X0052350Y0085156D02*
X0017180Y0085156D01*
X0017180Y0083557D02*
X0034871Y0083557D01*
X0034652Y0083338D02*
X0034652Y0077454D01*
X0035472Y0076634D01*
X0035570Y0076634D01*
X0035343Y0076407D01*
X0035343Y0074316D01*
X0034094Y0074316D01*
X0033274Y0073496D01*
X0033274Y0067611D01*
X0034094Y0066791D01*
X0039978Y0066791D01*
X0040798Y0067611D01*
X0040798Y0073496D01*
X0039978Y0074316D01*
X0039143Y0074316D01*
X0039143Y0074833D01*
X0039543Y0075233D01*
X0039543Y0076634D01*
X0039781Y0076634D01*
X0040602Y0077454D01*
X0040602Y0083338D01*
X0039781Y0084158D01*
X0035472Y0084158D01*
X0034652Y0083338D01*
X0034652Y0081959D02*
X0017180Y0081959D01*
X0017180Y0080360D02*
X0034652Y0080360D01*
X0034652Y0078762D02*
X0017180Y0078762D01*
X0017180Y0077163D02*
X0034943Y0077163D01*
X0035343Y0075565D02*
X0017180Y0075565D01*
X0017180Y0073966D02*
X0033744Y0073966D01*
X0033274Y0072368D02*
X0017180Y0072368D01*
X0017180Y0070769D02*
X0033274Y0070769D01*
X0033274Y0069171D02*
X0017180Y0069171D01*
X0017180Y0067572D02*
X0033313Y0067572D01*
X0040759Y0067572D02*
X0041244Y0067572D01*
X0041264Y0067497D02*
X0041501Y0067086D01*
X0041837Y0066751D01*
X0042247Y0066514D01*
X0042705Y0066391D01*
X0044923Y0066391D01*
X0044923Y0070172D01*
X0041142Y0070172D01*
X0041142Y0067954D01*
X0041264Y0067497D01*
X0041142Y0069171D02*
X0040798Y0069171D01*
X0040798Y0070769D02*
X0044923Y0070769D01*
X0044923Y0069171D02*
X0045685Y0069171D01*
X0045685Y0067572D02*
X0044923Y0067572D01*
X0041142Y0072368D02*
X0040798Y0072368D01*
X0040328Y0073966D02*
X0041470Y0073966D01*
X0042243Y0075565D02*
X0039543Y0075565D01*
X0040311Y0077163D02*
X0042029Y0077163D01*
X0041739Y0078762D02*
X0040602Y0078762D01*
X0040602Y0080360D02*
X0041739Y0080360D01*
X0041739Y0081959D02*
X0040602Y0081959D01*
X0040383Y0083557D02*
X0041958Y0083557D01*
X0047443Y0075565D02*
X0080869Y0075565D01*
X0082043Y0074391D02*
X0082043Y0074391D01*
X0082468Y0073966D02*
X0062772Y0073966D01*
X0064147Y0072368D02*
X0084066Y0072368D01*
X0085383Y0070769D02*
X0085665Y0070769D01*
X0086098Y0069171D02*
X0086443Y0069171D01*
X0086443Y0067572D02*
X0086098Y0067572D01*
X0078012Y0070769D02*
X0064104Y0070769D01*
X0063563Y0080360D02*
X0077832Y0080360D01*
X0083643Y0078762D02*
X0084756Y0078762D01*
X0085563Y0080360D02*
X0086355Y0080360D01*
X0086098Y0081959D02*
X0087953Y0081959D01*
X0089552Y0083557D02*
X0086098Y0083557D01*
X0085997Y0085156D02*
X0089643Y0085156D01*
X0089949Y0086754D02*
X0078617Y0086754D01*
X0078634Y0086771D02*
X0078871Y0087182D01*
X0078994Y0087639D01*
X0078994Y0089857D01*
X0075213Y0089857D01*
X0075213Y0086076D01*
X0077431Y0086076D01*
X0077888Y0086199D01*
X0078299Y0086436D01*
X0078634Y0086771D01*
X0078994Y0088353D02*
X0091547Y0088353D01*
X0095605Y0086754D02*
X0138787Y0086754D01*
X0138732Y0088353D02*
X0097204Y0088353D01*
X0098802Y0089951D02*
X0140077Y0089951D01*
X0141760Y0090220D02*
X0142181Y0090045D01*
X0143056Y0090920D01*
X0143019Y0090920D01*
X0142715Y0090616D01*
X0141760Y0090220D01*
X0138954Y0091550D02*
X0100401Y0091550D01*
X0101999Y0093148D02*
X0138643Y0093148D01*
X0139493Y0094747D02*
X0103598Y0094747D01*
X0105197Y0096345D02*
X0145043Y0096345D01*
X0145490Y0097944D02*
X0106795Y0097944D01*
X0108394Y0099542D02*
X0145039Y0099542D01*
X0144377Y0101141D02*
X0109992Y0101141D01*
X0111591Y0102739D02*
X0144298Y0102739D01*
X0144704Y0104338D02*
X0113189Y0104338D01*
X0114788Y0105936D02*
X0145777Y0105936D01*
X0143683Y0094747D02*
X0142992Y0094747D01*
X0162666Y0085156D02*
X0166892Y0085156D01*
X0168490Y0086754D02*
X0164264Y0086754D01*
X0165863Y0088353D02*
X0170089Y0088353D01*
X0171687Y0089951D02*
X0167461Y0089951D01*
X0169060Y0091550D02*
X0173286Y0091550D01*
X0174378Y0093148D02*
X0170658Y0093148D01*
X0172257Y0094747D02*
X0174193Y0094747D01*
X0173855Y0096345D02*
X0174623Y0096345D01*
X0175454Y0097944D02*
X0175904Y0097944D01*
X0181081Y0097944D02*
X0198880Y0097944D01*
X0200478Y0099542D02*
X0182252Y0099542D01*
X0186251Y0101141D02*
X0202077Y0101141D01*
X0204254Y0097944D02*
X0205904Y0097944D01*
X0205852Y0099542D02*
X0222943Y0099542D01*
X0222943Y0097944D02*
X0221081Y0097944D01*
X0222363Y0096345D02*
X0222943Y0096345D01*
X0222943Y0094747D02*
X0222793Y0094747D01*
X0222943Y0093148D02*
X0222607Y0093148D01*
X0222943Y0091550D02*
X0221673Y0091550D01*
X0222943Y0089951D02*
X0205061Y0089951D01*
X0203463Y0088353D02*
X0206676Y0088353D01*
X0204793Y0086754D02*
X0201864Y0086754D01*
X0200266Y0085156D02*
X0204193Y0085156D01*
X0204209Y0083557D02*
X0198667Y0083557D01*
X0197068Y0081959D02*
X0204904Y0081959D01*
X0207133Y0080360D02*
X0195943Y0080360D01*
X0195943Y0078762D02*
X0206600Y0078762D01*
X0206689Y0078807D02*
X0206030Y0078471D01*
X0205431Y0078036D01*
X0204908Y0077513D01*
X0204473Y0076915D01*
X0204137Y0076255D01*
X0203909Y0075552D01*
X0203793Y0074821D01*
X0203793Y0074601D01*
X0208343Y0074601D01*
X0208343Y0079151D01*
X0208123Y0079151D01*
X0207392Y0079035D01*
X0206689Y0078807D01*
X0208343Y0078762D02*
X0208643Y0078762D01*
X0208643Y0077163D02*
X0208343Y0077163D01*
X0208343Y0075565D02*
X0208643Y0075565D01*
X0208643Y0073966D02*
X0208343Y0073966D01*
X0208343Y0072368D02*
X0208643Y0072368D01*
X0208643Y0070769D02*
X0208343Y0070769D01*
X0205565Y0070769D02*
X0204922Y0070769D01*
X0204280Y0072368D02*
X0203323Y0072368D01*
X0203811Y0073966D02*
X0202793Y0073966D01*
X0202686Y0075565D02*
X0203913Y0075565D01*
X0204654Y0077163D02*
X0201862Y0077163D01*
X0209853Y0080360D02*
X0210215Y0080360D01*
X0210386Y0078762D02*
X0211814Y0078762D01*
X0212332Y0077163D02*
X0212543Y0077163D01*
X0216388Y0078762D02*
X0230614Y0078762D01*
X0231862Y0077163D02*
X0232143Y0077163D01*
X0227417Y0081959D02*
X0222081Y0081959D01*
X0222777Y0083557D02*
X0225818Y0083557D01*
X0224220Y0085156D02*
X0222793Y0085156D01*
X0222943Y0086754D02*
X0222193Y0086754D01*
X0222943Y0088353D02*
X0220310Y0088353D01*
X0226743Y0089951D02*
X0242943Y0089951D01*
X0242943Y0088353D02*
X0240310Y0088353D01*
X0242193Y0086754D02*
X0242943Y0086754D01*
X0242943Y0085156D02*
X0242793Y0085156D01*
X0242777Y0083557D02*
X0242943Y0083557D01*
X0242943Y0081959D02*
X0242081Y0081959D01*
X0242943Y0080360D02*
X0239853Y0080360D01*
X0231743Y0070769D02*
X0230840Y0070769D01*
X0233803Y0067572D02*
X0221177Y0067572D01*
X0222776Y0065974D02*
X0226040Y0065974D01*
X0228608Y0065974D02*
X0229008Y0065974D01*
X0229008Y0064375D02*
X0228608Y0064375D01*
X0228608Y0062777D02*
X0229008Y0062777D01*
X0229008Y0061178D02*
X0234543Y0061178D01*
X0234308Y0061011D02*
X0229008Y0061011D01*
X0229008Y0055711D01*
X0229241Y0055711D01*
X0230096Y0055846D01*
X0230919Y0056114D01*
X0231691Y0056507D01*
X0232391Y0057016D01*
X0233003Y0057628D01*
X0233512Y0058328D01*
X0233905Y0059100D01*
X0234172Y0059923D01*
X0234308Y0060778D01*
X0234308Y0061011D01*
X0234543Y0059579D02*
X0234061Y0059579D01*
X0233717Y0057981D02*
X0233259Y0057981D01*
X0232118Y0056382D02*
X0231446Y0056382D01*
X0230520Y0054784D02*
X0224884Y0054784D01*
X0225443Y0056382D02*
X0226170Y0056382D01*
X0228608Y0056382D02*
X0229008Y0056382D01*
X0229008Y0057981D02*
X0228608Y0057981D01*
X0228608Y0059579D02*
X0229008Y0059579D01*
X0234082Y0062777D02*
X0234543Y0062777D01*
X0234543Y0064375D02*
X0233307Y0064375D01*
X0234543Y0065974D02*
X0231576Y0065974D01*
X0215424Y0056382D02*
X0210478Y0056382D01*
X0212790Y0057981D02*
X0214211Y0057981D01*
X0213708Y0059579D02*
X0213652Y0059579D01*
X0207138Y0056382D02*
X0202192Y0056382D01*
X0203404Y0057981D02*
X0204825Y0057981D01*
X0203963Y0059579D02*
X0203908Y0059579D01*
X0203936Y0062777D02*
X0203265Y0062777D01*
X0201856Y0064375D02*
X0204759Y0064375D01*
X0205660Y0065974D02*
X0190637Y0065974D01*
X0192856Y0064375D02*
X0195759Y0064375D01*
X0194350Y0062777D02*
X0193680Y0062777D01*
X0193652Y0059579D02*
X0193708Y0059579D01*
X0194211Y0057981D02*
X0192790Y0057981D01*
X0190478Y0056382D02*
X0195424Y0056382D01*
X0187565Y0054784D02*
X0220801Y0054784D01*
X0227323Y0051587D02*
X0209162Y0051587D01*
X0210343Y0049988D02*
X0226543Y0049988D01*
X0224416Y0048390D02*
X0222098Y0048390D01*
X0214573Y0048390D02*
X0212255Y0048390D01*
X0212255Y0046791D02*
X0214573Y0046791D01*
X0214573Y0045193D02*
X0212255Y0045193D01*
X0211466Y0043594D02*
X0215362Y0043594D01*
X0215393Y0042426D02*
X0214573Y0041606D01*
X0214573Y0037296D01*
X0215393Y0036476D01*
X0216543Y0036476D01*
X0216543Y0036127D01*
X0215393Y0036127D01*
X0214573Y0035307D01*
X0214573Y0029422D01*
X0215393Y0028602D01*
X0221278Y0028602D01*
X0222098Y0029422D01*
X0222098Y0035307D01*
X0221278Y0036127D01*
X0220343Y0036127D01*
X0220343Y0036476D01*
X0221278Y0036476D01*
X0222098Y0037296D01*
X0222098Y0041606D01*
X0221278Y0042426D01*
X0215393Y0042426D01*
X0214963Y0041996D02*
X0211865Y0041996D01*
X0212255Y0041606D02*
X0211435Y0042426D01*
X0205551Y0042426D01*
X0204731Y0041606D01*
X0204731Y0037296D01*
X0205551Y0036476D01*
X0206943Y0036476D01*
X0206943Y0036127D01*
X0205551Y0036127D01*
X0204731Y0035307D01*
X0204731Y0029422D01*
X0205551Y0028602D01*
X0211435Y0028602D01*
X0212255Y0029422D01*
X0212255Y0035307D01*
X0211435Y0036127D01*
X0210743Y0036127D01*
X0210743Y0036476D01*
X0211435Y0036476D01*
X0212255Y0037296D01*
X0212255Y0041606D01*
X0212255Y0040397D02*
X0214573Y0040397D01*
X0214573Y0038799D02*
X0212255Y0038799D01*
X0212159Y0037200D02*
X0214669Y0037200D01*
X0214868Y0035602D02*
X0211960Y0035602D01*
X0212255Y0034003D02*
X0214573Y0034003D01*
X0214573Y0032405D02*
X0212255Y0032405D01*
X0212255Y0030806D02*
X0214573Y0030806D01*
X0214788Y0029208D02*
X0212040Y0029208D01*
X0211550Y0028136D02*
X0211092Y0028259D01*
X0208874Y0028259D01*
X0208874Y0024478D01*
X0212655Y0024478D01*
X0212655Y0026696D01*
X0212532Y0027154D01*
X0212295Y0027564D01*
X0211960Y0027899D01*
X0211550Y0028136D01*
X0212250Y0027609D02*
X0214578Y0027609D01*
X0214173Y0026011D02*
X0212655Y0026011D01*
X0212655Y0022814D02*
X0214173Y0022814D01*
X0217954Y0026011D02*
X0218717Y0026011D01*
X0218717Y0027609D02*
X0217954Y0027609D01*
X0222093Y0027609D02*
X0224420Y0027609D01*
X0224630Y0029208D02*
X0221883Y0029208D01*
X0222098Y0030806D02*
X0224416Y0030806D01*
X0224416Y0032405D02*
X0222098Y0032405D01*
X0222098Y0034003D02*
X0224416Y0034003D01*
X0224711Y0035602D02*
X0221802Y0035602D01*
X0222001Y0037200D02*
X0224512Y0037200D01*
X0224416Y0038799D02*
X0222098Y0038799D01*
X0222098Y0040397D02*
X0224416Y0040397D01*
X0224179Y0041996D02*
X0221708Y0041996D01*
X0221309Y0043594D02*
X0222581Y0043594D01*
X0228921Y0053185D02*
X0207564Y0053185D01*
X0205387Y0049988D02*
X0181143Y0049988D01*
X0181143Y0051587D02*
X0185388Y0051587D01*
X0183790Y0053185D02*
X0181143Y0053185D01*
X0181143Y0054784D02*
X0182191Y0054784D01*
X0185967Y0056382D02*
X0187138Y0056382D01*
X0184825Y0057981D02*
X0184368Y0057981D01*
X0183963Y0059579D02*
X0182770Y0059579D01*
X0183708Y0061178D02*
X0181171Y0061178D01*
X0180343Y0062777D02*
X0183936Y0062777D01*
X0184759Y0064375D02*
X0180343Y0064375D01*
X0180343Y0065974D02*
X0186979Y0065974D01*
X0181043Y0067572D02*
X0202462Y0067572D01*
X0200863Y0069171D02*
X0196470Y0069171D01*
X0193215Y0069171D02*
X0180780Y0069171D01*
X0180840Y0070769D02*
X0186146Y0070769D01*
X0184702Y0072368D02*
X0182284Y0072368D01*
X0182793Y0073966D02*
X0184193Y0073966D01*
X0184300Y0075565D02*
X0182686Y0075565D01*
X0181862Y0077163D02*
X0185124Y0077163D01*
X0185071Y0078762D02*
X0192143Y0078762D01*
X0192143Y0080360D02*
X0186670Y0080360D01*
X0188268Y0081959D02*
X0192143Y0081959D01*
X0193293Y0083557D02*
X0189867Y0083557D01*
X0191465Y0085156D02*
X0194892Y0085156D01*
X0196490Y0086754D02*
X0193064Y0086754D01*
X0194663Y0088353D02*
X0198089Y0088353D01*
X0199687Y0089951D02*
X0196261Y0089951D01*
X0197860Y0091550D02*
X0201286Y0091550D01*
X0202884Y0093148D02*
X0199458Y0093148D01*
X0201057Y0094747D02*
X0204193Y0094747D01*
X0204623Y0096345D02*
X0202655Y0096345D01*
X0197281Y0096345D02*
X0182363Y0096345D01*
X0182793Y0094747D02*
X0195683Y0094747D01*
X0194084Y0093148D02*
X0182607Y0093148D01*
X0181673Y0091550D02*
X0192486Y0091550D01*
X0190887Y0089951D02*
X0177061Y0089951D01*
X0176676Y0088353D02*
X0175463Y0088353D01*
X0174793Y0086754D02*
X0173864Y0086754D01*
X0174193Y0085156D02*
X0172265Y0085156D01*
X0173293Y0083557D02*
X0170667Y0083557D01*
X0171695Y0081959D02*
X0169068Y0081959D01*
X0170096Y0080360D02*
X0167470Y0080360D01*
X0168497Y0078762D02*
X0165871Y0078762D01*
X0166899Y0077163D02*
X0164273Y0077163D01*
X0163543Y0075565D02*
X0165300Y0075565D01*
X0163702Y0073966D02*
X0163543Y0073966D01*
X0159743Y0073966D02*
X0157010Y0073966D01*
X0158255Y0072368D02*
X0159743Y0072368D01*
X0159743Y0070769D02*
X0158255Y0070769D01*
X0158255Y0069171D02*
X0159743Y0069171D01*
X0159743Y0067572D02*
X0157165Y0067572D01*
X0155567Y0065974D02*
X0159743Y0065974D01*
X0159743Y0064375D02*
X0156601Y0064375D01*
X0158200Y0062777D02*
X0159743Y0062777D01*
X0159743Y0061178D02*
X0158255Y0061178D01*
X0158255Y0059579D02*
X0159743Y0059579D01*
X0159743Y0057981D02*
X0157574Y0057981D01*
X0155976Y0056382D02*
X0159743Y0056382D01*
X0159743Y0054784D02*
X0156192Y0054784D01*
X0157791Y0053185D02*
X0159743Y0053185D01*
X0159743Y0051587D02*
X0158255Y0051587D01*
X0158255Y0049988D02*
X0159743Y0049988D01*
X0159743Y0048390D02*
X0157983Y0048390D01*
X0156385Y0046791D02*
X0159743Y0046791D01*
X0159743Y0045193D02*
X0155783Y0045193D01*
X0157382Y0043594D02*
X0159743Y0043594D01*
X0159743Y0041996D02*
X0158255Y0041996D01*
X0158255Y0040397D02*
X0159743Y0040397D01*
X0159743Y0038799D02*
X0158255Y0038799D01*
X0156794Y0037200D02*
X0160175Y0037200D01*
X0160367Y0035602D02*
X0157990Y0035602D01*
X0158655Y0034003D02*
X0161882Y0034003D01*
X0163803Y0034003D02*
X0165361Y0034003D01*
X0165361Y0032405D02*
X0158655Y0032405D01*
X0153555Y0029208D02*
X0153155Y0029208D01*
X0153155Y0027609D02*
X0153555Y0027609D01*
X0153555Y0026011D02*
X0153155Y0026011D01*
X0158220Y0026011D02*
X0164961Y0026011D01*
X0164961Y0022814D02*
X0039616Y0022814D01*
X0054775Y0030806D02*
X0055419Y0030806D01*
X0099504Y0043594D02*
X0149329Y0043594D01*
X0165143Y0043594D02*
X0166149Y0043594D01*
X0165751Y0041996D02*
X0165143Y0041996D01*
X0165143Y0045193D02*
X0165361Y0045193D01*
X0165361Y0046791D02*
X0165143Y0046791D01*
X0165143Y0048390D02*
X0165361Y0048390D01*
X0165143Y0049988D02*
X0167343Y0049988D01*
X0167343Y0051587D02*
X0165143Y0051587D01*
X0165143Y0053185D02*
X0167343Y0053185D01*
X0167343Y0054784D02*
X0165143Y0054784D01*
X0165143Y0056382D02*
X0167203Y0056382D01*
X0166243Y0057981D02*
X0165143Y0057981D01*
X0165143Y0059579D02*
X0166509Y0059579D01*
X0165143Y0061178D02*
X0169343Y0061178D01*
X0168643Y0062777D02*
X0165143Y0062777D01*
X0165143Y0064375D02*
X0168907Y0064375D01*
X0171743Y0065974D02*
X0165143Y0065974D01*
X0165143Y0067572D02*
X0171743Y0067572D01*
X0171743Y0069171D02*
X0165143Y0069171D01*
X0165879Y0070769D02*
X0170606Y0070769D01*
X0170143Y0072368D02*
X0167477Y0072368D01*
X0169076Y0073966D02*
X0170143Y0073966D01*
X0162096Y0080360D02*
X0158255Y0080360D01*
X0158255Y0078762D02*
X0160497Y0078762D01*
X0159743Y0077163D02*
X0156757Y0077163D01*
X0155411Y0075565D02*
X0159743Y0075565D01*
X0158255Y0081959D02*
X0163695Y0081959D01*
X0165293Y0083557D02*
X0159067Y0083557D01*
X0139224Y0078762D02*
X0138671Y0078762D01*
X0148160Y0059579D02*
X0148455Y0059579D01*
X0149043Y0057981D02*
X0149136Y0057981D01*
X0150508Y0056382D02*
X0150734Y0056382D01*
X0171143Y0049988D02*
X0171787Y0049988D01*
X0172885Y0048390D02*
X0173343Y0048390D01*
X0173343Y0046791D02*
X0172885Y0046791D01*
X0172885Y0045193D02*
X0173343Y0045193D01*
X0173381Y0043594D02*
X0172096Y0043594D01*
X0172495Y0041996D02*
X0174979Y0041996D01*
X0175203Y0040397D02*
X0172885Y0040397D01*
X0172885Y0038799D02*
X0175203Y0038799D01*
X0175299Y0037200D02*
X0172789Y0037200D01*
X0172590Y0035602D02*
X0175498Y0035602D01*
X0175203Y0034003D02*
X0172885Y0034003D01*
X0172885Y0032405D02*
X0175203Y0032405D01*
X0175203Y0030806D02*
X0172885Y0030806D01*
X0172670Y0029208D02*
X0175418Y0029208D01*
X0175208Y0027609D02*
X0172880Y0027609D01*
X0173285Y0026011D02*
X0174803Y0026011D01*
X0174803Y0022814D02*
X0173285Y0022814D01*
X0178584Y0026011D02*
X0179346Y0026011D01*
X0179346Y0027609D02*
X0178584Y0027609D01*
X0182723Y0027609D02*
X0185050Y0027609D01*
X0185866Y0028602D02*
X0185046Y0029422D01*
X0185046Y0035307D01*
X0185866Y0036127D01*
X0186943Y0036127D01*
X0186943Y0036476D01*
X0185866Y0036476D01*
X0185046Y0037296D01*
X0185046Y0041606D01*
X0185866Y0042426D01*
X0191750Y0042426D01*
X0192570Y0041606D01*
X0192570Y0037296D01*
X0191750Y0036476D01*
X0190743Y0036476D01*
X0190743Y0036127D01*
X0191750Y0036127D01*
X0192570Y0035307D01*
X0192570Y0029422D01*
X0191750Y0028602D01*
X0185866Y0028602D01*
X0185260Y0029208D02*
X0182513Y0029208D01*
X0182728Y0030806D02*
X0185046Y0030806D01*
X0185046Y0032405D02*
X0182728Y0032405D01*
X0182728Y0034003D02*
X0185046Y0034003D01*
X0185341Y0035602D02*
X0182432Y0035602D01*
X0182631Y0037200D02*
X0185142Y0037200D01*
X0185046Y0038799D02*
X0182728Y0038799D01*
X0182728Y0040397D02*
X0185046Y0040397D01*
X0185436Y0041996D02*
X0182706Y0041996D01*
X0184304Y0043594D02*
X0185834Y0043594D01*
X0191781Y0043594D02*
X0195677Y0043594D01*
X0195708Y0042426D02*
X0194888Y0041606D01*
X0194888Y0037296D01*
X0195708Y0036476D01*
X0196943Y0036476D01*
X0196943Y0036127D01*
X0195708Y0036127D01*
X0194888Y0035307D01*
X0194888Y0029422D01*
X0195708Y0028602D01*
X0201592Y0028602D01*
X0202413Y0029422D01*
X0202413Y0035307D01*
X0201592Y0036127D01*
X0200743Y0036127D01*
X0200743Y0036476D01*
X0201592Y0036476D01*
X0202413Y0037296D01*
X0202413Y0041606D01*
X0201592Y0042426D01*
X0195708Y0042426D01*
X0195278Y0041996D02*
X0192180Y0041996D01*
X0192570Y0040397D02*
X0194888Y0040397D01*
X0194888Y0038799D02*
X0192570Y0038799D01*
X0192474Y0037200D02*
X0194984Y0037200D01*
X0195183Y0035602D02*
X0192275Y0035602D01*
X0192570Y0034003D02*
X0194888Y0034003D01*
X0194888Y0032405D02*
X0192570Y0032405D01*
X0192570Y0030806D02*
X0194888Y0030806D01*
X0195103Y0029208D02*
X0192355Y0029208D01*
X0191865Y0028136D02*
X0191407Y0028259D01*
X0189189Y0028259D01*
X0189189Y0024478D01*
X0192970Y0024478D01*
X0192970Y0026696D01*
X0192847Y0027154D01*
X0192610Y0027564D01*
X0192275Y0027899D01*
X0191865Y0028136D01*
X0192565Y0027609D02*
X0194893Y0027609D01*
X0194488Y0026011D02*
X0192970Y0026011D01*
X0192970Y0022814D02*
X0194488Y0022814D01*
X0198269Y0026011D02*
X0199031Y0026011D01*
X0199031Y0027609D02*
X0198269Y0027609D01*
X0202408Y0027609D02*
X0204735Y0027609D01*
X0204945Y0029208D02*
X0202198Y0029208D01*
X0202413Y0030806D02*
X0204731Y0030806D01*
X0204731Y0032405D02*
X0202413Y0032405D01*
X0202413Y0034003D02*
X0204731Y0034003D01*
X0205026Y0035602D02*
X0202117Y0035602D01*
X0202316Y0037200D02*
X0204827Y0037200D01*
X0204731Y0038799D02*
X0202413Y0038799D01*
X0202413Y0040397D02*
X0204731Y0040397D01*
X0205121Y0041996D02*
X0202023Y0041996D01*
X0201624Y0043594D02*
X0205519Y0043594D01*
X0204731Y0048390D02*
X0204549Y0048390D01*
X0194888Y0048390D02*
X0192570Y0048390D01*
X0192570Y0046791D02*
X0194888Y0046791D01*
X0194888Y0045193D02*
X0192570Y0045193D01*
X0185046Y0048390D02*
X0182728Y0048390D01*
X0165656Y0035602D02*
X0165318Y0035602D01*
X0183128Y0026011D02*
X0184646Y0026011D01*
X0184646Y0022814D02*
X0183128Y0022814D01*
X0188427Y0026011D02*
X0189189Y0026011D01*
X0189189Y0027609D02*
X0188427Y0027609D01*
X0202813Y0026011D02*
X0204331Y0026011D01*
X0204331Y0022814D02*
X0202813Y0022814D01*
X0208112Y0026011D02*
X0208874Y0026011D01*
X0208874Y0027609D02*
X0208112Y0027609D01*
X0222498Y0026011D02*
X0224016Y0026011D01*
X0224016Y0022814D02*
X0222498Y0022814D01*
X0227797Y0026011D02*
X0228559Y0026011D01*
X0228559Y0027609D02*
X0227797Y0027609D01*
X0242183Y0026011D02*
X0243701Y0026011D01*
X0243701Y0022814D02*
X0242183Y0022814D01*
X0247482Y0026011D02*
X0248244Y0026011D01*
X0248244Y0027609D02*
X0247482Y0027609D01*
X0252025Y0022814D02*
X0377505Y0022814D01*
X0376620Y0027609D02*
X0306909Y0027609D01*
X0307518Y0029208D02*
X0376620Y0029208D01*
X0347529Y0035389D02*
X0347529Y0035389D01*
X0358520Y0073840D02*
X0358520Y0073840D01*
X0399806Y0078762D02*
X0255543Y0078762D01*
X0255543Y0080360D02*
X0399806Y0080360D01*
X0399806Y0081959D02*
X0255543Y0081959D01*
X0255543Y0083557D02*
X0399806Y0083557D01*
X0399806Y0085156D02*
X0255543Y0085156D01*
X0255543Y0086754D02*
X0399806Y0086754D01*
X0399806Y0088353D02*
X0255543Y0088353D01*
X0255543Y0089951D02*
X0399806Y0089951D01*
X0399806Y0091550D02*
X0255543Y0091550D01*
X0255543Y0093148D02*
X0399806Y0093148D01*
X0399806Y0094747D02*
X0255543Y0094747D01*
X0255543Y0096345D02*
X0399806Y0096345D01*
X0399806Y0097944D02*
X0255543Y0097944D01*
X0255543Y0099542D02*
X0399806Y0099542D01*
X0399806Y0101141D02*
X0255543Y0101141D01*
X0255543Y0102739D02*
X0399806Y0102739D01*
X0399806Y0104338D02*
X0255543Y0104338D01*
X0255543Y0105936D02*
X0399806Y0105936D01*
X0399806Y0107535D02*
X0255543Y0107535D01*
X0255543Y0109133D02*
X0294639Y0109133D01*
X0294556Y0109216D02*
X0294892Y0108881D01*
X0295302Y0108644D01*
X0295760Y0108521D01*
X0299297Y0108521D01*
X0299297Y0113621D01*
X0294197Y0113621D01*
X0294197Y0110084D01*
X0294320Y0109626D01*
X0294556Y0109216D01*
X0294197Y0110732D02*
X0255543Y0110732D01*
X0255543Y0112330D02*
X0294197Y0112330D01*
X0299297Y0112330D02*
X0299697Y0112330D01*
X0299697Y0110732D02*
X0299297Y0110732D01*
X0299297Y0109133D02*
X0299697Y0109133D01*
X0304355Y0109133D02*
X0372255Y0109133D01*
X0370657Y0110732D02*
X0304797Y0110732D01*
X0302928Y0120323D02*
X0371066Y0120323D01*
X0369597Y0121921D02*
X0304397Y0121921D01*
X0304397Y0123520D02*
X0369597Y0123520D01*
X0369597Y0125118D02*
X0304397Y0125118D01*
X0303531Y0126717D02*
X0370463Y0126717D01*
X0372061Y0128315D02*
X0301932Y0128315D01*
X0294597Y0125118D02*
X0275302Y0125118D01*
X0275309Y0125143D02*
X0275309Y0128680D01*
X0270209Y0128680D01*
X0270209Y0123580D01*
X0273746Y0123580D01*
X0274203Y0123703D01*
X0274614Y0123940D01*
X0274949Y0124275D01*
X0275186Y0124686D01*
X0275309Y0125143D01*
X0275309Y0126717D02*
X0293717Y0126717D01*
X0292443Y0128315D02*
X0275309Y0128315D01*
X0275309Y0129914D02*
X0292443Y0129914D01*
X0292443Y0131513D02*
X0275309Y0131513D01*
X0275165Y0133111D02*
X0292443Y0133111D01*
X0291324Y0134710D02*
X0272744Y0134710D01*
X0274247Y0136308D02*
X0289726Y0136308D01*
X0288127Y0137907D02*
X0274909Y0137907D01*
X0274909Y0139505D02*
X0286529Y0139505D01*
X0284930Y0141104D02*
X0274391Y0141104D01*
X0273117Y0142702D02*
X0283332Y0142702D01*
X0264852Y0133111D02*
X0249421Y0133111D01*
X0247822Y0131513D02*
X0264709Y0131513D01*
X0264709Y0129914D02*
X0246224Y0129914D01*
X0244625Y0128315D02*
X0264709Y0128315D01*
X0269809Y0128315D02*
X0270209Y0128315D01*
X0270209Y0126717D02*
X0269809Y0126717D01*
X0269809Y0125118D02*
X0270209Y0125118D01*
X0251743Y0118724D02*
X0251199Y0118724D01*
X0251443Y0117126D02*
X0251743Y0117126D01*
X0251743Y0115527D02*
X0250743Y0115527D01*
X0250743Y0113929D02*
X0251743Y0113929D01*
X0251743Y0112330D02*
X0250743Y0112330D01*
X0250743Y0110732D02*
X0251743Y0110732D01*
X0241431Y0097944D02*
X0241081Y0097944D01*
X0242363Y0096345D02*
X0242943Y0096345D01*
X0242943Y0094747D02*
X0242793Y0094747D01*
X0242943Y0093148D02*
X0242607Y0093148D01*
X0242943Y0091550D02*
X0241673Y0091550D01*
X0222943Y0101141D02*
X0221264Y0101141D01*
X0222438Y0102739D02*
X0222943Y0102739D01*
X0222943Y0104338D02*
X0222793Y0104338D01*
X0222943Y0105936D02*
X0222532Y0105936D01*
X0189289Y0088353D02*
X0180310Y0088353D01*
X0182193Y0086754D02*
X0187690Y0086754D01*
X0186092Y0085156D02*
X0182793Y0085156D01*
X0182777Y0083557D02*
X0184493Y0083557D01*
X0182895Y0081959D02*
X0182391Y0081959D01*
X0191862Y0077163D02*
X0192143Y0077163D01*
X0192284Y0072368D02*
X0192504Y0072368D01*
X0192243Y0070769D02*
X0190840Y0070769D01*
X0211421Y0070769D02*
X0212143Y0070769D01*
X0101138Y0097944D02*
X0077216Y0097944D01*
X0076422Y0096345D02*
X0099540Y0096345D01*
X0075213Y0093148D02*
X0074450Y0093148D01*
X0074450Y0091550D02*
X0075213Y0091550D01*
X0075213Y0088353D02*
X0074450Y0088353D01*
X0074450Y0086754D02*
X0075213Y0086754D01*
X0070669Y0091550D02*
X0070326Y0091550D01*
X0070326Y0093148D02*
X0070752Y0093148D01*
X0031069Y0144301D02*
X0017180Y0144301D01*
X0017180Y0145899D02*
X0029186Y0145899D01*
X0024732Y0184403D02*
X0024732Y0184403D01*
X0019648Y0184784D02*
X0019648Y0184784D01*
X0055498Y0203446D02*
X0055898Y0203446D01*
X0206872Y0169877D02*
X0264722Y0169877D01*
X0264709Y0169927D02*
X0264831Y0169469D01*
X0265068Y0169059D01*
X0265403Y0168723D01*
X0265814Y0168486D01*
X0266272Y0168364D01*
X0269809Y0168364D01*
X0269809Y0173464D01*
X0264709Y0173464D01*
X0264709Y0169927D01*
X0264709Y0171475D02*
X0241598Y0171475D01*
X0242138Y0172015D02*
X0240929Y0170806D01*
X0239348Y0170151D01*
X0237638Y0170151D01*
X0236057Y0170806D01*
X0234848Y0172015D01*
X0234193Y0173596D01*
X0234193Y0175306D01*
X0234848Y0176887D01*
X0236057Y0178097D01*
X0237638Y0178751D01*
X0239348Y0178751D01*
X0240929Y0178097D01*
X0242138Y0176887D01*
X0242793Y0175306D01*
X0242793Y0173596D01*
X0242138Y0172015D01*
X0242577Y0173074D02*
X0264709Y0173074D01*
X0264709Y0174672D02*
X0242793Y0174672D01*
X0242393Y0176271D02*
X0264709Y0176271D01*
X0264838Y0177869D02*
X0241156Y0177869D01*
X0235830Y0177869D02*
X0231156Y0177869D01*
X0232393Y0176271D02*
X0234592Y0176271D01*
X0234193Y0174672D02*
X0232793Y0174672D01*
X0232577Y0173074D02*
X0234409Y0173074D01*
X0235388Y0171475D02*
X0231598Y0171475D01*
X0230490Y0168278D02*
X0236496Y0168278D01*
X0234762Y0166680D02*
X0232224Y0166680D01*
X0232793Y0165081D02*
X0234193Y0165081D01*
X0234240Y0163483D02*
X0232746Y0163483D01*
X0232007Y0161884D02*
X0234979Y0161884D01*
X0242224Y0166680D02*
X0294197Y0166680D01*
X0294471Y0168278D02*
X0240490Y0168278D01*
X0242253Y0152293D02*
X0266492Y0152293D01*
X0270209Y0168364D02*
X0273746Y0168364D01*
X0274203Y0168486D01*
X0274614Y0168723D01*
X0274949Y0169059D01*
X0275186Y0169469D01*
X0275309Y0169927D01*
X0275309Y0173464D01*
X0270209Y0173464D01*
X0270209Y0168364D01*
X0270209Y0169877D02*
X0269809Y0169877D01*
X0269809Y0171475D02*
X0270209Y0171475D01*
X0270209Y0173074D02*
X0269809Y0173074D01*
X0275309Y0173074D02*
X0294597Y0173074D01*
X0294597Y0174672D02*
X0275309Y0174672D01*
X0275309Y0176271D02*
X0295017Y0176271D01*
X0296615Y0177869D02*
X0275180Y0177869D01*
X0272683Y0179468D02*
X0399806Y0179468D01*
X0399806Y0181066D02*
X0274236Y0181066D01*
X0274899Y0182665D02*
X0399806Y0182665D01*
X0399806Y0184263D02*
X0274909Y0184263D01*
X0274402Y0185862D02*
X0386981Y0185862D01*
X0384981Y0186647D02*
X0384981Y0186647D01*
X0383961Y0187460D02*
X0273142Y0187460D01*
X0302378Y0177869D02*
X0371615Y0177869D01*
X0372467Y0178721D02*
X0369597Y0175851D01*
X0369597Y0171792D01*
X0372467Y0168921D01*
X0376526Y0168921D01*
X0379397Y0171792D01*
X0379397Y0175851D01*
X0376526Y0178721D01*
X0372467Y0178721D01*
X0370017Y0176271D02*
X0303977Y0176271D01*
X0304397Y0174672D02*
X0369597Y0174672D01*
X0369597Y0173074D02*
X0304397Y0173074D01*
X0304080Y0171475D02*
X0369913Y0171475D01*
X0371512Y0169877D02*
X0302482Y0169877D01*
X0304523Y0168278D02*
X0372024Y0168278D01*
X0372467Y0168721D02*
X0369597Y0165851D01*
X0369597Y0161792D01*
X0372467Y0158921D01*
X0376526Y0158921D01*
X0379397Y0161792D01*
X0379397Y0165851D01*
X0376526Y0168721D01*
X0372467Y0168721D01*
X0370426Y0166680D02*
X0304797Y0166680D01*
X0304797Y0165081D02*
X0369597Y0165081D01*
X0369597Y0163483D02*
X0304797Y0163483D01*
X0304797Y0161884D02*
X0369597Y0161884D01*
X0371103Y0160286D02*
X0304797Y0160286D01*
X0303767Y0158687D02*
X0390155Y0158687D01*
X0390191Y0158651D02*
X0392065Y0157875D01*
X0394094Y0157875D01*
X0395968Y0158651D01*
X0397403Y0160086D01*
X0398180Y0161960D01*
X0398180Y0163989D01*
X0397403Y0165864D01*
X0395968Y0167298D01*
X0394335Y0167975D01*
X0395968Y0168651D01*
X0397403Y0170086D01*
X0398180Y0171960D01*
X0398180Y0173989D01*
X0397403Y0175864D01*
X0395968Y0177298D01*
X0394094Y0178075D01*
X0392065Y0178075D01*
X0390191Y0177298D01*
X0388756Y0175864D01*
X0387980Y0173989D01*
X0387980Y0171960D01*
X0388756Y0170086D01*
X0390191Y0168651D01*
X0391824Y0167975D01*
X0390191Y0167298D01*
X0388756Y0165864D01*
X0387980Y0163989D01*
X0387980Y0161960D01*
X0388756Y0160086D01*
X0390191Y0158651D01*
X0388673Y0160286D02*
X0377891Y0160286D01*
X0379397Y0161884D02*
X0388011Y0161884D01*
X0387980Y0163483D02*
X0379397Y0163483D01*
X0379397Y0165081D02*
X0388432Y0165081D01*
X0389572Y0166680D02*
X0378568Y0166680D01*
X0376969Y0168278D02*
X0391091Y0168278D01*
X0388965Y0169877D02*
X0377482Y0169877D01*
X0379081Y0171475D02*
X0388180Y0171475D01*
X0387980Y0173074D02*
X0379397Y0173074D01*
X0379397Y0174672D02*
X0388262Y0174672D01*
X0389163Y0176271D02*
X0378977Y0176271D01*
X0377378Y0177869D02*
X0391569Y0177869D01*
X0394590Y0177869D02*
X0399806Y0177869D01*
X0399806Y0176271D02*
X0396996Y0176271D01*
X0397897Y0174672D02*
X0399806Y0174672D01*
X0399806Y0173074D02*
X0398180Y0173074D01*
X0397979Y0171475D02*
X0399806Y0171475D01*
X0399806Y0169877D02*
X0397194Y0169877D01*
X0395068Y0168278D02*
X0399806Y0168278D01*
X0399806Y0166680D02*
X0396587Y0166680D01*
X0397727Y0165081D02*
X0399806Y0165081D01*
X0399806Y0163483D02*
X0398180Y0163483D01*
X0398148Y0161884D02*
X0399806Y0161884D01*
X0399806Y0160286D02*
X0397486Y0160286D01*
X0396004Y0158687D02*
X0399806Y0158687D01*
X0399806Y0157089D02*
X0303159Y0157089D01*
X0304397Y0155490D02*
X0399806Y0155490D01*
X0399806Y0153892D02*
X0304397Y0153892D01*
X0304397Y0152293D02*
X0399806Y0152293D01*
X0399806Y0150695D02*
X0303300Y0150695D01*
X0296512Y0169877D02*
X0275295Y0169877D01*
X0275309Y0171475D02*
X0294913Y0171475D01*
X0378122Y0117126D02*
X0390294Y0117126D01*
X0388892Y0115527D02*
X0379397Y0115527D01*
X0379397Y0113929D02*
X0388255Y0113929D01*
X0388255Y0112330D02*
X0379397Y0112330D01*
X0378337Y0110732D02*
X0388764Y0110732D01*
X0389984Y0109133D02*
X0376739Y0109133D01*
X0396726Y0109133D02*
X0399806Y0109133D01*
X0399806Y0110732D02*
X0397946Y0110732D01*
X0398455Y0112330D02*
X0399806Y0112330D01*
X0399806Y0113929D02*
X0398455Y0113929D01*
X0397818Y0115527D02*
X0399806Y0115527D01*
X0399806Y0117126D02*
X0396416Y0117126D01*
X0396317Y0118724D02*
X0399806Y0118724D01*
X0399806Y0120323D02*
X0397777Y0120323D01*
X0398439Y0121921D02*
X0399806Y0121921D01*
X0399806Y0123520D02*
X0398455Y0123520D01*
X0397987Y0125118D02*
X0399806Y0125118D01*
X0399806Y0126717D02*
X0396825Y0126717D01*
X0394810Y0184403D02*
X0394810Y0184403D01*
X0399781Y0185538D02*
X0399781Y0185538D01*
D95*
X0323454Y0183743D03*
X0250619Y0150278D03*
X0255243Y0141620D03*
X0256524Y0132561D03*
X0252843Y0124420D03*
X0248843Y0117620D03*
X0232043Y0112020D03*
X0227243Y0107220D03*
X0213217Y0120750D03*
X0193532Y0124687D03*
X0191564Y0116813D03*
X0177243Y0119220D03*
X0165973Y0112876D03*
X0163243Y0117220D03*
X0195501Y0105002D03*
X0159643Y0098820D03*
X0147643Y0096420D03*
X0141243Y0092820D03*
X0141243Y0087620D03*
X0141243Y0080420D03*
X0128965Y0071931D03*
X0146443Y0057620D03*
X0128572Y0049884D03*
X0121879Y0041223D03*
X0106043Y0048420D03*
X0087643Y0051620D03*
X0071091Y0055790D03*
X0059674Y0063664D03*
X0061643Y0071620D03*
X0058493Y0076656D03*
X0044843Y0076020D03*
X0074443Y0065220D03*
X0115973Y0087680D03*
X0160068Y0089254D03*
X0194843Y0071220D03*
X0178443Y0068020D03*
X0171243Y0063220D03*
X0167942Y0065632D03*
X0168843Y0058420D03*
X0183690Y0051853D03*
X0202843Y0046420D03*
X0222843Y0056420D03*
X0248843Y0060820D03*
X0268335Y0053821D03*
X0275243Y0049620D03*
X0272043Y0044820D03*
X0288020Y0049884D03*
X0290776Y0042404D03*
X0301243Y0035220D03*
X0306043Y0035220D03*
X0308443Y0032820D03*
X0304843Y0029220D03*
X0289989Y0027837D03*
X0264398Y0036105D03*
X0288043Y0062420D03*
X0282115Y0073506D03*
X0258493Y0099097D03*
X0274241Y0108939D03*
X0232902Y0128624D03*
X0232902Y0140435D03*
X0164005Y0160120D03*
X0152194Y0166026D03*
X0162036Y0169963D03*
X0132509Y0167994D03*
X0102981Y0195554D03*
X0193243Y0189220D03*
X0211249Y0183743D03*
X0045894Y0103034D03*
X0028443Y0051620D03*
X0079643Y0032020D03*
X0162843Y0036420D03*
X0164843Y0038820D03*
D96*
X0153355Y0050691D02*
X0153243Y0050820D01*
X0146443Y0057620D01*
X0111225Y0063290D02*
X0110843Y0063220D01*
X0095643Y0063220D01*
X0095643Y0045220D01*
X0093643Y0043220D01*
X0082043Y0043220D01*
X0081698Y0043605D01*
X0081643Y0043620D01*
X0060443Y0043620D01*
X0059698Y0043605D01*
X0059643Y0044020D01*
X0058843Y0044820D01*
X0058843Y0051220D01*
X0051643Y0058420D01*
X0051643Y0062820D01*
X0052170Y0063290D01*
X0052043Y0063220D01*
X0030443Y0063220D01*
X0030170Y0063290D01*
X0030043Y0063220D01*
X0026043Y0059220D01*
X0021643Y0059220D01*
X0021485Y0059333D01*
X0051013Y0039648D02*
X0051243Y0039620D01*
X0054043Y0039620D01*
X0055243Y0038420D01*
X0060043Y0043220D01*
X0059698Y0043605D01*
X0080540Y0059333D02*
X0080843Y0059220D01*
X0083643Y0059220D01*
X0084843Y0058020D01*
X0088843Y0062020D01*
X0088843Y0063220D01*
X0089225Y0063290D01*
X0089643Y0063220D01*
X0095643Y0063220D01*
X0089225Y0063290D02*
X0088443Y0063620D01*
X0088443Y0070820D01*
X0084043Y0075220D01*
X0091643Y0082820D01*
X0091643Y0085620D01*
X0148043Y0142020D01*
X0149243Y0142020D01*
X0149398Y0142345D01*
X0150398Y0152345D02*
X0150443Y0152420D01*
X0150443Y0153620D01*
X0172043Y0175220D01*
X0172043Y0176020D01*
X0173643Y0177620D01*
X0175643Y0177620D01*
X0176843Y0178820D01*
X0180043Y0178820D01*
X0180443Y0178420D01*
X0181643Y0178420D01*
X0192443Y0189220D01*
X0193243Y0189220D01*
X0270009Y0158880D02*
X0270043Y0158820D01*
X0294443Y0134420D01*
X0294443Y0128820D01*
X0299243Y0124020D01*
X0299497Y0123821D01*
X0204843Y0068020D02*
X0200043Y0072820D01*
X0200043Y0073220D01*
X0198843Y0074420D01*
X0198493Y0074451D01*
X0204843Y0068020D02*
X0206443Y0068020D01*
X0206843Y0067620D01*
X0210843Y0067620D01*
X0211243Y0068020D01*
X0212443Y0068020D01*
X0216443Y0064020D01*
X0216443Y0063620D01*
X0218443Y0061620D01*
X0218443Y0060420D01*
X0218808Y0060211D01*
X0272043Y0044820D02*
X0275243Y0048020D01*
X0275243Y0049620D01*
X0288043Y0062420D01*
X0084043Y0075220D02*
X0081643Y0077620D01*
X0081643Y0082820D01*
X0081698Y0082975D01*
X0081243Y0083220D01*
X0060043Y0083220D01*
X0059698Y0082975D01*
X0059643Y0082820D01*
X0056043Y0082820D01*
X0054843Y0084020D01*
X0054043Y0084020D01*
X0051243Y0081220D01*
X0051243Y0079220D01*
X0051013Y0079018D01*
D97*
X0044843Y0080020D02*
X0044843Y0076020D01*
X0037643Y0076020D02*
X0037643Y0080020D01*
X0037627Y0080396D01*
X0044713Y0080396D02*
X0044843Y0080020D01*
X0037643Y0076020D02*
X0037243Y0075620D01*
X0037243Y0070820D01*
X0037036Y0070554D01*
X0051013Y0071931D02*
X0051243Y0072020D01*
X0055243Y0072020D01*
X0059643Y0067620D01*
X0059698Y0067975D01*
X0061243Y0068820D01*
X0062043Y0068020D01*
X0081643Y0068020D01*
X0081698Y0067975D01*
X0074443Y0065220D02*
X0074443Y0060820D01*
X0074241Y0060711D01*
X0067243Y0060420D02*
X0067243Y0056420D01*
X0066843Y0056020D01*
X0066843Y0051220D01*
X0066564Y0050869D01*
X0080540Y0052246D02*
X0080843Y0052420D01*
X0085643Y0052420D01*
X0087043Y0051020D01*
X0087643Y0051620D01*
X0087043Y0051020D02*
X0088843Y0049220D01*
X0088843Y0048420D01*
X0089225Y0048290D01*
X0086843Y0033620D02*
X0106443Y0053220D01*
X0117643Y0053220D01*
X0143643Y0079220D01*
X0143643Y0080820D01*
X0150443Y0087620D01*
X0152043Y0087620D01*
X0162043Y0097620D01*
X0162043Y0102420D01*
X0174443Y0114820D01*
X0174443Y0116420D01*
X0177243Y0119220D01*
X0172043Y0114820D02*
X0172043Y0147620D01*
X0178843Y0154420D01*
X0178493Y0154451D01*
X0173243Y0160820D02*
X0169643Y0160820D01*
X0154443Y0145620D01*
X0153243Y0145620D01*
X0151643Y0147220D01*
X0148443Y0147220D01*
X0146843Y0148820D01*
X0145643Y0148820D01*
X0096843Y0100020D01*
X0074443Y0100020D01*
X0074241Y0100081D01*
X0067243Y0100020D02*
X0067243Y0095620D01*
X0066843Y0095220D01*
X0066843Y0090420D01*
X0066564Y0090239D01*
X0067243Y0100020D02*
X0067154Y0100081D01*
X0096682Y0080396D02*
X0096443Y0080020D01*
X0096443Y0070820D01*
X0096091Y0070554D01*
X0103769Y0080396D02*
X0104043Y0080420D01*
X0137643Y0080420D01*
X0172043Y0114820D01*
X0163243Y0117220D02*
X0163243Y0108420D01*
X0142443Y0087620D01*
X0141243Y0087620D01*
X0142043Y0081620D02*
X0159243Y0098820D01*
X0159643Y0098820D01*
X0147643Y0096420D02*
X0147643Y0096020D01*
X0144443Y0092820D01*
X0141243Y0092820D01*
X0153643Y0080820D02*
X0158443Y0085620D01*
X0160443Y0085620D01*
X0174843Y0100020D01*
X0175643Y0100020D01*
X0176043Y0100420D01*
X0180443Y0100420D01*
X0181643Y0101620D01*
X0184043Y0101620D01*
X0206843Y0124420D01*
X0208443Y0124420D01*
X0208493Y0124451D01*
X0224843Y0137620D02*
X0218843Y0143620D01*
X0218843Y0144420D01*
X0218493Y0144451D01*
X0227243Y0146820D02*
X0195643Y0178420D01*
X0195643Y0190420D01*
X0194443Y0191620D01*
X0184843Y0191620D01*
X0183243Y0190020D01*
X0181243Y0190020D01*
X0180843Y0190420D01*
X0176043Y0190420D01*
X0175643Y0190020D01*
X0174843Y0190020D01*
X0174443Y0189620D01*
X0090443Y0189620D01*
X0076043Y0204020D01*
X0075698Y0204215D01*
X0173243Y0160820D02*
X0176843Y0164420D01*
X0178443Y0164420D01*
X0178493Y0164451D01*
X0227243Y0146820D02*
X0227243Y0107220D01*
X0232043Y0112020D02*
X0232043Y0102020D01*
X0234043Y0100020D01*
X0235643Y0100020D01*
X0236043Y0100420D01*
X0240843Y0100420D01*
X0241243Y0100020D01*
X0242043Y0100020D01*
X0244843Y0097220D01*
X0244843Y0062020D01*
X0231643Y0048820D01*
X0231643Y0044420D01*
X0230843Y0043620D01*
X0225243Y0043620D01*
X0224443Y0044420D01*
X0224443Y0044820D01*
X0222843Y0046420D01*
X0218443Y0046420D01*
X0218335Y0046538D01*
X0208493Y0046538D02*
X0208443Y0046820D01*
X0208443Y0049620D01*
X0205243Y0052820D01*
X0186843Y0052820D01*
X0178443Y0061220D01*
X0178443Y0068020D01*
X0173643Y0070420D02*
X0172043Y0072020D01*
X0172043Y0077220D01*
X0174843Y0080020D01*
X0175643Y0080020D01*
X0176043Y0080420D01*
X0181243Y0080420D01*
X0181643Y0080020D01*
X0182043Y0080020D01*
X0182443Y0079620D01*
X0183243Y0079620D01*
X0208443Y0104820D01*
X0208493Y0104451D01*
X0208493Y0094451D02*
X0208443Y0094420D01*
X0206843Y0094420D01*
X0194043Y0081620D01*
X0194043Y0077220D01*
X0194443Y0076820D01*
X0194443Y0071620D01*
X0194843Y0071220D01*
X0214043Y0070420D02*
X0214043Y0070020D01*
X0216443Y0067620D01*
X0218443Y0067620D01*
X0223643Y0062420D01*
X0223643Y0058020D01*
X0222443Y0056820D01*
X0222843Y0056420D01*
X0228443Y0050020D02*
X0236443Y0058020D01*
X0236443Y0067620D01*
X0233643Y0070420D01*
X0233643Y0070820D01*
X0234043Y0071220D01*
X0234043Y0071620D01*
X0234443Y0072020D01*
X0234443Y0077220D01*
X0234043Y0077620D01*
X0234043Y0078020D01*
X0224843Y0087220D01*
X0224843Y0137620D01*
X0238443Y0124820D02*
X0238493Y0124451D01*
X0238443Y0124820D02*
X0255243Y0141620D01*
X0252843Y0124420D02*
X0253643Y0123620D01*
X0253643Y0046820D01*
X0250443Y0043620D01*
X0245243Y0043620D01*
X0242443Y0046420D01*
X0238043Y0046420D01*
X0238020Y0046538D01*
X0228443Y0046820D02*
X0228178Y0046538D01*
X0228443Y0046820D02*
X0228443Y0050020D01*
X0228178Y0039451D02*
X0228443Y0039220D01*
X0228443Y0032420D01*
X0228178Y0032365D01*
X0218443Y0032420D02*
X0218335Y0032365D01*
X0218443Y0032420D02*
X0218443Y0039220D01*
X0218335Y0039451D01*
X0208843Y0039220D02*
X0208493Y0039451D01*
X0208843Y0039220D02*
X0208843Y0032420D01*
X0208493Y0032365D01*
X0198843Y0032420D02*
X0198650Y0032365D01*
X0198843Y0032420D02*
X0198843Y0039220D01*
X0198650Y0039451D01*
X0188843Y0039220D02*
X0188843Y0032420D01*
X0188808Y0032365D01*
X0179243Y0032420D02*
X0178965Y0032365D01*
X0179243Y0032420D02*
X0179243Y0039220D01*
X0178965Y0039451D01*
X0181643Y0043620D02*
X0176043Y0043620D01*
X0175243Y0044420D01*
X0175243Y0049220D01*
X0171243Y0053220D01*
X0171243Y0063220D01*
X0173643Y0063620D02*
X0173643Y0070420D01*
X0163243Y0070820D02*
X0176843Y0084420D01*
X0178443Y0084420D01*
X0178493Y0084451D01*
X0178843Y0094420D02*
X0178493Y0094451D01*
X0178843Y0094420D02*
X0161643Y0077220D01*
X0161643Y0038420D01*
X0162843Y0037220D01*
X0162843Y0036420D01*
X0164843Y0038820D02*
X0163243Y0040420D01*
X0163243Y0070820D01*
X0173643Y0063620D02*
X0179243Y0058020D01*
X0179243Y0046820D01*
X0178965Y0046538D01*
X0181643Y0043620D02*
X0184443Y0046420D01*
X0188443Y0046420D01*
X0188808Y0046538D01*
X0198650Y0046538D02*
X0198843Y0046420D01*
X0202843Y0046420D01*
X0188808Y0039451D02*
X0188843Y0039220D01*
X0169243Y0039220D02*
X0169243Y0032420D01*
X0169123Y0032365D01*
X0169243Y0039220D02*
X0169123Y0039451D01*
X0169123Y0046538D02*
X0169243Y0046820D01*
X0169243Y0058020D01*
X0168843Y0058420D01*
X0153643Y0080820D02*
X0153355Y0080691D01*
X0142043Y0081220D02*
X0142043Y0081620D01*
X0142043Y0081220D02*
X0141243Y0080420D01*
X0111225Y0048290D02*
X0110843Y0048420D01*
X0106043Y0048420D01*
X0086843Y0033620D02*
X0084443Y0033620D01*
X0081243Y0030420D01*
X0079643Y0032020D01*
X0081243Y0030420D02*
X0082043Y0029620D01*
X0082043Y0028820D01*
X0081698Y0028605D01*
X0081243Y0028820D01*
X0060043Y0028820D01*
X0059698Y0028605D01*
X0059643Y0028820D01*
X0056843Y0028820D01*
X0055643Y0027620D01*
X0054443Y0027620D01*
X0051243Y0030820D01*
X0051243Y0032420D01*
X0051013Y0032561D01*
X0052170Y0048290D02*
X0052043Y0048420D01*
X0030843Y0048420D01*
X0030170Y0048290D01*
X0030443Y0048420D01*
X0027843Y0051020D01*
X0028443Y0051620D01*
X0027843Y0051020D02*
X0026443Y0052420D01*
X0021643Y0052420D01*
X0021485Y0052246D01*
X0059698Y0067975D02*
X0060043Y0068020D01*
X0061243Y0069220D01*
X0061243Y0071220D01*
X0061643Y0071620D01*
X0067154Y0060711D02*
X0067243Y0060420D01*
X0208493Y0084451D02*
X0208843Y0084420D01*
X0214043Y0079220D01*
X0214043Y0078420D01*
X0214843Y0077620D01*
X0214843Y0076820D01*
X0214443Y0076420D01*
X0214443Y0072820D01*
X0214843Y0072420D01*
X0214843Y0071220D01*
X0214043Y0070420D01*
X0246443Y0059620D02*
X0246443Y0106020D01*
X0238843Y0113620D01*
X0238843Y0114420D01*
X0238493Y0114451D01*
X0248843Y0117620D02*
X0248843Y0060820D01*
X0246443Y0059620D02*
X0248043Y0058020D01*
X0248043Y0046820D01*
X0247863Y0046538D01*
X0247863Y0039451D02*
X0248043Y0039220D01*
X0248043Y0032420D01*
X0247863Y0032365D01*
X0238043Y0032420D02*
X0238043Y0039220D01*
X0238020Y0039451D01*
X0238043Y0032420D02*
X0238020Y0032365D01*
X0301243Y0035220D02*
X0306043Y0035220D01*
X0308443Y0032820D02*
X0304843Y0029220D01*
M02*
