G75*
%MOIN*%
%OFA0B0*%
%FSLAX25Y25*%
%IPPOS*%
%LPD*%
%AMOC8*
5,1,8,0,0,1.08239X$1,22.5*
%
%ADD10C,0.00000*%
%ADD11R,0.09843X0.04724*%
%ADD12C,0.07400*%
%ADD13OC8,0.07000*%
%ADD14R,0.07000X0.07000*%
%ADD15C,0.07000*%
%ADD16C,0.05800*%
%ADD17R,0.07087X0.05512*%
%ADD18R,0.05512X0.07480*%
%ADD19R,0.03150X0.05906*%
%ADD20R,0.01772X0.03937*%
%ADD21R,0.03150X0.04724*%
%ADD22C,0.07677*%
%ADD23R,0.04724X0.09843*%
%ADD24C,0.01000*%
%ADD25C,0.01600*%
%ADD26C,0.01200*%
%ADD27C,0.02400*%
D10*
X0011643Y0016420D02*
X0011643Y0213270D01*
X0405343Y0213270D01*
X0405343Y0016420D01*
X0011643Y0016420D01*
X0020107Y0031183D02*
X0020109Y0031341D01*
X0020115Y0031499D01*
X0020125Y0031657D01*
X0020139Y0031815D01*
X0020157Y0031972D01*
X0020178Y0032129D01*
X0020204Y0032285D01*
X0020234Y0032441D01*
X0020267Y0032596D01*
X0020305Y0032749D01*
X0020346Y0032902D01*
X0020391Y0033054D01*
X0020440Y0033205D01*
X0020493Y0033354D01*
X0020549Y0033502D01*
X0020609Y0033648D01*
X0020673Y0033793D01*
X0020741Y0033936D01*
X0020812Y0034078D01*
X0020886Y0034218D01*
X0020964Y0034355D01*
X0021046Y0034491D01*
X0021130Y0034625D01*
X0021219Y0034756D01*
X0021310Y0034885D01*
X0021405Y0035012D01*
X0021502Y0035137D01*
X0021603Y0035259D01*
X0021707Y0035378D01*
X0021814Y0035495D01*
X0021924Y0035609D01*
X0022037Y0035720D01*
X0022152Y0035829D01*
X0022270Y0035934D01*
X0022391Y0036036D01*
X0022514Y0036136D01*
X0022640Y0036232D01*
X0022768Y0036325D01*
X0022898Y0036415D01*
X0023031Y0036501D01*
X0023166Y0036585D01*
X0023302Y0036664D01*
X0023441Y0036741D01*
X0023582Y0036813D01*
X0023724Y0036883D01*
X0023868Y0036948D01*
X0024014Y0037010D01*
X0024161Y0037068D01*
X0024310Y0037123D01*
X0024460Y0037174D01*
X0024611Y0037221D01*
X0024763Y0037264D01*
X0024916Y0037303D01*
X0025071Y0037339D01*
X0025226Y0037370D01*
X0025382Y0037398D01*
X0025538Y0037422D01*
X0025695Y0037442D01*
X0025853Y0037458D01*
X0026010Y0037470D01*
X0026169Y0037478D01*
X0026327Y0037482D01*
X0026485Y0037482D01*
X0026643Y0037478D01*
X0026802Y0037470D01*
X0026959Y0037458D01*
X0027117Y0037442D01*
X0027274Y0037422D01*
X0027430Y0037398D01*
X0027586Y0037370D01*
X0027741Y0037339D01*
X0027896Y0037303D01*
X0028049Y0037264D01*
X0028201Y0037221D01*
X0028352Y0037174D01*
X0028502Y0037123D01*
X0028651Y0037068D01*
X0028798Y0037010D01*
X0028944Y0036948D01*
X0029088Y0036883D01*
X0029230Y0036813D01*
X0029371Y0036741D01*
X0029510Y0036664D01*
X0029646Y0036585D01*
X0029781Y0036501D01*
X0029914Y0036415D01*
X0030044Y0036325D01*
X0030172Y0036232D01*
X0030298Y0036136D01*
X0030421Y0036036D01*
X0030542Y0035934D01*
X0030660Y0035829D01*
X0030775Y0035720D01*
X0030888Y0035609D01*
X0030998Y0035495D01*
X0031105Y0035378D01*
X0031209Y0035259D01*
X0031310Y0035137D01*
X0031407Y0035012D01*
X0031502Y0034885D01*
X0031593Y0034756D01*
X0031682Y0034625D01*
X0031766Y0034491D01*
X0031848Y0034355D01*
X0031926Y0034218D01*
X0032000Y0034078D01*
X0032071Y0033936D01*
X0032139Y0033793D01*
X0032203Y0033648D01*
X0032263Y0033502D01*
X0032319Y0033354D01*
X0032372Y0033205D01*
X0032421Y0033054D01*
X0032466Y0032902D01*
X0032507Y0032749D01*
X0032545Y0032596D01*
X0032578Y0032441D01*
X0032608Y0032285D01*
X0032634Y0032129D01*
X0032655Y0031972D01*
X0032673Y0031815D01*
X0032687Y0031657D01*
X0032697Y0031499D01*
X0032703Y0031341D01*
X0032705Y0031183D01*
X0032703Y0031025D01*
X0032697Y0030867D01*
X0032687Y0030709D01*
X0032673Y0030551D01*
X0032655Y0030394D01*
X0032634Y0030237D01*
X0032608Y0030081D01*
X0032578Y0029925D01*
X0032545Y0029770D01*
X0032507Y0029617D01*
X0032466Y0029464D01*
X0032421Y0029312D01*
X0032372Y0029161D01*
X0032319Y0029012D01*
X0032263Y0028864D01*
X0032203Y0028718D01*
X0032139Y0028573D01*
X0032071Y0028430D01*
X0032000Y0028288D01*
X0031926Y0028148D01*
X0031848Y0028011D01*
X0031766Y0027875D01*
X0031682Y0027741D01*
X0031593Y0027610D01*
X0031502Y0027481D01*
X0031407Y0027354D01*
X0031310Y0027229D01*
X0031209Y0027107D01*
X0031105Y0026988D01*
X0030998Y0026871D01*
X0030888Y0026757D01*
X0030775Y0026646D01*
X0030660Y0026537D01*
X0030542Y0026432D01*
X0030421Y0026330D01*
X0030298Y0026230D01*
X0030172Y0026134D01*
X0030044Y0026041D01*
X0029914Y0025951D01*
X0029781Y0025865D01*
X0029646Y0025781D01*
X0029510Y0025702D01*
X0029371Y0025625D01*
X0029230Y0025553D01*
X0029088Y0025483D01*
X0028944Y0025418D01*
X0028798Y0025356D01*
X0028651Y0025298D01*
X0028502Y0025243D01*
X0028352Y0025192D01*
X0028201Y0025145D01*
X0028049Y0025102D01*
X0027896Y0025063D01*
X0027741Y0025027D01*
X0027586Y0024996D01*
X0027430Y0024968D01*
X0027274Y0024944D01*
X0027117Y0024924D01*
X0026959Y0024908D01*
X0026802Y0024896D01*
X0026643Y0024888D01*
X0026485Y0024884D01*
X0026327Y0024884D01*
X0026169Y0024888D01*
X0026010Y0024896D01*
X0025853Y0024908D01*
X0025695Y0024924D01*
X0025538Y0024944D01*
X0025382Y0024968D01*
X0025226Y0024996D01*
X0025071Y0025027D01*
X0024916Y0025063D01*
X0024763Y0025102D01*
X0024611Y0025145D01*
X0024460Y0025192D01*
X0024310Y0025243D01*
X0024161Y0025298D01*
X0024014Y0025356D01*
X0023868Y0025418D01*
X0023724Y0025483D01*
X0023582Y0025553D01*
X0023441Y0025625D01*
X0023302Y0025702D01*
X0023166Y0025781D01*
X0023031Y0025865D01*
X0022898Y0025951D01*
X0022768Y0026041D01*
X0022640Y0026134D01*
X0022514Y0026230D01*
X0022391Y0026330D01*
X0022270Y0026432D01*
X0022152Y0026537D01*
X0022037Y0026646D01*
X0021924Y0026757D01*
X0021814Y0026871D01*
X0021707Y0026988D01*
X0021603Y0027107D01*
X0021502Y0027229D01*
X0021405Y0027354D01*
X0021310Y0027481D01*
X0021219Y0027610D01*
X0021130Y0027741D01*
X0021046Y0027875D01*
X0020964Y0028011D01*
X0020886Y0028148D01*
X0020812Y0028288D01*
X0020741Y0028430D01*
X0020673Y0028573D01*
X0020609Y0028718D01*
X0020549Y0028864D01*
X0020493Y0029012D01*
X0020440Y0029161D01*
X0020391Y0029312D01*
X0020346Y0029464D01*
X0020305Y0029617D01*
X0020267Y0029770D01*
X0020234Y0029925D01*
X0020204Y0030081D01*
X0020178Y0030237D01*
X0020157Y0030394D01*
X0020139Y0030551D01*
X0020125Y0030709D01*
X0020115Y0030867D01*
X0020109Y0031025D01*
X0020107Y0031183D01*
X0020107Y0198506D02*
X0020109Y0198664D01*
X0020115Y0198822D01*
X0020125Y0198980D01*
X0020139Y0199138D01*
X0020157Y0199295D01*
X0020178Y0199452D01*
X0020204Y0199608D01*
X0020234Y0199764D01*
X0020267Y0199919D01*
X0020305Y0200072D01*
X0020346Y0200225D01*
X0020391Y0200377D01*
X0020440Y0200528D01*
X0020493Y0200677D01*
X0020549Y0200825D01*
X0020609Y0200971D01*
X0020673Y0201116D01*
X0020741Y0201259D01*
X0020812Y0201401D01*
X0020886Y0201541D01*
X0020964Y0201678D01*
X0021046Y0201814D01*
X0021130Y0201948D01*
X0021219Y0202079D01*
X0021310Y0202208D01*
X0021405Y0202335D01*
X0021502Y0202460D01*
X0021603Y0202582D01*
X0021707Y0202701D01*
X0021814Y0202818D01*
X0021924Y0202932D01*
X0022037Y0203043D01*
X0022152Y0203152D01*
X0022270Y0203257D01*
X0022391Y0203359D01*
X0022514Y0203459D01*
X0022640Y0203555D01*
X0022768Y0203648D01*
X0022898Y0203738D01*
X0023031Y0203824D01*
X0023166Y0203908D01*
X0023302Y0203987D01*
X0023441Y0204064D01*
X0023582Y0204136D01*
X0023724Y0204206D01*
X0023868Y0204271D01*
X0024014Y0204333D01*
X0024161Y0204391D01*
X0024310Y0204446D01*
X0024460Y0204497D01*
X0024611Y0204544D01*
X0024763Y0204587D01*
X0024916Y0204626D01*
X0025071Y0204662D01*
X0025226Y0204693D01*
X0025382Y0204721D01*
X0025538Y0204745D01*
X0025695Y0204765D01*
X0025853Y0204781D01*
X0026010Y0204793D01*
X0026169Y0204801D01*
X0026327Y0204805D01*
X0026485Y0204805D01*
X0026643Y0204801D01*
X0026802Y0204793D01*
X0026959Y0204781D01*
X0027117Y0204765D01*
X0027274Y0204745D01*
X0027430Y0204721D01*
X0027586Y0204693D01*
X0027741Y0204662D01*
X0027896Y0204626D01*
X0028049Y0204587D01*
X0028201Y0204544D01*
X0028352Y0204497D01*
X0028502Y0204446D01*
X0028651Y0204391D01*
X0028798Y0204333D01*
X0028944Y0204271D01*
X0029088Y0204206D01*
X0029230Y0204136D01*
X0029371Y0204064D01*
X0029510Y0203987D01*
X0029646Y0203908D01*
X0029781Y0203824D01*
X0029914Y0203738D01*
X0030044Y0203648D01*
X0030172Y0203555D01*
X0030298Y0203459D01*
X0030421Y0203359D01*
X0030542Y0203257D01*
X0030660Y0203152D01*
X0030775Y0203043D01*
X0030888Y0202932D01*
X0030998Y0202818D01*
X0031105Y0202701D01*
X0031209Y0202582D01*
X0031310Y0202460D01*
X0031407Y0202335D01*
X0031502Y0202208D01*
X0031593Y0202079D01*
X0031682Y0201948D01*
X0031766Y0201814D01*
X0031848Y0201678D01*
X0031926Y0201541D01*
X0032000Y0201401D01*
X0032071Y0201259D01*
X0032139Y0201116D01*
X0032203Y0200971D01*
X0032263Y0200825D01*
X0032319Y0200677D01*
X0032372Y0200528D01*
X0032421Y0200377D01*
X0032466Y0200225D01*
X0032507Y0200072D01*
X0032545Y0199919D01*
X0032578Y0199764D01*
X0032608Y0199608D01*
X0032634Y0199452D01*
X0032655Y0199295D01*
X0032673Y0199138D01*
X0032687Y0198980D01*
X0032697Y0198822D01*
X0032703Y0198664D01*
X0032705Y0198506D01*
X0032703Y0198348D01*
X0032697Y0198190D01*
X0032687Y0198032D01*
X0032673Y0197874D01*
X0032655Y0197717D01*
X0032634Y0197560D01*
X0032608Y0197404D01*
X0032578Y0197248D01*
X0032545Y0197093D01*
X0032507Y0196940D01*
X0032466Y0196787D01*
X0032421Y0196635D01*
X0032372Y0196484D01*
X0032319Y0196335D01*
X0032263Y0196187D01*
X0032203Y0196041D01*
X0032139Y0195896D01*
X0032071Y0195753D01*
X0032000Y0195611D01*
X0031926Y0195471D01*
X0031848Y0195334D01*
X0031766Y0195198D01*
X0031682Y0195064D01*
X0031593Y0194933D01*
X0031502Y0194804D01*
X0031407Y0194677D01*
X0031310Y0194552D01*
X0031209Y0194430D01*
X0031105Y0194311D01*
X0030998Y0194194D01*
X0030888Y0194080D01*
X0030775Y0193969D01*
X0030660Y0193860D01*
X0030542Y0193755D01*
X0030421Y0193653D01*
X0030298Y0193553D01*
X0030172Y0193457D01*
X0030044Y0193364D01*
X0029914Y0193274D01*
X0029781Y0193188D01*
X0029646Y0193104D01*
X0029510Y0193025D01*
X0029371Y0192948D01*
X0029230Y0192876D01*
X0029088Y0192806D01*
X0028944Y0192741D01*
X0028798Y0192679D01*
X0028651Y0192621D01*
X0028502Y0192566D01*
X0028352Y0192515D01*
X0028201Y0192468D01*
X0028049Y0192425D01*
X0027896Y0192386D01*
X0027741Y0192350D01*
X0027586Y0192319D01*
X0027430Y0192291D01*
X0027274Y0192267D01*
X0027117Y0192247D01*
X0026959Y0192231D01*
X0026802Y0192219D01*
X0026643Y0192211D01*
X0026485Y0192207D01*
X0026327Y0192207D01*
X0026169Y0192211D01*
X0026010Y0192219D01*
X0025853Y0192231D01*
X0025695Y0192247D01*
X0025538Y0192267D01*
X0025382Y0192291D01*
X0025226Y0192319D01*
X0025071Y0192350D01*
X0024916Y0192386D01*
X0024763Y0192425D01*
X0024611Y0192468D01*
X0024460Y0192515D01*
X0024310Y0192566D01*
X0024161Y0192621D01*
X0024014Y0192679D01*
X0023868Y0192741D01*
X0023724Y0192806D01*
X0023582Y0192876D01*
X0023441Y0192948D01*
X0023302Y0193025D01*
X0023166Y0193104D01*
X0023031Y0193188D01*
X0022898Y0193274D01*
X0022768Y0193364D01*
X0022640Y0193457D01*
X0022514Y0193553D01*
X0022391Y0193653D01*
X0022270Y0193755D01*
X0022152Y0193860D01*
X0022037Y0193969D01*
X0021924Y0194080D01*
X0021814Y0194194D01*
X0021707Y0194311D01*
X0021603Y0194430D01*
X0021502Y0194552D01*
X0021405Y0194677D01*
X0021310Y0194804D01*
X0021219Y0194933D01*
X0021130Y0195064D01*
X0021046Y0195198D01*
X0020964Y0195334D01*
X0020886Y0195471D01*
X0020812Y0195611D01*
X0020741Y0195753D01*
X0020673Y0195896D01*
X0020609Y0196041D01*
X0020549Y0196187D01*
X0020493Y0196335D01*
X0020440Y0196484D01*
X0020391Y0196635D01*
X0020346Y0196787D01*
X0020305Y0196940D01*
X0020267Y0197093D01*
X0020234Y0197248D01*
X0020204Y0197404D01*
X0020178Y0197560D01*
X0020157Y0197717D01*
X0020139Y0197874D01*
X0020125Y0198032D01*
X0020115Y0198190D01*
X0020109Y0198348D01*
X0020107Y0198506D01*
X0384281Y0198506D02*
X0384283Y0198664D01*
X0384289Y0198822D01*
X0384299Y0198980D01*
X0384313Y0199138D01*
X0384331Y0199295D01*
X0384352Y0199452D01*
X0384378Y0199608D01*
X0384408Y0199764D01*
X0384441Y0199919D01*
X0384479Y0200072D01*
X0384520Y0200225D01*
X0384565Y0200377D01*
X0384614Y0200528D01*
X0384667Y0200677D01*
X0384723Y0200825D01*
X0384783Y0200971D01*
X0384847Y0201116D01*
X0384915Y0201259D01*
X0384986Y0201401D01*
X0385060Y0201541D01*
X0385138Y0201678D01*
X0385220Y0201814D01*
X0385304Y0201948D01*
X0385393Y0202079D01*
X0385484Y0202208D01*
X0385579Y0202335D01*
X0385676Y0202460D01*
X0385777Y0202582D01*
X0385881Y0202701D01*
X0385988Y0202818D01*
X0386098Y0202932D01*
X0386211Y0203043D01*
X0386326Y0203152D01*
X0386444Y0203257D01*
X0386565Y0203359D01*
X0386688Y0203459D01*
X0386814Y0203555D01*
X0386942Y0203648D01*
X0387072Y0203738D01*
X0387205Y0203824D01*
X0387340Y0203908D01*
X0387476Y0203987D01*
X0387615Y0204064D01*
X0387756Y0204136D01*
X0387898Y0204206D01*
X0388042Y0204271D01*
X0388188Y0204333D01*
X0388335Y0204391D01*
X0388484Y0204446D01*
X0388634Y0204497D01*
X0388785Y0204544D01*
X0388937Y0204587D01*
X0389090Y0204626D01*
X0389245Y0204662D01*
X0389400Y0204693D01*
X0389556Y0204721D01*
X0389712Y0204745D01*
X0389869Y0204765D01*
X0390027Y0204781D01*
X0390184Y0204793D01*
X0390343Y0204801D01*
X0390501Y0204805D01*
X0390659Y0204805D01*
X0390817Y0204801D01*
X0390976Y0204793D01*
X0391133Y0204781D01*
X0391291Y0204765D01*
X0391448Y0204745D01*
X0391604Y0204721D01*
X0391760Y0204693D01*
X0391915Y0204662D01*
X0392070Y0204626D01*
X0392223Y0204587D01*
X0392375Y0204544D01*
X0392526Y0204497D01*
X0392676Y0204446D01*
X0392825Y0204391D01*
X0392972Y0204333D01*
X0393118Y0204271D01*
X0393262Y0204206D01*
X0393404Y0204136D01*
X0393545Y0204064D01*
X0393684Y0203987D01*
X0393820Y0203908D01*
X0393955Y0203824D01*
X0394088Y0203738D01*
X0394218Y0203648D01*
X0394346Y0203555D01*
X0394472Y0203459D01*
X0394595Y0203359D01*
X0394716Y0203257D01*
X0394834Y0203152D01*
X0394949Y0203043D01*
X0395062Y0202932D01*
X0395172Y0202818D01*
X0395279Y0202701D01*
X0395383Y0202582D01*
X0395484Y0202460D01*
X0395581Y0202335D01*
X0395676Y0202208D01*
X0395767Y0202079D01*
X0395856Y0201948D01*
X0395940Y0201814D01*
X0396022Y0201678D01*
X0396100Y0201541D01*
X0396174Y0201401D01*
X0396245Y0201259D01*
X0396313Y0201116D01*
X0396377Y0200971D01*
X0396437Y0200825D01*
X0396493Y0200677D01*
X0396546Y0200528D01*
X0396595Y0200377D01*
X0396640Y0200225D01*
X0396681Y0200072D01*
X0396719Y0199919D01*
X0396752Y0199764D01*
X0396782Y0199608D01*
X0396808Y0199452D01*
X0396829Y0199295D01*
X0396847Y0199138D01*
X0396861Y0198980D01*
X0396871Y0198822D01*
X0396877Y0198664D01*
X0396879Y0198506D01*
X0396877Y0198348D01*
X0396871Y0198190D01*
X0396861Y0198032D01*
X0396847Y0197874D01*
X0396829Y0197717D01*
X0396808Y0197560D01*
X0396782Y0197404D01*
X0396752Y0197248D01*
X0396719Y0197093D01*
X0396681Y0196940D01*
X0396640Y0196787D01*
X0396595Y0196635D01*
X0396546Y0196484D01*
X0396493Y0196335D01*
X0396437Y0196187D01*
X0396377Y0196041D01*
X0396313Y0195896D01*
X0396245Y0195753D01*
X0396174Y0195611D01*
X0396100Y0195471D01*
X0396022Y0195334D01*
X0395940Y0195198D01*
X0395856Y0195064D01*
X0395767Y0194933D01*
X0395676Y0194804D01*
X0395581Y0194677D01*
X0395484Y0194552D01*
X0395383Y0194430D01*
X0395279Y0194311D01*
X0395172Y0194194D01*
X0395062Y0194080D01*
X0394949Y0193969D01*
X0394834Y0193860D01*
X0394716Y0193755D01*
X0394595Y0193653D01*
X0394472Y0193553D01*
X0394346Y0193457D01*
X0394218Y0193364D01*
X0394088Y0193274D01*
X0393955Y0193188D01*
X0393820Y0193104D01*
X0393684Y0193025D01*
X0393545Y0192948D01*
X0393404Y0192876D01*
X0393262Y0192806D01*
X0393118Y0192741D01*
X0392972Y0192679D01*
X0392825Y0192621D01*
X0392676Y0192566D01*
X0392526Y0192515D01*
X0392375Y0192468D01*
X0392223Y0192425D01*
X0392070Y0192386D01*
X0391915Y0192350D01*
X0391760Y0192319D01*
X0391604Y0192291D01*
X0391448Y0192267D01*
X0391291Y0192247D01*
X0391133Y0192231D01*
X0390976Y0192219D01*
X0390817Y0192211D01*
X0390659Y0192207D01*
X0390501Y0192207D01*
X0390343Y0192211D01*
X0390184Y0192219D01*
X0390027Y0192231D01*
X0389869Y0192247D01*
X0389712Y0192267D01*
X0389556Y0192291D01*
X0389400Y0192319D01*
X0389245Y0192350D01*
X0389090Y0192386D01*
X0388937Y0192425D01*
X0388785Y0192468D01*
X0388634Y0192515D01*
X0388484Y0192566D01*
X0388335Y0192621D01*
X0388188Y0192679D01*
X0388042Y0192741D01*
X0387898Y0192806D01*
X0387756Y0192876D01*
X0387615Y0192948D01*
X0387476Y0193025D01*
X0387340Y0193104D01*
X0387205Y0193188D01*
X0387072Y0193274D01*
X0386942Y0193364D01*
X0386814Y0193457D01*
X0386688Y0193553D01*
X0386565Y0193653D01*
X0386444Y0193755D01*
X0386326Y0193860D01*
X0386211Y0193969D01*
X0386098Y0194080D01*
X0385988Y0194194D01*
X0385881Y0194311D01*
X0385777Y0194430D01*
X0385676Y0194552D01*
X0385579Y0194677D01*
X0385484Y0194804D01*
X0385393Y0194933D01*
X0385304Y0195064D01*
X0385220Y0195198D01*
X0385138Y0195334D01*
X0385060Y0195471D01*
X0384986Y0195611D01*
X0384915Y0195753D01*
X0384847Y0195896D01*
X0384783Y0196041D01*
X0384723Y0196187D01*
X0384667Y0196335D01*
X0384614Y0196484D01*
X0384565Y0196635D01*
X0384520Y0196787D01*
X0384479Y0196940D01*
X0384441Y0197093D01*
X0384408Y0197248D01*
X0384378Y0197404D01*
X0384352Y0197560D01*
X0384331Y0197717D01*
X0384313Y0197874D01*
X0384299Y0198032D01*
X0384289Y0198190D01*
X0384283Y0198348D01*
X0384281Y0198506D01*
X0384281Y0031183D02*
X0384283Y0031341D01*
X0384289Y0031499D01*
X0384299Y0031657D01*
X0384313Y0031815D01*
X0384331Y0031972D01*
X0384352Y0032129D01*
X0384378Y0032285D01*
X0384408Y0032441D01*
X0384441Y0032596D01*
X0384479Y0032749D01*
X0384520Y0032902D01*
X0384565Y0033054D01*
X0384614Y0033205D01*
X0384667Y0033354D01*
X0384723Y0033502D01*
X0384783Y0033648D01*
X0384847Y0033793D01*
X0384915Y0033936D01*
X0384986Y0034078D01*
X0385060Y0034218D01*
X0385138Y0034355D01*
X0385220Y0034491D01*
X0385304Y0034625D01*
X0385393Y0034756D01*
X0385484Y0034885D01*
X0385579Y0035012D01*
X0385676Y0035137D01*
X0385777Y0035259D01*
X0385881Y0035378D01*
X0385988Y0035495D01*
X0386098Y0035609D01*
X0386211Y0035720D01*
X0386326Y0035829D01*
X0386444Y0035934D01*
X0386565Y0036036D01*
X0386688Y0036136D01*
X0386814Y0036232D01*
X0386942Y0036325D01*
X0387072Y0036415D01*
X0387205Y0036501D01*
X0387340Y0036585D01*
X0387476Y0036664D01*
X0387615Y0036741D01*
X0387756Y0036813D01*
X0387898Y0036883D01*
X0388042Y0036948D01*
X0388188Y0037010D01*
X0388335Y0037068D01*
X0388484Y0037123D01*
X0388634Y0037174D01*
X0388785Y0037221D01*
X0388937Y0037264D01*
X0389090Y0037303D01*
X0389245Y0037339D01*
X0389400Y0037370D01*
X0389556Y0037398D01*
X0389712Y0037422D01*
X0389869Y0037442D01*
X0390027Y0037458D01*
X0390184Y0037470D01*
X0390343Y0037478D01*
X0390501Y0037482D01*
X0390659Y0037482D01*
X0390817Y0037478D01*
X0390976Y0037470D01*
X0391133Y0037458D01*
X0391291Y0037442D01*
X0391448Y0037422D01*
X0391604Y0037398D01*
X0391760Y0037370D01*
X0391915Y0037339D01*
X0392070Y0037303D01*
X0392223Y0037264D01*
X0392375Y0037221D01*
X0392526Y0037174D01*
X0392676Y0037123D01*
X0392825Y0037068D01*
X0392972Y0037010D01*
X0393118Y0036948D01*
X0393262Y0036883D01*
X0393404Y0036813D01*
X0393545Y0036741D01*
X0393684Y0036664D01*
X0393820Y0036585D01*
X0393955Y0036501D01*
X0394088Y0036415D01*
X0394218Y0036325D01*
X0394346Y0036232D01*
X0394472Y0036136D01*
X0394595Y0036036D01*
X0394716Y0035934D01*
X0394834Y0035829D01*
X0394949Y0035720D01*
X0395062Y0035609D01*
X0395172Y0035495D01*
X0395279Y0035378D01*
X0395383Y0035259D01*
X0395484Y0035137D01*
X0395581Y0035012D01*
X0395676Y0034885D01*
X0395767Y0034756D01*
X0395856Y0034625D01*
X0395940Y0034491D01*
X0396022Y0034355D01*
X0396100Y0034218D01*
X0396174Y0034078D01*
X0396245Y0033936D01*
X0396313Y0033793D01*
X0396377Y0033648D01*
X0396437Y0033502D01*
X0396493Y0033354D01*
X0396546Y0033205D01*
X0396595Y0033054D01*
X0396640Y0032902D01*
X0396681Y0032749D01*
X0396719Y0032596D01*
X0396752Y0032441D01*
X0396782Y0032285D01*
X0396808Y0032129D01*
X0396829Y0031972D01*
X0396847Y0031815D01*
X0396861Y0031657D01*
X0396871Y0031499D01*
X0396877Y0031341D01*
X0396879Y0031183D01*
X0396877Y0031025D01*
X0396871Y0030867D01*
X0396861Y0030709D01*
X0396847Y0030551D01*
X0396829Y0030394D01*
X0396808Y0030237D01*
X0396782Y0030081D01*
X0396752Y0029925D01*
X0396719Y0029770D01*
X0396681Y0029617D01*
X0396640Y0029464D01*
X0396595Y0029312D01*
X0396546Y0029161D01*
X0396493Y0029012D01*
X0396437Y0028864D01*
X0396377Y0028718D01*
X0396313Y0028573D01*
X0396245Y0028430D01*
X0396174Y0028288D01*
X0396100Y0028148D01*
X0396022Y0028011D01*
X0395940Y0027875D01*
X0395856Y0027741D01*
X0395767Y0027610D01*
X0395676Y0027481D01*
X0395581Y0027354D01*
X0395484Y0027229D01*
X0395383Y0027107D01*
X0395279Y0026988D01*
X0395172Y0026871D01*
X0395062Y0026757D01*
X0394949Y0026646D01*
X0394834Y0026537D01*
X0394716Y0026432D01*
X0394595Y0026330D01*
X0394472Y0026230D01*
X0394346Y0026134D01*
X0394218Y0026041D01*
X0394088Y0025951D01*
X0393955Y0025865D01*
X0393820Y0025781D01*
X0393684Y0025702D01*
X0393545Y0025625D01*
X0393404Y0025553D01*
X0393262Y0025483D01*
X0393118Y0025418D01*
X0392972Y0025356D01*
X0392825Y0025298D01*
X0392676Y0025243D01*
X0392526Y0025192D01*
X0392375Y0025145D01*
X0392223Y0025102D01*
X0392070Y0025063D01*
X0391915Y0025027D01*
X0391760Y0024996D01*
X0391604Y0024968D01*
X0391448Y0024944D01*
X0391291Y0024924D01*
X0391133Y0024908D01*
X0390976Y0024896D01*
X0390817Y0024888D01*
X0390659Y0024884D01*
X0390501Y0024884D01*
X0390343Y0024888D01*
X0390184Y0024896D01*
X0390027Y0024908D01*
X0389869Y0024924D01*
X0389712Y0024944D01*
X0389556Y0024968D01*
X0389400Y0024996D01*
X0389245Y0025027D01*
X0389090Y0025063D01*
X0388937Y0025102D01*
X0388785Y0025145D01*
X0388634Y0025192D01*
X0388484Y0025243D01*
X0388335Y0025298D01*
X0388188Y0025356D01*
X0388042Y0025418D01*
X0387898Y0025483D01*
X0387756Y0025553D01*
X0387615Y0025625D01*
X0387476Y0025702D01*
X0387340Y0025781D01*
X0387205Y0025865D01*
X0387072Y0025951D01*
X0386942Y0026041D01*
X0386814Y0026134D01*
X0386688Y0026230D01*
X0386565Y0026330D01*
X0386444Y0026432D01*
X0386326Y0026537D01*
X0386211Y0026646D01*
X0386098Y0026757D01*
X0385988Y0026871D01*
X0385881Y0026988D01*
X0385777Y0027107D01*
X0385676Y0027229D01*
X0385579Y0027354D01*
X0385484Y0027481D01*
X0385393Y0027610D01*
X0385304Y0027741D01*
X0385220Y0027875D01*
X0385138Y0028011D01*
X0385060Y0028148D01*
X0384986Y0028288D01*
X0384915Y0028430D01*
X0384847Y0028573D01*
X0384783Y0028718D01*
X0384723Y0028864D01*
X0384667Y0029012D01*
X0384614Y0029161D01*
X0384565Y0029312D01*
X0384520Y0029464D01*
X0384479Y0029617D01*
X0384441Y0029770D01*
X0384408Y0029925D01*
X0384378Y0030081D01*
X0384352Y0030237D01*
X0384331Y0030394D01*
X0384313Y0030551D01*
X0384299Y0030709D01*
X0384289Y0030867D01*
X0384283Y0031025D01*
X0384281Y0031183D01*
D11*
X0259674Y0077837D03*
X0259674Y0090829D03*
X0284654Y0113309D03*
X0284654Y0126302D03*
D12*
X0393355Y0122975D03*
X0393355Y0112975D03*
X0393080Y0162975D03*
X0393080Y0172975D03*
X0228808Y0061211D03*
X0218808Y0060211D03*
X0208808Y0061211D03*
X0198808Y0060211D03*
X0188808Y0061211D03*
X0149398Y0102345D03*
X0150398Y0112345D03*
X0149398Y0122345D03*
X0150398Y0132345D03*
X0149398Y0142345D03*
X0150398Y0152345D03*
D13*
X0085698Y0204215D03*
X0075698Y0204215D03*
X0065698Y0204215D03*
X0153355Y0080691D03*
X0153355Y0070691D03*
X0153355Y0060691D03*
X0153355Y0050691D03*
X0153355Y0040691D03*
X0299497Y0123821D03*
X0299497Y0153821D03*
X0299497Y0173821D03*
X0341288Y0204215D03*
X0351288Y0204215D03*
X0361288Y0204215D03*
X0374497Y0173821D03*
X0374497Y0163821D03*
X0374497Y0123821D03*
X0374497Y0113821D03*
D14*
X0299497Y0113821D03*
X0270009Y0128880D03*
X0299497Y0163821D03*
X0270009Y0173664D03*
X0331288Y0204215D03*
X0055698Y0204215D03*
X0153355Y0030691D03*
D15*
X0270009Y0138880D03*
X0270009Y0148880D03*
X0270009Y0158880D03*
X0270009Y0183664D03*
X0270009Y0193664D03*
X0270009Y0203664D03*
D16*
X0238493Y0204451D03*
X0238493Y0194451D03*
X0228493Y0194451D03*
X0238493Y0184451D03*
X0238493Y0174451D03*
X0228493Y0174451D03*
X0228493Y0164451D03*
X0238493Y0164451D03*
X0238493Y0154451D03*
X0228493Y0154451D03*
X0238493Y0144451D03*
X0238493Y0134451D03*
X0218493Y0134451D03*
X0208493Y0134451D03*
X0208493Y0144451D03*
X0218493Y0144451D03*
X0218493Y0124451D03*
X0208493Y0124451D03*
X0208493Y0114451D03*
X0218493Y0114451D03*
X0238493Y0114451D03*
X0238493Y0124451D03*
X0238493Y0104451D03*
X0218493Y0104451D03*
X0208493Y0104451D03*
X0208493Y0094451D03*
X0218493Y0094451D03*
X0218493Y0084451D03*
X0208493Y0084451D03*
X0208493Y0074451D03*
X0198493Y0074451D03*
X0188493Y0074451D03*
X0178493Y0074451D03*
X0178493Y0084451D03*
X0178493Y0094451D03*
X0178493Y0104451D03*
X0178493Y0114451D03*
X0178493Y0124451D03*
X0178493Y0134451D03*
X0178493Y0144451D03*
X0178493Y0154451D03*
X0178493Y0164451D03*
X0178493Y0174451D03*
X0178493Y0184451D03*
X0178493Y0194451D03*
X0178493Y0204451D03*
X0238493Y0094451D03*
X0238493Y0084451D03*
X0238493Y0074451D03*
X0228493Y0074451D03*
X0218493Y0074451D03*
D17*
X0302686Y0081321D03*
X0325127Y0081321D03*
D18*
X0296387Y0029550D03*
X0348158Y0025613D03*
D19*
X0329812Y0040770D03*
X0325481Y0042345D03*
X0321150Y0040770D03*
X0316820Y0039983D03*
X0312489Y0040770D03*
X0308158Y0039983D03*
X0303828Y0040770D03*
X0299497Y0040770D03*
D20*
X0263513Y0105101D03*
X0260954Y0105101D03*
X0258394Y0105101D03*
X0255835Y0105101D03*
X0255835Y0114746D03*
X0258394Y0114746D03*
X0260954Y0114746D03*
X0263513Y0114746D03*
D21*
X0276387Y0100081D03*
X0283473Y0100081D03*
X0280934Y0055790D03*
X0273847Y0055790D03*
X0103769Y0055790D03*
X0096682Y0055790D03*
X0074241Y0075475D03*
X0067154Y0075475D03*
X0044713Y0055790D03*
X0037627Y0055790D03*
X0067154Y0036105D03*
X0074241Y0036105D03*
D22*
X0112430Y0149294D03*
X0033690Y0149294D03*
D23*
X0270894Y0036105D03*
X0283887Y0036105D03*
D24*
X0286843Y0030020D02*
X0292043Y0035220D01*
X0301243Y0035220D01*
X0303643Y0034020D02*
X0307243Y0030420D01*
X0325643Y0030420D01*
X0332843Y0037620D01*
X0332843Y0044020D01*
X0316843Y0060020D01*
X0286443Y0060020D01*
X0261243Y0085220D01*
X0253243Y0085220D01*
X0242843Y0095620D01*
X0242843Y0106020D01*
X0239243Y0109620D01*
X0207643Y0109620D01*
X0182843Y0084820D01*
X0182843Y0078820D01*
X0178843Y0074820D01*
X0178493Y0074451D01*
X0184443Y0074020D02*
X0184443Y0076420D01*
X0208443Y0100420D01*
X0214443Y0100420D01*
X0218443Y0104420D01*
X0218493Y0104451D01*
X0227243Y0107220D02*
X0227243Y0097220D01*
X0218843Y0088820D01*
X0218843Y0084820D01*
X0218493Y0084451D01*
X0222843Y0084820D02*
X0222843Y0082820D01*
X0220443Y0080420D01*
X0208443Y0080420D01*
X0202843Y0074820D01*
X0202843Y0072820D01*
X0191243Y0061220D01*
X0188843Y0061220D01*
X0188808Y0061211D01*
X0188443Y0066020D02*
X0185243Y0066020D01*
X0155243Y0036020D01*
X0118843Y0036020D01*
X0106443Y0048420D01*
X0106043Y0048420D01*
X0104043Y0048420D01*
X0096843Y0055620D01*
X0096682Y0055790D01*
X0096443Y0055620D01*
X0091643Y0055620D01*
X0087643Y0051620D01*
X0104043Y0061220D02*
X0056043Y0061220D01*
X0042443Y0074820D01*
X0042443Y0180820D01*
X0065643Y0204020D01*
X0065698Y0204215D01*
X0157643Y0169620D02*
X0157643Y0130420D01*
X0149643Y0122420D01*
X0149398Y0122345D01*
X0159243Y0121220D02*
X0150443Y0112420D01*
X0150398Y0112345D01*
X0159643Y0110020D02*
X0169243Y0119620D01*
X0169243Y0125220D01*
X0178443Y0134420D01*
X0178493Y0134451D01*
X0176843Y0128820D02*
X0170843Y0122820D01*
X0170843Y0110020D01*
X0162043Y0101220D01*
X0162043Y0097620D01*
X0160843Y0096420D01*
X0147643Y0096420D01*
X0143643Y0094020D02*
X0112443Y0125220D01*
X0112443Y0149220D01*
X0112430Y0149294D01*
X0159243Y0161220D02*
X0159243Y0121220D01*
X0163243Y0117220D02*
X0163243Y0129220D01*
X0178443Y0144420D01*
X0178493Y0144451D01*
X0160843Y0152820D02*
X0160843Y0113620D01*
X0149643Y0102420D01*
X0149398Y0102345D01*
X0159643Y0098820D02*
X0159643Y0110020D01*
X0163643Y0100420D02*
X0172443Y0109220D01*
X0172443Y0118420D01*
X0178443Y0124420D01*
X0178493Y0124451D01*
X0176843Y0128820D02*
X0210043Y0128820D01*
X0214043Y0124820D01*
X0218443Y0124820D01*
X0218493Y0124451D01*
X0218443Y0130420D02*
X0216843Y0130420D01*
X0212843Y0134420D01*
X0212843Y0140420D01*
X0208843Y0144420D01*
X0208493Y0144451D01*
X0228843Y0138420D02*
X0228843Y0154420D01*
X0228493Y0154451D01*
X0232843Y0160420D02*
X0228843Y0164420D01*
X0228493Y0164451D01*
X0232843Y0160420D02*
X0232843Y0144420D01*
X0236843Y0140420D01*
X0238443Y0140420D01*
X0252843Y0126020D01*
X0252843Y0124420D01*
X0252643Y0120620D02*
X0265643Y0133620D01*
X0271643Y0133620D01*
X0276443Y0138420D01*
X0276443Y0157620D01*
X0297643Y0178820D01*
X0322443Y0178820D01*
X0347643Y0204020D01*
X0351243Y0204020D01*
X0351288Y0204215D01*
X0341288Y0204215D02*
X0341243Y0204020D01*
X0340043Y0204020D01*
X0316443Y0180420D01*
X0296843Y0180420D01*
X0274843Y0158420D01*
X0274843Y0146820D01*
X0271643Y0143620D01*
X0257243Y0143620D01*
X0255243Y0141620D01*
X0254043Y0139220D02*
X0248843Y0144420D01*
X0238843Y0144420D01*
X0238493Y0144451D01*
X0228843Y0138420D02*
X0236843Y0130420D01*
X0238443Y0130420D01*
X0248843Y0120020D01*
X0248843Y0117620D01*
X0252643Y0120620D02*
X0255643Y0117620D01*
X0255643Y0114820D01*
X0255835Y0114746D01*
X0263513Y0114746D02*
X0263643Y0114420D01*
X0263643Y0112820D01*
X0276043Y0100420D01*
X0276387Y0100081D01*
X0283473Y0100081D02*
X0283643Y0100420D01*
X0283643Y0103220D01*
X0294843Y0114420D01*
X0294843Y0149220D01*
X0299243Y0153620D01*
X0299497Y0153821D01*
X0299243Y0154020D01*
X0294843Y0158420D01*
X0294843Y0168020D01*
X0299243Y0172420D01*
X0299243Y0173620D01*
X0299497Y0173821D01*
X0270009Y0183664D02*
X0269643Y0183620D01*
X0250843Y0164820D01*
X0238843Y0164820D01*
X0238493Y0164451D01*
X0238493Y0154451D02*
X0238843Y0154420D01*
X0264443Y0154420D01*
X0269643Y0149220D01*
X0270009Y0148880D01*
X0269643Y0139220D02*
X0254043Y0139220D01*
X0269643Y0139220D02*
X0270009Y0138880D01*
X0252643Y0120620D02*
X0238843Y0134420D01*
X0238493Y0134451D01*
X0232043Y0116820D02*
X0218443Y0130420D01*
X0238443Y0124420D02*
X0238493Y0124451D01*
X0238443Y0124420D02*
X0255643Y0107220D01*
X0255643Y0105220D01*
X0255835Y0105101D01*
X0263243Y0104820D02*
X0263513Y0105101D01*
X0263243Y0104820D02*
X0263243Y0094420D01*
X0260043Y0091220D01*
X0259674Y0090829D01*
X0259643Y0078020D02*
X0240843Y0078020D01*
X0240043Y0078820D01*
X0232843Y0078820D01*
X0228843Y0074820D01*
X0228493Y0074451D01*
X0222843Y0074820D02*
X0222843Y0072820D01*
X0217643Y0067620D01*
X0215243Y0067620D01*
X0208843Y0061220D01*
X0208808Y0061211D01*
X0213643Y0062020D02*
X0213643Y0059220D01*
X0202843Y0048420D01*
X0202843Y0046420D01*
X0206843Y0041220D02*
X0163643Y0041220D01*
X0158043Y0035620D01*
X0158043Y0026820D01*
X0157243Y0026020D01*
X0067643Y0026020D01*
X0038043Y0055620D01*
X0037627Y0055790D01*
X0037243Y0055620D01*
X0032443Y0055620D01*
X0028443Y0051620D01*
X0061643Y0071620D02*
X0065243Y0075220D01*
X0066843Y0075220D01*
X0067154Y0075475D01*
X0067643Y0075620D01*
X0084843Y0092820D01*
X0141243Y0092820D01*
X0143643Y0094020D02*
X0143643Y0056820D01*
X0145243Y0055220D01*
X0147643Y0055220D01*
X0148043Y0055620D01*
X0169643Y0055620D01*
X0188443Y0074420D01*
X0188493Y0074451D01*
X0184443Y0074020D02*
X0178443Y0068020D01*
X0184043Y0067620D02*
X0162443Y0046020D01*
X0119243Y0046020D01*
X0104043Y0061220D01*
X0118843Y0065220D02*
X0141243Y0087620D01*
X0141243Y0080420D02*
X0123643Y0062820D01*
X0066843Y0062820D01*
X0053643Y0076020D01*
X0044843Y0076020D01*
X0074443Y0065220D02*
X0118843Y0065220D01*
X0153355Y0060691D02*
X0153643Y0060820D01*
X0165243Y0072420D01*
X0165243Y0099620D01*
X0178443Y0112820D01*
X0178443Y0114420D01*
X0178493Y0114451D01*
X0178443Y0110420D02*
X0204443Y0110420D01*
X0208443Y0114420D01*
X0208493Y0114451D01*
X0209643Y0119220D02*
X0214043Y0114820D01*
X0218443Y0114820D01*
X0218493Y0114451D01*
X0209643Y0119220D02*
X0177243Y0119220D01*
X0178443Y0110420D02*
X0171243Y0103220D01*
X0171243Y0063220D01*
X0174443Y0062820D02*
X0174443Y0100420D01*
X0178443Y0104420D01*
X0178493Y0104451D01*
X0163643Y0100420D02*
X0163643Y0080820D01*
X0153643Y0070820D01*
X0153355Y0070691D01*
X0170043Y0058420D02*
X0174443Y0062820D01*
X0170043Y0058420D02*
X0168843Y0058420D01*
X0184043Y0067620D02*
X0187643Y0067620D01*
X0192843Y0072820D01*
X0192843Y0074820D01*
X0206843Y0088820D01*
X0208843Y0088820D01*
X0214443Y0094420D01*
X0218443Y0094420D01*
X0218493Y0094451D01*
X0222843Y0084820D02*
X0238443Y0100420D01*
X0238443Y0104420D01*
X0238493Y0104451D01*
X0232043Y0112020D02*
X0232043Y0116820D01*
X0236843Y0094420D02*
X0221243Y0078820D01*
X0216843Y0078820D01*
X0212843Y0074820D01*
X0212843Y0072820D01*
X0200443Y0060420D01*
X0198843Y0060420D01*
X0198808Y0060211D01*
X0188443Y0066020D02*
X0193643Y0071220D01*
X0194843Y0071220D01*
X0213643Y0062020D02*
X0217643Y0066020D01*
X0243643Y0066020D01*
X0248843Y0060820D01*
X0238843Y0074420D02*
X0238493Y0074451D01*
X0238843Y0074420D02*
X0265463Y0047799D01*
X0265580Y0047916D01*
X0273454Y0047916D01*
X0275422Y0045947D01*
X0293139Y0045947D01*
X0297076Y0047916D01*
X0308887Y0047916D01*
X0312824Y0043979D01*
X0312824Y0042010D01*
X0312489Y0040770D01*
X0312443Y0040820D01*
X0312443Y0042020D01*
X0320843Y0040420D02*
X0320843Y0037620D01*
X0318443Y0035220D01*
X0306043Y0035220D01*
X0303643Y0034020D02*
X0303643Y0040420D01*
X0303828Y0040770D01*
X0308443Y0032820D02*
X0319643Y0032820D01*
X0325243Y0038420D01*
X0325243Y0042020D01*
X0325481Y0042345D01*
X0321150Y0040770D02*
X0320843Y0040420D01*
X0304843Y0029220D02*
X0300043Y0024420D01*
X0174843Y0024420D01*
X0162843Y0036420D01*
X0164843Y0038820D02*
X0173643Y0030020D01*
X0286843Y0030020D01*
X0222843Y0056420D02*
X0222043Y0056420D01*
X0206843Y0041220D01*
X0222843Y0074820D02*
X0232443Y0084420D01*
X0238443Y0084420D01*
X0238493Y0084451D01*
X0238443Y0094420D02*
X0238493Y0094451D01*
X0238443Y0094420D02*
X0236843Y0094420D01*
X0259643Y0078020D02*
X0259674Y0077837D01*
X0302686Y0081321D02*
X0302843Y0081220D01*
X0324843Y0081220D01*
X0325127Y0081321D01*
X0374497Y0113821D02*
X0374843Y0113620D01*
X0392843Y0113620D01*
X0393243Y0113220D01*
X0393355Y0112975D01*
X0393355Y0122975D02*
X0393243Y0123220D01*
X0392843Y0123620D01*
X0374843Y0123620D01*
X0374497Y0123821D01*
X0374843Y0163620D02*
X0374497Y0163821D01*
X0374843Y0163620D02*
X0392443Y0163620D01*
X0392843Y0163220D01*
X0393080Y0162975D01*
X0393080Y0172975D02*
X0392843Y0173220D01*
X0392443Y0173620D01*
X0374843Y0173620D01*
X0374497Y0173821D01*
X0270009Y0193664D02*
X0269643Y0193620D01*
X0250843Y0174820D01*
X0238843Y0174820D01*
X0238493Y0174451D01*
X0178493Y0174451D02*
X0178443Y0174420D01*
X0178443Y0170420D01*
X0160843Y0152820D01*
X0159243Y0161220D02*
X0178443Y0180420D01*
X0178443Y0184420D01*
X0178493Y0184451D01*
X0178443Y0190420D02*
X0157643Y0169620D01*
X0178443Y0190420D02*
X0178443Y0194420D01*
X0178493Y0194451D01*
X0075643Y0036020D02*
X0079643Y0032020D01*
X0075643Y0036020D02*
X0074443Y0036020D01*
X0074241Y0036105D01*
D25*
X0071266Y0035602D02*
X0070529Y0035602D01*
X0070529Y0036105D02*
X0067154Y0036105D01*
X0067154Y0036105D01*
X0063780Y0036105D01*
X0063780Y0038704D01*
X0063902Y0039162D01*
X0064139Y0039572D01*
X0064474Y0039907D01*
X0064885Y0040144D01*
X0065343Y0040267D01*
X0067154Y0040267D01*
X0067154Y0036105D01*
X0067154Y0036105D01*
X0063780Y0036105D01*
X0063780Y0033506D01*
X0063902Y0033048D01*
X0064139Y0032637D01*
X0064474Y0032302D01*
X0064885Y0032065D01*
X0065343Y0031943D01*
X0067154Y0031943D01*
X0067154Y0036105D01*
X0067154Y0040267D01*
X0068966Y0040267D01*
X0069424Y0040144D01*
X0069834Y0039907D01*
X0070169Y0039572D01*
X0070406Y0039162D01*
X0070529Y0038704D01*
X0070529Y0036105D01*
X0067154Y0036105D01*
X0067154Y0036105D01*
X0067154Y0036105D01*
X0067154Y0031943D01*
X0068966Y0031943D01*
X0069424Y0032065D01*
X0069834Y0032302D01*
X0070169Y0032637D01*
X0070406Y0033048D01*
X0070529Y0033506D01*
X0070529Y0036105D01*
X0070529Y0037200D02*
X0071266Y0037200D01*
X0071266Y0038799D02*
X0070504Y0038799D01*
X0071266Y0039047D02*
X0071266Y0033163D01*
X0072086Y0032343D01*
X0076396Y0032343D01*
X0076514Y0032461D01*
X0077043Y0031933D01*
X0077043Y0031502D01*
X0077438Y0030547D01*
X0078170Y0029816D01*
X0079125Y0029420D01*
X0080160Y0029420D01*
X0081115Y0029816D01*
X0081847Y0030547D01*
X0082243Y0031502D01*
X0082243Y0032537D01*
X0081847Y0033492D01*
X0081115Y0034224D01*
X0080160Y0034620D01*
X0079730Y0034620D01*
X0077216Y0037133D01*
X0077216Y0039047D01*
X0076396Y0039867D01*
X0072086Y0039867D01*
X0071266Y0039047D01*
X0067154Y0038799D02*
X0067154Y0038799D01*
X0067154Y0037200D02*
X0067154Y0037200D01*
X0067154Y0035602D02*
X0067154Y0035602D01*
X0067154Y0034003D02*
X0067154Y0034003D01*
X0067154Y0032405D02*
X0067154Y0032405D01*
X0065543Y0030806D02*
X0077331Y0030806D01*
X0076570Y0032405D02*
X0076458Y0032405D01*
X0072024Y0032405D02*
X0069937Y0032405D01*
X0070529Y0034003D02*
X0071266Y0034003D01*
X0077216Y0037200D02*
X0114975Y0037200D01*
X0116573Y0035602D02*
X0078747Y0035602D01*
X0081336Y0034003D02*
X0148055Y0034003D01*
X0148055Y0034120D02*
X0119630Y0034120D01*
X0118056Y0034120D01*
X0106356Y0045820D01*
X0105525Y0045820D01*
X0104570Y0046216D01*
X0104266Y0046520D01*
X0103256Y0046520D01*
X0097748Y0052028D01*
X0094527Y0052028D01*
X0093707Y0052848D01*
X0093707Y0053720D01*
X0092430Y0053720D01*
X0090243Y0051533D01*
X0090243Y0051102D01*
X0089847Y0050147D01*
X0089115Y0049416D01*
X0088160Y0049020D01*
X0087125Y0049020D01*
X0086170Y0049416D01*
X0085438Y0050147D01*
X0085043Y0051102D01*
X0085043Y0052137D01*
X0085438Y0053092D01*
X0086170Y0053824D01*
X0087125Y0054220D01*
X0087556Y0054220D01*
X0090856Y0057520D01*
X0093707Y0057520D01*
X0093707Y0058732D01*
X0094295Y0059320D01*
X0055256Y0059320D01*
X0041656Y0072920D01*
X0040543Y0074033D01*
X0040543Y0181607D01*
X0057851Y0198915D01*
X0055898Y0198915D01*
X0055898Y0204015D01*
X0055498Y0204015D01*
X0055498Y0198915D01*
X0051961Y0198915D01*
X0051503Y0199038D01*
X0051092Y0199275D01*
X0050757Y0199610D01*
X0050520Y0200020D01*
X0050398Y0200478D01*
X0050398Y0204015D01*
X0055498Y0204015D01*
X0055498Y0204415D01*
X0050398Y0204415D01*
X0050398Y0207733D01*
X0039203Y0207733D01*
X0039797Y0206500D01*
X0039797Y0206500D01*
X0040557Y0201459D01*
X0040557Y0201459D01*
X0039797Y0196418D01*
X0037585Y0191824D01*
X0037585Y0191824D01*
X0034117Y0188087D01*
X0034117Y0188087D01*
X0029702Y0185538D01*
X0029702Y0185538D01*
X0024732Y0184403D01*
X0024732Y0184403D01*
X0019648Y0184784D01*
X0019648Y0184784D01*
X0017180Y0185753D01*
X0017180Y0043937D01*
X0019648Y0044905D01*
X0019648Y0044905D01*
X0024732Y0045286D01*
X0024732Y0045286D01*
X0029702Y0044152D01*
X0029702Y0044152D01*
X0034117Y0041603D01*
X0034117Y0041603D01*
X0037585Y0037865D01*
X0039797Y0033272D01*
X0040557Y0028231D01*
X0040557Y0028231D01*
X0039797Y0023189D01*
X0039797Y0023189D01*
X0039203Y0021957D01*
X0343602Y0021957D01*
X0343602Y0025035D01*
X0347580Y0025035D01*
X0347580Y0026191D01*
X0347580Y0031153D01*
X0345165Y0031153D01*
X0344708Y0031030D01*
X0344297Y0030793D01*
X0343962Y0030458D01*
X0343725Y0030048D01*
X0343602Y0029590D01*
X0343602Y0026191D01*
X0347580Y0026191D01*
X0348736Y0026191D01*
X0348736Y0031153D01*
X0351151Y0031153D01*
X0351609Y0031030D01*
X0352019Y0030793D01*
X0352355Y0030458D01*
X0352591Y0030048D01*
X0352714Y0029590D01*
X0352714Y0026191D01*
X0348736Y0026191D01*
X0348736Y0025035D01*
X0352714Y0025035D01*
X0352714Y0021957D01*
X0377769Y0021957D01*
X0376620Y0025682D01*
X0376620Y0030780D01*
X0378123Y0035652D01*
X0378123Y0035652D01*
X0380995Y0039864D01*
X0380995Y0039864D01*
X0384981Y0043043D01*
X0384981Y0043043D01*
X0389726Y0044905D01*
X0389726Y0044905D01*
X0394810Y0045286D01*
X0394810Y0045286D01*
X0399781Y0044152D01*
X0399781Y0044152D01*
X0399806Y0044137D01*
X0399806Y0185553D01*
X0399781Y0185538D01*
X0399781Y0185538D01*
X0394810Y0184403D01*
X0394810Y0184403D01*
X0389726Y0184784D01*
X0389726Y0184784D01*
X0384981Y0186647D01*
X0384981Y0186647D01*
X0380995Y0189826D01*
X0380995Y0189826D01*
X0380995Y0189826D01*
X0378123Y0194038D01*
X0378123Y0194038D01*
X0376620Y0198910D01*
X0376620Y0204008D01*
X0377769Y0207733D01*
X0364700Y0207733D01*
X0366188Y0206245D01*
X0366188Y0202185D01*
X0363318Y0199315D01*
X0363243Y0199315D01*
X0363243Y0163191D01*
X0287271Y0087220D01*
X0290043Y0084448D01*
X0290043Y0064097D01*
X0290247Y0063892D01*
X0290643Y0062937D01*
X0290643Y0061920D01*
X0317630Y0061920D01*
X0318743Y0060807D01*
X0334743Y0044807D01*
X0334743Y0036833D01*
X0333630Y0035720D01*
X0326430Y0028520D01*
X0307367Y0028520D01*
X0307047Y0027747D01*
X0306315Y0027016D01*
X0305360Y0026620D01*
X0304930Y0026620D01*
X0301943Y0023633D01*
X0301943Y0023633D01*
X0300830Y0022520D01*
X0174056Y0022520D01*
X0162756Y0033820D01*
X0162325Y0033820D01*
X0161370Y0034216D01*
X0160638Y0034947D01*
X0160468Y0035358D01*
X0159943Y0034833D01*
X0159943Y0026033D01*
X0159143Y0025233D01*
X0158030Y0024120D01*
X0066856Y0024120D01*
X0038948Y0052028D01*
X0035472Y0052028D01*
X0034652Y0052848D01*
X0034652Y0053720D01*
X0033230Y0053720D01*
X0031043Y0051533D01*
X0031043Y0051102D01*
X0030647Y0050147D01*
X0029915Y0049416D01*
X0028960Y0049020D01*
X0027925Y0049020D01*
X0026970Y0049416D01*
X0026238Y0050147D01*
X0025843Y0051102D01*
X0025843Y0052137D01*
X0026238Y0053092D01*
X0026970Y0053824D01*
X0027925Y0054220D01*
X0028356Y0054220D01*
X0031656Y0057520D01*
X0034652Y0057520D01*
X0034652Y0058732D01*
X0035472Y0059552D01*
X0039781Y0059552D01*
X0040602Y0058732D01*
X0040602Y0055748D01*
X0041339Y0055011D01*
X0041339Y0055790D01*
X0044713Y0055790D01*
X0044713Y0055790D01*
X0044713Y0059952D01*
X0042902Y0059952D01*
X0042444Y0059829D01*
X0042033Y0059592D01*
X0041698Y0059257D01*
X0041461Y0058847D01*
X0041339Y0058389D01*
X0041339Y0055790D01*
X0044713Y0055790D01*
X0044713Y0055790D01*
X0044713Y0059952D01*
X0046525Y0059952D01*
X0046983Y0059829D01*
X0047393Y0059592D01*
X0047729Y0059257D01*
X0047966Y0058847D01*
X0048088Y0058389D01*
X0048088Y0055790D01*
X0044714Y0055790D01*
X0044714Y0055790D01*
X0048088Y0055790D01*
X0048088Y0053191D01*
X0047966Y0052733D01*
X0047729Y0052322D01*
X0047393Y0051987D01*
X0046983Y0051750D01*
X0046525Y0051628D01*
X0044722Y0051628D01*
X0068430Y0027920D01*
X0148055Y0027920D01*
X0148055Y0030491D01*
X0153155Y0030491D01*
X0153155Y0030891D01*
X0148055Y0030891D01*
X0148055Y0034120D01*
X0148055Y0032405D02*
X0082243Y0032405D01*
X0081954Y0030806D02*
X0153155Y0030806D01*
X0159943Y0030806D02*
X0165769Y0030806D01*
X0167367Y0029208D02*
X0159943Y0029208D01*
X0159943Y0027609D02*
X0168966Y0027609D01*
X0170564Y0026011D02*
X0159921Y0026011D01*
X0158322Y0024412D02*
X0172163Y0024412D01*
X0173761Y0022814D02*
X0039616Y0022814D01*
X0039981Y0024412D02*
X0066563Y0024412D01*
X0064964Y0026011D02*
X0040222Y0026011D01*
X0040463Y0027609D02*
X0063366Y0027609D01*
X0061767Y0029208D02*
X0040410Y0029208D01*
X0040169Y0030806D02*
X0060169Y0030806D01*
X0058570Y0032405D02*
X0039928Y0032405D01*
X0039445Y0034003D02*
X0056972Y0034003D01*
X0055373Y0035602D02*
X0038675Y0035602D01*
X0037905Y0037200D02*
X0053775Y0037200D01*
X0052176Y0038799D02*
X0036719Y0038799D01*
X0035236Y0040397D02*
X0050578Y0040397D01*
X0048979Y0041996D02*
X0033436Y0041996D01*
X0030668Y0043594D02*
X0047381Y0043594D01*
X0045782Y0045193D02*
X0025141Y0045193D01*
X0023485Y0045193D02*
X0017180Y0045193D01*
X0017180Y0046791D02*
X0044184Y0046791D01*
X0042585Y0048390D02*
X0017180Y0048390D01*
X0017180Y0049988D02*
X0026397Y0049988D01*
X0025843Y0051587D02*
X0017180Y0051587D01*
X0017180Y0053185D02*
X0026331Y0053185D01*
X0028920Y0054784D02*
X0017180Y0054784D01*
X0017180Y0056382D02*
X0030518Y0056382D01*
X0032695Y0053185D02*
X0034652Y0053185D01*
X0031097Y0051587D02*
X0039388Y0051587D01*
X0040987Y0049988D02*
X0030488Y0049988D01*
X0040602Y0056382D02*
X0041339Y0056382D01*
X0041339Y0057981D02*
X0040602Y0057981D01*
X0042021Y0059579D02*
X0017180Y0059579D01*
X0017180Y0057981D02*
X0034652Y0057981D01*
X0044713Y0057981D02*
X0044713Y0057981D01*
X0044713Y0059579D02*
X0044713Y0059579D01*
X0047406Y0059579D02*
X0054996Y0059579D01*
X0053397Y0061178D02*
X0017180Y0061178D01*
X0017180Y0062777D02*
X0051799Y0062777D01*
X0050200Y0064375D02*
X0017180Y0064375D01*
X0017180Y0065974D02*
X0048602Y0065974D01*
X0047003Y0067572D02*
X0017180Y0067572D01*
X0017180Y0069171D02*
X0045405Y0069171D01*
X0043806Y0070769D02*
X0017180Y0070769D01*
X0017180Y0072368D02*
X0042208Y0072368D01*
X0040609Y0073966D02*
X0017180Y0073966D01*
X0017180Y0075565D02*
X0040543Y0075565D01*
X0040543Y0077163D02*
X0017180Y0077163D01*
X0017180Y0078762D02*
X0040543Y0078762D01*
X0040543Y0080360D02*
X0017180Y0080360D01*
X0017180Y0081959D02*
X0040543Y0081959D01*
X0040543Y0083557D02*
X0017180Y0083557D01*
X0017180Y0085156D02*
X0040543Y0085156D01*
X0040543Y0086754D02*
X0017180Y0086754D01*
X0017180Y0088353D02*
X0040543Y0088353D01*
X0040543Y0089951D02*
X0017180Y0089951D01*
X0017180Y0091550D02*
X0040543Y0091550D01*
X0040543Y0093148D02*
X0017180Y0093148D01*
X0017180Y0094747D02*
X0040543Y0094747D01*
X0040543Y0096345D02*
X0017180Y0096345D01*
X0017180Y0097944D02*
X0040543Y0097944D01*
X0040543Y0099542D02*
X0017180Y0099542D01*
X0017180Y0101141D02*
X0040543Y0101141D01*
X0040543Y0102739D02*
X0017180Y0102739D01*
X0017180Y0104338D02*
X0040543Y0104338D01*
X0040543Y0105936D02*
X0017180Y0105936D01*
X0017180Y0107535D02*
X0040543Y0107535D01*
X0040543Y0109133D02*
X0017180Y0109133D01*
X0017180Y0110732D02*
X0040543Y0110732D01*
X0040543Y0112330D02*
X0017180Y0112330D01*
X0017180Y0113929D02*
X0040543Y0113929D01*
X0040543Y0115527D02*
X0017180Y0115527D01*
X0017180Y0117126D02*
X0040543Y0117126D01*
X0040543Y0118724D02*
X0017180Y0118724D01*
X0017180Y0120323D02*
X0040543Y0120323D01*
X0040543Y0121921D02*
X0017180Y0121921D01*
X0017180Y0123520D02*
X0040543Y0123520D01*
X0040543Y0125118D02*
X0017180Y0125118D01*
X0017180Y0126717D02*
X0040543Y0126717D01*
X0040543Y0128315D02*
X0017180Y0128315D01*
X0017180Y0129914D02*
X0040543Y0129914D01*
X0040543Y0131513D02*
X0017180Y0131513D01*
X0017180Y0133111D02*
X0040543Y0133111D01*
X0040543Y0134710D02*
X0017180Y0134710D01*
X0017180Y0136308D02*
X0040543Y0136308D01*
X0040543Y0137907D02*
X0017180Y0137907D01*
X0017180Y0139505D02*
X0040543Y0139505D01*
X0040543Y0141104D02*
X0017180Y0141104D01*
X0017180Y0142702D02*
X0040543Y0142702D01*
X0040543Y0144301D02*
X0036310Y0144301D01*
X0036645Y0144471D02*
X0037363Y0144993D01*
X0037991Y0145620D01*
X0038512Y0146338D01*
X0038915Y0147129D01*
X0039189Y0147973D01*
X0039323Y0148814D01*
X0034169Y0148814D01*
X0034169Y0143661D01*
X0035010Y0143794D01*
X0035854Y0144068D01*
X0036645Y0144471D01*
X0038193Y0145899D02*
X0040543Y0145899D01*
X0040543Y0147498D02*
X0039035Y0147498D01*
X0040543Y0149096D02*
X0034169Y0149096D01*
X0034169Y0148814D02*
X0034169Y0149773D01*
X0033210Y0149773D01*
X0033210Y0148814D01*
X0028057Y0148814D01*
X0028190Y0147973D01*
X0028464Y0147129D01*
X0028867Y0146338D01*
X0029389Y0145620D01*
X0030016Y0144993D01*
X0030734Y0144471D01*
X0031525Y0144068D01*
X0032369Y0143794D01*
X0033210Y0143661D01*
X0033210Y0148814D01*
X0034169Y0148814D01*
X0034169Y0149773D02*
X0039323Y0149773D01*
X0039189Y0150614D01*
X0038915Y0151458D01*
X0038512Y0152249D01*
X0037991Y0152967D01*
X0037363Y0153595D01*
X0036645Y0154116D01*
X0035854Y0154519D01*
X0035010Y0154793D01*
X0034169Y0154927D01*
X0034169Y0149773D01*
X0034169Y0150695D02*
X0033210Y0150695D01*
X0033210Y0149773D02*
X0033210Y0154927D01*
X0032369Y0154793D01*
X0031525Y0154519D01*
X0030734Y0154116D01*
X0030016Y0153595D01*
X0029389Y0152967D01*
X0028867Y0152249D01*
X0028464Y0151458D01*
X0028190Y0150614D01*
X0028057Y0149773D01*
X0033210Y0149773D01*
X0033210Y0149096D02*
X0017180Y0149096D01*
X0017180Y0147498D02*
X0028345Y0147498D01*
X0029186Y0145899D02*
X0017180Y0145899D01*
X0017180Y0144301D02*
X0031069Y0144301D01*
X0033210Y0144301D02*
X0034169Y0144301D01*
X0034169Y0145899D02*
X0033210Y0145899D01*
X0033210Y0147498D02*
X0034169Y0147498D01*
X0039163Y0150695D02*
X0040543Y0150695D01*
X0040543Y0152293D02*
X0038480Y0152293D01*
X0036954Y0153892D02*
X0040543Y0153892D01*
X0040543Y0155490D02*
X0017180Y0155490D01*
X0017180Y0153892D02*
X0030425Y0153892D01*
X0028899Y0152293D02*
X0017180Y0152293D01*
X0017180Y0150695D02*
X0028216Y0150695D01*
X0033210Y0152293D02*
X0034169Y0152293D01*
X0034169Y0153892D02*
X0033210Y0153892D01*
X0040543Y0157089D02*
X0017180Y0157089D01*
X0017180Y0158687D02*
X0040543Y0158687D01*
X0040543Y0160286D02*
X0017180Y0160286D01*
X0017180Y0161884D02*
X0040543Y0161884D01*
X0040543Y0163483D02*
X0017180Y0163483D01*
X0017180Y0165081D02*
X0040543Y0165081D01*
X0040543Y0166680D02*
X0017180Y0166680D01*
X0017180Y0168278D02*
X0040543Y0168278D01*
X0040543Y0169877D02*
X0017180Y0169877D01*
X0017180Y0171475D02*
X0040543Y0171475D01*
X0040543Y0173074D02*
X0017180Y0173074D01*
X0017180Y0174672D02*
X0040543Y0174672D01*
X0040543Y0176271D02*
X0017180Y0176271D01*
X0017180Y0177869D02*
X0040543Y0177869D01*
X0040543Y0179468D02*
X0017180Y0179468D01*
X0017180Y0181066D02*
X0040543Y0181066D01*
X0041601Y0182665D02*
X0017180Y0182665D01*
X0017180Y0184263D02*
X0043199Y0184263D01*
X0044798Y0185862D02*
X0030263Y0185862D01*
X0033032Y0187460D02*
X0046396Y0187460D01*
X0047995Y0189059D02*
X0035019Y0189059D01*
X0034117Y0188087D02*
X0034117Y0188087D01*
X0036502Y0190657D02*
X0049593Y0190657D01*
X0051192Y0192256D02*
X0037793Y0192256D01*
X0038563Y0193854D02*
X0052790Y0193854D01*
X0054389Y0195453D02*
X0039332Y0195453D01*
X0039893Y0197051D02*
X0055987Y0197051D01*
X0057586Y0198650D02*
X0040134Y0198650D01*
X0040374Y0200248D02*
X0050459Y0200248D01*
X0050398Y0201847D02*
X0040498Y0201847D01*
X0040258Y0203446D02*
X0050398Y0203446D01*
X0050398Y0205044D02*
X0040017Y0205044D01*
X0039729Y0206643D02*
X0050398Y0206643D01*
X0055498Y0203446D02*
X0055898Y0203446D01*
X0055898Y0201847D02*
X0055498Y0201847D01*
X0055498Y0200248D02*
X0055898Y0200248D01*
X0061361Y0197051D02*
X0110182Y0197051D01*
X0111781Y0195453D02*
X0059763Y0195453D01*
X0058164Y0193854D02*
X0113379Y0193854D01*
X0114978Y0192256D02*
X0056566Y0192256D01*
X0054967Y0190657D02*
X0116576Y0190657D01*
X0118175Y0189059D02*
X0053369Y0189059D01*
X0051770Y0187460D02*
X0119773Y0187460D01*
X0121372Y0185862D02*
X0050172Y0185862D01*
X0048573Y0184263D02*
X0122970Y0184263D01*
X0124569Y0182665D02*
X0046975Y0182665D01*
X0045376Y0181066D02*
X0126167Y0181066D01*
X0127766Y0179468D02*
X0044343Y0179468D01*
X0044343Y0180033D02*
X0044343Y0078620D01*
X0045360Y0078620D01*
X0046315Y0078224D01*
X0046619Y0077920D01*
X0054430Y0077920D01*
X0059385Y0072964D01*
X0059438Y0073092D01*
X0060170Y0073824D01*
X0061125Y0074220D01*
X0061556Y0074220D01*
X0064180Y0076844D01*
X0064180Y0078417D01*
X0065000Y0079237D01*
X0068573Y0079237D01*
X0084056Y0094720D01*
X0139466Y0094720D01*
X0139770Y0095024D01*
X0139898Y0095077D01*
X0111656Y0123320D01*
X0110543Y0124433D01*
X0110543Y0144405D01*
X0109462Y0144853D01*
X0107989Y0146326D01*
X0107191Y0148252D01*
X0107191Y0150336D01*
X0107989Y0152261D01*
X0109462Y0153735D01*
X0111388Y0154532D01*
X0113472Y0154532D01*
X0115397Y0153735D01*
X0116871Y0152261D01*
X0117668Y0150336D01*
X0117668Y0148252D01*
X0116871Y0146326D01*
X0115397Y0144853D01*
X0114343Y0144416D01*
X0114343Y0126007D01*
X0142443Y0097907D01*
X0142443Y0147248D01*
X0145658Y0150463D01*
X0145298Y0151330D01*
X0145298Y0153359D01*
X0146075Y0155234D01*
X0147509Y0156668D01*
X0149384Y0157445D01*
X0149789Y0157445D01*
X0143214Y0164020D01*
X0105214Y0202020D01*
X0090432Y0202020D01*
X0087727Y0199315D01*
X0083668Y0199315D01*
X0080798Y0202185D01*
X0080798Y0206245D01*
X0082286Y0207733D01*
X0079109Y0207733D01*
X0080598Y0206245D01*
X0080598Y0202185D01*
X0077727Y0199315D01*
X0073668Y0199315D01*
X0070798Y0202185D01*
X0070798Y0206245D01*
X0072286Y0207733D01*
X0069109Y0207733D01*
X0070598Y0206245D01*
X0070598Y0202185D01*
X0067727Y0199315D01*
X0063668Y0199315D01*
X0063646Y0199337D01*
X0044343Y0180033D01*
X0044343Y0177869D02*
X0129364Y0177869D01*
X0130963Y0176271D02*
X0044343Y0176271D01*
X0044343Y0174672D02*
X0132561Y0174672D01*
X0134160Y0173074D02*
X0044343Y0173074D01*
X0044343Y0171475D02*
X0135758Y0171475D01*
X0137357Y0169877D02*
X0044343Y0169877D01*
X0044343Y0168278D02*
X0138956Y0168278D01*
X0140554Y0166680D02*
X0044343Y0166680D01*
X0044343Y0165081D02*
X0142153Y0165081D01*
X0143751Y0163483D02*
X0044343Y0163483D01*
X0044343Y0161884D02*
X0145350Y0161884D01*
X0146948Y0160286D02*
X0044343Y0160286D01*
X0044343Y0158687D02*
X0148547Y0158687D01*
X0148524Y0157089D02*
X0044343Y0157089D01*
X0044343Y0155490D02*
X0146331Y0155490D01*
X0145519Y0153892D02*
X0115019Y0153892D01*
X0116839Y0152293D02*
X0145298Y0152293D01*
X0145562Y0150695D02*
X0117520Y0150695D01*
X0117668Y0149096D02*
X0144291Y0149096D01*
X0142692Y0147498D02*
X0117356Y0147498D01*
X0116444Y0145899D02*
X0142443Y0145899D01*
X0142443Y0144301D02*
X0114343Y0144301D01*
X0114343Y0142702D02*
X0142443Y0142702D01*
X0142443Y0141104D02*
X0114343Y0141104D01*
X0114343Y0139505D02*
X0142443Y0139505D01*
X0142443Y0137907D02*
X0114343Y0137907D01*
X0114343Y0136308D02*
X0142443Y0136308D01*
X0142443Y0134710D02*
X0114343Y0134710D01*
X0114343Y0133111D02*
X0142443Y0133111D01*
X0142443Y0131513D02*
X0114343Y0131513D01*
X0114343Y0129914D02*
X0142443Y0129914D01*
X0142443Y0128315D02*
X0114343Y0128315D01*
X0114343Y0126717D02*
X0142443Y0126717D01*
X0142443Y0125118D02*
X0115231Y0125118D01*
X0116829Y0123520D02*
X0142443Y0123520D01*
X0142443Y0121921D02*
X0118428Y0121921D01*
X0120026Y0120323D02*
X0142443Y0120323D01*
X0142443Y0118724D02*
X0121625Y0118724D01*
X0123223Y0117126D02*
X0142443Y0117126D01*
X0142443Y0115527D02*
X0124822Y0115527D01*
X0126420Y0113929D02*
X0142443Y0113929D01*
X0142443Y0112330D02*
X0128019Y0112330D01*
X0129617Y0110732D02*
X0142443Y0110732D01*
X0142443Y0109133D02*
X0131216Y0109133D01*
X0132814Y0107535D02*
X0142443Y0107535D01*
X0142443Y0105936D02*
X0134413Y0105936D01*
X0136011Y0104338D02*
X0142443Y0104338D01*
X0142443Y0102739D02*
X0137610Y0102739D01*
X0139208Y0101141D02*
X0142443Y0101141D01*
X0142443Y0099542D02*
X0140807Y0099542D01*
X0142405Y0097944D02*
X0142443Y0097944D01*
X0138630Y0096345D02*
X0044343Y0096345D01*
X0044343Y0094747D02*
X0139493Y0094747D01*
X0137031Y0097944D02*
X0044343Y0097944D01*
X0044343Y0099542D02*
X0135433Y0099542D01*
X0133834Y0101141D02*
X0044343Y0101141D01*
X0044343Y0102739D02*
X0132236Y0102739D01*
X0130637Y0104338D02*
X0044343Y0104338D01*
X0044343Y0105936D02*
X0129039Y0105936D01*
X0127440Y0107535D02*
X0044343Y0107535D01*
X0044343Y0109133D02*
X0125842Y0109133D01*
X0124243Y0110732D02*
X0044343Y0110732D01*
X0044343Y0112330D02*
X0122645Y0112330D01*
X0121046Y0113929D02*
X0044343Y0113929D01*
X0044343Y0115527D02*
X0119448Y0115527D01*
X0117849Y0117126D02*
X0044343Y0117126D01*
X0044343Y0118724D02*
X0116251Y0118724D01*
X0114652Y0120323D02*
X0044343Y0120323D01*
X0044343Y0121921D02*
X0113054Y0121921D01*
X0111455Y0123520D02*
X0044343Y0123520D01*
X0044343Y0125118D02*
X0110543Y0125118D01*
X0110543Y0126717D02*
X0044343Y0126717D01*
X0044343Y0128315D02*
X0110543Y0128315D01*
X0110543Y0129914D02*
X0044343Y0129914D01*
X0044343Y0131513D02*
X0110543Y0131513D01*
X0110543Y0133111D02*
X0044343Y0133111D01*
X0044343Y0134710D02*
X0110543Y0134710D01*
X0110543Y0136308D02*
X0044343Y0136308D01*
X0044343Y0137907D02*
X0110543Y0137907D01*
X0110543Y0139505D02*
X0044343Y0139505D01*
X0044343Y0141104D02*
X0110543Y0141104D01*
X0110543Y0142702D02*
X0044343Y0142702D01*
X0044343Y0144301D02*
X0110543Y0144301D01*
X0108416Y0145899D02*
X0044343Y0145899D01*
X0044343Y0147498D02*
X0107504Y0147498D01*
X0107191Y0149096D02*
X0044343Y0149096D01*
X0044343Y0150695D02*
X0107340Y0150695D01*
X0108021Y0152293D02*
X0044343Y0152293D01*
X0044343Y0153892D02*
X0109841Y0153892D01*
X0141415Y0171475D02*
X0146670Y0171475D01*
X0148268Y0173074D02*
X0139817Y0173074D01*
X0138218Y0174672D02*
X0149867Y0174672D01*
X0151465Y0176271D02*
X0136620Y0176271D01*
X0135021Y0177869D02*
X0153064Y0177869D01*
X0154662Y0179468D02*
X0133423Y0179468D01*
X0131824Y0181066D02*
X0156261Y0181066D01*
X0157859Y0182665D02*
X0130226Y0182665D01*
X0128627Y0184263D02*
X0159458Y0184263D01*
X0161056Y0185862D02*
X0127029Y0185862D01*
X0125430Y0187460D02*
X0162655Y0187460D01*
X0164253Y0189059D02*
X0123832Y0189059D01*
X0122233Y0190657D02*
X0165852Y0190657D01*
X0167450Y0192256D02*
X0120635Y0192256D01*
X0119036Y0193854D02*
X0169049Y0193854D01*
X0170647Y0195453D02*
X0117438Y0195453D01*
X0115839Y0197051D02*
X0172246Y0197051D01*
X0173844Y0198650D02*
X0114241Y0198650D01*
X0112642Y0200248D02*
X0175443Y0200248D01*
X0175796Y0200601D02*
X0174843Y0199648D01*
X0144043Y0168848D01*
X0106871Y0206020D01*
X0090598Y0206020D01*
X0090598Y0206245D01*
X0089109Y0207733D01*
X0175128Y0207733D01*
X0174908Y0207513D01*
X0174473Y0206915D01*
X0174137Y0206255D01*
X0173909Y0205552D01*
X0173793Y0204821D01*
X0173793Y0204601D01*
X0178343Y0204601D01*
X0178343Y0204301D01*
X0173793Y0204301D01*
X0173793Y0204081D01*
X0173909Y0203351D01*
X0174137Y0202647D01*
X0174473Y0201988D01*
X0174908Y0201389D01*
X0175431Y0200866D01*
X0175796Y0200601D01*
X0174575Y0201847D02*
X0111044Y0201847D01*
X0109445Y0203446D02*
X0173894Y0203446D01*
X0173828Y0205044D02*
X0107847Y0205044D01*
X0105387Y0201847D02*
X0090259Y0201847D01*
X0088661Y0200248D02*
X0106985Y0200248D01*
X0108584Y0198650D02*
X0062960Y0198650D01*
X0068661Y0200248D02*
X0072734Y0200248D01*
X0071136Y0201847D02*
X0070259Y0201847D01*
X0070598Y0203446D02*
X0070798Y0203446D01*
X0070798Y0205044D02*
X0070598Y0205044D01*
X0070200Y0206643D02*
X0071196Y0206643D01*
X0080200Y0206643D02*
X0081196Y0206643D01*
X0080798Y0205044D02*
X0080598Y0205044D01*
X0080598Y0203446D02*
X0080798Y0203446D01*
X0081136Y0201847D02*
X0080259Y0201847D01*
X0078661Y0200248D02*
X0082734Y0200248D01*
X0090200Y0206643D02*
X0174335Y0206643D01*
X0178643Y0204601D02*
X0178643Y0204301D01*
X0183193Y0204301D01*
X0183193Y0204081D01*
X0183077Y0203351D01*
X0182849Y0202647D01*
X0182513Y0201988D01*
X0182078Y0201389D01*
X0181555Y0200866D01*
X0181132Y0200559D01*
X0191027Y0190664D01*
X0191038Y0190692D01*
X0191770Y0191424D01*
X0192725Y0191820D01*
X0193760Y0191820D01*
X0194715Y0191424D01*
X0194919Y0191220D01*
X0225643Y0191220D01*
X0224848Y0192015D01*
X0224193Y0193596D01*
X0224193Y0195306D01*
X0224848Y0196887D01*
X0226057Y0198097D01*
X0227638Y0198751D01*
X0229348Y0198751D01*
X0230929Y0198097D01*
X0232138Y0196887D01*
X0232793Y0195306D01*
X0232793Y0193596D01*
X0232138Y0192015D01*
X0231343Y0191220D01*
X0235078Y0191220D01*
X0234908Y0191389D01*
X0234473Y0191988D01*
X0234137Y0192647D01*
X0233909Y0193351D01*
X0233793Y0194081D01*
X0233793Y0194301D01*
X0238343Y0194301D01*
X0238343Y0194601D01*
X0233793Y0194601D01*
X0233793Y0194821D01*
X0233909Y0195552D01*
X0234137Y0196255D01*
X0234473Y0196915D01*
X0234908Y0197513D01*
X0235431Y0198036D01*
X0236030Y0198471D01*
X0236689Y0198807D01*
X0237392Y0199035D01*
X0238123Y0199151D01*
X0238343Y0199151D01*
X0238343Y0194601D01*
X0238643Y0194601D01*
X0243193Y0194601D01*
X0243193Y0194821D01*
X0243077Y0195552D01*
X0242849Y0196255D01*
X0242513Y0196915D01*
X0242078Y0197513D01*
X0241555Y0198036D01*
X0240956Y0198471D01*
X0240297Y0198807D01*
X0239593Y0199035D01*
X0238863Y0199151D01*
X0238643Y0199151D01*
X0238643Y0194601D01*
X0238643Y0194301D01*
X0243193Y0194301D01*
X0243193Y0194081D01*
X0243077Y0193351D01*
X0242849Y0192647D01*
X0242513Y0191988D01*
X0242078Y0191389D01*
X0241908Y0191220D01*
X0254814Y0191220D01*
X0265453Y0201858D01*
X0265109Y0202689D01*
X0265109Y0204638D01*
X0265855Y0206439D01*
X0267148Y0207733D01*
X0241292Y0207733D01*
X0242138Y0206887D01*
X0242793Y0205306D01*
X0242793Y0203596D01*
X0242138Y0202015D01*
X0240929Y0200806D01*
X0239348Y0200151D01*
X0237638Y0200151D01*
X0236057Y0200806D01*
X0234848Y0202015D01*
X0234193Y0203596D01*
X0234193Y0205306D01*
X0234848Y0206887D01*
X0235694Y0207733D01*
X0181858Y0207733D01*
X0182078Y0207513D01*
X0182513Y0206915D01*
X0182849Y0206255D01*
X0183077Y0205552D01*
X0183193Y0204821D01*
X0183193Y0204601D01*
X0178643Y0204601D01*
X0182651Y0206643D02*
X0234746Y0206643D01*
X0234193Y0205044D02*
X0183158Y0205044D01*
X0183092Y0203446D02*
X0234255Y0203446D01*
X0235016Y0201847D02*
X0182410Y0201847D01*
X0181442Y0200248D02*
X0237403Y0200248D01*
X0238343Y0198650D02*
X0238643Y0198650D01*
X0238643Y0197051D02*
X0238343Y0197051D01*
X0238343Y0195453D02*
X0238643Y0195453D01*
X0242413Y0197051D02*
X0260646Y0197051D01*
X0259047Y0195453D02*
X0243093Y0195453D01*
X0243157Y0193854D02*
X0257449Y0193854D01*
X0255850Y0192256D02*
X0242649Y0192256D01*
X0241805Y0187220D02*
X0256471Y0187220D01*
X0268313Y0199062D01*
X0269034Y0198764D01*
X0270983Y0198764D01*
X0271752Y0199082D01*
X0272843Y0197991D01*
X0272843Y0197760D01*
X0272784Y0197818D01*
X0270983Y0198564D01*
X0269034Y0198564D01*
X0267233Y0197818D01*
X0265855Y0196439D01*
X0265109Y0194638D01*
X0265109Y0192689D01*
X0265377Y0192041D01*
X0250056Y0176720D01*
X0242208Y0176720D01*
X0242138Y0176887D01*
X0240929Y0178097D01*
X0239348Y0178751D01*
X0237638Y0178751D01*
X0236057Y0178097D01*
X0234848Y0176887D01*
X0234193Y0175306D01*
X0234193Y0173596D01*
X0234848Y0172015D01*
X0236057Y0170806D01*
X0237638Y0170151D01*
X0239348Y0170151D01*
X0240929Y0170806D01*
X0242138Y0172015D01*
X0242513Y0172920D01*
X0251630Y0172920D01*
X0267931Y0189221D01*
X0269034Y0188764D01*
X0270983Y0188764D01*
X0272784Y0189510D01*
X0272843Y0189568D01*
X0272843Y0187760D01*
X0272784Y0187818D01*
X0270983Y0188564D01*
X0269034Y0188564D01*
X0267233Y0187818D01*
X0265855Y0186439D01*
X0265109Y0184638D01*
X0265109Y0182689D01*
X0265377Y0182041D01*
X0250056Y0166720D01*
X0242208Y0166720D01*
X0242138Y0166887D01*
X0240929Y0168097D01*
X0239348Y0168751D01*
X0237638Y0168751D01*
X0236057Y0168097D01*
X0234848Y0166887D01*
X0234193Y0165306D01*
X0234193Y0163596D01*
X0234848Y0162015D01*
X0236057Y0160806D01*
X0237638Y0160151D01*
X0239348Y0160151D01*
X0240929Y0160806D01*
X0242138Y0162015D01*
X0242513Y0162920D01*
X0251630Y0162920D01*
X0264709Y0175999D01*
X0264709Y0173864D01*
X0269809Y0173864D01*
X0269809Y0173464D01*
X0270209Y0173464D01*
X0270209Y0168364D01*
X0270758Y0168364D01*
X0268043Y0165648D01*
X0268043Y0163370D01*
X0267233Y0163034D01*
X0265855Y0161656D01*
X0265109Y0159855D01*
X0265109Y0157906D01*
X0265855Y0156105D01*
X0267233Y0154726D01*
X0269034Y0153980D01*
X0270983Y0153980D01*
X0272784Y0154726D01*
X0272943Y0154885D01*
X0272943Y0152876D01*
X0272784Y0153034D01*
X0270983Y0153780D01*
X0269034Y0153780D01*
X0268139Y0153410D01*
X0265230Y0156320D01*
X0242373Y0156320D01*
X0242138Y0156887D01*
X0240929Y0158097D01*
X0239348Y0158751D01*
X0237638Y0158751D01*
X0236057Y0158097D01*
X0234848Y0156887D01*
X0234743Y0156633D01*
X0234743Y0161207D01*
X0232664Y0163285D01*
X0232793Y0163596D01*
X0232793Y0165306D01*
X0232138Y0166887D01*
X0230929Y0168097D01*
X0229348Y0168751D01*
X0227638Y0168751D01*
X0226057Y0168097D01*
X0226043Y0168082D01*
X0226043Y0169191D01*
X0227188Y0170337D01*
X0227638Y0170151D01*
X0229348Y0170151D01*
X0230929Y0170806D01*
X0232138Y0172015D01*
X0232793Y0173596D01*
X0232793Y0175306D01*
X0232607Y0175756D01*
X0237188Y0180337D01*
X0237638Y0180151D01*
X0239348Y0180151D01*
X0240929Y0180806D01*
X0242138Y0182015D01*
X0242793Y0183596D01*
X0242793Y0185306D01*
X0242138Y0186887D01*
X0241805Y0187220D01*
X0242563Y0185862D02*
X0259198Y0185862D01*
X0260796Y0187460D02*
X0256712Y0187460D01*
X0258310Y0189059D02*
X0262395Y0189059D01*
X0263993Y0190657D02*
X0259909Y0190657D01*
X0261507Y0192256D02*
X0265288Y0192256D01*
X0265109Y0193854D02*
X0263106Y0193854D01*
X0264704Y0195453D02*
X0265446Y0195453D01*
X0266303Y0197051D02*
X0266467Y0197051D01*
X0267901Y0198650D02*
X0272184Y0198650D01*
X0274644Y0201847D02*
X0325988Y0201847D01*
X0325988Y0200478D02*
X0326111Y0200020D01*
X0326348Y0199610D01*
X0326683Y0199275D01*
X0327093Y0199038D01*
X0327551Y0198915D01*
X0331088Y0198915D01*
X0331088Y0204015D01*
X0325988Y0204015D01*
X0325988Y0200478D01*
X0326050Y0200248D02*
X0276242Y0200248D01*
X0276843Y0199648D02*
X0274584Y0201906D01*
X0274909Y0202689D01*
X0274909Y0204638D01*
X0274163Y0206439D01*
X0272869Y0207733D01*
X0325988Y0207733D01*
X0325988Y0204415D01*
X0331088Y0204415D01*
X0331088Y0204015D01*
X0331488Y0204015D01*
X0331488Y0198915D01*
X0332251Y0198915D01*
X0315656Y0182320D01*
X0296056Y0182320D01*
X0274523Y0160787D01*
X0274163Y0161656D01*
X0272784Y0163034D01*
X0272043Y0163342D01*
X0272043Y0163991D01*
X0275671Y0167620D01*
X0276843Y0168791D01*
X0276843Y0199648D01*
X0276843Y0198650D02*
X0331986Y0198650D01*
X0331488Y0200248D02*
X0331088Y0200248D01*
X0331088Y0201847D02*
X0331488Y0201847D01*
X0331488Y0203446D02*
X0331088Y0203446D01*
X0325988Y0203446D02*
X0274909Y0203446D01*
X0274741Y0205044D02*
X0325988Y0205044D01*
X0325988Y0206643D02*
X0273960Y0206643D01*
X0266058Y0206643D02*
X0242240Y0206643D01*
X0242793Y0205044D02*
X0265277Y0205044D01*
X0265109Y0203446D02*
X0242731Y0203446D01*
X0241970Y0201847D02*
X0265441Y0201847D01*
X0263843Y0200248D02*
X0239583Y0200248D01*
X0240605Y0198650D02*
X0262244Y0198650D01*
X0276843Y0197051D02*
X0330387Y0197051D01*
X0328789Y0195453D02*
X0276843Y0195453D01*
X0276843Y0193854D02*
X0327190Y0193854D01*
X0325592Y0192256D02*
X0276843Y0192256D01*
X0276843Y0190657D02*
X0323993Y0190657D01*
X0322395Y0189059D02*
X0276843Y0189059D01*
X0276843Y0187460D02*
X0320796Y0187460D01*
X0319198Y0185862D02*
X0276843Y0185862D01*
X0276843Y0184263D02*
X0317599Y0184263D01*
X0316001Y0182665D02*
X0276843Y0182665D01*
X0276843Y0181066D02*
X0294802Y0181066D01*
X0293204Y0179468D02*
X0276843Y0179468D01*
X0276843Y0177869D02*
X0291605Y0177869D01*
X0290007Y0176271D02*
X0276843Y0176271D01*
X0276843Y0174672D02*
X0288408Y0174672D01*
X0286810Y0173074D02*
X0276843Y0173074D01*
X0276843Y0171475D02*
X0285211Y0171475D01*
X0283613Y0169877D02*
X0276843Y0169877D01*
X0276330Y0168278D02*
X0282014Y0168278D01*
X0280416Y0166680D02*
X0274731Y0166680D01*
X0273132Y0165081D02*
X0278817Y0165081D01*
X0277219Y0163483D02*
X0272043Y0163483D01*
X0273934Y0161884D02*
X0275620Y0161884D01*
X0280197Y0158687D02*
X0292943Y0158687D01*
X0292943Y0157633D02*
X0294661Y0155915D01*
X0294597Y0155851D01*
X0294597Y0151792D01*
X0294662Y0151726D01*
X0292943Y0150007D01*
X0292943Y0115207D01*
X0290664Y0112928D01*
X0285036Y0112928D01*
X0285036Y0113691D01*
X0291376Y0113691D01*
X0291376Y0115909D01*
X0291253Y0116366D01*
X0291016Y0116777D01*
X0290681Y0117112D01*
X0290270Y0117349D01*
X0289813Y0117472D01*
X0285035Y0117472D01*
X0285035Y0113691D01*
X0284273Y0113691D01*
X0284273Y0117472D01*
X0280443Y0117472D01*
X0280443Y0122020D01*
X0283271Y0122020D01*
X0283791Y0122539D01*
X0290155Y0122539D01*
X0290976Y0123359D01*
X0290976Y0129244D01*
X0290155Y0130064D01*
X0279153Y0130064D01*
X0278333Y0129244D01*
X0278333Y0126020D01*
X0275309Y0126020D01*
X0275309Y0128680D01*
X0270209Y0128680D01*
X0270209Y0129080D01*
X0275309Y0129080D01*
X0275309Y0132617D01*
X0275186Y0133075D01*
X0274949Y0133486D01*
X0274614Y0133821D01*
X0274561Y0133851D01*
X0278343Y0137633D01*
X0278343Y0156833D01*
X0294597Y0173087D01*
X0294597Y0171792D01*
X0295262Y0171126D01*
X0294056Y0169920D01*
X0292943Y0168807D01*
X0292943Y0157633D01*
X0293487Y0157089D02*
X0278598Y0157089D01*
X0278343Y0155490D02*
X0294597Y0155490D01*
X0294597Y0153892D02*
X0278343Y0153892D01*
X0278343Y0152293D02*
X0294597Y0152293D01*
X0293630Y0150695D02*
X0278343Y0150695D01*
X0278343Y0149096D02*
X0292943Y0149096D01*
X0292943Y0147498D02*
X0278343Y0147498D01*
X0278343Y0145899D02*
X0292943Y0145899D01*
X0292943Y0144301D02*
X0278343Y0144301D01*
X0278343Y0142702D02*
X0292943Y0142702D01*
X0292943Y0141104D02*
X0278343Y0141104D01*
X0278343Y0139505D02*
X0292943Y0139505D01*
X0292943Y0137907D02*
X0278343Y0137907D01*
X0277018Y0136308D02*
X0292943Y0136308D01*
X0292943Y0134710D02*
X0275419Y0134710D01*
X0275165Y0133111D02*
X0292943Y0133111D01*
X0292943Y0131513D02*
X0275309Y0131513D01*
X0275309Y0129914D02*
X0279003Y0129914D01*
X0278333Y0128315D02*
X0275309Y0128315D01*
X0275309Y0126717D02*
X0278333Y0126717D01*
X0276443Y0122020D02*
X0268871Y0122020D01*
X0264966Y0118115D01*
X0264978Y0118115D01*
X0265798Y0117295D01*
X0265798Y0113351D01*
X0275306Y0103843D01*
X0277243Y0103843D01*
X0277243Y0108791D01*
X0276443Y0109591D01*
X0276443Y0122020D01*
X0276443Y0121921D02*
X0268773Y0121921D01*
X0267174Y0120323D02*
X0276443Y0120323D01*
X0276443Y0118724D02*
X0265576Y0118724D01*
X0265798Y0117126D02*
X0276443Y0117126D01*
X0276443Y0115527D02*
X0265798Y0115527D01*
X0265798Y0113929D02*
X0276443Y0113929D01*
X0276443Y0112330D02*
X0266819Y0112330D01*
X0268417Y0110732D02*
X0276443Y0110732D01*
X0276900Y0109133D02*
X0270016Y0109133D01*
X0271614Y0107535D02*
X0277243Y0107535D01*
X0277243Y0105936D02*
X0273213Y0105936D01*
X0274811Y0104338D02*
X0277243Y0104338D01*
X0281243Y0104338D02*
X0282074Y0104338D01*
X0281743Y0104007D02*
X0281743Y0103843D01*
X0281319Y0103843D01*
X0281243Y0103767D01*
X0281243Y0109147D01*
X0284273Y0109147D01*
X0284273Y0112928D01*
X0285035Y0112928D01*
X0285035Y0109147D01*
X0286883Y0109147D01*
X0281743Y0104007D01*
X0281243Y0105936D02*
X0283672Y0105936D01*
X0285271Y0107535D02*
X0281243Y0107535D01*
X0281243Y0109133D02*
X0286869Y0109133D01*
X0285035Y0110732D02*
X0284273Y0110732D01*
X0284273Y0112330D02*
X0285035Y0112330D01*
X0285035Y0113929D02*
X0284273Y0113929D01*
X0284273Y0115527D02*
X0285035Y0115527D01*
X0285035Y0117126D02*
X0284273Y0117126D01*
X0280443Y0118724D02*
X0292943Y0118724D01*
X0292943Y0117126D02*
X0290657Y0117126D01*
X0291376Y0115527D02*
X0292943Y0115527D01*
X0291665Y0113929D02*
X0291376Y0113929D01*
X0294197Y0111087D02*
X0294197Y0110084D01*
X0294320Y0109626D01*
X0294556Y0109216D01*
X0294892Y0108881D01*
X0295302Y0108644D01*
X0295760Y0108521D01*
X0299297Y0108521D01*
X0299297Y0113621D01*
X0299697Y0113621D01*
X0299697Y0108521D01*
X0300116Y0108521D01*
X0290014Y0098420D01*
X0286448Y0098420D01*
X0286448Y0103023D01*
X0286291Y0103181D01*
X0294197Y0111087D01*
X0294197Y0110732D02*
X0293842Y0110732D01*
X0294639Y0109133D02*
X0292243Y0109133D01*
X0290645Y0107535D02*
X0299129Y0107535D01*
X0299297Y0109133D02*
X0299697Y0109133D01*
X0299697Y0110732D02*
X0299297Y0110732D01*
X0299297Y0112330D02*
X0299697Y0112330D01*
X0306443Y0112330D02*
X0306725Y0112330D01*
X0306443Y0112048D02*
X0306443Y0118448D01*
X0305271Y0119620D01*
X0303748Y0121143D01*
X0304397Y0121792D01*
X0304397Y0125851D01*
X0301526Y0128721D01*
X0297467Y0128721D01*
X0296743Y0127997D01*
X0296743Y0148433D01*
X0297349Y0149039D01*
X0297467Y0148921D01*
X0301526Y0148921D01*
X0304397Y0151792D01*
X0304397Y0155851D01*
X0301726Y0158521D01*
X0303234Y0158521D01*
X0303692Y0158644D01*
X0304102Y0158881D01*
X0304437Y0159216D01*
X0304674Y0159626D01*
X0304797Y0160084D01*
X0304797Y0163621D01*
X0299697Y0163621D01*
X0299697Y0164021D01*
X0304797Y0164021D01*
X0304797Y0167558D01*
X0304674Y0168016D01*
X0304437Y0168426D01*
X0304102Y0168762D01*
X0303692Y0168999D01*
X0303234Y0169121D01*
X0301726Y0169121D01*
X0304397Y0171792D01*
X0304397Y0175851D01*
X0303328Y0176920D01*
X0323230Y0176920D01*
X0324343Y0178033D01*
X0347442Y0201132D01*
X0349259Y0199315D01*
X0353318Y0199315D01*
X0356188Y0202185D01*
X0356188Y0206245D01*
X0354700Y0207733D01*
X0357877Y0207733D01*
X0356388Y0206245D01*
X0356388Y0202185D01*
X0359243Y0199331D01*
X0359243Y0164848D01*
X0306443Y0112048D01*
X0306443Y0113929D02*
X0308323Y0113929D01*
X0309922Y0115527D02*
X0306443Y0115527D01*
X0306443Y0117126D02*
X0311520Y0117126D01*
X0313119Y0118724D02*
X0306166Y0118724D01*
X0304568Y0120323D02*
X0314717Y0120323D01*
X0316316Y0121921D02*
X0304397Y0121921D01*
X0304397Y0123520D02*
X0317914Y0123520D01*
X0319513Y0125118D02*
X0304397Y0125118D01*
X0303531Y0126717D02*
X0321111Y0126717D01*
X0322710Y0128315D02*
X0301932Y0128315D01*
X0297061Y0128315D02*
X0296743Y0128315D01*
X0296743Y0129914D02*
X0324308Y0129914D01*
X0325907Y0131513D02*
X0296743Y0131513D01*
X0296743Y0133111D02*
X0327505Y0133111D01*
X0329104Y0134710D02*
X0296743Y0134710D01*
X0296743Y0136308D02*
X0330702Y0136308D01*
X0332301Y0137907D02*
X0296743Y0137907D01*
X0296743Y0139505D02*
X0333899Y0139505D01*
X0335498Y0141104D02*
X0296743Y0141104D01*
X0296743Y0142702D02*
X0337097Y0142702D01*
X0338695Y0144301D02*
X0296743Y0144301D01*
X0296743Y0145899D02*
X0340294Y0145899D01*
X0341892Y0147498D02*
X0296743Y0147498D01*
X0301701Y0149096D02*
X0343491Y0149096D01*
X0345089Y0150695D02*
X0303300Y0150695D01*
X0304397Y0152293D02*
X0346688Y0152293D01*
X0348286Y0153892D02*
X0304397Y0153892D01*
X0304397Y0155490D02*
X0349885Y0155490D01*
X0351483Y0157089D02*
X0303159Y0157089D01*
X0303767Y0158687D02*
X0353082Y0158687D01*
X0354680Y0160286D02*
X0304797Y0160286D01*
X0304797Y0161884D02*
X0356279Y0161884D01*
X0357877Y0163483D02*
X0304797Y0163483D01*
X0304797Y0165081D02*
X0359243Y0165081D01*
X0359243Y0166680D02*
X0304797Y0166680D01*
X0304523Y0168278D02*
X0359243Y0168278D01*
X0359243Y0169877D02*
X0302482Y0169877D01*
X0304080Y0171475D02*
X0359243Y0171475D01*
X0359243Y0173074D02*
X0304397Y0173074D01*
X0304397Y0174672D02*
X0359243Y0174672D01*
X0359243Y0176271D02*
X0303977Y0176271D01*
X0294597Y0173074D02*
X0294584Y0173074D01*
X0294913Y0171475D02*
X0292985Y0171475D01*
X0294013Y0169877D02*
X0291387Y0169877D01*
X0292943Y0168278D02*
X0289788Y0168278D01*
X0288190Y0166680D02*
X0292943Y0166680D01*
X0292943Y0165081D02*
X0286591Y0165081D01*
X0284993Y0163483D02*
X0292943Y0163483D01*
X0292943Y0161884D02*
X0283394Y0161884D01*
X0281796Y0160286D02*
X0292943Y0160286D01*
X0272943Y0153892D02*
X0267658Y0153892D01*
X0266469Y0155490D02*
X0266059Y0155490D01*
X0265447Y0157089D02*
X0241937Y0157089D01*
X0239503Y0158687D02*
X0265109Y0158687D01*
X0265287Y0160286D02*
X0239673Y0160286D01*
X0237313Y0160286D02*
X0234743Y0160286D01*
X0234743Y0158687D02*
X0237483Y0158687D01*
X0235049Y0157089D02*
X0234743Y0157089D01*
X0234979Y0161884D02*
X0234065Y0161884D01*
X0234240Y0163483D02*
X0232746Y0163483D01*
X0232793Y0165081D02*
X0234193Y0165081D01*
X0234762Y0166680D02*
X0232224Y0166680D01*
X0230490Y0168278D02*
X0236496Y0168278D01*
X0235388Y0171475D02*
X0231598Y0171475D01*
X0232577Y0173074D02*
X0234409Y0173074D01*
X0234193Y0174672D02*
X0232793Y0174672D01*
X0233122Y0176271D02*
X0234592Y0176271D01*
X0234721Y0177869D02*
X0235830Y0177869D01*
X0236319Y0179468D02*
X0252804Y0179468D01*
X0254402Y0181066D02*
X0241189Y0181066D01*
X0242407Y0182665D02*
X0256001Y0182665D01*
X0257599Y0184263D02*
X0242793Y0184263D01*
X0235180Y0187220D02*
X0234848Y0186887D01*
X0234193Y0185306D01*
X0234193Y0183596D01*
X0234368Y0183173D01*
X0229771Y0178576D01*
X0229348Y0178751D01*
X0227638Y0178751D01*
X0226057Y0178097D01*
X0224848Y0176887D01*
X0224193Y0175306D01*
X0224193Y0173596D01*
X0224368Y0173173D01*
X0223614Y0172420D01*
X0209271Y0172420D01*
X0194687Y0187004D01*
X0194715Y0187016D01*
X0194919Y0187220D01*
X0235180Y0187220D01*
X0234423Y0185862D02*
X0195829Y0185862D01*
X0197427Y0184263D02*
X0234193Y0184263D01*
X0233859Y0182665D02*
X0199026Y0182665D01*
X0200624Y0181066D02*
X0232261Y0181066D01*
X0230662Y0179468D02*
X0202223Y0179468D01*
X0203821Y0177869D02*
X0225830Y0177869D01*
X0224592Y0176271D02*
X0205420Y0176271D01*
X0207018Y0174672D02*
X0224193Y0174672D01*
X0224268Y0173074D02*
X0208617Y0173074D01*
X0206157Y0169877D02*
X0180343Y0169877D01*
X0180343Y0169633D02*
X0180343Y0170563D01*
X0180929Y0170806D01*
X0182138Y0172015D01*
X0182793Y0173596D01*
X0182793Y0175306D01*
X0182138Y0176887D01*
X0180929Y0178097D01*
X0179428Y0178718D01*
X0180343Y0179633D01*
X0180343Y0180563D01*
X0180929Y0180806D01*
X0182138Y0182015D01*
X0182793Y0183596D01*
X0182793Y0185306D01*
X0182138Y0186887D01*
X0180929Y0188097D01*
X0179428Y0188718D01*
X0180343Y0189633D01*
X0180343Y0190563D01*
X0180929Y0190806D01*
X0182138Y0192015D01*
X0182689Y0193345D01*
X0206443Y0169591D01*
X0207614Y0168420D01*
X0222043Y0168420D01*
X0222043Y0146983D01*
X0220929Y0148097D01*
X0219348Y0148751D01*
X0217638Y0148751D01*
X0216057Y0148097D01*
X0214848Y0146887D01*
X0214193Y0145306D01*
X0214193Y0143596D01*
X0214848Y0142015D01*
X0216057Y0140806D01*
X0217431Y0140237D01*
X0216843Y0139648D01*
X0216843Y0138422D01*
X0216057Y0138097D01*
X0214848Y0136887D01*
X0214743Y0136633D01*
X0214743Y0141207D01*
X0213630Y0142320D01*
X0213630Y0142320D01*
X0212664Y0143285D01*
X0212793Y0143596D01*
X0212793Y0145306D01*
X0212138Y0146887D01*
X0210929Y0148097D01*
X0209348Y0148751D01*
X0207638Y0148751D01*
X0206057Y0148097D01*
X0204848Y0146887D01*
X0204193Y0145306D01*
X0204193Y0143596D01*
X0204848Y0142015D01*
X0206057Y0140806D01*
X0207638Y0140151D01*
X0209348Y0140151D01*
X0210109Y0140466D01*
X0210943Y0139633D01*
X0210943Y0138478D01*
X0210297Y0138807D01*
X0209593Y0139035D01*
X0208863Y0139151D01*
X0208643Y0139151D01*
X0208643Y0134601D01*
X0208343Y0134601D01*
X0208343Y0134301D01*
X0203793Y0134301D01*
X0203793Y0134081D01*
X0203909Y0133351D01*
X0204137Y0132647D01*
X0204473Y0131988D01*
X0204908Y0131389D01*
X0205431Y0130866D01*
X0205633Y0130720D01*
X0180721Y0130720D01*
X0180929Y0130806D01*
X0182138Y0132015D01*
X0182793Y0133596D01*
X0182793Y0135306D01*
X0182138Y0136887D01*
X0180929Y0138097D01*
X0179348Y0138751D01*
X0177638Y0138751D01*
X0176057Y0138097D01*
X0174848Y0136887D01*
X0174193Y0135306D01*
X0174193Y0133596D01*
X0174409Y0133073D01*
X0167343Y0126007D01*
X0167343Y0120407D01*
X0165500Y0118564D01*
X0165447Y0118692D01*
X0165143Y0118997D01*
X0165143Y0128433D01*
X0177088Y0140379D01*
X0177638Y0140151D01*
X0179348Y0140151D01*
X0180929Y0140806D01*
X0182138Y0142015D01*
X0182793Y0143596D01*
X0182793Y0145306D01*
X0182138Y0146887D01*
X0180929Y0148097D01*
X0179348Y0148751D01*
X0177638Y0148751D01*
X0176057Y0148097D01*
X0174848Y0146887D01*
X0174193Y0145306D01*
X0174193Y0143596D01*
X0174409Y0143073D01*
X0162743Y0131407D01*
X0162743Y0152033D01*
X0174226Y0163516D01*
X0174848Y0162015D01*
X0176057Y0160806D01*
X0177638Y0160151D01*
X0179348Y0160151D01*
X0180929Y0160806D01*
X0182138Y0162015D01*
X0182793Y0163596D01*
X0182793Y0165306D01*
X0182138Y0166887D01*
X0180929Y0168097D01*
X0179428Y0168718D01*
X0180343Y0169633D01*
X0180490Y0168278D02*
X0222043Y0168278D01*
X0222043Y0166680D02*
X0182224Y0166680D01*
X0182793Y0165081D02*
X0222043Y0165081D01*
X0222043Y0163483D02*
X0182746Y0163483D01*
X0182007Y0161884D02*
X0222043Y0161884D01*
X0222043Y0160286D02*
X0179673Y0160286D01*
X0179348Y0158751D02*
X0177638Y0158751D01*
X0176057Y0158097D01*
X0174848Y0156887D01*
X0174193Y0155306D01*
X0174193Y0153596D01*
X0174848Y0152015D01*
X0176057Y0150806D01*
X0177638Y0150151D01*
X0179348Y0150151D01*
X0180929Y0150806D01*
X0182138Y0152015D01*
X0182793Y0153596D01*
X0182793Y0155306D01*
X0182138Y0156887D01*
X0180929Y0158097D01*
X0179348Y0158751D01*
X0179503Y0158687D02*
X0222043Y0158687D01*
X0222043Y0157089D02*
X0181937Y0157089D01*
X0182717Y0155490D02*
X0222043Y0155490D01*
X0222043Y0153892D02*
X0182793Y0153892D01*
X0182253Y0152293D02*
X0222043Y0152293D01*
X0222043Y0150695D02*
X0180660Y0150695D01*
X0181528Y0147498D02*
X0205458Y0147498D01*
X0204438Y0145899D02*
X0182547Y0145899D01*
X0182793Y0144301D02*
X0204193Y0144301D01*
X0204563Y0142702D02*
X0182423Y0142702D01*
X0181226Y0141104D02*
X0205759Y0141104D01*
X0206689Y0138807D02*
X0206030Y0138471D01*
X0205431Y0138036D01*
X0204908Y0137513D01*
X0204473Y0136915D01*
X0204137Y0136255D01*
X0203909Y0135552D01*
X0203793Y0134821D01*
X0203793Y0134601D01*
X0208343Y0134601D01*
X0208343Y0139151D01*
X0208123Y0139151D01*
X0207392Y0139035D01*
X0206689Y0138807D01*
X0205301Y0137907D02*
X0181119Y0137907D01*
X0182378Y0136308D02*
X0204164Y0136308D01*
X0203793Y0134710D02*
X0182793Y0134710D01*
X0182592Y0133111D02*
X0203986Y0133111D01*
X0204818Y0131513D02*
X0181635Y0131513D01*
X0182105Y0126920D02*
X0204880Y0126920D01*
X0204848Y0126887D01*
X0204193Y0125306D01*
X0204193Y0123596D01*
X0204848Y0122015D01*
X0205743Y0121120D01*
X0181243Y0121120D01*
X0182138Y0122015D01*
X0182793Y0123596D01*
X0182793Y0125306D01*
X0182138Y0126887D01*
X0182105Y0126920D01*
X0182209Y0126717D02*
X0204777Y0126717D01*
X0204193Y0125118D02*
X0182793Y0125118D01*
X0182761Y0123520D02*
X0204224Y0123520D01*
X0204942Y0121921D02*
X0182044Y0121921D01*
X0181705Y0117320D02*
X0205280Y0117320D01*
X0204848Y0116887D01*
X0204193Y0115306D01*
X0204193Y0113596D01*
X0204409Y0113073D01*
X0203656Y0112320D01*
X0182264Y0112320D01*
X0182793Y0113596D01*
X0182793Y0115306D01*
X0182138Y0116887D01*
X0181705Y0117320D01*
X0181899Y0117126D02*
X0205087Y0117126D01*
X0204284Y0115527D02*
X0182701Y0115527D01*
X0182793Y0113929D02*
X0204193Y0113929D01*
X0203666Y0112330D02*
X0182269Y0112330D01*
X0180929Y0108097D02*
X0179907Y0108520D01*
X0203856Y0108520D01*
X0182163Y0086827D01*
X0182138Y0086887D01*
X0180929Y0088097D01*
X0179348Y0088751D01*
X0177638Y0088751D01*
X0176343Y0088215D01*
X0176343Y0090688D01*
X0177638Y0090151D01*
X0179348Y0090151D01*
X0180929Y0090806D01*
X0182138Y0092015D01*
X0182793Y0093596D01*
X0182793Y0095306D01*
X0182138Y0096887D01*
X0180929Y0098097D01*
X0179348Y0098751D01*
X0177638Y0098751D01*
X0176343Y0098215D01*
X0176343Y0099633D01*
X0177088Y0100379D01*
X0177638Y0100151D01*
X0179348Y0100151D01*
X0180929Y0100806D01*
X0182138Y0102015D01*
X0182793Y0103596D01*
X0182793Y0105306D01*
X0182138Y0106887D01*
X0180929Y0108097D01*
X0181490Y0107535D02*
X0202871Y0107535D01*
X0201272Y0105936D02*
X0182532Y0105936D01*
X0182793Y0104338D02*
X0199674Y0104338D01*
X0198075Y0102739D02*
X0182438Y0102739D01*
X0181264Y0101141D02*
X0196477Y0101141D01*
X0194878Y0099542D02*
X0176343Y0099542D01*
X0181081Y0097944D02*
X0193280Y0097944D01*
X0191681Y0096345D02*
X0182363Y0096345D01*
X0182793Y0094747D02*
X0190083Y0094747D01*
X0188484Y0093148D02*
X0182607Y0093148D01*
X0181673Y0091550D02*
X0186886Y0091550D01*
X0185287Y0089951D02*
X0176343Y0089951D01*
X0176343Y0088353D02*
X0176676Y0088353D01*
X0180310Y0088353D02*
X0183689Y0088353D01*
X0169343Y0088353D02*
X0167143Y0088353D01*
X0167143Y0089951D02*
X0169343Y0089951D01*
X0169343Y0091550D02*
X0167143Y0091550D01*
X0167143Y0093148D02*
X0169343Y0093148D01*
X0169343Y0094747D02*
X0167143Y0094747D01*
X0167143Y0096345D02*
X0169343Y0096345D01*
X0169343Y0097944D02*
X0167143Y0097944D01*
X0167143Y0098833D02*
X0167143Y0073207D01*
X0167143Y0071633D01*
X0158243Y0062733D01*
X0158255Y0062721D01*
X0158255Y0058662D01*
X0157113Y0057520D01*
X0166401Y0057520D01*
X0166243Y0057902D01*
X0166243Y0058937D01*
X0166638Y0059892D01*
X0167370Y0060624D01*
X0168325Y0061020D01*
X0169360Y0061020D01*
X0169781Y0060845D01*
X0169898Y0060962D01*
X0169770Y0061016D01*
X0169038Y0061747D01*
X0168643Y0062702D01*
X0168643Y0063737D01*
X0169038Y0064692D01*
X0169343Y0064997D01*
X0169343Y0101033D01*
X0167143Y0098833D01*
X0167852Y0099542D02*
X0169343Y0099542D01*
X0162474Y0104338D02*
X0161543Y0104338D01*
X0161543Y0103407D02*
X0161543Y0109233D01*
X0168943Y0116633D01*
X0168943Y0110807D01*
X0161543Y0103407D01*
X0161543Y0105936D02*
X0164072Y0105936D01*
X0165671Y0107535D02*
X0161543Y0107535D01*
X0161543Y0109133D02*
X0167269Y0109133D01*
X0168868Y0110732D02*
X0163042Y0110732D01*
X0164640Y0112330D02*
X0168943Y0112330D01*
X0168943Y0113929D02*
X0166239Y0113929D01*
X0167837Y0115527D02*
X0168943Y0115527D01*
X0165660Y0118724D02*
X0165415Y0118724D01*
X0165143Y0120323D02*
X0167259Y0120323D01*
X0167343Y0121921D02*
X0165143Y0121921D01*
X0165143Y0123520D02*
X0167343Y0123520D01*
X0167343Y0125118D02*
X0165143Y0125118D01*
X0165143Y0126717D02*
X0168053Y0126717D01*
X0169651Y0128315D02*
X0165143Y0128315D01*
X0166624Y0129914D02*
X0171250Y0129914D01*
X0172848Y0131513D02*
X0168222Y0131513D01*
X0169821Y0133111D02*
X0174394Y0133111D01*
X0174193Y0134710D02*
X0171419Y0134710D01*
X0173018Y0136308D02*
X0174608Y0136308D01*
X0174616Y0137907D02*
X0175867Y0137907D01*
X0176215Y0139505D02*
X0210943Y0139505D01*
X0208643Y0137907D02*
X0208343Y0137907D01*
X0208343Y0136308D02*
X0208643Y0136308D01*
X0208643Y0134710D02*
X0208343Y0134710D01*
X0214743Y0137907D02*
X0215867Y0137907D01*
X0216843Y0139505D02*
X0214743Y0139505D01*
X0214743Y0141104D02*
X0215759Y0141104D01*
X0214563Y0142702D02*
X0213247Y0142702D01*
X0212793Y0144301D02*
X0214193Y0144301D01*
X0214438Y0145899D02*
X0212547Y0145899D01*
X0211528Y0147498D02*
X0215458Y0147498D01*
X0221528Y0147498D02*
X0222043Y0147498D01*
X0222043Y0149096D02*
X0162743Y0149096D01*
X0162743Y0147498D02*
X0175458Y0147498D01*
X0174438Y0145899D02*
X0162743Y0145899D01*
X0162743Y0144301D02*
X0174193Y0144301D01*
X0174038Y0142702D02*
X0162743Y0142702D01*
X0162743Y0141104D02*
X0172439Y0141104D01*
X0170841Y0139505D02*
X0162743Y0139505D01*
X0162743Y0137907D02*
X0169242Y0137907D01*
X0167644Y0136308D02*
X0162743Y0136308D01*
X0162743Y0134710D02*
X0166045Y0134710D01*
X0164447Y0133111D02*
X0162743Y0133111D01*
X0162743Y0131513D02*
X0162848Y0131513D01*
X0162743Y0150695D02*
X0176326Y0150695D01*
X0174733Y0152293D02*
X0163003Y0152293D01*
X0164601Y0153892D02*
X0174193Y0153892D01*
X0174269Y0155490D02*
X0166200Y0155490D01*
X0167798Y0157089D02*
X0175049Y0157089D01*
X0177483Y0158687D02*
X0169397Y0158687D01*
X0170996Y0160286D02*
X0177313Y0160286D01*
X0174979Y0161884D02*
X0172594Y0161884D01*
X0174193Y0163483D02*
X0174240Y0163483D01*
X0172016Y0166680D02*
X0167390Y0166680D01*
X0168988Y0168278D02*
X0173614Y0168278D01*
X0175213Y0169877D02*
X0170587Y0169877D01*
X0172185Y0171475D02*
X0175388Y0171475D01*
X0174848Y0172015D02*
X0176057Y0170806D01*
X0176117Y0170781D01*
X0161143Y0155807D01*
X0161143Y0160433D01*
X0174226Y0173516D01*
X0174848Y0172015D01*
X0174409Y0173074D02*
X0173784Y0173074D01*
X0170008Y0174672D02*
X0165382Y0174672D01*
X0163784Y0173074D02*
X0168410Y0173074D01*
X0166811Y0171475D02*
X0162185Y0171475D01*
X0160587Y0169877D02*
X0165213Y0169877D01*
X0163614Y0168278D02*
X0159543Y0168278D01*
X0159543Y0168833D02*
X0159543Y0164207D01*
X0176117Y0180781D01*
X0176057Y0180806D01*
X0174848Y0182015D01*
X0174226Y0183516D01*
X0159543Y0168833D01*
X0159543Y0166680D02*
X0162016Y0166680D01*
X0160417Y0165081D02*
X0159543Y0165081D01*
X0155743Y0165081D02*
X0147809Y0165081D01*
X0146871Y0166020D02*
X0155743Y0157148D01*
X0155743Y0170407D01*
X0156856Y0171520D01*
X0176117Y0190781D01*
X0176057Y0190806D01*
X0174848Y0192015D01*
X0174267Y0193416D01*
X0146871Y0166020D01*
X0147531Y0166680D02*
X0155743Y0166680D01*
X0155743Y0168278D02*
X0149130Y0168278D01*
X0150728Y0169877D02*
X0155743Y0169877D01*
X0156811Y0171475D02*
X0152327Y0171475D01*
X0153925Y0173074D02*
X0158410Y0173074D01*
X0160008Y0174672D02*
X0155524Y0174672D01*
X0157122Y0176271D02*
X0161607Y0176271D01*
X0163205Y0177869D02*
X0158721Y0177869D01*
X0160319Y0179468D02*
X0164804Y0179468D01*
X0166402Y0181066D02*
X0161918Y0181066D01*
X0163516Y0182665D02*
X0168001Y0182665D01*
X0169599Y0184263D02*
X0165115Y0184263D01*
X0166713Y0185862D02*
X0171198Y0185862D01*
X0172796Y0187460D02*
X0168312Y0187460D01*
X0169910Y0189059D02*
X0174395Y0189059D01*
X0175993Y0190657D02*
X0171509Y0190657D01*
X0173107Y0192256D02*
X0174748Y0192256D01*
X0180570Y0190657D02*
X0185376Y0190657D01*
X0186975Y0189059D02*
X0179769Y0189059D01*
X0181565Y0187460D02*
X0188573Y0187460D01*
X0190172Y0185862D02*
X0182563Y0185862D01*
X0182793Y0184263D02*
X0191770Y0184263D01*
X0193369Y0182665D02*
X0182407Y0182665D01*
X0181189Y0181066D02*
X0194967Y0181066D01*
X0196566Y0179468D02*
X0180178Y0179468D01*
X0181156Y0177869D02*
X0198164Y0177869D01*
X0199763Y0176271D02*
X0182393Y0176271D01*
X0182793Y0174672D02*
X0201361Y0174672D01*
X0202960Y0173074D02*
X0182577Y0173074D01*
X0181598Y0171475D02*
X0204558Y0171475D01*
X0226043Y0168278D02*
X0226496Y0168278D01*
X0226728Y0169877D02*
X0253213Y0169877D01*
X0254811Y0171475D02*
X0241598Y0171475D01*
X0240490Y0168278D02*
X0251614Y0168278D01*
X0253791Y0165081D02*
X0268043Y0165081D01*
X0268043Y0163483D02*
X0252193Y0163483D01*
X0255390Y0166680D02*
X0269074Y0166680D01*
X0269809Y0168364D02*
X0266272Y0168364D01*
X0265814Y0168486D01*
X0265403Y0168723D01*
X0265068Y0169059D01*
X0264831Y0169469D01*
X0264709Y0169927D01*
X0264709Y0173464D01*
X0269809Y0173464D01*
X0269809Y0168364D01*
X0270673Y0168278D02*
X0256988Y0168278D01*
X0258587Y0169877D02*
X0264722Y0169877D01*
X0264709Y0171475D02*
X0260185Y0171475D01*
X0261784Y0173074D02*
X0264709Y0173074D01*
X0264709Y0174672D02*
X0263382Y0174672D01*
X0261205Y0177869D02*
X0256579Y0177869D01*
X0254981Y0176271D02*
X0259607Y0176271D01*
X0258008Y0174672D02*
X0253382Y0174672D01*
X0251784Y0173074D02*
X0256410Y0173074D01*
X0251205Y0177869D02*
X0241156Y0177869D01*
X0258178Y0179468D02*
X0262804Y0179468D01*
X0264402Y0181066D02*
X0259776Y0181066D01*
X0261375Y0182665D02*
X0265119Y0182665D01*
X0265109Y0184263D02*
X0262973Y0184263D01*
X0264572Y0185862D02*
X0265615Y0185862D01*
X0266170Y0187460D02*
X0266876Y0187460D01*
X0267769Y0189059D02*
X0268321Y0189059D01*
X0271696Y0189059D02*
X0272843Y0189059D01*
X0270209Y0173074D02*
X0269809Y0173074D01*
X0269809Y0171475D02*
X0270209Y0171475D01*
X0270209Y0169877D02*
X0269809Y0169877D01*
X0266083Y0161884D02*
X0242007Y0161884D01*
X0242347Y0152520D02*
X0263656Y0152520D01*
X0265464Y0150712D01*
X0265109Y0149855D01*
X0265109Y0147906D01*
X0265855Y0146105D01*
X0266440Y0145520D01*
X0256456Y0145520D01*
X0255156Y0144220D01*
X0254725Y0144220D01*
X0253770Y0143824D01*
X0253038Y0143092D01*
X0252985Y0142964D01*
X0249630Y0146320D01*
X0242373Y0146320D01*
X0242138Y0146887D01*
X0240929Y0148097D01*
X0239348Y0148751D01*
X0237638Y0148751D01*
X0236057Y0148097D01*
X0234848Y0146887D01*
X0234743Y0146633D01*
X0234743Y0152269D01*
X0234848Y0152015D01*
X0236057Y0150806D01*
X0237638Y0150151D01*
X0239348Y0150151D01*
X0240929Y0150806D01*
X0242138Y0152015D01*
X0242347Y0152520D01*
X0242253Y0152293D02*
X0263882Y0152293D01*
X0265456Y0150695D02*
X0240660Y0150695D01*
X0241528Y0147498D02*
X0265278Y0147498D01*
X0265109Y0149096D02*
X0234743Y0149096D01*
X0234743Y0147498D02*
X0235458Y0147498D01*
X0234743Y0150695D02*
X0236326Y0150695D01*
X0230943Y0150695D02*
X0230743Y0150695D01*
X0230743Y0150729D02*
X0230929Y0150806D01*
X0230943Y0150820D01*
X0230943Y0143633D01*
X0232056Y0142520D01*
X0236056Y0138520D01*
X0237079Y0138520D01*
X0236057Y0138097D01*
X0234848Y0136887D01*
X0234325Y0135625D01*
X0230743Y0139207D01*
X0230743Y0150729D01*
X0230743Y0149096D02*
X0230943Y0149096D01*
X0230943Y0147498D02*
X0230743Y0147498D01*
X0230743Y0145899D02*
X0230943Y0145899D01*
X0230943Y0144301D02*
X0230743Y0144301D01*
X0230743Y0142702D02*
X0231873Y0142702D01*
X0230743Y0141104D02*
X0233472Y0141104D01*
X0235070Y0139505D02*
X0230743Y0139505D01*
X0232043Y0137907D02*
X0235867Y0137907D01*
X0234608Y0136308D02*
X0233641Y0136308D01*
X0231464Y0133111D02*
X0223380Y0133111D01*
X0222793Y0133698D02*
X0222793Y0135306D01*
X0222138Y0136887D01*
X0220938Y0138087D01*
X0224871Y0142020D01*
X0226043Y0143191D01*
X0226043Y0150820D01*
X0226057Y0150806D01*
X0226943Y0150439D01*
X0226943Y0137633D01*
X0228056Y0136520D01*
X0236056Y0128520D01*
X0237079Y0128520D01*
X0236057Y0128097D01*
X0234848Y0126887D01*
X0234193Y0125306D01*
X0234193Y0123596D01*
X0234846Y0122020D01*
X0234471Y0122020D01*
X0222793Y0133698D01*
X0222793Y0134710D02*
X0229866Y0134710D01*
X0228267Y0136308D02*
X0222378Y0136308D01*
X0221119Y0137907D02*
X0226943Y0137907D01*
X0226943Y0139505D02*
X0222356Y0139505D01*
X0223955Y0141104D02*
X0226943Y0141104D01*
X0226943Y0142702D02*
X0225553Y0142702D01*
X0226043Y0144301D02*
X0226943Y0144301D01*
X0226943Y0145899D02*
X0226043Y0145899D01*
X0226043Y0147498D02*
X0226943Y0147498D01*
X0226943Y0149096D02*
X0226043Y0149096D01*
X0226043Y0150695D02*
X0226326Y0150695D01*
X0240798Y0140752D02*
X0240929Y0140806D01*
X0242138Y0142015D01*
X0242347Y0142520D01*
X0248056Y0142520D01*
X0252143Y0138433D01*
X0253256Y0137320D01*
X0265351Y0137320D01*
X0265855Y0136105D01*
X0266440Y0135520D01*
X0264856Y0135520D01*
X0255100Y0125764D01*
X0255047Y0125892D01*
X0254743Y0126197D01*
X0254743Y0126807D01*
X0240798Y0140752D01*
X0241226Y0141104D02*
X0249472Y0141104D01*
X0251070Y0139505D02*
X0242044Y0139505D01*
X0243643Y0137907D02*
X0252669Y0137907D01*
X0248438Y0133111D02*
X0262447Y0133111D01*
X0264045Y0134710D02*
X0246840Y0134710D01*
X0245241Y0136308D02*
X0265770Y0136308D01*
X0264709Y0129999D02*
X0264709Y0129080D01*
X0269809Y0129080D01*
X0269809Y0128680D01*
X0264709Y0128680D01*
X0264709Y0125143D01*
X0264831Y0124686D01*
X0265068Y0124275D01*
X0265269Y0124074D01*
X0259669Y0118474D01*
X0259517Y0118515D01*
X0258395Y0118515D01*
X0258395Y0114747D01*
X0258394Y0114747D01*
X0258394Y0118515D01*
X0257434Y0118515D01*
X0255330Y0120620D01*
X0264709Y0129999D01*
X0264709Y0129914D02*
X0264624Y0129914D01*
X0264709Y0128315D02*
X0263025Y0128315D01*
X0261427Y0126717D02*
X0264709Y0126717D01*
X0264715Y0125118D02*
X0259828Y0125118D01*
X0258230Y0123520D02*
X0264714Y0123520D01*
X0263116Y0121921D02*
X0256631Y0121921D01*
X0255626Y0120323D02*
X0261517Y0120323D01*
X0259919Y0118724D02*
X0257225Y0118724D01*
X0258394Y0117126D02*
X0258395Y0117126D01*
X0258394Y0115527D02*
X0258395Y0115527D01*
X0258395Y0114746D02*
X0258395Y0110978D01*
X0259517Y0110978D01*
X0259975Y0111101D01*
X0260386Y0111338D01*
X0260426Y0111378D01*
X0262397Y0111378D01*
X0273412Y0100363D01*
X0273412Y0097139D01*
X0274232Y0096319D01*
X0278515Y0096319D01*
X0280414Y0094420D01*
X0288814Y0094420D01*
X0283614Y0089220D01*
X0265995Y0089220D01*
X0265995Y0093771D01*
X0265175Y0094591D01*
X0265143Y0094591D01*
X0265143Y0101896D01*
X0265798Y0102552D01*
X0265798Y0107649D01*
X0264978Y0108469D01*
X0262985Y0108469D01*
X0262945Y0108510D01*
X0262534Y0108747D01*
X0262076Y0108869D01*
X0260954Y0108869D01*
X0260954Y0107771D01*
X0260953Y0107771D01*
X0260953Y0108869D01*
X0259831Y0108869D01*
X0259674Y0108827D01*
X0259517Y0108869D01*
X0258395Y0108869D01*
X0258395Y0107771D01*
X0258394Y0107771D01*
X0258394Y0108869D01*
X0257272Y0108869D01*
X0256814Y0108747D01*
X0256807Y0108742D01*
X0250187Y0115362D01*
X0250315Y0115416D01*
X0251047Y0116147D01*
X0251443Y0117102D01*
X0251443Y0118137D01*
X0251047Y0119092D01*
X0250743Y0119397D01*
X0250743Y0119833D01*
X0250743Y0119833D01*
X0251856Y0118720D01*
X0253550Y0117026D01*
X0253550Y0112198D01*
X0254370Y0111378D01*
X0256363Y0111378D01*
X0256403Y0111338D01*
X0256814Y0111101D01*
X0257272Y0110978D01*
X0258394Y0110978D01*
X0258394Y0114746D01*
X0258395Y0114746D01*
X0258394Y0113929D02*
X0258395Y0113929D01*
X0258394Y0112330D02*
X0258395Y0112330D01*
X0254817Y0110732D02*
X0263043Y0110732D01*
X0264642Y0109133D02*
X0256416Y0109133D01*
X0253550Y0106626D02*
X0253550Y0102552D01*
X0254370Y0101732D01*
X0256363Y0101732D01*
X0256403Y0101692D01*
X0256814Y0101455D01*
X0257272Y0101332D01*
X0258394Y0101332D01*
X0258394Y0102431D01*
X0258395Y0102430D01*
X0258395Y0101332D01*
X0259517Y0101332D01*
X0259674Y0101374D01*
X0259831Y0101332D01*
X0260953Y0101332D01*
X0260953Y0102430D01*
X0260954Y0102431D01*
X0260954Y0101332D01*
X0261343Y0101332D01*
X0261343Y0095207D01*
X0260727Y0094591D01*
X0254173Y0094591D01*
X0253353Y0093771D01*
X0253353Y0090738D01*
X0246843Y0097248D01*
X0246843Y0113333D01*
X0253550Y0106626D01*
X0253550Y0105936D02*
X0246843Y0105936D01*
X0246843Y0104338D02*
X0253550Y0104338D01*
X0253550Y0102739D02*
X0246843Y0102739D01*
X0246843Y0101141D02*
X0261343Y0101141D01*
X0261343Y0099542D02*
X0246843Y0099542D01*
X0246843Y0097944D02*
X0261343Y0097944D01*
X0261343Y0096345D02*
X0247745Y0096345D01*
X0249344Y0094747D02*
X0260883Y0094747D01*
X0265143Y0094747D02*
X0280087Y0094747D01*
X0274206Y0096345D02*
X0265143Y0096345D01*
X0265143Y0097944D02*
X0273412Y0097944D01*
X0273412Y0099542D02*
X0265143Y0099542D01*
X0265143Y0101141D02*
X0272634Y0101141D01*
X0271036Y0102739D02*
X0265798Y0102739D01*
X0265798Y0104338D02*
X0269437Y0104338D01*
X0267839Y0105936D02*
X0265798Y0105936D01*
X0265798Y0107535D02*
X0266240Y0107535D01*
X0260953Y0105101D02*
X0260953Y0105101D01*
X0258395Y0105101D01*
X0258395Y0105101D01*
X0260953Y0105101D01*
X0252640Y0107535D02*
X0246843Y0107535D01*
X0246843Y0109133D02*
X0251042Y0109133D01*
X0249443Y0110732D02*
X0246843Y0110732D01*
X0246843Y0112330D02*
X0247845Y0112330D01*
X0251620Y0113929D02*
X0253550Y0113929D01*
X0253550Y0115527D02*
X0250427Y0115527D01*
X0251443Y0117126D02*
X0253449Y0117126D01*
X0251856Y0118720D02*
X0251856Y0118720D01*
X0251851Y0118724D02*
X0251199Y0118724D01*
X0250743Y0119833D02*
X0250743Y0119833D01*
X0253219Y0112330D02*
X0253550Y0112330D01*
X0234224Y0123520D02*
X0232971Y0123520D01*
X0234193Y0125118D02*
X0231372Y0125118D01*
X0229774Y0126717D02*
X0234777Y0126717D01*
X0236586Y0128315D02*
X0228175Y0128315D01*
X0226577Y0129914D02*
X0234661Y0129914D01*
X0233063Y0131513D02*
X0224978Y0131513D01*
X0222730Y0123445D02*
X0230143Y0116033D01*
X0230143Y0113797D01*
X0229838Y0113492D01*
X0229443Y0112537D01*
X0229443Y0111520D01*
X0221643Y0111520D01*
X0222138Y0112015D01*
X0222793Y0113596D01*
X0222793Y0115306D01*
X0222138Y0116887D01*
X0220929Y0118097D01*
X0219348Y0118751D01*
X0217638Y0118751D01*
X0216057Y0118097D01*
X0214848Y0116887D01*
X0214793Y0116756D01*
X0211543Y0120007D01*
X0210798Y0120752D01*
X0210929Y0120806D01*
X0212138Y0122015D01*
X0212730Y0123445D01*
X0213256Y0122920D01*
X0214473Y0122920D01*
X0214848Y0122015D01*
X0216057Y0120806D01*
X0217638Y0120151D01*
X0219348Y0120151D01*
X0220929Y0120806D01*
X0222138Y0122015D01*
X0222730Y0123445D01*
X0222044Y0121921D02*
X0224254Y0121921D01*
X0225852Y0120323D02*
X0219763Y0120323D01*
X0219413Y0118724D02*
X0227451Y0118724D01*
X0229049Y0117126D02*
X0221899Y0117126D01*
X0222701Y0115527D02*
X0230143Y0115527D01*
X0230143Y0113929D02*
X0222793Y0113929D01*
X0222269Y0112330D02*
X0229443Y0112330D01*
X0217573Y0118724D02*
X0212825Y0118724D01*
X0214423Y0117126D02*
X0215087Y0117126D01*
X0217223Y0120323D02*
X0211226Y0120323D01*
X0212044Y0121921D02*
X0214942Y0121921D01*
X0250037Y0131513D02*
X0260848Y0131513D01*
X0259250Y0129914D02*
X0251635Y0129914D01*
X0253234Y0128315D02*
X0257651Y0128315D01*
X0256053Y0126717D02*
X0254743Y0126717D01*
X0280443Y0121921D02*
X0292943Y0121921D01*
X0292943Y0120323D02*
X0280443Y0120323D01*
X0290976Y0123520D02*
X0292943Y0123520D01*
X0292943Y0125118D02*
X0290976Y0125118D01*
X0290976Y0126717D02*
X0292943Y0126717D01*
X0292943Y0128315D02*
X0290976Y0128315D01*
X0290305Y0129914D02*
X0292943Y0129914D01*
X0317177Y0117126D02*
X0370872Y0117126D01*
X0369597Y0115851D02*
X0372467Y0118721D01*
X0376526Y0118721D01*
X0379397Y0115851D01*
X0379397Y0115520D01*
X0388889Y0115520D01*
X0389032Y0115864D01*
X0390466Y0117298D01*
X0392099Y0117975D01*
X0390466Y0118651D01*
X0389032Y0120086D01*
X0388355Y0121720D01*
X0379325Y0121720D01*
X0376526Y0118921D01*
X0372467Y0118921D01*
X0369597Y0121792D01*
X0369597Y0125851D01*
X0372467Y0128721D01*
X0376526Y0128721D01*
X0379397Y0125851D01*
X0379397Y0125520D01*
X0388889Y0125520D01*
X0389032Y0125864D01*
X0390466Y0127298D01*
X0392341Y0128075D01*
X0394370Y0128075D01*
X0396244Y0127298D01*
X0397679Y0125864D01*
X0398455Y0123989D01*
X0398455Y0121960D01*
X0397679Y0120086D01*
X0396244Y0118651D01*
X0394611Y0117975D01*
X0396244Y0117298D01*
X0397679Y0115864D01*
X0398455Y0113989D01*
X0398455Y0111960D01*
X0397679Y0110086D01*
X0396244Y0108651D01*
X0394370Y0107875D01*
X0392341Y0107875D01*
X0390466Y0108651D01*
X0389032Y0110086D01*
X0388355Y0111720D01*
X0379325Y0111720D01*
X0376526Y0108921D01*
X0372467Y0108921D01*
X0369597Y0111792D01*
X0369597Y0115851D01*
X0369597Y0115527D02*
X0315579Y0115527D01*
X0313980Y0113929D02*
X0369597Y0113929D01*
X0369597Y0112330D02*
X0312382Y0112330D01*
X0310783Y0110732D02*
X0370657Y0110732D01*
X0372255Y0109133D02*
X0309185Y0109133D01*
X0307586Y0107535D02*
X0399806Y0107535D01*
X0399806Y0109133D02*
X0396726Y0109133D01*
X0397946Y0110732D02*
X0399806Y0110732D01*
X0399806Y0112330D02*
X0398455Y0112330D01*
X0398455Y0113929D02*
X0399806Y0113929D01*
X0399806Y0115527D02*
X0397818Y0115527D01*
X0396416Y0117126D02*
X0399806Y0117126D01*
X0399806Y0118724D02*
X0396317Y0118724D01*
X0397777Y0120323D02*
X0399806Y0120323D01*
X0399806Y0121921D02*
X0398439Y0121921D01*
X0398455Y0123520D02*
X0399806Y0123520D01*
X0399806Y0125118D02*
X0397987Y0125118D01*
X0396825Y0126717D02*
X0399806Y0126717D01*
X0399806Y0128315D02*
X0376932Y0128315D01*
X0378531Y0126717D02*
X0389885Y0126717D01*
X0388933Y0120323D02*
X0377928Y0120323D01*
X0378122Y0117126D02*
X0390294Y0117126D01*
X0390393Y0118724D02*
X0318776Y0118724D01*
X0320374Y0120323D02*
X0371066Y0120323D01*
X0369597Y0121921D02*
X0321973Y0121921D01*
X0323571Y0123520D02*
X0369597Y0123520D01*
X0369597Y0125118D02*
X0325170Y0125118D01*
X0326768Y0126717D02*
X0370463Y0126717D01*
X0372061Y0128315D02*
X0328367Y0128315D01*
X0329965Y0129914D02*
X0399806Y0129914D01*
X0399806Y0131513D02*
X0331564Y0131513D01*
X0333162Y0133111D02*
X0399806Y0133111D01*
X0399806Y0134710D02*
X0334761Y0134710D01*
X0336359Y0136308D02*
X0399806Y0136308D01*
X0399806Y0137907D02*
X0337958Y0137907D01*
X0339556Y0139505D02*
X0399806Y0139505D01*
X0399806Y0141104D02*
X0341155Y0141104D01*
X0342753Y0142702D02*
X0399806Y0142702D01*
X0399806Y0144301D02*
X0344352Y0144301D01*
X0345950Y0145899D02*
X0399806Y0145899D01*
X0399806Y0147498D02*
X0347549Y0147498D01*
X0349147Y0149096D02*
X0399806Y0149096D01*
X0399806Y0150695D02*
X0350746Y0150695D01*
X0352344Y0152293D02*
X0399806Y0152293D01*
X0399806Y0153892D02*
X0353943Y0153892D01*
X0355541Y0155490D02*
X0399806Y0155490D01*
X0399806Y0157089D02*
X0357140Y0157089D01*
X0358738Y0158687D02*
X0390155Y0158687D01*
X0390191Y0158651D02*
X0392065Y0157875D01*
X0394094Y0157875D01*
X0395968Y0158651D01*
X0397403Y0160086D01*
X0398180Y0161960D01*
X0398180Y0163989D01*
X0397403Y0165864D01*
X0395968Y0167298D01*
X0394335Y0167975D01*
X0395968Y0168651D01*
X0397403Y0170086D01*
X0398180Y0171960D01*
X0398180Y0173989D01*
X0397403Y0175864D01*
X0395968Y0177298D01*
X0394094Y0178075D01*
X0392065Y0178075D01*
X0390191Y0177298D01*
X0388756Y0175864D01*
X0388613Y0175520D01*
X0379397Y0175520D01*
X0379397Y0175851D01*
X0376526Y0178721D01*
X0372467Y0178721D01*
X0369597Y0175851D01*
X0369597Y0171792D01*
X0372467Y0168921D01*
X0376526Y0168921D01*
X0379325Y0171720D01*
X0388079Y0171720D01*
X0388756Y0170086D01*
X0390191Y0168651D01*
X0391824Y0167975D01*
X0390191Y0167298D01*
X0388756Y0165864D01*
X0388613Y0165520D01*
X0379397Y0165520D01*
X0379397Y0165851D01*
X0376526Y0168721D01*
X0372467Y0168721D01*
X0369597Y0165851D01*
X0369597Y0161792D01*
X0372467Y0158921D01*
X0376526Y0158921D01*
X0379325Y0161720D01*
X0388079Y0161720D01*
X0388756Y0160086D01*
X0390191Y0158651D01*
X0388673Y0160286D02*
X0377891Y0160286D01*
X0371103Y0160286D02*
X0360337Y0160286D01*
X0361935Y0161884D02*
X0369597Y0161884D01*
X0369597Y0163483D02*
X0363243Y0163483D01*
X0363243Y0165081D02*
X0369597Y0165081D01*
X0370426Y0166680D02*
X0363243Y0166680D01*
X0363243Y0168278D02*
X0372024Y0168278D01*
X0371512Y0169877D02*
X0363243Y0169877D01*
X0363243Y0171475D02*
X0369913Y0171475D01*
X0369597Y0173074D02*
X0363243Y0173074D01*
X0363243Y0174672D02*
X0369597Y0174672D01*
X0370017Y0176271D02*
X0363243Y0176271D01*
X0363243Y0177869D02*
X0371615Y0177869D01*
X0377378Y0177869D02*
X0391569Y0177869D01*
X0389163Y0176271D02*
X0378977Y0176271D01*
X0379081Y0171475D02*
X0388180Y0171475D01*
X0388965Y0169877D02*
X0377482Y0169877D01*
X0376969Y0168278D02*
X0391091Y0168278D01*
X0389572Y0166680D02*
X0378568Y0166680D01*
X0395068Y0168278D02*
X0399806Y0168278D01*
X0399806Y0166680D02*
X0396587Y0166680D01*
X0397727Y0165081D02*
X0399806Y0165081D01*
X0399806Y0163483D02*
X0398180Y0163483D01*
X0398148Y0161884D02*
X0399806Y0161884D01*
X0399806Y0160286D02*
X0397486Y0160286D01*
X0396004Y0158687D02*
X0399806Y0158687D01*
X0399806Y0169877D02*
X0397194Y0169877D01*
X0397979Y0171475D02*
X0399806Y0171475D01*
X0399806Y0173074D02*
X0398180Y0173074D01*
X0397897Y0174672D02*
X0399806Y0174672D01*
X0399806Y0176271D02*
X0396996Y0176271D01*
X0394590Y0177869D02*
X0399806Y0177869D01*
X0399806Y0179468D02*
X0363243Y0179468D01*
X0363243Y0181066D02*
X0399806Y0181066D01*
X0399806Y0182665D02*
X0363243Y0182665D01*
X0363243Y0184263D02*
X0399806Y0184263D01*
X0386981Y0185862D02*
X0363243Y0185862D01*
X0363243Y0187460D02*
X0383961Y0187460D01*
X0381956Y0189059D02*
X0363243Y0189059D01*
X0363243Y0190657D02*
X0380428Y0190657D01*
X0379338Y0192256D02*
X0363243Y0192256D01*
X0363243Y0193854D02*
X0378248Y0193854D01*
X0377686Y0195453D02*
X0363243Y0195453D01*
X0363243Y0197051D02*
X0377193Y0197051D01*
X0376700Y0198650D02*
X0363243Y0198650D01*
X0364251Y0200248D02*
X0376620Y0200248D01*
X0376620Y0201847D02*
X0365850Y0201847D01*
X0366188Y0203446D02*
X0376620Y0203446D01*
X0376939Y0205044D02*
X0366188Y0205044D01*
X0365790Y0206643D02*
X0377433Y0206643D01*
X0359243Y0198650D02*
X0344960Y0198650D01*
X0346558Y0200248D02*
X0348325Y0200248D01*
X0354251Y0200248D02*
X0358325Y0200248D01*
X0356727Y0201847D02*
X0355850Y0201847D01*
X0356188Y0203446D02*
X0356388Y0203446D01*
X0356388Y0205044D02*
X0356188Y0205044D01*
X0355790Y0206643D02*
X0356786Y0206643D01*
X0359243Y0197051D02*
X0343361Y0197051D01*
X0341763Y0195453D02*
X0359243Y0195453D01*
X0359243Y0193854D02*
X0340164Y0193854D01*
X0338566Y0192256D02*
X0359243Y0192256D01*
X0359243Y0190657D02*
X0336967Y0190657D01*
X0335369Y0189059D02*
X0359243Y0189059D01*
X0359243Y0187460D02*
X0333770Y0187460D01*
X0332172Y0185862D02*
X0359243Y0185862D01*
X0359243Y0184263D02*
X0330573Y0184263D01*
X0328975Y0182665D02*
X0359243Y0182665D01*
X0359243Y0181066D02*
X0327376Y0181066D01*
X0325778Y0179468D02*
X0359243Y0179468D01*
X0359243Y0177869D02*
X0324179Y0177869D01*
X0321656Y0180720D02*
X0319429Y0180720D01*
X0338642Y0199932D01*
X0339259Y0199315D01*
X0340251Y0199315D01*
X0321656Y0180720D01*
X0322002Y0181066D02*
X0319776Y0181066D01*
X0321375Y0182665D02*
X0323601Y0182665D01*
X0322973Y0184263D02*
X0325199Y0184263D01*
X0324572Y0185862D02*
X0326798Y0185862D01*
X0326170Y0187460D02*
X0328396Y0187460D01*
X0327769Y0189059D02*
X0329995Y0189059D01*
X0329367Y0190657D02*
X0331593Y0190657D01*
X0330966Y0192256D02*
X0333192Y0192256D01*
X0332564Y0193854D02*
X0334790Y0193854D01*
X0334163Y0195453D02*
X0336389Y0195453D01*
X0335761Y0197051D02*
X0337987Y0197051D01*
X0337360Y0198650D02*
X0339586Y0198650D01*
X0266060Y0145899D02*
X0250050Y0145899D01*
X0251649Y0144301D02*
X0255236Y0144301D01*
X0289046Y0105936D02*
X0297531Y0105936D01*
X0295932Y0104338D02*
X0287448Y0104338D01*
X0286448Y0102739D02*
X0294334Y0102739D01*
X0292735Y0101141D02*
X0286448Y0101141D01*
X0286448Y0099542D02*
X0291137Y0099542D01*
X0294798Y0094747D02*
X0399806Y0094747D01*
X0399806Y0096345D02*
X0296397Y0096345D01*
X0297995Y0097944D02*
X0399806Y0097944D01*
X0399806Y0099542D02*
X0299594Y0099542D01*
X0301192Y0101141D02*
X0399806Y0101141D01*
X0399806Y0102739D02*
X0302791Y0102739D01*
X0304389Y0104338D02*
X0399806Y0104338D01*
X0399806Y0105936D02*
X0305988Y0105936D01*
X0293199Y0093148D02*
X0399806Y0093148D01*
X0399806Y0091550D02*
X0291601Y0091550D01*
X0290002Y0089951D02*
X0399806Y0089951D01*
X0399806Y0088353D02*
X0288404Y0088353D01*
X0287736Y0086754D02*
X0399806Y0086754D01*
X0399806Y0085156D02*
X0329571Y0085156D01*
X0329250Y0085477D02*
X0321004Y0085477D01*
X0320183Y0084657D01*
X0320183Y0083120D01*
X0307629Y0083120D01*
X0307629Y0084657D01*
X0306809Y0085477D01*
X0298563Y0085477D01*
X0297743Y0084657D01*
X0297743Y0077985D01*
X0298563Y0077165D01*
X0306809Y0077165D01*
X0307629Y0077985D01*
X0307629Y0079320D01*
X0320183Y0079320D01*
X0320183Y0077985D01*
X0321004Y0077165D01*
X0329250Y0077165D01*
X0330070Y0077985D01*
X0330070Y0084657D01*
X0329250Y0085477D01*
X0330070Y0083557D02*
X0399806Y0083557D01*
X0399806Y0081959D02*
X0330070Y0081959D01*
X0330070Y0080360D02*
X0399806Y0080360D01*
X0399806Y0078762D02*
X0330070Y0078762D01*
X0320183Y0078762D02*
X0307629Y0078762D01*
X0307629Y0083557D02*
X0320183Y0083557D01*
X0320682Y0085156D02*
X0307131Y0085156D01*
X0298241Y0085156D02*
X0289335Y0085156D01*
X0290043Y0083557D02*
X0297743Y0083557D01*
X0297743Y0081959D02*
X0290043Y0081959D01*
X0290043Y0080360D02*
X0297743Y0080360D01*
X0297743Y0078762D02*
X0290043Y0078762D01*
X0290043Y0077163D02*
X0399806Y0077163D01*
X0399806Y0075565D02*
X0290043Y0075565D01*
X0290043Y0073966D02*
X0399806Y0073966D01*
X0399806Y0072368D02*
X0290043Y0072368D01*
X0290043Y0070769D02*
X0399806Y0070769D01*
X0399806Y0069171D02*
X0290043Y0069171D01*
X0290043Y0067572D02*
X0399806Y0067572D01*
X0399806Y0065974D02*
X0290043Y0065974D01*
X0290043Y0064375D02*
X0399806Y0064375D01*
X0399806Y0062777D02*
X0290643Y0062777D01*
X0286043Y0064097D02*
X0285838Y0063892D01*
X0285668Y0063481D01*
X0263929Y0085220D01*
X0283614Y0085220D01*
X0286043Y0082791D01*
X0286043Y0064097D01*
X0286043Y0064375D02*
X0284774Y0064375D01*
X0286043Y0065974D02*
X0283176Y0065974D01*
X0281577Y0067572D02*
X0286043Y0067572D01*
X0286043Y0069171D02*
X0279979Y0069171D01*
X0278380Y0070769D02*
X0286043Y0070769D01*
X0286043Y0072368D02*
X0276782Y0072368D01*
X0275183Y0073966D02*
X0286043Y0073966D01*
X0286043Y0075565D02*
X0273585Y0075565D01*
X0271986Y0077163D02*
X0286043Y0077163D01*
X0286043Y0078762D02*
X0270388Y0078762D01*
X0268789Y0080360D02*
X0286043Y0080360D01*
X0286043Y0081959D02*
X0267191Y0081959D01*
X0265592Y0083557D02*
X0285277Y0083557D01*
X0283678Y0085156D02*
X0263994Y0085156D01*
X0265995Y0089951D02*
X0284346Y0089951D01*
X0285944Y0091550D02*
X0265995Y0091550D01*
X0265995Y0093148D02*
X0287543Y0093148D01*
X0266612Y0077163D02*
X0265995Y0077163D01*
X0265995Y0077780D02*
X0285656Y0058120D01*
X0316056Y0058120D01*
X0327478Y0046698D01*
X0323326Y0046698D01*
X0322506Y0045878D01*
X0322506Y0045123D01*
X0318996Y0045123D01*
X0318208Y0044335D01*
X0318155Y0044335D01*
X0317271Y0045220D01*
X0304871Y0057620D01*
X0283909Y0057620D01*
X0283909Y0058732D01*
X0283089Y0059552D01*
X0278779Y0059552D01*
X0277959Y0058732D01*
X0277959Y0055165D01*
X0277222Y0054428D01*
X0277222Y0055790D01*
X0277222Y0058389D01*
X0277099Y0058847D01*
X0276862Y0059257D01*
X0276527Y0059592D01*
X0276117Y0059829D01*
X0275659Y0059952D01*
X0273847Y0059952D01*
X0272035Y0059952D01*
X0271578Y0059829D01*
X0271167Y0059592D01*
X0270832Y0059257D01*
X0270595Y0058847D01*
X0270472Y0058389D01*
X0270472Y0055790D01*
X0273847Y0055790D01*
X0273847Y0059952D01*
X0273847Y0055790D01*
X0273847Y0055790D01*
X0273847Y0055790D01*
X0270472Y0055790D01*
X0270472Y0053191D01*
X0270595Y0052733D01*
X0270832Y0052322D01*
X0271167Y0051987D01*
X0271578Y0051750D01*
X0272035Y0051628D01*
X0273573Y0051628D01*
X0273038Y0051092D01*
X0272643Y0050137D01*
X0272643Y0049816D01*
X0266133Y0049816D01*
X0242664Y0073285D01*
X0242793Y0073596D01*
X0242793Y0075306D01*
X0242456Y0076120D01*
X0253353Y0076120D01*
X0253353Y0074895D01*
X0254173Y0074075D01*
X0265175Y0074075D01*
X0265995Y0074895D01*
X0265995Y0077780D01*
X0265995Y0075565D02*
X0268211Y0075565D01*
X0269809Y0073966D02*
X0242793Y0073966D01*
X0242686Y0075565D02*
X0253353Y0075565D01*
X0245180Y0070769D02*
X0273006Y0070769D01*
X0271408Y0072368D02*
X0243582Y0072368D01*
X0246779Y0069171D02*
X0274605Y0069171D01*
X0276203Y0067572D02*
X0248377Y0067572D01*
X0249976Y0065974D02*
X0277802Y0065974D01*
X0279400Y0064375D02*
X0251574Y0064375D01*
X0253173Y0062777D02*
X0280999Y0062777D01*
X0282597Y0061178D02*
X0254771Y0061178D01*
X0256370Y0059579D02*
X0271154Y0059579D01*
X0270472Y0057981D02*
X0257968Y0057981D01*
X0259567Y0056382D02*
X0270472Y0056382D01*
X0270472Y0054784D02*
X0261165Y0054784D01*
X0262764Y0053185D02*
X0270474Y0053185D01*
X0273533Y0051587D02*
X0264362Y0051587D01*
X0265961Y0049988D02*
X0272643Y0049988D01*
X0277147Y0047847D02*
X0277447Y0048147D01*
X0277843Y0049102D01*
X0277843Y0049391D01*
X0280479Y0052028D01*
X0283089Y0052028D01*
X0283909Y0052848D01*
X0283909Y0053620D01*
X0303214Y0053620D01*
X0307018Y0049816D01*
X0297384Y0049816D01*
X0296930Y0049967D01*
X0296627Y0049816D01*
X0296289Y0049816D01*
X0295950Y0049477D01*
X0292690Y0047847D01*
X0277147Y0047847D01*
X0277547Y0048390D02*
X0293775Y0048390D01*
X0295878Y0045193D02*
X0308922Y0045193D01*
X0309380Y0044735D02*
X0308158Y0044735D01*
X0306370Y0044735D01*
X0305982Y0045123D01*
X0301673Y0045123D01*
X0301662Y0045112D01*
X0301652Y0045123D01*
X0297342Y0045123D01*
X0296522Y0044303D01*
X0296522Y0037237D01*
X0296640Y0037120D01*
X0291256Y0037120D01*
X0287649Y0033513D01*
X0287649Y0041606D01*
X0286829Y0042426D01*
X0280945Y0042426D01*
X0280124Y0041606D01*
X0280124Y0038766D01*
X0274843Y0044047D01*
X0292830Y0044047D01*
X0293284Y0043896D01*
X0293587Y0044047D01*
X0293926Y0044047D01*
X0294264Y0044386D01*
X0297524Y0046016D01*
X0308100Y0046016D01*
X0309380Y0044735D01*
X0308158Y0044735D02*
X0308158Y0039983D01*
X0308158Y0044735D01*
X0308158Y0043594D02*
X0308158Y0043594D01*
X0308158Y0041996D02*
X0308158Y0041996D01*
X0308158Y0040397D02*
X0308158Y0040397D01*
X0308158Y0039983D02*
X0308158Y0039983D01*
X0315699Y0046791D02*
X0327384Y0046791D01*
X0325785Y0048390D02*
X0314101Y0048390D01*
X0312502Y0049988D02*
X0324187Y0049988D01*
X0322588Y0051587D02*
X0310904Y0051587D01*
X0309305Y0053185D02*
X0320990Y0053185D01*
X0319391Y0054784D02*
X0307707Y0054784D01*
X0306108Y0056382D02*
X0317793Y0056382D01*
X0316194Y0057981D02*
X0283909Y0057981D01*
X0284196Y0059579D02*
X0276540Y0059579D01*
X0277222Y0057981D02*
X0277959Y0057981D01*
X0277959Y0056382D02*
X0277222Y0056382D01*
X0277222Y0055790D02*
X0273847Y0055790D01*
X0273847Y0055790D01*
X0277222Y0055790D01*
X0277222Y0054784D02*
X0277578Y0054784D01*
X0280038Y0051587D02*
X0305247Y0051587D01*
X0306845Y0049988D02*
X0278440Y0049988D01*
X0283909Y0053185D02*
X0303648Y0053185D01*
X0317298Y0045193D02*
X0322506Y0045193D01*
X0329561Y0049988D02*
X0399806Y0049988D01*
X0399806Y0048390D02*
X0331159Y0048390D01*
X0332758Y0046791D02*
X0399806Y0046791D01*
X0399806Y0045193D02*
X0395220Y0045193D01*
X0393564Y0045193D02*
X0334356Y0045193D01*
X0334743Y0043594D02*
X0386386Y0043594D01*
X0383668Y0041996D02*
X0334743Y0041996D01*
X0334743Y0040397D02*
X0381663Y0040397D01*
X0380995Y0039864D02*
X0380995Y0039864D01*
X0380268Y0038799D02*
X0334743Y0038799D01*
X0334743Y0037200D02*
X0379179Y0037200D01*
X0378107Y0035602D02*
X0333512Y0035602D01*
X0331913Y0034003D02*
X0377614Y0034003D01*
X0377121Y0032405D02*
X0330315Y0032405D01*
X0328716Y0030806D02*
X0344320Y0030806D01*
X0343602Y0029208D02*
X0327118Y0029208D01*
X0343602Y0027609D02*
X0306909Y0027609D01*
X0304321Y0026011D02*
X0347580Y0026011D01*
X0348736Y0026011D02*
X0376620Y0026011D01*
X0376620Y0027609D02*
X0352714Y0027609D01*
X0352714Y0029208D02*
X0376620Y0029208D01*
X0376628Y0030806D02*
X0351997Y0030806D01*
X0348736Y0030806D02*
X0347580Y0030806D01*
X0347580Y0029208D02*
X0348736Y0029208D01*
X0348736Y0027609D02*
X0347580Y0027609D01*
X0343602Y0024412D02*
X0302722Y0024412D01*
X0301124Y0022814D02*
X0343602Y0022814D01*
X0352714Y0022814D02*
X0377505Y0022814D01*
X0377011Y0024412D02*
X0352714Y0024412D01*
X0327962Y0051587D02*
X0399806Y0051587D01*
X0399806Y0053185D02*
X0326364Y0053185D01*
X0324765Y0054784D02*
X0399806Y0054784D01*
X0399806Y0056382D02*
X0323167Y0056382D01*
X0321568Y0057981D02*
X0399806Y0057981D01*
X0399806Y0059579D02*
X0319970Y0059579D01*
X0318371Y0061178D02*
X0399806Y0061178D01*
X0389984Y0109133D02*
X0376739Y0109133D01*
X0378337Y0110732D02*
X0388764Y0110732D01*
X0388892Y0115527D02*
X0379397Y0115527D01*
X0273847Y0059579D02*
X0273847Y0059579D01*
X0273847Y0057981D02*
X0273847Y0057981D01*
X0273847Y0056382D02*
X0273847Y0056382D01*
X0260587Y0049988D02*
X0235702Y0049988D01*
X0237301Y0048390D02*
X0262185Y0048390D01*
X0263356Y0047220D02*
X0251100Y0059475D01*
X0251047Y0059347D01*
X0250315Y0058616D01*
X0249360Y0058220D01*
X0248325Y0058220D01*
X0247370Y0058616D01*
X0246638Y0059347D01*
X0246243Y0060302D01*
X0246243Y0060733D01*
X0242856Y0064120D01*
X0233493Y0064120D01*
X0233512Y0064094D01*
X0233905Y0063322D01*
X0234172Y0062499D01*
X0234308Y0061644D01*
X0234308Y0061411D01*
X0229008Y0061411D01*
X0229008Y0061011D01*
X0234308Y0061011D01*
X0234308Y0060778D01*
X0234172Y0059923D01*
X0233905Y0059100D01*
X0233512Y0058328D01*
X0233003Y0057628D01*
X0232391Y0057016D01*
X0231691Y0056507D01*
X0230919Y0056114D01*
X0230096Y0055846D01*
X0229879Y0055812D01*
X0238471Y0047220D01*
X0263356Y0047220D01*
X0258988Y0051587D02*
X0234104Y0051587D01*
X0232505Y0053185D02*
X0257390Y0053185D01*
X0255791Y0054784D02*
X0230907Y0054784D01*
X0231446Y0056382D02*
X0254193Y0056382D01*
X0252594Y0057981D02*
X0233259Y0057981D01*
X0234061Y0059579D02*
X0246542Y0059579D01*
X0245797Y0061178D02*
X0229008Y0061178D01*
X0234082Y0062777D02*
X0244199Y0062777D01*
X0226848Y0053185D02*
X0221495Y0053185D01*
X0222187Y0053877D02*
X0222325Y0053820D01*
X0223360Y0053820D01*
X0224315Y0054216D01*
X0225047Y0054947D01*
X0225058Y0054975D01*
X0236814Y0043220D01*
X0269966Y0043220D01*
X0270359Y0042826D01*
X0268295Y0042826D01*
X0267838Y0042703D01*
X0267427Y0042466D01*
X0267092Y0042131D01*
X0266855Y0041721D01*
X0266732Y0041263D01*
X0266732Y0036486D01*
X0270513Y0036486D01*
X0270513Y0035724D01*
X0266732Y0035724D01*
X0266732Y0031920D01*
X0174430Y0031920D01*
X0167443Y0038907D01*
X0167443Y0039320D01*
X0207630Y0039320D01*
X0208743Y0040433D01*
X0222187Y0053877D01*
X0224884Y0054784D02*
X0225250Y0054784D01*
X0228447Y0051587D02*
X0219897Y0051587D01*
X0218298Y0049988D02*
X0230045Y0049988D01*
X0231644Y0048390D02*
X0216700Y0048390D01*
X0215101Y0046791D02*
X0233242Y0046791D01*
X0234841Y0045193D02*
X0213503Y0045193D01*
X0211904Y0043594D02*
X0236439Y0043594D01*
X0217720Y0054784D02*
X0211894Y0054784D01*
X0213492Y0056382D02*
X0215424Y0056382D01*
X0215919Y0055887D02*
X0217793Y0055111D01*
X0218047Y0055111D01*
X0206056Y0043120D01*
X0165029Y0043120D01*
X0183708Y0061798D01*
X0183708Y0060197D01*
X0184484Y0058322D01*
X0185919Y0056887D01*
X0187793Y0056111D01*
X0189822Y0056111D01*
X0191697Y0056887D01*
X0193131Y0058322D01*
X0193708Y0059714D01*
X0193708Y0059197D01*
X0194484Y0057322D01*
X0195919Y0055887D01*
X0197793Y0055111D01*
X0199822Y0055111D01*
X0201697Y0055887D01*
X0203131Y0057322D01*
X0203908Y0059197D01*
X0203908Y0059714D01*
X0204484Y0058322D01*
X0205919Y0056887D01*
X0207793Y0056111D01*
X0207847Y0056111D01*
X0200943Y0049207D01*
X0200943Y0048197D01*
X0200638Y0047892D01*
X0200243Y0046937D01*
X0200243Y0045902D01*
X0200638Y0044947D01*
X0201370Y0044216D01*
X0202325Y0043820D01*
X0203360Y0043820D01*
X0204315Y0044216D01*
X0205047Y0044947D01*
X0205443Y0045902D01*
X0205443Y0046937D01*
X0205047Y0047892D01*
X0205024Y0047915D01*
X0214430Y0057320D01*
X0214469Y0057359D01*
X0214484Y0057322D01*
X0215919Y0055887D01*
X0216121Y0053185D02*
X0210295Y0053185D01*
X0208697Y0051587D02*
X0214523Y0051587D01*
X0212924Y0049988D02*
X0207098Y0049988D01*
X0205500Y0048390D02*
X0211326Y0048390D01*
X0209727Y0046791D02*
X0205443Y0046791D01*
X0205149Y0045193D02*
X0208129Y0045193D01*
X0206530Y0043594D02*
X0165504Y0043594D01*
X0167103Y0045193D02*
X0200536Y0045193D01*
X0200243Y0046791D02*
X0168701Y0046791D01*
X0170300Y0048390D02*
X0200943Y0048390D01*
X0201724Y0049988D02*
X0171898Y0049988D01*
X0173497Y0051587D02*
X0203323Y0051587D01*
X0204921Y0053185D02*
X0175095Y0053185D01*
X0176694Y0054784D02*
X0206520Y0054784D01*
X0207138Y0056382D02*
X0202192Y0056382D01*
X0203404Y0057981D02*
X0204825Y0057981D01*
X0203963Y0059579D02*
X0203908Y0059579D01*
X0195424Y0056382D02*
X0190478Y0056382D01*
X0192790Y0057981D02*
X0194211Y0057981D01*
X0193708Y0059579D02*
X0193652Y0059579D01*
X0187138Y0056382D02*
X0178292Y0056382D01*
X0179891Y0057981D02*
X0184825Y0057981D01*
X0183963Y0059579D02*
X0181489Y0059579D01*
X0183088Y0061178D02*
X0183708Y0061178D01*
X0169607Y0061178D02*
X0158255Y0061178D01*
X0158255Y0059579D02*
X0166509Y0059579D01*
X0166243Y0057981D02*
X0157574Y0057981D01*
X0158286Y0062777D02*
X0168643Y0062777D01*
X0168907Y0064375D02*
X0159885Y0064375D01*
X0161483Y0065974D02*
X0169343Y0065974D01*
X0169343Y0067572D02*
X0163082Y0067572D01*
X0164680Y0069171D02*
X0169343Y0069171D01*
X0169343Y0070769D02*
X0166279Y0070769D01*
X0167143Y0072368D02*
X0169343Y0072368D01*
X0169343Y0073966D02*
X0167143Y0073966D01*
X0167143Y0075565D02*
X0169343Y0075565D01*
X0169343Y0077163D02*
X0167143Y0077163D01*
X0167143Y0078762D02*
X0169343Y0078762D01*
X0169343Y0080360D02*
X0167143Y0080360D01*
X0167143Y0081959D02*
X0169343Y0081959D01*
X0169343Y0083557D02*
X0167143Y0083557D01*
X0167143Y0085156D02*
X0169343Y0085156D01*
X0169343Y0086754D02*
X0167143Y0086754D01*
X0161743Y0086754D02*
X0148443Y0086754D01*
X0148443Y0085156D02*
X0150890Y0085156D01*
X0151325Y0085591D02*
X0148455Y0082721D01*
X0148455Y0078662D01*
X0151325Y0075791D01*
X0155385Y0075791D01*
X0158255Y0078662D01*
X0158255Y0082721D01*
X0155385Y0085591D01*
X0151325Y0085591D01*
X0149291Y0083557D02*
X0148443Y0083557D01*
X0148443Y0081959D02*
X0148455Y0081959D01*
X0148443Y0080360D02*
X0148455Y0080360D01*
X0148443Y0078762D02*
X0148455Y0078762D01*
X0148443Y0077163D02*
X0149954Y0077163D01*
X0151325Y0075591D02*
X0148455Y0072721D01*
X0148455Y0068662D01*
X0151325Y0065791D01*
X0155385Y0065791D01*
X0158255Y0068662D01*
X0158255Y0072721D01*
X0158243Y0072733D01*
X0163343Y0077833D01*
X0163343Y0073207D01*
X0155556Y0065420D01*
X0155385Y0065591D01*
X0151325Y0065591D01*
X0148455Y0062721D01*
X0148455Y0059284D01*
X0148443Y0059297D01*
X0148443Y0093937D01*
X0149115Y0094216D01*
X0149419Y0094520D01*
X0161630Y0094520D01*
X0161743Y0094633D01*
X0161743Y0081607D01*
X0155556Y0075420D01*
X0155385Y0075591D01*
X0151325Y0075591D01*
X0151299Y0075565D02*
X0148443Y0075565D01*
X0148443Y0073966D02*
X0149700Y0073966D01*
X0148455Y0072368D02*
X0148443Y0072368D01*
X0148443Y0070769D02*
X0148455Y0070769D01*
X0148443Y0069171D02*
X0148455Y0069171D01*
X0148443Y0067572D02*
X0149545Y0067572D01*
X0148443Y0065974D02*
X0151143Y0065974D01*
X0150109Y0064375D02*
X0148443Y0064375D01*
X0148443Y0062777D02*
X0148511Y0062777D01*
X0148455Y0061178D02*
X0148443Y0061178D01*
X0148443Y0059579D02*
X0148455Y0059579D01*
X0141743Y0059579D02*
X0108370Y0059579D01*
X0107029Y0060920D02*
X0124430Y0060920D01*
X0141330Y0077820D01*
X0141743Y0077820D01*
X0141743Y0056033D01*
X0142856Y0054920D01*
X0144456Y0053320D01*
X0148430Y0053320D01*
X0148830Y0053720D01*
X0149454Y0053720D01*
X0148455Y0052721D01*
X0148455Y0048662D01*
X0149197Y0047920D01*
X0120030Y0047920D01*
X0107029Y0060920D01*
X0109968Y0057981D02*
X0141743Y0057981D01*
X0141743Y0056382D02*
X0111567Y0056382D01*
X0113165Y0054784D02*
X0142991Y0054784D01*
X0148920Y0053185D02*
X0114764Y0053185D01*
X0116362Y0051587D02*
X0148455Y0051587D01*
X0148455Y0049988D02*
X0117961Y0049988D01*
X0119559Y0048390D02*
X0148727Y0048390D01*
X0149854Y0044120D02*
X0148455Y0042721D01*
X0148455Y0038662D01*
X0149197Y0037920D01*
X0119630Y0037920D01*
X0108643Y0048907D01*
X0108643Y0048937D01*
X0108247Y0049892D01*
X0107515Y0050624D01*
X0106560Y0051020D01*
X0105525Y0051020D01*
X0104570Y0050624D01*
X0104548Y0050602D01*
X0103522Y0051628D01*
X0103768Y0051628D01*
X0103768Y0055790D01*
X0103768Y0055790D01*
X0100394Y0055790D01*
X0100394Y0058389D01*
X0100516Y0058847D01*
X0100753Y0059257D01*
X0100816Y0059320D01*
X0099069Y0059320D01*
X0099657Y0058732D01*
X0099657Y0055492D01*
X0100394Y0054755D01*
X0100394Y0055790D01*
X0103768Y0055790D01*
X0103769Y0055790D01*
X0103769Y0051628D01*
X0105580Y0051628D01*
X0106038Y0051750D01*
X0106449Y0051987D01*
X0106784Y0052322D01*
X0107021Y0052733D01*
X0107143Y0053191D01*
X0107143Y0055432D01*
X0118456Y0044120D01*
X0149854Y0044120D01*
X0149329Y0043594D02*
X0113955Y0043594D01*
X0115553Y0041996D02*
X0148455Y0041996D01*
X0148455Y0040397D02*
X0117152Y0040397D01*
X0118750Y0038799D02*
X0148455Y0038799D01*
X0159943Y0034003D02*
X0161882Y0034003D01*
X0159943Y0032405D02*
X0164170Y0032405D01*
X0169149Y0037200D02*
X0266732Y0037200D01*
X0266732Y0035602D02*
X0170747Y0035602D01*
X0172346Y0034003D02*
X0266732Y0034003D01*
X0266732Y0032405D02*
X0173944Y0032405D01*
X0173829Y0028120D02*
X0174430Y0028120D01*
X0287630Y0028120D01*
X0288743Y0029233D01*
X0291831Y0032321D01*
X0291831Y0030128D01*
X0295809Y0030128D01*
X0295809Y0028972D01*
X0291831Y0028972D01*
X0291831Y0026320D01*
X0175630Y0026320D01*
X0173829Y0028120D01*
X0174340Y0027609D02*
X0291831Y0027609D01*
X0288718Y0029208D02*
X0295809Y0029208D01*
X0296965Y0029208D02*
X0302144Y0029208D01*
X0302243Y0029307D02*
X0300943Y0028007D01*
X0300943Y0028972D01*
X0296965Y0028972D01*
X0296965Y0030128D01*
X0300943Y0030128D01*
X0300943Y0032620D01*
X0301760Y0032620D01*
X0302181Y0032794D01*
X0303498Y0031477D01*
X0303370Y0031424D01*
X0302638Y0030692D01*
X0302243Y0029737D01*
X0302243Y0029307D01*
X0302752Y0030806D02*
X0300943Y0030806D01*
X0300943Y0032405D02*
X0302570Y0032405D01*
X0296559Y0037200D02*
X0287649Y0037200D01*
X0287649Y0035602D02*
X0289738Y0035602D01*
X0288139Y0034003D02*
X0287649Y0034003D01*
X0290316Y0030806D02*
X0291831Y0030806D01*
X0287649Y0038799D02*
X0296522Y0038799D01*
X0296522Y0040397D02*
X0287649Y0040397D01*
X0287259Y0041996D02*
X0296522Y0041996D01*
X0296522Y0043594D02*
X0275296Y0043594D01*
X0276895Y0041996D02*
X0280514Y0041996D01*
X0280124Y0040397D02*
X0278493Y0040397D01*
X0280092Y0038799D02*
X0280124Y0038799D01*
X0277632Y0035602D02*
X0275057Y0035602D01*
X0275057Y0035724D02*
X0275057Y0031920D01*
X0280124Y0031920D01*
X0280124Y0034420D01*
X0278814Y0034420D01*
X0275057Y0038177D01*
X0275057Y0036486D01*
X0271276Y0036486D01*
X0271276Y0035724D01*
X0275057Y0035724D01*
X0275057Y0037200D02*
X0276033Y0037200D01*
X0275057Y0034003D02*
X0280124Y0034003D01*
X0280124Y0032405D02*
X0275057Y0032405D01*
X0266732Y0038799D02*
X0167550Y0038799D01*
X0148055Y0029208D02*
X0067141Y0029208D01*
X0064372Y0032405D02*
X0063944Y0032405D01*
X0063780Y0034003D02*
X0062346Y0034003D01*
X0063780Y0035602D02*
X0060747Y0035602D01*
X0059149Y0037200D02*
X0063780Y0037200D01*
X0063805Y0038799D02*
X0057550Y0038799D01*
X0055952Y0040397D02*
X0111778Y0040397D01*
X0113376Y0038799D02*
X0077216Y0038799D01*
X0085597Y0049988D02*
X0046361Y0049988D01*
X0047959Y0048390D02*
X0101385Y0048390D01*
X0099787Y0049988D02*
X0089688Y0049988D01*
X0090297Y0051587D02*
X0098188Y0051587D01*
X0100365Y0054784D02*
X0100394Y0054784D01*
X0100394Y0056382D02*
X0099657Y0056382D01*
X0099657Y0057981D02*
X0100394Y0057981D01*
X0103768Y0054784D02*
X0103769Y0054784D01*
X0103768Y0053185D02*
X0103769Y0053185D01*
X0103562Y0051587D02*
X0110988Y0051587D01*
X0109390Y0053185D02*
X0107142Y0053185D01*
X0107143Y0054784D02*
X0107791Y0054784D01*
X0108151Y0049988D02*
X0112587Y0049988D01*
X0114185Y0048390D02*
X0109159Y0048390D01*
X0110758Y0046791D02*
X0115784Y0046791D01*
X0117382Y0045193D02*
X0112356Y0045193D01*
X0110179Y0041996D02*
X0054353Y0041996D01*
X0052755Y0043594D02*
X0108581Y0043594D01*
X0106982Y0045193D02*
X0051156Y0045193D01*
X0049558Y0046791D02*
X0102984Y0046791D01*
X0093707Y0053185D02*
X0091895Y0053185D01*
X0089718Y0056382D02*
X0048088Y0056382D01*
X0048088Y0054784D02*
X0088120Y0054784D01*
X0085531Y0053185D02*
X0048087Y0053185D01*
X0044762Y0051587D02*
X0085043Y0051587D01*
X0093707Y0057981D02*
X0048088Y0057981D01*
X0044713Y0056382D02*
X0044713Y0056382D01*
X0056830Y0063120D02*
X0063856Y0063120D01*
X0052856Y0074120D01*
X0046619Y0074120D01*
X0046315Y0073816D01*
X0046187Y0073762D01*
X0056830Y0063120D01*
X0055574Y0064375D02*
X0062600Y0064375D01*
X0061002Y0065974D02*
X0053976Y0065974D01*
X0052377Y0067572D02*
X0059403Y0067572D01*
X0057805Y0069171D02*
X0050779Y0069171D01*
X0049180Y0070769D02*
X0056206Y0070769D01*
X0054608Y0072368D02*
X0047582Y0072368D01*
X0046466Y0073966D02*
X0053009Y0073966D01*
X0056785Y0075565D02*
X0062900Y0075565D01*
X0064180Y0077163D02*
X0055186Y0077163D01*
X0058383Y0073966D02*
X0060513Y0073966D01*
X0064243Y0071533D02*
X0064711Y0072001D01*
X0065000Y0071713D01*
X0069309Y0071713D01*
X0070129Y0072533D01*
X0070129Y0075419D01*
X0070866Y0076156D01*
X0070866Y0075475D01*
X0074241Y0075475D01*
X0077616Y0075475D01*
X0077616Y0078074D01*
X0077493Y0078532D01*
X0077256Y0078942D01*
X0076921Y0079277D01*
X0076511Y0079514D01*
X0076053Y0079637D01*
X0074347Y0079637D01*
X0085630Y0090920D01*
X0139466Y0090920D01*
X0139770Y0090616D01*
X0140725Y0090220D01*
X0141743Y0090220D01*
X0141743Y0090220D01*
X0140725Y0090220D01*
X0139770Y0089824D01*
X0139038Y0089092D01*
X0138643Y0088137D01*
X0138643Y0087707D01*
X0118056Y0067120D01*
X0076219Y0067120D01*
X0075915Y0067424D01*
X0074960Y0067820D01*
X0073925Y0067820D01*
X0072970Y0067424D01*
X0072238Y0066692D01*
X0071843Y0065737D01*
X0071843Y0064720D01*
X0067630Y0064720D01*
X0062987Y0069362D01*
X0063115Y0069416D01*
X0063847Y0070147D01*
X0064243Y0071102D01*
X0064243Y0071533D01*
X0064104Y0070769D02*
X0121705Y0070769D01*
X0123303Y0072368D02*
X0077464Y0072368D01*
X0077493Y0072418D02*
X0077616Y0072876D01*
X0077616Y0075475D01*
X0074241Y0075475D01*
X0074241Y0075475D01*
X0074241Y0075475D01*
X0070866Y0075475D01*
X0070866Y0072876D01*
X0070989Y0072418D01*
X0071226Y0072007D01*
X0071561Y0071672D01*
X0071971Y0071435D01*
X0072429Y0071313D01*
X0074241Y0071313D01*
X0076053Y0071313D01*
X0076511Y0071435D01*
X0076921Y0071672D01*
X0077256Y0072007D01*
X0077493Y0072418D01*
X0077616Y0073966D02*
X0124902Y0073966D01*
X0126500Y0075565D02*
X0077616Y0075565D01*
X0077616Y0077163D02*
X0128099Y0077163D01*
X0129697Y0078762D02*
X0077360Y0078762D01*
X0075070Y0080360D02*
X0131296Y0080360D01*
X0132894Y0081959D02*
X0076668Y0081959D01*
X0078267Y0083557D02*
X0134493Y0083557D01*
X0136092Y0085156D02*
X0079865Y0085156D01*
X0081464Y0086754D02*
X0137690Y0086754D01*
X0138732Y0088353D02*
X0083063Y0088353D01*
X0084661Y0089951D02*
X0140077Y0089951D01*
X0141330Y0085020D02*
X0121029Y0064720D01*
X0122856Y0064720D01*
X0138643Y0080507D01*
X0138643Y0080937D01*
X0139038Y0081892D01*
X0139770Y0082624D01*
X0140725Y0083020D01*
X0141743Y0083020D01*
X0141743Y0085020D01*
X0141330Y0085020D01*
X0141743Y0083557D02*
X0139867Y0083557D01*
X0139105Y0081959D02*
X0138268Y0081959D01*
X0138496Y0080360D02*
X0136670Y0080360D01*
X0136897Y0078762D02*
X0135071Y0078762D01*
X0135299Y0077163D02*
X0133473Y0077163D01*
X0133700Y0075565D02*
X0131874Y0075565D01*
X0132102Y0073966D02*
X0130276Y0073966D01*
X0130503Y0072368D02*
X0128677Y0072368D01*
X0128905Y0070769D02*
X0127079Y0070769D01*
X0127306Y0069171D02*
X0125480Y0069171D01*
X0125708Y0067572D02*
X0123882Y0067572D01*
X0124109Y0065974D02*
X0122283Y0065974D01*
X0118508Y0067572D02*
X0075558Y0067572D01*
X0073328Y0067572D02*
X0064777Y0067572D01*
X0063179Y0069171D02*
X0120106Y0069171D01*
X0127885Y0064375D02*
X0141743Y0064375D01*
X0141743Y0062777D02*
X0126286Y0062777D01*
X0124688Y0061178D02*
X0141743Y0061178D01*
X0141743Y0065974D02*
X0129483Y0065974D01*
X0131082Y0067572D02*
X0141743Y0067572D01*
X0141743Y0069171D02*
X0132680Y0069171D01*
X0134279Y0070769D02*
X0141743Y0070769D01*
X0141743Y0072368D02*
X0135877Y0072368D01*
X0137476Y0073966D02*
X0141743Y0073966D01*
X0141743Y0075565D02*
X0139074Y0075565D01*
X0140673Y0077163D02*
X0141743Y0077163D01*
X0155411Y0075565D02*
X0155700Y0075565D01*
X0156757Y0077163D02*
X0157299Y0077163D01*
X0158255Y0078762D02*
X0158897Y0078762D01*
X0158255Y0080360D02*
X0160496Y0080360D01*
X0161743Y0081959D02*
X0158255Y0081959D01*
X0157419Y0083557D02*
X0161743Y0083557D01*
X0161743Y0085156D02*
X0155820Y0085156D01*
X0161743Y0088353D02*
X0148443Y0088353D01*
X0148443Y0089951D02*
X0161743Y0089951D01*
X0161743Y0091550D02*
X0148443Y0091550D01*
X0148443Y0093148D02*
X0161743Y0093148D01*
X0162673Y0077163D02*
X0163343Y0077163D01*
X0163343Y0075565D02*
X0161074Y0075565D01*
X0159476Y0073966D02*
X0163343Y0073966D01*
X0162503Y0072368D02*
X0158255Y0072368D01*
X0158255Y0070769D02*
X0160905Y0070769D01*
X0159306Y0069171D02*
X0158255Y0069171D01*
X0157708Y0067572D02*
X0157165Y0067572D01*
X0156109Y0065974D02*
X0155567Y0065974D01*
X0208707Y0040397D02*
X0266732Y0040397D01*
X0267014Y0041996D02*
X0210306Y0041996D01*
X0252541Y0091550D02*
X0253353Y0091550D01*
X0253353Y0093148D02*
X0250942Y0093148D01*
X0162425Y0157089D02*
X0161143Y0157089D01*
X0161143Y0158687D02*
X0164023Y0158687D01*
X0165622Y0160286D02*
X0161143Y0160286D01*
X0162594Y0161884D02*
X0167220Y0161884D01*
X0168819Y0163483D02*
X0164193Y0163483D01*
X0165791Y0165081D02*
X0170417Y0165081D01*
X0155743Y0163483D02*
X0149408Y0163483D01*
X0151006Y0161884D02*
X0155743Y0161884D01*
X0155743Y0160286D02*
X0152605Y0160286D01*
X0154203Y0158687D02*
X0155743Y0158687D01*
X0145071Y0169877D02*
X0143014Y0169877D01*
X0166981Y0176271D02*
X0171607Y0176271D01*
X0173205Y0177869D02*
X0168579Y0177869D01*
X0170178Y0179468D02*
X0174804Y0179468D01*
X0175797Y0181066D02*
X0171776Y0181066D01*
X0173375Y0182665D02*
X0174579Y0182665D01*
X0182238Y0192256D02*
X0183778Y0192256D01*
X0186238Y0195453D02*
X0224254Y0195453D01*
X0224193Y0193854D02*
X0187836Y0193854D01*
X0189435Y0192256D02*
X0224748Y0192256D01*
X0225012Y0197051D02*
X0184639Y0197051D01*
X0183041Y0198650D02*
X0227393Y0198650D01*
X0229593Y0198650D02*
X0236381Y0198650D01*
X0234573Y0197051D02*
X0231974Y0197051D01*
X0232732Y0195453D02*
X0233893Y0195453D01*
X0233829Y0193854D02*
X0232793Y0193854D01*
X0232238Y0192256D02*
X0234337Y0192256D01*
X0082484Y0093148D02*
X0044343Y0093148D01*
X0044343Y0091550D02*
X0080886Y0091550D01*
X0079287Y0089951D02*
X0044343Y0089951D01*
X0044343Y0088353D02*
X0077689Y0088353D01*
X0076090Y0086754D02*
X0044343Y0086754D01*
X0044343Y0085156D02*
X0074492Y0085156D01*
X0072893Y0083557D02*
X0044343Y0083557D01*
X0044343Y0081959D02*
X0071294Y0081959D01*
X0069696Y0080360D02*
X0044343Y0080360D01*
X0044343Y0078762D02*
X0064524Y0078762D01*
X0070274Y0075565D02*
X0070866Y0075565D01*
X0070866Y0073966D02*
X0070129Y0073966D01*
X0069964Y0072368D02*
X0071018Y0072368D01*
X0074241Y0072368D02*
X0074241Y0072368D01*
X0074241Y0071313D02*
X0074241Y0075475D01*
X0074241Y0075475D01*
X0074241Y0071313D01*
X0074241Y0073966D02*
X0074241Y0073966D01*
X0071941Y0065974D02*
X0066376Y0065974D01*
D26*
X0146443Y0057620D02*
X0146443Y0094020D01*
X0144443Y0096020D01*
X0144443Y0146420D01*
X0150043Y0152020D01*
X0150398Y0152345D01*
X0155643Y0154420D02*
X0155643Y0148420D01*
X0149643Y0142420D01*
X0149398Y0142345D01*
X0155643Y0154420D02*
X0144043Y0166020D01*
X0176843Y0198820D01*
X0180043Y0198820D01*
X0208443Y0170420D01*
X0223643Y0170420D01*
X0224043Y0170020D01*
X0228443Y0174420D01*
X0228493Y0174451D01*
X0228843Y0174820D01*
X0238443Y0184420D01*
X0238493Y0184451D01*
X0255643Y0189220D02*
X0269643Y0203220D01*
X0270009Y0203664D01*
X0270043Y0203620D01*
X0274843Y0198820D01*
X0274843Y0169620D01*
X0270043Y0164820D01*
X0270043Y0159220D01*
X0270009Y0158880D01*
X0224043Y0170020D02*
X0224043Y0144020D01*
X0218843Y0138820D01*
X0218843Y0134820D01*
X0218493Y0134451D01*
X0219243Y0134420D01*
X0233643Y0120020D01*
X0238843Y0120020D01*
X0244843Y0114020D01*
X0244843Y0096420D01*
X0254043Y0087220D01*
X0284443Y0087220D01*
X0288043Y0083620D01*
X0288043Y0062420D01*
X0281243Y0055620D02*
X0280934Y0055790D01*
X0280843Y0055220D01*
X0275243Y0049620D01*
X0272043Y0044820D02*
X0271643Y0044420D01*
X0279643Y0036420D01*
X0283643Y0036420D01*
X0283887Y0036105D01*
X0271643Y0044420D02*
X0270843Y0045220D01*
X0237643Y0045220D01*
X0222843Y0060020D01*
X0218843Y0060020D01*
X0218808Y0060211D01*
X0281243Y0055620D02*
X0304043Y0055620D01*
X0316443Y0043220D01*
X0316443Y0040020D01*
X0316820Y0039983D01*
X0284443Y0087220D02*
X0361243Y0164020D01*
X0361243Y0204020D01*
X0361288Y0204215D01*
X0255643Y0189220D02*
X0193243Y0189220D01*
X0144043Y0166020D02*
X0106043Y0204020D01*
X0086043Y0204020D01*
X0085698Y0204215D01*
X0258394Y0114746D02*
X0258394Y0105101D01*
X0260953Y0105101D02*
X0261243Y0105220D01*
X0260954Y0105101D01*
X0278443Y0110420D02*
X0279243Y0109620D01*
X0279243Y0098420D01*
X0281243Y0096420D01*
X0290843Y0096420D01*
X0304443Y0110020D01*
X0304443Y0117620D01*
X0299643Y0122420D01*
X0299643Y0123620D01*
X0299497Y0123821D01*
X0284654Y0126302D02*
X0284443Y0126020D01*
X0282443Y0124020D01*
X0278443Y0124020D01*
X0278443Y0110420D01*
X0268043Y0124020D02*
X0261243Y0117220D01*
X0261243Y0114820D01*
X0260954Y0114746D01*
X0268043Y0124020D02*
X0278443Y0124020D01*
D27*
X0256524Y0132561D03*
X0252843Y0124420D03*
X0248843Y0117620D03*
X0232043Y0112020D03*
X0227243Y0107220D03*
X0213217Y0120750D03*
X0193532Y0124687D03*
X0191564Y0116813D03*
X0177243Y0119220D03*
X0165973Y0112876D03*
X0163243Y0117220D03*
X0195501Y0105002D03*
X0159643Y0098820D03*
X0147643Y0096420D03*
X0141243Y0092820D03*
X0141243Y0087620D03*
X0141243Y0080420D03*
X0128965Y0071931D03*
X0146443Y0057620D03*
X0128572Y0049884D03*
X0121879Y0041223D03*
X0106043Y0048420D03*
X0087643Y0051620D03*
X0071091Y0055790D03*
X0059674Y0063664D03*
X0061643Y0071620D03*
X0058493Y0076656D03*
X0044843Y0076020D03*
X0074443Y0065220D03*
X0115973Y0087680D03*
X0160068Y0089254D03*
X0194843Y0071220D03*
X0178443Y0068020D03*
X0171243Y0063220D03*
X0167942Y0065632D03*
X0168843Y0058420D03*
X0183690Y0051853D03*
X0202843Y0046420D03*
X0222843Y0056420D03*
X0248843Y0060820D03*
X0268335Y0053821D03*
X0275243Y0049620D03*
X0272043Y0044820D03*
X0288020Y0049884D03*
X0290776Y0042404D03*
X0301243Y0035220D03*
X0306043Y0035220D03*
X0308443Y0032820D03*
X0304843Y0029220D03*
X0289989Y0027837D03*
X0264398Y0036105D03*
X0288043Y0062420D03*
X0282115Y0073506D03*
X0258493Y0099097D03*
X0274241Y0108939D03*
X0232902Y0128624D03*
X0232902Y0140435D03*
X0250619Y0150278D03*
X0255243Y0141620D03*
X0211249Y0183743D03*
X0193243Y0189220D03*
X0162036Y0169963D03*
X0152194Y0166026D03*
X0164005Y0160120D03*
X0132509Y0167994D03*
X0102981Y0195554D03*
X0045894Y0103034D03*
X0028443Y0051620D03*
X0079643Y0032020D03*
X0162843Y0036420D03*
X0164843Y0038820D03*
X0323454Y0183743D03*
M02*
